<svg version="1.1" id="Слой_1" xmlns="http://www.w3.org/2000/svg" viewBox="166.6 434.2 43 43" style="fill:#fff;">
<g>
	<g>
		<path d="M166.6,467.5c0-2.5,0-5,0-7.6c0.2-0.4,0.5-0.7,0.9-0.7c0.4,0,0.4-0.2,0.4-0.5c0-3.8,0-7.7,0-11.5c0-1.3,0.7-2.1,2.1-2.1
			c0.9,0,1.8,0,2.8,0c0.4,0,0.5-0.1,0.5-0.5c0-1.3,0-2.6,0-3.9c0-0.2,0-0.4,0.1-0.5c0.2-1,1-1.5,2.1-1.5c3.6,0,7.2,0,10.8,0
			c0.1,0,0.3,0,0.4,0c0.8,0.1,1.5,0.6,1.7,1.4c0.1,0.3,0.1,0.6,0.1,1c0,2.6,0,5.2,0,7.8c0,0.3,0.1,0.4,0.4,0.4c1.2,0,2.5,0,3.7,0
			c0.4,0,0.4-0.1,0.4-0.5c0-0.5,0-1,0-1.5c0-0.5,0.4-0.8,0.9-0.8c1.8,0,3.6-0.1,5.4,0.1c2.5,0.3,4.7,1.4,6.3,3.4
			c1.2,1.5,1.9,3.3,2.4,5.2c0.7,3,1,6.1,1.4,9.1c0.1,0.7,0.1,1.5,0.3,2.2c0,0.3,0,0.7,0,1c-0.4,1.1-1.2,1.6-2.4,1.5
			c-0.3,0-0.6,0-0.9,0c-0.2,0-0.3,0.1-0.4,0.3c-0.5,2-2.3,3.3-4.3,3.3c-2,0-3.8-1.3-4.3-3.3c-0.1-0.2-0.1-0.3-0.4-0.3
			c-5.8,0-11.6,0-17.5,0c-0.2,0-0.3,0.1-0.4,0.3c-0.6,2-2.3,3.4-4.3,3.4c-2,0-3.8-1.3-4.3-3.3c-0.1-0.2-0.2-0.3-0.4-0.3
			c-0.4,0-0.8,0-1.2,0C167.8,469.1,167,468.6,166.6,467.5z M180.8,453.2c0-1.9,0-3.7,0-5.6c0-0.4-0.1-0.5-0.5-0.5
			c-3.3,0-6.6,0-9.9,0c-0.3,0-0.4,0.1-0.4,0.4c0,3.8,0,7.5,0,11.2c0,0.3,0.1,0.4,0.4,0.4c3.3,0,6.7,0,10,0c0.3,0,0.4-0.1,0.4-0.4
			C180.8,457,180.8,455.1,180.8,453.2z M180.8,461.3c-2.6,0-5.3,0-7.9,0c-1.3,0-2.6,0-3.9,0c-0.2,0-0.4,0-0.4,0.3c0,1.7,0,3.4,0,5.2
			c0,0.2,0.1,0.3,0.3,0.3c0.4,0,0.8,0,1.2,0c0.3,0,0.4-0.1,0.5-0.4c0.7-1.8,2.3-2.9,4.2-2.9c1.9,0,3.5,1.1,4.2,2.9
			c0.1,0.3,0.2,0.3,0.5,0.3c4.3,0,8.7,0,13.1,0c0.3,0,0.4-0.1,0.4-0.4c0-1.6,0-3.2,0-4.8c0-0.4-0.1-0.5-0.5-0.5
			C188.5,461.3,184.6,461.3,180.8,461.3z M195,457.7c0,0.5,0,0.9,0,1.4c0,2.5,0,5,0,7.5c0,0.3,0.1,0.4,0.4,0.4c0.5,0,1,0,1.5,0
			c0.3,0,0.5-0.1,0.6-0.4c0.7-1.7,2-2.7,3.9-2.8c1.9-0.1,3.4,0.6,4.2,2.3c0.4,0.9,0.9,1,1.7,0.9c0.2,0,0.3-0.1,0.3-0.3
			c-0.2-2.7-0.5-5.4-0.9-8.1c0-0.3-0.2-0.4-0.5-0.4c-2.3,0-4.5,0-6.8,0c-0.9,0-1.3-0.3-1.3-1.3c0-2.7,0-5.4,0-8.1
			c0-0.3-0.1-0.4-0.4-0.4c-0.8,0-1.5,0-2.3,0c-0.4,0-0.4,0.1-0.4,0.4C195,451.8,195,454.8,195,457.7z M187.9,459.2
			c1.6,0,3.1,0,4.7,0c0.3,0,0.4-0.1,0.4-0.4c0-2.4,0-4.8,0-7.2c0-0.3-0.1-0.4-0.4-0.4c-3.1,0-6.2,0-9.3,0c-0.3,0-0.4,0.1-0.4,0.4
			c0,2.4,0,4.8,0,7.2c0,0.4,0.1,0.4,0.4,0.4C184.8,459.2,186.3,459.2,187.9,459.2z M180.9,440.7c-1.7,0-3.4,0-5.1,0
			c-0.4,0-0.5,0.1-0.5,0.5c0,1.2,0,2.3,0,3.5c0,0.4,0.1,0.4,0.5,0.4c1.7,0,3.3,0,5,0c1.3,0,2.1,0.8,2.1,2.1c0,0.6,0,1.2,0,1.7
			c0,0.3,0.1,0.3,0.3,0.3c0.9,0,1.9,0,2.8,0c0.3,0,0.3-0.1,0.3-0.4c0-2.6,0-5.2,0-7.8c0-0.3-0.1-0.4-0.4-0.4
			C184.3,440.7,182.6,440.7,180.9,440.7z M203.1,456.2c0.9,0,1.8,0,2.7,0c0.2,0,0.3,0,0.2-0.3c-0.2-0.9-0.5-1.8-0.9-2.6
			c-0.9-2.1-2.4-3.7-4.8-4.4c-0.3-0.1-0.4-0.1-0.4,0.3c0,2.2,0,4.5,0,6.7c0,0.3,0.1,0.4,0.4,0.4
			C201.4,456.2,202.2,456.2,203.1,456.2z M201.6,470.7c1.3,0,2.4-1.1,2.5-2.4c0-1.4-1.1-2.5-2.4-2.5c-1.3,0-2.5,1.1-2.5,2.5
			C199.2,469.6,200.3,470.6,201.6,470.7z M174.8,470.7c1.3,0,2.4-1.1,2.4-2.4c0-1.3-1.1-2.5-2.5-2.5c-1.3,0-2.4,1.1-2.4,2.4
			C172.4,469.6,173.5,470.7,174.8,470.7z"/>
	</g>
</g>
</svg>
