<svg version="1.1" id="Слой_1" xmlns="http://www.w3.org/2000/svg" viewBox="203.3 406.4 43 43" style="fill:#fff;">
<g>
	<g>
		<path d="M203.3,427.7c0.4-2,1-3.9,1.9-5.7c3.3-6.4,8.5-10.4,15.6-11.8c0.8-0.2,1.7-0.3,2.5-0.3c0.3,0,0.3-0.1,0.3-0.4
			c0-0.4,0-0.8,0-1.3c0.1-0.7,0.5-1.1,1.1-1.1c0.5,0,0.9,0.3,1,0.8c0.1,0.5,0.1,0.9,0.1,1.4c0,0.3,0.1,0.4,0.4,0.5
			c5.1,0.4,9.5,2.3,13.3,5.7c3.5,3.2,5.7,7.2,6.6,11.8c0,0.1,0,0.2,0.1,0.2c0,0.3,0,0.6,0,0.8c-0.3,0.4-0.6,0.7-1.2,0.7
			c-0.5-0.1-0.8-0.4-1-0.9c-0.7-1.7-2.2-2.8-4-2.8c-1.8,0-3.3,1.1-4,2.8c-0.2,0.4-0.4,0.8-0.8,0.9c-0.6,0.2-1.1-0.1-1.4-0.8
			c-0.5-1.4-1.5-2.3-3-2.7c-1.9-0.5-3.9,0.4-4.9,2.1c-0.2,0.3-0.2,0.6-0.2,1c0,5,0,9.9,0,14.9c0,1.7-0.5,3.1-1.9,4.2
			c-1.5,1.1-3.1,1.2-4.8,0.4c-1.6-0.8-2.4-2.2-2.5-4c0-0.6,0.4-1.1,1-1.1c0.5-0.1,1,0.3,1.2,0.9c0,0.2,0,0.4,0.1,0.7
			c0.2,1.2,1.3,2,2.6,1.9c1.1-0.1,2.1-1.1,2.2-2.1c0-0.2,0-0.4,0-0.6c0-5,0-10,0-15c0-0.4-0.1-0.8-0.3-1.2c-0.9-1.5-2.3-2.2-4.1-2.1
			c-1.7,0.2-2.9,1.1-3.6,2.7c0,0.1-0.1,0.2-0.1,0.2c-0.2,0.5-0.5,0.7-1,0.7c-0.5,0-0.8-0.3-1-0.7c-0.2-0.5-0.4-0.9-0.7-1.3
			c-2-2.6-6.1-2.1-7.4,1c0,0,0,0.1-0.1,0.1c-0.2,0.5-0.5,0.9-1,0.9c-0.5,0.1-0.9-0.3-1.1-0.7C203.3,428.2,203.3,428,203.3,427.7z
			 M242.9,423.9c-2.6-6.4-10-12.9-20.2-11.9c-8.1,0.8-13.9,6.5-15.9,11.8c0.2,0,0.3-0.1,0.5-0.1c2.5-0.9,5.3-0.2,6.9,1.6
			c0.5,0.5,0.4,0.4,0.8,0c2.6-2.7,6.7-2.8,9.3-0.2c0.6,0.6,0.6,0.6,1.1,0c0.1-0.1,0.1-0.1,0.2-0.1c2.8-2.5,6.7-2.3,9.2,0.4
			c0.3,0.3,0.4,0.3,0.6,0c1.5-1.7,3.5-2.4,5.7-2.1C241.7,423.5,242.3,423.7,242.9,423.9z"/>
	</g>
</g>
</svg>
