<svg version="1.1" id="Слой_1" xmlns="http://www.w3.org/2000/svg" viewBox="106.8 657.3 43 43" style="fill:#fff">
<g>
	<g>
		<path d="M142.8,700.3c-9.6,0-19.3,0-28.9,0c-1.7-0.6-2.4-1.5-2.4-3.3c0-1,0-2,0-3c0-0.3-0.1-0.5-0.4-0.6c-1-0.6-1.6-1.5-1.6-2.7
			c0-2.6,0-5.2,0-7.8c0-1.2,0.5-2.1,1.6-2.7c0.3-0.2,0.4-0.3,0.4-0.6c0-1.1,0-2.2,0-3.3c0-0.8,0.3-1.5,0.9-2.1
			c0.7-0.7,1.5-0.9,2.5-0.9c0.5,0,0.6,0,0.6-0.5c0-0.6,0-1.2,0-1.8c0-1.5,1.1-2.7,2.5-2.9c0.5-0.1,0.9-0.1,1.4-0.1
			c0.6,0,0.6,0,0.6-0.6c0-2.9,0-5.9,0-8.8c0-0.6,0.2-1,0.7-1.3c5.7,0,11.4,0,17.1,0c0.5,0.3,0.6,0.7,0.6,1.3c0,3,0,6,0,8.9
			c0,0.4,0.1,0.5,0.5,0.5c1,0,2,0,2.9,0c3.3,0,5.1,2.8,5.1,5.1c-0.1,7.4,0,14.8,0,22.2c0,0.7-0.1,1.4-0.4,2
			C145.7,699,144.5,699.9,142.8,700.3z M128.3,698.2c4.6,0,9.1,0,13.6,0c1.3,0,2.3-0.8,2.7-1.9c0.1-0.4,0.1-0.8,0.1-1.2
			c0-7.2,0-14.5,0-21.7c0-0.2,0-0.3,0-0.5c-0.1-1.4-1-2.5-2.4-2.7c-1.3-0.2-2.5-0.1-3.8-0.1c-0.2,0-0.3,0.2-0.3,0.4
			c0,0.8,0,1.6,0,2.4c0,0.3,0.1,0.4,0.4,0.4c0.5,0,1,0,1.5,0c0.4,0,0.5-0.2,0.6-0.5c0.1-0.6,0.6-1,1.2-0.9s0.9,0.6,0.8,1.3
			c-0.2,1.3-1.2,2.2-2.5,2.2c-8.5,0-16.9,0-25.4,0c-0.2,0-0.5,0-0.7,0.1c-0.5,0.1-0.8,0.4-0.8,0.9c0,1.1,0,2.1,0,3.2
			c0,0.3,0.1,0.4,0.4,0.4c0.4,0,0.8,0,1.2,0c0.5,0,0.9,0.4,0.9,0.9c0.1,0.5-0.2,0.9-0.7,1.1c-0.2,0.1-0.4,0.1-0.7,0.1
			c-0.7,0-1.3,0-2,0c-0.8,0-1.1,0.3-1.1,1.1c0,2.5,0,5,0,7.5c0,0.8,0.3,1.1,1.1,1.1c1.9,0,3.7,0,5.6,0c0.3,0,0.6,0,0.9-0.1
			c2.3-0.4,4-2.4,4.1-4.6c0-2.4-1.6-4.5-3.9-4.9c-0.4-0.1-0.8-0.1-1.1-0.1c-0.5-0.1-0.9-0.6-0.8-1.1c0.1-0.5,0.5-0.9,1-0.9
			c0.4,0,0.8,0,1.2,0.1c3.6,0.6,6.2,4.1,5.7,7.6c-0.5,3.6-3.4,6.1-7.1,6.1c-1.4,0-2.8,0-4.2,0c-0.4,0-0.5,0.1-0.5,0.5
			c0,0.9,0,1.8,0,2.7c0,0.9,0.3,1.2,1.2,1.2C119.3,698.2,123.8,698.2,128.3,698.2z M129.2,659.3c-2.2,0-4.4,0-6.6,0
			c-0.4,0-0.5,0.1-0.5,0.5c0,4.3,0,8.7,0,13c0,0.4,0.1,0.5,0.5,0.5c1.1,0,2.1,0,3.2,0c0.4,0,0.5-0.1,0.5-0.5c0-1.3,0-2.5,0-3.8
			c0-0.8,0-1.5,0-2.3c0-0.6,0.3-1,0.8-1.2c0.7-0.2,1.3,0.3,1.3,1c0,1.9,0,3.8,0,5.6c0,1.2-0.2,1.1,1.1,1.1c0.8,0,0.8,0,0.8-0.8
			c0-1.9,0-3.9,0-5.8c0-0.7,0.4-1.2,1-1.2c0.6,0,1,0.4,1,1.1c0,2,0,4,0,6c0,0.6,0,0.6,0.6,0.6c1,0,2,0,3,0c0.5,0,0.6,0,0.6-0.6
			c0-4.3,0-8.6,0-12.8c0-0.6,0-0.6-0.6-0.6C133.6,659.3,131.4,659.3,129.2,659.3z M120,671.7L120,671.7c0-0.4,0-0.8,0-1.3
			c0-0.2-0.1-0.4-0.4-0.4c-0.4,0-0.8,0-1.2,0c-0.6,0-0.9,0.4-0.9,1c0,0.6,0,1.2,0,1.8c0,0.4,0.1,0.5,0.5,0.5c0.5,0,1,0,1.6,0
			c0.4,0,0.5-0.2,0.5-0.5C120,672.4,120,672.1,120,671.7z"/>
		<path d="M121.9,686.8c0,1.9-1.5,3.5-3.5,3.5c-1.9,0-3.5-1.6-3.5-3.5c0-1.9,1.5-3.5,3.5-3.5C120.4,683.3,121.9,684.9,121.9,686.8z
			 M119.8,686.8c0-0.8-0.6-1.4-1.4-1.4c-0.8,0-1.4,0.6-1.4,1.4c0,0.8,0.6,1.4,1.4,1.4C119.2,688.2,119.8,687.6,119.8,686.8z"/>
	</g>
</g>
</svg>
