<?xml version="1.0" encoding="utf-8"?>
<!-- Generator: Adobe Illustrator 19.0.1, SVG Export Plug-In . SVG Version: 6.00 Build 0)  -->
<svg version="1.1" id="Лого_1_" xmlns="http://www.w3.org/2000/svg" xmlns:xlink="http://www.w3.org/1999/xlink" x="0px"
	 y="0px" viewBox="0 0 115.6 30" style="enable-background:new 0 0 115.6 30;" xml:space="preserve">
<style type="text/css">
	.st0{fill:#607D8B;}
	.st1{fill-rule:evenodd;clip-rule:evenodd;fill:#F38EB0;}
	.st2{fill-rule:evenodd;clip-rule:evenodd;fill:#C5E0A5;}
	.st3{fill-rule:evenodd;clip-rule:evenodd;fill:#C593C2;}
	.st4{fill-rule:evenodd;clip-rule:evenodd;fill:#FFDF80;}
	.st5{fill-rule:evenodd;clip-rule:evenodd;fill:#82D2F5;}
</style>
<g id="Agelia">
	<g>
		<path class="st0" d="M41.5,14.2c0.4-0.8,0.7-1.5,0.9-2s0.4-1,0.5-1.6c0.2-0.6,0.2-1.2,0.2-1.7c0-0.8,0.2-1.5,0.6-2
			c0.4-0.5,1.1-0.7,2.1-0.7c0.9,0,1.6,0.3,2.2,1c0.6,0.6,1.2,1.5,1.8,2.5c0.2,0.3,0.9,1.8,2.2,4.3c1.2,2.5,2,4.2,2.4,5.1
			c0.2,0.4,0.4,0.6,0.6,0.8c0.2,0.1,0.4,0.3,0.7,0.3c0.3,0.1,0.4,0.2,0.6,0.3c0.1,0.1,0.2,0.3,0.2,0.6c0,0.5-0.2,0.8-0.7,1
			c-0.5,0.2-1,0.4-1.6,0.4c-0.6,0.1-1.3,0.1-2,0.1c-1.3,0-2.3,0-3-0.1c-0.7,0-1.2-0.2-1.6-0.4c-0.4-0.2-0.6-0.5-0.6-1
			c0-0.2,0.1-0.4,0.2-0.5c0.1-0.1,0.3-0.2,0.5-0.3c0.2-0.1,0.4-0.2,0.5-0.2s0.2-0.2,0.2-0.4c0-0.4-0.1-0.6-0.3-0.8
			c-0.2-0.1-0.6-0.2-1.1-0.3s-1.5-0.1-2.8-0.1c-0.7,0-1.2,0.1-1.4,0.2c-0.3,0.1-0.4,0.4-0.4,1c0,0.2,0.1,0.3,0.2,0.4
			c0.1,0.1,0.3,0.1,0.5,0.2c0.2,0.1,0.4,0.2,0.6,0.3c0.1,0.1,0.2,0.3,0.2,0.6c0,0.9-1.1,1.4-3.3,1.4c-1,0-1.8-0.1-2.3-0.2
			c-0.5-0.1-0.8-0.3-1-0.5c-0.2-0.2-0.2-0.4-0.2-0.7c0-0.3,0.1-0.5,0.2-0.6c0.1-0.1,0.4-0.2,0.8-0.4c0.4-0.2,0.7-0.3,0.8-0.6
			c0.3-0.3,0.7-1.1,1.3-2.4L41.5,14.2z M46.2,15.9c0.6,0,0.9-0.1,0.9-0.3c0-0.2-0.3-0.8-0.8-1.8c-0.2-0.4-0.4-0.7-0.5-0.9
			c-0.2-0.2-0.3-0.3-0.6-0.3c-0.2,0-0.3,0.1-0.4,0.3c-0.1,0.2-0.2,0.4-0.3,0.6c-0.1,0.2-0.2,0.4-0.2,0.7c0,0.1-0.1,0.3-0.2,0.5
			c-0.1,0.2-0.1,0.4-0.2,0.5c-0.1,0.2-0.1,0.3-0.1,0.4c0,0.1,0.1,0.2,0.2,0.3c0.1,0,0.3,0.1,0.6,0.1H46.2z"/>
		<path class="st0" d="M63.1,26.9c-1.9,0-3.4-0.3-4.3-0.9s-1.4-1.3-1.4-2.1c0-0.4,0.1-0.7,0.3-0.9c0.2-0.2,0.4-0.4,0.6-0.5
			s0.4-0.2,0.4-0.3c0-0.1-0.1-0.2-0.4-0.5c-0.2-0.2-0.4-0.5-0.6-0.7c-0.2-0.2-0.2-0.5-0.2-0.8c0-0.5,0.1-0.8,0.4-1.1
			c0.3-0.3,0.6-0.6,0.9-0.8c0.4-0.2,0.5-0.4,0.5-0.4c0,0-0.1-0.2-0.4-0.6c-0.3-0.3-0.5-0.7-0.8-1.1c-0.2-0.4-0.3-0.8-0.3-1.3
			c0-0.6,0.2-1.2,0.5-1.7c0.4-0.5,0.8-0.9,1.4-1.3s1.2-0.6,1.8-0.7c0.7-0.2,1.3-0.3,1.9-0.3c0.3,0,0.6,0,0.9,0.1
			c0.2,0,0.7,0.1,1.3,0.2s1.1,0.2,1.3,0.2c0.5,0,0.9-0.1,1.3-0.2c0.4-0.2,0.7-0.4,1-0.6c0.3-0.2,0.5-0.4,0.6-0.4
			c0.2,0,0.4,0.1,0.5,0.4s0.2,0.5,0.2,0.7c0,0.4-0.1,0.7-0.3,1c-0.2,0.3-0.4,0.6-0.6,0.9c-0.2,0.3-0.4,0.4-0.4,0.5
			c0,0.1,0,0.2,0,0.4s0,0.3,0,0.3c0,0.7-0.2,1.3-0.6,1.9c-0.4,0.5-0.9,1-1.5,1.3c-0.6,0.3-1.2,0.6-1.9,0.7s-1.4,0.2-2,0.2
			c-0.1,0-0.3,0-0.6,0c-0.2,0-0.4,0-0.6,0c-0.4,0-0.6,0.2-0.6,0.6c0,0.3,0.2,0.5,0.5,0.6c0.3,0.1,0.7,0.2,1,0.2c0.2,0,0.5,0,0.9-0.1
			c0.4,0,0.9-0.1,1.3-0.1s0.8-0.1,1.1-0.1s0.6,0,0.8,0c0.7,0,1.4,0.1,1.9,0.4c0.5,0.2,0.9,0.6,1.1,1s0.4,0.8,0.4,1.3
			c0,0.5-0.1,1.1-0.4,1.6s-0.7,1.1-1.3,1.5c-0.6,0.5-1.4,0.9-2.3,1.1S64.4,26.9,63.1,26.9z M63.3,25c0.6,0,1.1-0.1,1.7-0.2
			c0.5-0.2,0.8-0.5,0.8-0.9c0-0.2-0.1-0.4-0.3-0.5s-0.4-0.2-0.6-0.2c-0.1,0-0.4,0-0.8,0.1c-0.5,0-0.8,0.1-1.1,0.1
			c-0.2,0-0.6,0-1.1-0.1s-0.8-0.1-0.9-0.1c-0.2,0-0.3,0.1-0.3,0.4c0,0.5,0.3,0.9,0.9,1.1C62.1,24.9,62.7,25,63.3,25z M63.4,12.6
			c-0.4,0-0.7,0.2-0.9,0.5c-0.2,0.3-0.3,0.7-0.3,1.1c0,0.6,0.1,1.3,0.3,1.8c0.2,0.6,0.6,0.9,1.1,0.9c0.5,0,0.8-0.2,1-0.5
			c0.2-0.3,0.3-0.8,0.3-1.3c0-0.7-0.1-1.3-0.3-1.8C64.3,12.9,64,12.6,63.4,12.6z"/>
		<path class="st0" d="M77.1,17.2c-0.2,0-0.4,0-0.5,0.1c-0.1,0-0.1,0.1-0.1,0.3c0,0.4,0.1,0.7,0.4,1c0.3,0.3,0.6,0.6,1,0.8
			s0.8,0.3,1.1,0.3c0.5,0,0.9-0.1,1.3-0.2s0.7-0.3,1-0.5s0.6-0.3,0.7-0.3c0.2,0,0.4,0.1,0.6,0.4c0.2,0.3,0.3,0.5,0.3,0.7
			c0,0.5-0.3,1-0.8,1.5c-0.6,0.5-1.3,0.8-2.1,1.1c-0.8,0.3-1.6,0.4-2.3,0.4c-1.3,0-2.4-0.3-3.3-0.8c-0.9-0.6-1.6-1.3-2.1-2.2
			c-0.5-0.9-0.7-1.8-0.7-2.8c0-1.1,0.3-2.1,0.9-3.1c0.6-0.9,1.4-1.6,2.3-2.2c1-0.5,2-0.8,3.1-0.8c0.9,0,1.7,0.2,2.4,0.5
			s1.3,0.7,1.7,1.2c0.4,0.5,0.8,1,1,1.5c0.2,0.5,0.3,1,0.3,1.5c0,0.7-0.1,1.1-0.4,1.4s-0.6,0.3-1,0.3H77.1z M79.1,14.3
			c0-0.4-0.1-0.8-0.4-1c-0.2-0.3-0.6-0.4-1-0.4c-0.4,0-0.7,0.2-0.9,0.5c-0.3,0.3-0.4,0.7-0.4,1c0,0.4,0.3,0.7,0.8,0.7
			c0.1,0,0.1,0,0.3,0c0.1,0,0.2,0,0.3,0h0.5c0.3,0,0.5,0,0.6-0.1C79,14.8,79.1,14.6,79.1,14.3z"/>
		<path class="st0" d="M91.3,18.3c0,0.8,0,1.3,0.1,1.5c0.1,0.2,0.1,0.3,0.2,0.4c0.1,0.1,0.2,0.2,0.5,0.2c0.2,0.1,0.4,0.2,0.4,0.3
			c0.1,0.1,0.1,0.3,0.1,0.5c0,0.6-0.3,1-1,1.1c-0.7,0.2-1.6,0.3-2.7,0.3h-0.5c-2.5,0-3.7-0.5-3.7-1.5c0-0.2,0-0.3,0.1-0.4
			c0.1-0.1,0.2-0.2,0.4-0.3c0.2-0.1,0.3-0.2,0.4-0.3c0.1-0.1,0.2-0.2,0.3-0.4c0.2-0.6,0.3-2.2,0.3-4.8c0-1.7-0.1-2.9-0.2-3.6
			c-0.1-0.4-0.2-0.7-0.3-0.8c-0.2-0.2-0.4-0.3-0.6-0.5c-0.2-0.1-0.4-0.3-0.5-0.4c-0.1-0.1-0.2-0.3-0.2-0.6c0-0.6,0.4-1.1,1.3-1.4
			s1.8-0.6,2.8-0.8s1.7-0.2,2-0.2c0.6,0,0.9,0.4,0.9,1.2c0,0.1,0,0.5-0.1,1.3c-0.1,0.8-0.1,1.5-0.1,2.3c0,0.8-0.1,1.7-0.1,2.6V18.3z
			"/>
		<path class="st0" d="M100.3,18.2c0,0.6,0.1,1.1,0.2,1.3c0.1,0.3,0.3,0.5,0.4,0.6c0.2,0.1,0.3,0.2,0.5,0.4s0.2,0.3,0.2,0.6
			c0,1-1.3,1.5-3.9,1.5c-1.7,0-2.8-0.1-3.3-0.4c-0.5-0.3-0.7-0.6-0.7-1c0-0.2,0-0.4,0.1-0.5c0.1-0.1,0.3-0.3,0.5-0.5
			s0.4-0.4,0.5-0.6c0.2-0.5,0.2-1.4,0.2-2.8c0-1-0.1-1.7-0.2-2.1c0-0.2-0.1-0.3-0.2-0.4c-0.1-0.1-0.3-0.2-0.5-0.3
			c-0.2-0.1-0.4-0.2-0.5-0.3s-0.2-0.3-0.2-0.5c0-0.4,0.3-0.7,0.8-1s1.2-0.5,1.9-0.7c0.7-0.2,1.4-0.3,2.1-0.4s1-0.2,1.2-0.2
			c0.3,0,0.5,0.1,0.6,0.3c0.1,0.2,0.1,0.4,0.1,0.7V18.2z M95.9,10.2c-0.5,0-1-0.1-1.4-0.4c-0.4-0.3-0.6-0.6-0.6-1.1
			c0-0.5,0.2-0.8,0.7-1.2c0.5-0.3,1.1-0.6,1.7-0.7c0.7-0.2,1.2-0.2,1.7-0.2c0.6,0,1.1,0.1,1.5,0.3c0.4,0.2,0.7,0.6,0.7,1.1
			c0,0.5-0.3,1-0.8,1.3C99,9.6,98.4,9.9,97.7,10C97,10.1,96.4,10.2,95.9,10.2z"/>
		<path class="st0" d="M114.2,17c0,0.9,0.1,1.5,0.2,1.9s0.3,0.6,0.5,0.6c0.2,0,0.4,0.1,0.5,0.1c0.1,0,0.2,0.2,0.2,0.4
			c0,0.4-0.2,0.8-0.5,1.3c-0.3,0.4-0.8,0.8-1.3,1c-0.5,0.3-1.1,0.4-1.6,0.4c-0.5,0-0.9-0.1-1.2-0.2c-0.3-0.2-0.5-0.3-0.7-0.6
			c-0.2-0.2-0.4-0.4-0.5-0.4c-0.1,0-0.4,0.1-0.7,0.3c-0.3,0.2-0.7,0.4-1.1,0.6s-0.9,0.2-1.5,0.2c-0.6,0-1.3-0.1-1.8-0.4
			s-1-0.6-1.4-1.1c-0.3-0.5-0.5-1.1-0.5-1.8c0-0.6,0.2-1.1,0.6-1.7s1-1,1.8-1.4c0.8-0.4,1.9-0.5,3.1-0.5c0.4,0,0.7,0,0.8-0.1
			s0.2-0.3,0.2-0.6c0-1.5-0.4-2.3-1.1-2.3c-0.3,0-0.5,0.1-0.7,0.3c-0.2,0.2-0.4,0.5-0.7,0.9c-0.3,0.4-0.6,0.7-0.9,0.9
			c-0.3,0.2-0.7,0.3-1.1,0.3c-0.4,0-0.7-0.1-0.9-0.4c-0.2-0.2-0.4-0.5-0.4-0.9c0-0.6,0.3-1.1,1-1.6c0.7-0.5,1.5-0.9,2.4-1.1
			c0.9-0.3,1.8-0.4,2.5-0.4c0.4,0,0.9,0,1.4,0.1c0.5,0.1,1,0.3,1.6,0.6c0.5,0.3,1,0.7,1.3,1.2c0.3,0.5,0.5,1.2,0.5,2V17z M107.5,19
			c0,0.3,0.1,0.6,0.3,0.8c0.2,0.2,0.4,0.4,0.7,0.4c0.4,0,0.6-0.2,0.7-0.5c0.1-0.3,0.2-0.7,0.2-1.1c0-0.3,0-0.6-0.1-0.8
			c-0.1-0.2-0.2-0.3-0.5-0.3c-0.4,0-0.7,0.1-0.9,0.4S107.5,18.6,107.5,19z"/>
	</g>
</g>
<g>
	<circle class="st1" cx="15.5" cy="4" r="4"/>
	<path class="st1" d="M19.3,6.9c-0.7,1.6-1,3.4-0.9,5.3c-0.9,0.2-1.9,0.4-2.9,0.4c-1,0-1.9-0.1-2.9-0.4c-1.8-0.5-3.4-1.3-4.7-2.5
		c1-1.2,2.3-2.1,3.8-2.7c0,0,0.1,0.1,0.1,0.1c0.9,1.1,2.2,1.8,3.7,1.8C17.1,8.8,18.5,8.1,19.3,6.9C19.3,6.9,19.3,6.9,19.3,6.9z"/>
	<path class="st2" d="M25.5,16.9C25.5,17,25.5,16.9,25.5,16.9c-1.8-0.2-3.6,0.1-5.3,0.8C19.7,16.9,19.3,16,19,15
		c-0.3-0.9-0.5-1.9-0.5-2.8c-0.1-1.8,0.2-3.6,0.9-5.3c1.5,0.6,2.8,1.6,3.8,2.7c0,0,0,0,0,0.1c-0.8,1.2-1,2.7-0.6,4.1
		C23,15.3,24.1,16.5,25.5,16.9z"/>
	<path class="st2" d="M30.9,11.2c0.7,2.1-0.5,4.4-2.6,5c-2.1,0.7-4.4-0.5-5-2.6c-0.7-2.1,0.5-4.4,2.6-5C27.9,7.9,30.2,9,30.9,11.2z"
		/>
	<path class="st3" d="M25.5,16.9c-0.1,1.6-0.6,3.1-1.4,4.4c0,0,0,0,0,0c-1.4-0.4-2.9-0.2-4.1,0.7c-1.3,0.9-2,2.3-2,3.8c0,0,0,0,0,0
		c-0.4-1.7-1.2-3.4-2.3-4.8c0.6-0.7,1.3-1.4,2.1-2c0.8-0.6,1.7-1,2.5-1.4C21.9,17,23.7,16.8,25.5,16.9z"/>
	<path class="st3" d="M25.1,29.3c-1.8,1.3-4.3,0.9-5.6-0.9c-1.3-1.8-0.9-4.3,0.9-5.6c1.8-1.3,4.3-0.9,5.6,0.9
		C27.2,25.4,26.8,28,25.1,29.3z"/>
	<path class="st4" d="M6.1,29.3c-1.8-1.3-2.2-3.8-0.9-5.6c1.3-1.8,3.8-2.2,5.6-0.9c1.8,1.3,2.2,3.8,0.9,5.6
		C10.4,30.2,7.9,30.6,6.1,29.3z"/>
	<path class="st4" d="M17.9,25.9C17.9,25.9,17.9,25.9,17.9,25.9c-1.5,0.4-3.1,0.4-4.7,0l0,0c0-1.4-0.7-2.8-2-3.7
		C10,21.2,8.4,21,7.1,21.4c0,0,0,0,0,0c1.5-0.9,2.8-2.2,3.8-3.7c0.9,0.3,1.7,0.8,2.6,1.4c0.8,0.6,1.5,1.3,2.1,2
		C16.7,22.5,17.5,24.2,17.9,25.9z"/>
	<path class="st5" d="M12.7,12.2c-0.1,0.9-0.2,1.9-0.5,2.8c-0.3,1-0.7,1.8-1.3,2.6c-1,1.5-2.3,2.8-3.8,3.7c0,0,0,0,0,0
		c-0.8-1.3-1.3-2.9-1.4-4.4c1.4-0.5,2.5-1.6,3-3c0.5-1.5,0.2-3-0.6-4.2c0,0,0,0,0,0C9.3,10.9,10.9,11.7,12.7,12.2z"/>
	<path class="st5" d="M7.8,13.6c-0.7,2.1-2.9,3.3-5,2.6c-2.1-0.7-3.2-2.9-2.6-5c0.7-2.1,2.9-3.3,5-2.6C7.3,9.3,8.5,11.5,7.8,13.6z"
		/>
</g>
</svg>
