<svg version="1.1" id="Слой_1" xmlns="http://www.w3.org/2000/svg" viewBox="-290 389 18 16" style="fill:#fff;">
<g id="time-to-leave">
	<path d="M-274.1,390c-0.2-0.6-0.8-1-1.4-1h-11c-0.7,0-1.2,0.4-1.4,1l-2.1,6v8c0,0.6,0.4,1,1,1h1c0.6,0,1-0.4,1-1v-1h12v1
		c0,0.6,0.4,1,1,1h1c0.6,0,1-0.4,1-1v-8L-274.1,390z M-286.5,400c-0.8,0-1.5-0.7-1.5-1.5s0.7-1.5,1.5-1.5s1.5,0.7,1.5,1.5
		S-285.7,400-286.5,400z M-275.5,400c-0.8,0-1.5-0.7-1.5-1.5s0.7-1.5,1.5-1.5s1.5,0.7,1.5,1.5S-274.7,400-275.5,400z M-288,395
		l1.5-4.5h11l1.5,4.5H-288z"/>
</g>
</svg>
