<?xml version="1.0" encoding="UTF-8"?>
<!DOCTYPE svg PUBLIC "-//W3C//DTD SVG 1.1//EN" "http://www.w3.org/Graphics/SVG/1.1/DTD/svg11.dtd">
<!-- Creator: CorelDRAW -->
<svg xmlns="http://www.w3.org/2000/svg" xml:space="preserve" width="62px" height="50px" style="shape-rendering:geometricPrecision; text-rendering:geometricPrecision; image-rendering:optimizeQuality; fill-rule:evenodd; clip-rule:evenodd"
viewBox="0 0 62 49.9997"
 xmlns:xlink="http://www.w3.org/1999/xlink">
 <defs>
  <style type="text/css">
   <![CDATA[
    .fil0 {fill:#C5C6C6}
   ]]>
  </style>
 </defs>
 <g id="Слой_x0020_1">
  <metadata id="CorelCorpID_0Corel-Layer"/>
  <path class="fil0" d="M30.2193 17.052c-3.70049,0 -6.70056,3.00008 -6.70056,6.70056 0,3.70049 3.00008,6.69938 6.70056,6.69938 3.69931,0 6.69938,-2.9989 6.69938,-6.69938 0,-3.70049 -3.00008,-6.70056 -6.69938,-6.70056zm0 23.4502c-7.94784,0 -16.0114,-6.05685 -22.4557,-16.7496 6.44426,-10.694 14.5078,-16.7496 22.4557,-16.7496 7.94784,0 16.0102,6.05567 22.4545,16.7496 -6.44426,10.6928 -14.5067,16.7496 -22.4545,16.7496zm0 -40.1998c-10.9302,0 -21.8592,7.81673 -30.1508,23.4502 8.29155,15.6323 19.2206,23.4502 30.1508,23.4502 10.929,0 21.858,-7.81792 30.1496,-23.4502 -8.29155,-15.6335 -19.2206,-23.4502 -30.1496,-23.4502z"/>
 </g>
</svg>
