<?xml version="1.0" encoding="UTF-8"?>
<!DOCTYPE svg PUBLIC "-//W3C//DTD SVG 1.1//EN" "http://www.w3.org/Graphics/SVG/1.1/DTD/svg11.dtd">
<!-- Creator: CorelDRAW -->
<svg xmlns="http://www.w3.org/2000/svg" xml:space="preserve" width="93px" height="93px" style="shape-rendering:geometricPrecision; text-rendering:geometricPrecision; image-rendering:optimizeQuality; fill-rule:evenodd; clip-rule:evenodd"
viewBox="0 0 93 93"
 xmlns:xlink="http://www.w3.org/1999/xlink">
 <defs>
  <style type="text/css">
   <![CDATA[
    .fil0 {fill:#D9DADA}
   ]]>
  </style>
 </defs>
 <g id="Слой_x0020_1">
  <metadata id="CorelCorpID_0Corel-Layer"/>
  <path class="fil0" d="M45.6319 0.193701c-25.1067,0 -45.4512,20.3634 -45.4512,45.4323 0,25.1469 20.3445,45.4713 45.4512,45.4713 25.102,0 45.4524,-20.3244 45.4524,-45.4713 0,-25.0689 -20.3516,-45.4323 -45.4524,-45.4323zm3.15118 59.4c0.538583,5.20512 -11.5736,5.43661 -12.9756,1.80827 -1.17638,-3.05787 0.290551,-3.92362 3.76654,-4.70787 3.93898,-0.894094 8.84173,-0.588189 9.20906,2.89961zm11.0161 -21.9827l3.12283 0 0 -3.12283c0,-0.296457 0.239764,-0.53622 0.53622,-0.53622l3.65906 0c0.296457,0 0.537402,0.239764 0.537402,0.53622l0 3.12283 3.12047 0c0.296457,0 0.537402,0.239764 0.537402,0.53622l0 3.65906c0,0.296457 -0.240945,0.537402 -0.537402,0.537402l-3.12047 0 0 3.12047c0,0.296457 -0.240945,0.537402 -0.537402,0.537402l-3.65906 0c-0.296457,0 -0.53622,-0.240945 -0.53622,-0.537402l0 -3.12047 -3.12283 0c-0.296457,0 -0.53622,-0.240945 -0.53622,-0.537402l0 -3.65906c0,-0.296457 0.239764,-0.53622 0.53622,-0.53622zm-22.3157 -0.844488c-6.12165,-11.6173 14.0799,-10.7835 7.95,0.0011811 -2.00906,1.29567 -5.96575,1.42677 -7.95,-0.0011811zm20.0799 -15.2173c-4.97598,2.70945 -10.1055,0.425197 -13.8059,0 -16.3287,-1.87205 -21.5209,14.7213 -9.62008,21.3756 -3.06378,1.38425 -2.86417,8.41772 0.414567,9.41811 -7.72913,0.77126 -9.16417,10.2626 -5.0185,14.1319 5.04331,4.70669 20.5547,4.39134 25.1031,0 3.17598,-3.07323 3.62126,-9.39803 0.839764,-12.3142 -2.53701,-2.66693 -15.261,-3.06969 -15.0638,-7.24724 0.137008,-2.92677 4.73622,-2.46378 7.53071,-3.6248 5.25472,-2.18858 8.34213,-8.73425 6.2752,-13.7693 1.17283,-0.19252 2.17205,-0.530315 3.34488,-0.725197 0,-2.41299 0,-4.82717 0,-7.24488z"/>
 </g>
</svg>
