<?xml version="1.0" encoding="UTF-8"?>
<!DOCTYPE svg PUBLIC "-//W3C//DTD SVG 1.1//EN" "http://www.w3.org/Graphics/SVG/1.1/DTD/svg11.dtd">
<!-- Creator: CorelDRAW -->
<svg xmlns="http://www.w3.org/2000/svg" xml:space="preserve" width="93px" height="93px" style="shape-rendering:geometricPrecision; text-rendering:geometricPrecision; image-rendering:optimizeQuality; fill-rule:evenodd; clip-rule:evenodd"
viewBox="0 0 93 93"
 xmlns:xlink="http://www.w3.org/1999/xlink">
 <defs>
  <style type="text/css">
   <![CDATA[
    .fil0 {fill:#008DD2}
   ]]>
  </style>
 </defs>
 <g id="Слой_x0020_1">
  <metadata id="CorelCorpID_0Corel-Layer"/>
  <path class="fil0" d="M47.1969 1.55433c-25.1102,0 -45.4524,20.3516 -45.4524,45.4524 0,25.1031 20.3433,45.4512 45.4524,45.4512 25.1008,0 45.4512,-20.348 45.4512,-45.4512 0,-25.0961 -20.3516,-45.4524 -45.4512,-45.4524zm3.40748 49.2661l-7.16929 0 0 5.94094 7.22126 0c1.63819,0 2.56063,-0.922441 2.76496,-2.76614 0.0685039,-0.852756 -0.162992,-1.59449 -0.690945,-2.22756 -0.529134,-0.630709 -1.2378,-0.947244 -2.12598,-0.947244zm-1.38189 -13.5697l-5.7874 0 0 5.99055 5.7874 0c0.852756,0 1.51772,-0.271654 1.99724,-0.818504 0.477165,-0.54685 0.733465,-1.21181 0.767717,-1.99724 0.034252,-0.853937 -0.197244,-1.59567 -0.692126,-2.22756 -0.494882,-0.63189 -1.18583,-0.947244 -2.07283,-0.947244zm11.9823 2.86772c0,1.12677 -0.272835,2.26063 -0.819685,3.4063 -0.545669,1.14331 -1.2626,2.07283 -2.14961,2.78976 1.43268,0.716929 2.53465,1.75748 3.30236,3.12402 0.768898,1.36535 1.15157,2.88425 1.15157,4.55669 0,3.1748 -0.998031,5.7874 -2.99528,7.83661 -1.99724,2.04685 -4.78701,3.07087 -8.37283,3.07087l-17.2571 0 0 -35.7945 15.8244 0c3.34488,0 6.06732,1.0063 8.16732,3.02126 2.09882,2.01378 3.14882,4.67835 3.14882,7.98898z"/>
 </g>
</svg>
