<?xml version="1.0" encoding="UTF-8"?>
<!DOCTYPE svg PUBLIC "-//W3C//DTD SVG 1.1//EN" "http://www.w3.org/Graphics/SVG/1.1/DTD/svg11.dtd">
<!-- Creator: CorelDRAW -->
<svg xmlns="http://www.w3.org/2000/svg" xml:space="preserve" width="93px" height="93px" style="shape-rendering:geometricPrecision; text-rendering:geometricPrecision; image-rendering:optimizeQuality; fill-rule:evenodd; clip-rule:evenodd"
viewBox="0 0 93 93"
 xmlns:xlink="http://www.w3.org/1999/xlink">
 <defs>
  <style type="text/css">
   <![CDATA[
    .fil0 {fill:#D9DADA}
   ]]>
  </style>
 </defs>
 <g id="Слой_x0020_1">
  <metadata id="CorelCorpID_0Corel-Layer"/>
  <path class="fil0" d="M45.926 0.673228c-25.1079,0 -45.4524,20.3516 -45.4524,45.4512 0,25.1161 20.3445,45.4524 45.4524,45.4524 25.1008,0 45.4512,-20.3374 45.4512,-45.4524 0.0011811,-25.0949 -20.3504,-45.4512 -45.4512,-45.4512zm19.3878 58.076c0,3.98504 -3.25512,7.27559 -7.27795,7.27559l-24.2067 0c-4.01575,0 -7.27795,-3.2563 -7.27795,-7.27559l0 -11.8972 8.9374 0c1.32047,4.55669 5.50512,7.87205 10.4764,7.87205 4.96654,0 9.17244,-3.35551 10.4776,-7.87205l8.9315 0 -0.0602362 11.8972 0 0zm-25.4445 -14.9374c0,-3.34606 2.70591,-6.05906 6.05906,-6.05906 3.34134,0 6.06024,2.71299 6.06024,6.05906 0,3.37323 -2.7189,6.08504 -6.06024,6.08504 -3.35197,-0.0141732 -6.05906,-2.73307 -6.05906,-6.08504zm25.4445 -3.0248l-8.9374 0c-1.32047,-4.55669 -5.50512,-7.87205 -10.4764,-7.87205 -4.97126,0 -9.17244,3.35433 -10.4776,7.87205l-8.92205 0 0 -6.28701c0,-4.01102 3.25512,-7.27795 7.27913,-7.27795l24.2197 0c4.01102,0 7.27795,3.25512 7.27795,7.27795l0.0366142 6.28701 0 0z"/>
 </g>
</svg>
