<?xml version="1.0" encoding="UTF-8"?>
<!DOCTYPE svg PUBLIC "-//W3C//DTD SVG 1.1//EN" "http://www.w3.org/Graphics/SVG/1.1/DTD/svg11.dtd">
<!-- Creator: CorelDRAW -->
<svg xmlns="http://www.w3.org/2000/svg" xml:space="preserve" style="shape-rendering:geometricPrecision; text-rendering:geometricPrecision; image-rendering:optimizeQuality; fill-rule:evenodd; clip-rule:evenodd"

 xmlns:xlink="http://www.w3.org/1999/xlink">
 <defs>
  <style type="text/css">
   <![CDATA[
    .fil6 {fill:#2B2A29}
    .fil5 {fill:#00A0E3}
    .fil0 {fill:#E31E24}
    .fil1 {fill:#EF7F1A}
    .fil2 {fill:#FECC00}
    .fil3 {fill:#FEFEFE}
    .fil4 {fill:#A72421;fill-rule:nonzero}
   ]]>
  </style>
 </defs>
 <g id="Слой_x0020_1">
  <metadata id="CorelCorpID_0Corel-Layer"/>
  <g id="_428513016">
   <g>
    <path id="_440856192" class="fil0" d="M247.211 277.613c-0.0755907,2.02914 -0.0354331,4.14804 0.325985,6.22915 0.237402,1.36772 0.605907,2.87953 1.29803,4.22599 0.450001,0.875199 1.0689,1.83189 1.91103,2.56654 0.643702,0.562206 1.38189,1.05118 2.23465,1.37126 0.818505,0.307087 1.64882,0.506694 2.49804,0.595277 0.869293,0.0909451 1.72559,0.100394 2.57481,0.0885828 0.840946,-0.0129922 1.66418,-0.0590552 2.47205,-0.162992 0.929529,-0.119292 1.80473,-0.367324 2.61497,-0.676773 0.976774,-0.372048 1.83071,-0.914175 2.57481,-1.50945 0.947246,-0.75945 1.6878,-1.71851 2.28662,-2.68938 0.80197,-1.29803 1.32874,-2.76851 1.71496,-4.22717 0.520867,-1.96772 0.760631,-4.04056 0.836222,-6.1134 0.0921262,-2.48504 -0.00472442,-5.16379 -0.650789,-7.72088 -0.405119,-1.60512 -1.07126,-3.44292 -2.27363,-4.92403 -0.861025,-1.06299 -1.95827,-1.98426 -3.38977,-2.56063 -1.45394,-0.584647 -2.97756,-0.79134 -4.45985,-0.79134 -1.76221,0 -3.37678,0.290552 -4.8319,0.87638 -1.60512,0.646064 -2.86536,1.65 -3.86457,2.80276 -1.27914,1.47402 -2.11182,3.26221 -2.68583,5.05513 -0.767718,2.40119 -1.09134,4.99607 -1.18583,7.56497zm11.8701 -9.3071c0.175985,-0.0188977 0.360237,-0.0188977 0.540946,-0.0153544 0.517324,0.0106299 0.987403,0.242126 1.37244,0.558662 0.472442,0.387402 0.731104,0.999214 0.903545,1.47402 0.296457,0.816143 0.401576,1.77756 0.479528,2.5878 0.137008,1.4504 0.115748,2.92087 0.0625985,4.3441 -0.0637796,1.6878 -0.190158,3.38977 -0.486615,5.0256 -0.197244,1.09252 -0.488977,2.30906 -1.05355,3.27166 -0.393308,0.669686 -1.02874,1.33583 -2.09646,1.3689 -0.628348,0.0188977 -1.23425,-0.190158 -1.74213,-0.574017 -0.590552,-0.447639 -0.891734,-1.15158 -1.07481,-1.71851 -0.300001,-0.936616 -0.390946,-1.99489 -0.444095,-2.91733 -0.0909451,-1.59213 -0.0212599,-3.19843 0.0531497,-4.76458 0.0696852,-1.43622 0.157087,-2.9315 0.445276,-4.31694 0.179528,-0.863387 0.412206,-1.80945 0.820868,-2.59252 0.240945,-0.45945 0.574017,-0.999214 1.04528,-1.32047 0.314174,-0.214961 0.705119,-0.412206 1.17402,-0.411024z"/>
    <path id="_440856120" class="fil0" d="M193.605 290.886c-0.0212599,-2.33977 -0.00944884,-4.67481 0.0236221,-7.00631 0.0366142,-2.57599 0.0992128,-5.14725 0.174803,-7.71616 0.0767718,-2.62441 0.162992,-5.24647 0.259843,-7.86734 0.0862206,-2.27599 0.17126,-4.55316 0.2563,-6.83033 -0.868112,-0.044882 -1.73859,-0.0956695 -2.60788,-0.146457 -1.34528,-0.079134 -2.68465,-0.127559 -4.0193,-0.151181 -1.37717,-0.0259843 -2.74016,0.0129922 -4.07717,0.124016 -1.31103,0.109843 -2.58426,0.316536 -3.7878,0.637796 -1.17047,0.311812 -2.23465,0.760631 -3.16418,1.35355 -4.44568,2.82993 -6.30119,11.8252 2.58189,13.6736 -5.16851,0.15 -5.66694,4.23544 -6.11458,7.61104 -0.145276,1.09843 -0.283465,2.19804 -0.41693,3.29883 -0.141733,1.1752 -0.333071,2.33977 -0.561025,3.49489 0.204331,0.244489 0.484253,0.452363 0.785435,0.631891 0.520867,0.309449 1.09961,0.525592 1.69016,0.682678 0.672049,0.178347 1.35709,0.257481 2.01969,0.251575 0.711025,-0.00708663 1.35827,-0.132284 1.95,-0.367324 0.653151,-0.258662 1.15748,-0.667324 1.52717,-1.1563 0.362599,-0.479528 0.537403,-1.10433 0.634253,-1.68426 0.129922,-0.788978 0.196063,-1.59331 0.207874,-2.40591 0.011811,-0.890553 0.0377953,-1.77756 0.0744096,-2.66339 0.0354331,-0.839765 0.132284,-1.67126 0.33189,-2.47205 0.177166,-0.712206 0.506694,-1.40197 1.08189,-1.92874 0.607088,-0.553938 1.47874,-0.788978 2.50394,-0.747639l1.00984 0.0401576 -0.0295276 0.779529c-0.0519686,1.35709 -0.0933073,2.71418 -0.12874,4.07481 -0.0354331,1.40197 -0.0862206,2.80276 -0.132284,4.20355 -0.022441,0.664962 0.0649608,1.3937 0.396851,2.0693 0.239764,0.488977 0.581103,0.985041 1.08544,1.37008 0.450001,0.343701 0.944884,0.58819 1.51299,0.73819 0.59882,0.158268 1.18229,0.178347 1.74803,0.106299 0.67323,-0.0862206 1.26142,-0.316536 1.77048,-0.622442 0.597639,-0.360237 1.05709,-0.849214 1.4126,-1.37599zm-8.48033 -15.7205c-0.832679,0 -1.7126,-0.15 -2.46378,-0.607088 -0.664962,-0.4063 -1.13622,-0.93071 -1.4126,-1.52835 -0.271654,-0.58819 -0.394489,-1.17992 -0.399213,-1.76339 -0.00472442,-0.601182 0.0992128,-1.18229 0.28819,-1.73504 0.184252,-0.536221 0.457087,-1.0441 0.845671,-1.48347 0.359056,-0.405119 0.831498,-0.747639 1.45158,-0.911813 0.685041,-0.18189 1.42087,-0.0767718 2.1378,0.261024l0.53504 0.251575 -0.00472442 0.442914c-0.00708663,0.693308 -0.00944884,1.38898 -0.0200788,2.08229 -0.0129922,0.779529 -0.0377953,1.55906 -0.0803151,2.33504 -0.0377953,0.734647 -0.0992128,1.46457 -0.197244,2.18622l-0.0649608 0.47008 -0.615355 0z"/>
    <path id="_440856048" class="fil0" d="M168.392 287.204c-0.340158,-0.240945 -0.611812,-0.546851 -0.826773,-0.868112 -0.447639,-0.667324 -0.672049,-1.4752 -0.813781,-2.17205 -0.212599,-1.04528 -0.230315,-2.14016 -0.230315,-3.16418l-0.011811 -18.0343c0,-0.289371 0.0259843,-0.570474 0.0555119,-0.852758 -0.533859,-0.148819 -1.07244,-0.269292 -1.61457,-0.366142 -0.866931,-0.154725 -1.73622,-0.258662 -2.59843,-0.327166 -0.890553,-0.0685041 -1.77638,-0.106299 -2.65276,-0.106299 -1.90748,0 -3.8882,0.12874 -5.61143,0.568111 -1.3689,0.348426 -2.59134,0.884647 -3.54686,1.68071 -0.960238,0.799608 -1.6252,1.78229 -2.0752,2.85945 -0.550395,1.31811 -0.852758,2.75434 -1.0252,4.18583 -0.201969,1.67953 -0.359056,3.37205 -0.440552,5.07757 -0.0649608,1.33819 -0.141733,2.67402 -0.22441,4.00985 -0.0625985,1.00866 -0.187796,2.03741 -0.468899,2.99292 -0.226772,0.774805 -0.635434,1.50591 -1.3441,2.0315 -0.601182,0.445276 -1.38425,0.670867 -2.24764,0.744096 -0.0755907,0.276378 -0.137008,0.557481 -0.185433,0.840946 -0.0614174,0.368505 -0.106299,0.740553 -0.119292,1.11969 -0.0259843,0.790159 0.0625985,1.65237 0.4063,2.46142 0.250394,0.58819 0.618899,1.16693 1.17166,1.65945 0.466536,0.418111 1.00394,0.742915 1.63229,0.963781 0.64134,0.226772 1.29095,0.335434 1.93937,0.333071 0.981498,-0.00354331 1.84016,-0.201969 2.54882,-0.636615 0.755907,-0.466536 1.29803,-1.09607 1.68544,-1.79882 0.473623,-0.862206 0.798427,-1.7941 1.0063,-2.75315 0.233859,-1.08898 0.387402,-2.20276 0.475985,-3.32717 0.0921262,-1.15866 0.151181,-2.32441 0.187796,-3.49489 0.0318898,-1.05945 0.0484253,-2.12126 0.0460631,-3.18662 -0.00236221,-1.01103 0.00826773,-2.01851 0.0377953,-3.02363 0.034252,-1.13386 0.133465,-2.27126 0.369686,-3.35906 0.186615,-0.856301 0.519686,-1.71851 1.14921,-2.38347 0.607088,-0.640159 1.48701,-1.03583 2.63032,-0.979136 0.838584,0.0413387 1.08544,0.693308 1.12441,1.19528 0.0318898,0.398032 0.0307087,0.798427 0.0236221,1.19173 -0.0106299,0.537403 -0.0307087,1.07362 -0.0507875,1.60985 -0.0377953,1.02756 -0.0838584,2.05276 -0.140551,3.0756 -0.0649608,1.16693 -0.133465,2.3315 -0.204331,3.49607 -0.0732285,1.21418 -0.167717,2.42599 -0.233859,3.64253 -0.0732285,1.37835 -0.0637796,2.76969 -0.00236221,4.16812 0.0507875,1.14685 0.194882,2.33386 0.536221,3.49725 0.21378,0.732285 0.58819,1.57205 1.27323,2.19095 0.575198,0.518505 1.3311,0.666143 2.08701,0.672049 1.11142,0.00708663 2.0941,-0.200788 2.94686,-0.637796 0.92008,-0.471261 1.59567,-1.17166 2.09764,-1.94055 0.571655,-0.874017 0.960238,-1.85788 1.2378,-2.85591z"/>
    <path id="_440855976" class="fil0" d="M109.751 285.044c-2.10119,2.10355 -2.08583,6.98151 -1.86851,9.81852 0.0295276,0.38504 0.137008,0.888191 0.462993,1.24488 0.258662,0.279922 0.56693,0.475985 0.964962,0.604726 0.509056,0.164174 1.03465,0.242126 1.54607,0.258662 0.597639,0.0188977 1.18229,-0.011811 1.74803,-0.0862206 0.501969,-0.0661419 1.00394,-0.157087 1.46929,-0.289371 0.119292,-0.034252 0.348426,-0.0992128 0.518505,-0.168898 0.0354331,-0.382678 0.0543308,-0.767718 0.0578741,-1.1563 0.00354331,-0.529135 0.00472442,-1.05827 -0.0129922,-1.58977 -0.0129922,-0.429922 -0.0318898,-0.859844 -0.056693,-1.29095 -0.011811,-0.184252 -0.0354331,-0.401576 -0.0283465,-0.583466l0.0165355 -0.518505 0.666143 0c0.219685,0 0.440552,0 0.660237,0 0.57756,0 1.15158,-0.00826773 1.72914,-0.00826773 0.814962,0 1.63111,0 2.44607,0 0.935435,0 1.86969,0 2.80512,0 0.936616,0 1.87323,0.00354331 2.80985,0.00826773 0.819687,0.00472442 1.64055,0.0153544 2.46142,0.0259843 0.585828,0.00708663 1.17402,0.00826773 1.76221,0.0259843 0.494883,0.0141733 1.10788,-0.0011811 1.47756,0.420473l0.180709 0.205512 0.0011811 0.22441c0,0.172441 -0.0318898,0.369686 -0.044882,0.540946 -0.0295276,0.402757 -0.0578741,0.805513 -0.0862206,1.20945 -0.034252,0.475985 -0.0685041,0.95197 -0.0944884,1.43032 -0.0200788,0.380316 -0.0460631,0.762994 -0.0366142,1.1504 0.0177166,0.0295276 0.0980317,0.0814962 0.129922,0.102756 0.276378,0.179528 0.674411,0.308268 0.99449,0.394489 0.532678,0.142914 1.08662,0.207874 1.61693,0.233859 0.633072,0.0318898 1.24252,-0.00826773 1.82481,-0.120473 0.525592,-0.101575 1.07244,-0.26693 1.46103,-0.539765 0.324804,-0.227953 0.552757,-0.512599 0.689765,-0.850395 0.863387,-2.12835 0.516143,-6.97678 0.112205,-9.3638 -0.0767718,-0.454725 -0.157087,-0.911813 -0.250394,-1.3689 -0.105118,0.00236221 -0.210237,0.00354331 -0.314174,0.00472442 -0.382678,0.00472442 -0.764175,0.0129922 -1.14921,0.00826773 -0.407481,-0.00472442 -0.816143,-0.0165355 -1.22717,-0.044882l-0.869293 -0.0614174 -0.0767718 -0.680316c-0.0767718,-0.677954 -0.0933073,-1.3689 -0.107481,-2.03977 -0.0236221,-1.07126 -0.0248032,-2.14134 -0.0200788,-3.20788 0.00590552,-1.34528 0.0330709,-2.68819 0.0602363,-4.02875 0.0307087,-1.49882 0.0744096,-2.9941 0.127559,-4.48938 0.0531497,-1.53071 0.114567,-3.06142 0.187796,-4.58977 0.0602363,-1.26969 0.134646,-2.53701 0.216142,-3.80316 -0.33189,-0.0968506 -0.681497,-0.170079 -0.989766,-0.229134 -0.811419,-0.154725 -1.63229,-0.257481 -2.44252,-0.334253 -0.948427,-0.0909451 -1.89095,-0.151181 -2.82993,-0.184252 -0.938978,-0.0318898 -1.87323,-0.0366142 -2.80276,-0.0248032 -0.799608,0.011811 -1.59803,0.0425198 -2.37993,0.108662 -1.22835,0.102756 -2.47205,0.311812 -3.51142,0.740553 -0.895277,0.369686 -1.62284,0.870474 -2.17914,1.52362 -0.617718,0.725198 -1.03583,1.56851 -1.31929,2.44371 -0.364961,1.1315 -0.587009,2.32323 -0.742915,3.51261 -0.236221,1.78937 -0.445276,3.58701 -0.600001,5.39647 -0.13937,1.63347 -0.274016,3.26812 -0.403938,4.90277 -0.121654,1.55079 -0.284646,3.09331 -0.484253,4.62639l-0.0555119 0.42756 -0.548033 0.0413387c-0.679135,0.0507875 -1.3689,0.0720474 -2.06575,0.0625985 -0.533859,-0.00708663 -1.07008,-0.0259843 -1.6063,-0.0460631zm17.7473 -16.5815c-0.0200788,0.532678 -0.0484253,1.06299 -0.0767718,1.59331 -0.0472442,0.885828 -0.0992128,1.77166 -0.147638,2.65749 -0.0602363,1.13858 -0.119292,2.27599 -0.175985,3.41457 -0.0649608,1.2874 -0.127559,2.57363 -0.178347,3.86339 -0.0531497,1.33465 -0.101575,2.67284 -0.148819,4.00749l-0.0425198 1.16457c-1.93111,-0.0484253 -3.80552,0.0236221 -5.71891,0.0472442l0.0909451 -1.47992c0.067323,-1.11378 0.142914,-2.22638 0.18189,-3.34489 0.0389765,-1.17874 0.100394,-2.35394 0.164174,-3.52914 0.0625985,-1.13386 0.170079,-2.25945 0.33189,-3.37323 0.144095,-0.987403 0.372048,-1.96181 0.726379,-2.88544 0.298819,-0.78071 0.741734,-1.52362 1.41969,-2.10709 0.646064,-0.553938 1.50709,-0.859844 2.56182,-0.848033l1.0441 0.0106299 -0.0318898 0.809057z"/>
    <path id="_440855880" class="fil0" d="M216.42 285.044c-2.10119,2.10355 -2.08583,6.98151 -1.86851,9.81852 0.0295276,0.38504 0.137008,0.888191 0.462993,1.24488 0.258662,0.279922 0.56693,0.475985 0.964962,0.604726 0.509056,0.164174 1.03465,0.242126 1.54607,0.258662 0.597639,0.0188977 1.18229,-0.011811 1.74803,-0.0862206 0.501969,-0.0661419 1.00394,-0.157087 1.46929,-0.289371 0.119292,-0.034252 0.348426,-0.0992128 0.518505,-0.168898 0.0354331,-0.382678 0.0543308,-0.767718 0.0578741,-1.1563 0.00354331,-0.529135 0.00472442,-1.05827 -0.0129922,-1.58977 -0.0129922,-0.429922 -0.0318898,-0.859844 -0.056693,-1.29095 -0.011811,-0.184252 -0.0354331,-0.401576 -0.0283465,-0.583466l0.0165355 -0.518505 0.666143 0c0.219685,0 0.440552,0 0.660237,0 0.57756,0 1.15158,-0.00826773 1.72796,-0.00826773 0.816143,0 1.63229,0 2.44725,0 0.935435,0 1.86969,0 2.80512,0 0.936616,0 1.87323,0.00354331 2.80985,0.00826773 0.819687,0.00472442 1.64055,0.0153544 2.46142,0.0259843 0.585828,0.00708663 1.17402,0.00826773 1.76221,0.0259843 0.494883,0.0141733 1.10788,-0.0011811 1.47756,0.420473l0.180709 0.205512 0.0011811 0.22441c0,0.172441 -0.0318898,0.369686 -0.044882,0.540946 -0.0295276,0.402757 -0.0578741,0.805513 -0.0862206,1.20945 -0.034252,0.475985 -0.0685041,0.95197 -0.0944884,1.43032 -0.0200788,0.380316 -0.0460631,0.762994 -0.0366142,1.1504 0.0177166,0.0295276 0.0980317,0.0814962 0.129922,0.102756 0.276378,0.179528 0.674411,0.308268 0.99449,0.394489 0.532678,0.142914 1.08662,0.207874 1.61693,0.233859 0.633072,0.0318898 1.24252,-0.00826773 1.82481,-0.120473 0.525592,-0.101575 1.07244,-0.26693 1.46103,-0.539765 0.324804,-0.227953 0.552757,-0.512599 0.689765,-0.850395 0.863387,-2.12835 0.516143,-6.97678 0.112205,-9.3638 -0.0767718,-0.454725 -0.157087,-0.911813 -0.250394,-1.3689 -0.105118,0.00236221 -0.210237,0.00354331 -0.314174,0.00472442 -0.382678,0.00472442 -0.764175,0.0129922 -1.14921,0.00826773 -0.407481,-0.00472442 -0.816143,-0.0165355 -1.22717,-0.044882l-0.869293 -0.0614174 -0.0767718 -0.680316c-0.0767718,-0.677954 -0.0933073,-1.3689 -0.107481,-2.03977 -0.0236221,-1.07126 -0.0248032,-2.14134 -0.0200788,-3.20788 0.00590552,-1.34528 0.0330709,-2.68819 0.0602363,-4.02875 0.0307087,-1.49882 0.0744096,-2.9941 0.127559,-4.48938 0.0519686,-1.53071 0.114567,-3.06142 0.187796,-4.58977 0.0602363,-1.26969 0.134646,-2.53701 0.216142,-3.80316 -0.33189,-0.0968506 -0.681497,-0.170079 -0.989766,-0.229134 -0.811419,-0.154725 -1.63229,-0.257481 -2.44252,-0.334253 -0.948427,-0.0909451 -1.89095,-0.151181 -2.82993,-0.184252 -0.938978,-0.0318898 -1.87323,-0.0366142 -2.80276,-0.0248032 -0.799608,0.011811 -1.59803,0.0425198 -2.37993,0.108662 -1.22835,0.102756 -2.47205,0.311812 -3.51142,0.740553 -0.895277,0.369686 -1.62284,0.870474 -2.17914,1.52362 -0.617718,0.725198 -1.03701,1.56851 -1.31929,2.44371 -0.364961,1.1315 -0.587009,2.32323 -0.742915,3.51261 -0.236221,1.78937 -0.445276,3.58701 -0.600001,5.39647 -0.13937,1.63347 -0.274016,3.26812 -0.403938,4.90277 -0.121654,1.55079 -0.284646,3.09331 -0.484253,4.62639l-0.0555119 0.42756 -0.548033 0.0413387c-0.679135,0.0507875 -1.3689,0.0720474 -2.06575,0.0625985 -0.533859,-0.00708663 -1.07008,-0.0259843 -1.6063,-0.0460631zm17.7473 -16.5815c-0.0200788,0.532678 -0.0484253,1.06299 -0.0767718,1.59331 -0.0472442,0.885828 -0.0992128,1.77166 -0.147638,2.65749 -0.0602363,1.13858 -0.119292,2.27599 -0.175985,3.41457 -0.0649608,1.2874 -0.127559,2.57363 -0.178347,3.86339 -0.0531497,1.33465 -0.101575,2.67284 -0.148819,4.00749l-0.0425198 1.16457c-1.93111,-0.0484253 -3.80552,0.0236221 -5.71891,0.0472442l0.0909451 -1.47992c0.067323,-1.11378 0.142914,-2.22638 0.18189,-3.34489 0.0389765,-1.17874 0.100394,-2.35394 0.164174,-3.52914 0.0625985,-1.13386 0.170079,-2.25945 0.33189,-3.37323 0.144095,-0.987403 0.372048,-1.96181 0.726379,-2.88544 0.298819,-0.78071 0.741734,-1.52362 1.41969,-2.10709 0.646064,-0.553938 1.50709,-0.859844 2.56182,-0.848033l1.0441 0.0106299 -0.0318898 0.809057z"/>
    <path id="_440855784" class="fil0" d="M333.677 290.903c-0.115748,-0.393308 -0.214961,-0.786616 -0.285827,-1.17756 -0.0803151,-0.435828 -0.134646,-0.871655 -0.164174,-1.30276 -0.0354331,-0.478347 -0.0437009,-0.954333 -0.0472442,-1.42914 -0.00590552,-0.612993 -0.0165355,-1.22599 -0.0212599,-1.84016 -0.0188977,-1.8378 -0.0437009,-3.67796 -0.0708663,-5.51812 -0.0259843,-1.72677 -0.0921262,-3.46182 -0.211418,-5.20277 -0.108662,-1.56024 -0.290552,-3.13229 -0.58819,-4.7067 -0.24567,-1.29922 -0.569292,-2.67166 -1.1752,-3.9567 -0.446458,-0.947246 -1.12441,-1.8567 -2.08229,-2.60434 -0.798427,-0.622442 -1.69252,-1.09016 -2.70945,-1.37362 -1.08071,-0.302363 -2.17205,-0.42756 -3.23859,-0.408662 -1.20945,0.0200788 -2.36693,0.180709 -3.4689,0.442914 -1.17638,0.279922 -2.28426,0.6626 -3.32245,1.12914 -0.936616,0.420473 -1.82244,0.901183 -2.61969,1.45985 -0.114567,1.28622 -0.249213,2.57126 -0.42756,3.84331 -0.166536,1.17638 -0.354331,2.34685 -0.56693,3.51142 -0.197244,1.09252 -0.403938,2.1815 -0.629529,3.26694 -0.230315,1.11024 -0.455906,2.22284 -0.677954,3.33544 -0.248032,1.24016 -0.471261,2.48623 -0.68386,3.73583 -0.252756,1.47402 -0.475985,2.95512 -0.669686,4.4445 -0.141733,1.09134 -0.178347,2.33386 0.153544,3.4819 0.200788,0.69449 0.553938,1.48347 1.20473,2.0693 0.511418,0.460631 1.10433,0.747639 1.81654,0.878742 0.889372,0.162992 1.78465,0.0543308 2.56182,-0.138189 1.04173,-0.257481 1.99252,-0.713387 2.82875,-1.22244 0.0106299,-0.24567 0.0236221,-0.49134 0.0354331,-0.735828 0.0212599,-0.462993 0.0437009,-0.923624 0.0755907,-1.38425 0.0330709,-0.458269 0.0732285,-0.914175 0.126378,-1.36772 0.0389765,-0.327166 0.0885828,-0.685041 0.193701,-0.993309l0.131103 -0.379135 0.527954 0c0.261024,0 0.520867,0.0011811 0.784253,0.00708663 0.372048,0.00944884 0.741734,0.00944884 1.1126,0.0177166 0.389765,0.00826773 0.777167,0.00826773 1.16575,0.0165355 0.301182,0.00708663 0.59882,0.00944884 0.897639,0.00944884l1.05118 0 -0.0283465 0.818505c-0.00590552,0.165355 -0.0248032,0.334253 -0.034252,0.499607 -0.0236221,0.367324 -0.00354331,0.753545 0.0200788,1.12914 0.0295276,0.453544 0.116929,0.911813 0.250394,1.37126 0.109843,0.382678 0.282284,0.778348 0.563387,1.1315 0.340158,0.422835 0.778348,0.767718 1.33583,1.00866 0.575198,0.246851 1.17756,0.360237 1.77756,0.380316 0.713387,0.0236221 1.39016,-0.0637796 2.02087,-0.233859 0.695671,-0.187796 1.32166,-0.475985 1.86496,-0.836222 0.500788,-0.33189 0.907088,-0.725198 1.22362,-1.17756zm-14.1036 -10.0701c0.0980317,-0.637796 0.179528,-1.27914 0.242126,-1.9252 0.0744096,-0.762994 0.134646,-1.52953 0.191339,-2.29725 0.0555119,-0.764175 0.108662,-1.52953 0.158268,-2.29607 0.0425198,-0.648426 0.0862206,-1.29567 0.138189,-1.94174 0.0354331,-0.413387 0.067323,-0.832679 0.121654,-1.24252l0.0283465 -0.212599c0.00472442,-0.24567 0.0188977,-2.69174 0.0814962,-2.72835 4.12678,0.200788 4.01694,5.87245 4.04765,8.06104 0.011811,0.869293 0.0200788,1.73977 0.0165355,2.60788 -0.00354331,0.768899 -0.00472442,1.53898 0.00354331,2.31024l0.00590552 0.540946 -5.16969 0 0.134646 -0.87638z"/>
    <path id="_440855808" class="fil0" d="M274.922 262.933c0.0496064,0.487796 0.0980317,0.975592 0.140551,1.46221 0.0519686,0.570474 0.0838584,1.13977 0.111024,1.70788 0.0318898,0.664962 0.044882,1.32874 0.0484253,1.98898 0.00590552,0.896458 -0.011811,1.79055 -0.034252,2.68229 -0.0318898,1.26851 -0.079134,2.53583 -0.133465,3.80079 -0.0767718,1.78111 -0.155906,3.56221 -0.240945,5.34214 -0.114567,2.4378 -0.232678,4.87442 -0.354331,7.31222 -0.0496064,0.989766 0.011811,2.07756 0.379135,3.09804 0.227953,0.629529 0.602363,1.30985 1.26142,1.79528 0.576379,0.424017 1.25315,0.56693 1.9441,0.56693 0.832679,-0.0011811 1.54134,-0.230315 2.14607,-0.585828 0.75945,-0.445276 1.2874,-1.08189 1.66654,-1.77284 0.48071,-0.877561 0.675592,-1.88622 0.709844,-2.89843 0.0236221,-0.674411 0.0141733,-1.35945 0.00472442,-2.03741 -0.0129922,-0.993309 -0.0366142,-1.98662 -0.067323,-2.98229 -0.0377953,-1.16693 -0.0803151,-2.33504 -0.129922,-3.50434 -0.0519686,-1.21181 -0.103937,-2.42481 -0.157087,-3.63662 -0.0496064,-1.11496 -0.0980317,-2.22993 -0.152362,-3.34607 -0.0437009,-0.882285 -0.0909451,-1.76457 -0.137008,-2.64804l-0.0307087 -0.583466c2.58189,0.0685041 3.45473,12.2551 3.71812,15.15 0.105118,1.16929 0.220867,2.34095 0.355512,3.51379 0.0921262,0.805513 0.188977,1.63347 0.362599,2.44371 0.0814962,0.381497 0.21378,0.764175 0.379135,1.14213 0.148819,0.341339 0.355512,0.659056 0.644883,0.959057 0.26693,0.27756 0.618899,0.47008 1.00394,0.618899 0.546851,0.212599 1.2189,0.26693 1.76929,0.269292 0.439371,0.00236221 0.859844,-0.0885828 1.2378,-0.211418 0.487796,-0.16063 0.909451,-0.422835 1.26733,-0.713387 0.462993,-0.375591 0.811419,-0.835041 1.07481,-1.32756 0.341339,-0.635434 0.520867,-1.36063 0.611812,-2.07756 0.103937,-0.820868 0.206693,-1.64174 0.320079,-2.46024 0.146457,-1.03819 0.298819,-2.07638 0.452363,-3.11221 0.4063,-2.7567 1.22835,-13.3382 4.06654,-13.9441l-0.0188977 0.58819c-0.056693,1.95118 -0.13937,3.89765 -0.26693,5.83584 -0.115748,1.77756 -0.230315,3.55512 -0.361418,5.32914 -0.108662,1.47284 -0.209056,2.94922 -0.28819,4.42796 -0.0555119,1.04292 -0.0507875,2.08583 -0.0283465,3.14174 0.011811,0.497245 0.0460631,0.99449 0.137008,1.50118 0.0885828,0.497245 0.271654,0.990947 0.5563,1.47284 0.240945,0.408662 0.582285,0.734647 1.06063,1.00158 0.565749,0.316536 1.32047,0.393308 1.92402,0.39567 0.670867,0.0011811 1.29331,-0.101575 1.87914,-0.278741 0.587009,-0.177166 1.12087,-0.420473 1.57914,-0.740553 0.362599,-0.253937 0.660237,-0.551576 0.872836,-0.901183 -0.119292,-1.21536 -0.17126,-2.42835 -0.197244,-3.63308 -0.0318898,-1.47874 -0.0307087,-2.95394 -0.00708663,-4.42324 0.0248032,-1.56024 0.0555119,-3.1193 0.101575,-4.67599 0.0460631,-1.51536 0.0885828,-3.03071 0.12874,-4.54725 0.0354331,-1.33701 0.067323,-2.67402 0.0696852,-4.01694 0,-1.02166 -0.00708663,-2.05748 -0.0944884,-3.09095 -0.0696852,-0.819687 -0.281103,-1.68189 -0.760631,-2.48504 -0.359056,-0.601182 -0.845671,-1.15984 -1.51063,-1.60866 -0.597639,-0.401576 -1.2437,-0.667324 -1.963,-0.809057 -0.78071,-0.153544 -1.53662,-0.135827 -2.24646,-0.00354331 -0.861025,0.16063 -1.61221,0.511418 -2.25,0.938978 -0.813781,0.54567 -1.43386,1.25433 -1.91575,2.01615 -0.614174,0.968506 -0.986222,2.06339 -1.1941,3.1819 -0.197244,1.06654 -0.394489,2.13426 -0.600001,3.19843 -0.210237,1.08662 -0.419292,2.17323 -0.636615,3.25749 -0.20315,1.01575 -0.408662,2.0315 -0.618899,3.04489 -0.177166,0.846852 -0.359056,1.69252 -0.536221,2.53937 -0.122835,0.592915 -0.244489,1.18819 -0.377953,1.77992l-0.954333 4.24135 -0.733466 -4.52954c-0.102756,-0.627167 -0.159449,-1.25906 -0.21378,-1.88032 -0.0838584,-0.950789 -0.157087,-1.90158 -0.229134,-2.85119 -0.0850395,-1.12795 -0.173622,-2.25591 -0.271654,-3.38505 -0.0992128,-1.14803 -0.206693,-2.29607 -0.334253,-3.44646 -0.111024,-1.00276 -0.249213,-2.00788 -0.42756,-3.01418 -0.11811,-0.669686 -0.258662,-1.40788 -0.509056,-2.07638 -0.240945,-0.643702 -0.634253,-1.34882 -1.30276,-1.85079 -0.589371,-0.442914 -1.26024,-0.73819 -2.00315,-0.902364 -0.889372,-0.197244 -1.78701,-0.262205 -2.65394,-0.237402 -0.982679,0.0283465 -1.94055,0.13937 -2.86182,0.315355 -0.892915,0.17126 -1.77048,0.375591 -2.60906,0.634253 -0.526773,0.161811 -1.06536,0.334253 -1.57087,0.533859z"/>
   </g>
   <g>
    <path id="_440855640" class="fil0" d="M411.735 232.68c-0.168898,-0.572836 -0.314174,-1.14685 -0.418111,-1.71969 -0.115748,-0.635434 -0.194882,-1.27087 -0.239764,-1.9004 -0.0496064,-0.698033 -0.0625985,-1.3937 -0.0685041,-2.08583 -0.00826773,-0.894096 -0.0236221,-1.79055 -0.0307087,-2.68583 -0.0271654,-2.68347 -0.0637796,-5.36812 -0.102756,-8.05395 -0.0377953,-2.52166 -0.134646,-5.05395 -0.309449,-7.5945 -0.158268,-2.27717 -0.424017,-4.57206 -0.858663,-6.87167 -0.357875,-1.89567 -0.831498,-3.89765 -1.71496,-5.77442 -0.650789,-1.38189 -1.64055,-2.70945 -3.0378,-3.79961 -1.16693,-0.910632 -2.47205,-1.59213 -3.95552,-2.0067 -1.57914,-0.441733 -3.17127,-0.623623 -4.72678,-0.596458 -1.76575,0.0295276 -3.45591,0.264567 -5.06458,0.647245 -1.71614,0.407481 -3.33308,0.967325 -4.84843,1.64764 -1.36772,0.614174 -2.66103,1.31693 -3.82442,2.13071 -0.167717,1.87796 -0.36378,3.75355 -0.624804,5.61025 -0.242126,1.71614 -0.516143,3.4252 -0.825592,5.12599 -0.289371,1.59331 -0.590552,3.18308 -0.92008,4.76694 -0.336615,1.62048 -0.663781,3.24449 -0.989766,4.86969 -0.362599,1.80827 -0.686222,3.62835 -0.998033,5.45198 -0.368505,2.15079 -0.69449,4.31339 -0.976774,6.48781 -0.206693,1.59213 -0.261024,3.40749 0.223229,5.08229 0.292914,1.01339 0.809057,2.16496 1.75866,3.02008 0.746458,0.672049 1.61221,1.09016 2.65158,1.2815 1.29803,0.239764 2.60552,0.0803151 3.73938,-0.199607 1.52008,-0.376772 2.90788,-1.04173 4.12914,-1.78583 0.0153544,-0.359056 0.034252,-0.715749 0.0507875,-1.07481 0.0318898,-0.674411 0.0637796,-1.34764 0.112205,-2.01969 0.0472442,-0.667324 0.105118,-1.33465 0.184252,-1.99607 0.0555119,-0.478347 0.12874,-0.999214 0.282284,-1.44922l0.191339 -0.555119 0.77008 0c0.380316,0 0.760631,0.00354331 1.14449,0.011811 0.543308,0.0141733 1.08307,0.0141733 1.62402,0.0259843 0.568111,0.0129922 1.13386,0.011811 1.70197,0.0248032 0.439371,0.00944884 0.874017,0.011811 1.30985,0.011811l1.53544 0 -0.0425198 1.19646c-0.00826773,0.240945 -0.0354331,0.486615 -0.0507875,0.728742 -0.0330709,0.536221 -0.00472442,1.09961 0.0307087,1.64764 0.0425198,0.6626 0.170079,1.3311 0.364961,2.00197 0.161811,0.557481 0.412206,1.13622 0.82323,1.65 0.494883,0.618899 1.13622,1.12205 1.94882,1.47284 0.838584,0.361418 1.71851,0.526773 2.59489,0.555119 1.04055,0.034252 2.03032,-0.0921262 2.94922,-0.340158 1.01693,-0.274016 1.92874,-0.695671 2.72245,-1.22008 0.731104,-0.484253 1.32402,-1.05945 1.78583,-1.71969zm-20.5855 -14.6988c0.142914,-0.93071 0.261024,-1.86733 0.35315,-2.80985 0.108662,-1.11378 0.197244,-2.23229 0.278741,-3.35197 0.0826773,-1.11732 0.158268,-2.23347 0.231497,-3.35197 0.0614174,-0.946065 0.125197,-1.89213 0.201969,-2.83583 0.0507875,-0.602363 0.0968506,-1.21418 0.177166,-1.81181l0.0413387 -0.310631c0.00826773,-0.359056 0.0283465,-3.92954 0.119292,-3.98268 6.02363,0.292914 5.86418,8.57246 5.90789,11.765 0.0177166,1.27087 0.0295276,2.54056 0.0236221,3.80788 -0.00472442,1.12205 -0.00590552,2.24646 0.00472442,3.37205l0.00826773 0.788978 -7.5449 0 0.197244 -1.27914z"/>
    <path id="_440855568" class="fil0" d="M338.772 191.553c0.0744096,1.32874 0.141733,2.6563 0.187796,3.9815 0.0437009,1.24488 0.0814962,2.49095 0.0992128,3.73347 0.0165355,1.14449 0.00472442,2.28544 -0.00826773,3.42638 -0.0141733,1.20118 -0.0472442,2.39882 -0.0862206,3.59646 -0.0460631,1.40788 -0.0874017,2.81575 -0.145276,4.22127 -0.0732285,1.76693 -0.154725,3.53268 -0.211418,5.30198 -0.0366142,1.15984 -0.0826773,2.31497 -0.153544,3.46654 -0.0779529,1.27559 -0.15,2.55355 -0.226772,3.82914 -0.0732285,1.22953 -0.133465,2.46142 -0.172441,3.69804 -0.0318898,1.00276 -0.0437009,2.01733 0.0248032,3.03544 0.0685041,1.0311 0.292914,2.28662 0.937797,3.30001 0.382678,0.600001 0.905907,1.1941 1.66181,1.55906 0.728742,0.351969 1.4941,0.522048 2.27599,0.549214 0.981498,0.034252 1.9063,-0.0720474 2.78504,-0.285827 0.944884,-0.230315 1.82599,-0.553938 2.62796,-0.967325 0.616537,-0.317717 1.19292,-0.693308 1.663,-1.1374 0.0413387,-1.11378 0.0814962,-2.2252 0.113386,-3.33898 0.0413387,-1.47402 0.0850395,-2.94686 0.116929,-4.42206 0.034252,-1.50827 0.0614174,-3.01772 0.0744096,-4.53072 0.011811,-1.29331 0.0354331,-2.5878 0.0153544,-3.88702l-0.0106299 -0.702757 0.868112 -0.0826773c1.08071,-0.103937 2.34922,-0.107481 3.4819,0.243308 1.29331,0.399213 2.10591,1.26378 2.57363,2.24646 0.561025,1.18229 0.72756,2.67756 0.807876,3.85867 0.145276,2.113 0.107481,4.23898 0.0543308,6.32363 -0.0307087,1.17874 0.0732285,2.63741 0.674411,3.83741 0.354331,0.706301 0.875199,1.44213 1.69489,1.92874 0.754726,0.447639 1.56496,0.689765 2.42953,0.773624 1.05945,0.103937 2.08347,0.0413387 3.04725,-0.145276 1.05945,-0.20315 2.04449,-0.52441 2.94922,-0.946065 0.688584,-0.32126 1.33347,-0.703938 1.87087,-1.16339 -0.308268,-1.29803 -0.473623,-2.59371 -0.536221,-3.87284 -0.0708663,-1.47402 -0.0980317,-2.94095 -0.0732285,-4.39961 0.0212599,-1.32756 0.00472442,-2.66103 -0.0519686,-3.99922 -0.0425198,-1.00512 -0.200788,-2.03268 -0.548033,-3.05197 -0.298819,-0.881104 -0.765356,-1.72914 -1.45394,-2.52402 -2.31497,-2.67993 -7.22836,-3.09568 -9.75238,-3.25512 6.12167,-1.40315 8.16143,-5.10946 9.89648,-9.70041 0.575198,-1.52008 0.943703,-3.10985 1.10788,-4.74922 0.15,-1.48111 0.0803151,-3.02953 -0.381497,-4.57324 -0.216142,-0.720474 -0.612993,-1.66772 -1.29567,-2.27717 -0.44882,-0.399213 -0.953151,-0.6626 -1.57559,-0.774805 -0.790159,-0.144095 -1.57087,-0.140551 -2.30552,-0.0377953 -0.924805,0.129922 -1.82008,0.33189 -2.67638,0.583466 -0.675592,0.198426 -1.34882,0.400394 -2.01733,0.60945 -0.152362,1.17166 -0.244489,2.35985 -0.308268,3.54922 -0.0814962,1.53662 -0.200788,3.06497 -0.338977,4.58977 -0.137008,1.52008 -0.380316,3.02245 -0.766537,4.47993 -0.351969,1.32992 -0.898821,2.61378 -1.76457,3.72757 -0.818505,1.05591 -1.98426,1.83189 -3.54449,2.19922l-1.74685 0.409843 -0.0637796 -1.51418c-0.0531497,-1.28386 -0.00944884,-2.56182 0.0578741,-3.8256 0.0838584,-1.57205 0.13937,-3.14882 0.177166,-4.72796 0.0389765,-1.71614 -0.00708663,-3.4441 -0.21378,-5.19095 -0.111024,-0.931892 -0.394489,-2.12835 -1.08544,-3.00945 -0.415749,-0.530316 -0.94134,-0.974411 -1.66654,-1.22835 -0.797246,-0.279922 -1.60276,-0.380316 -2.39882,-0.35315 -0.981498,0.034252 -1.92874,0.147638 -2.82875,0.362599 -0.896458,0.214961 -1.76811,0.466536 -2.60197,0.77008 -0.420473,0.153544 -0.851576,0.310631 -1.26378,0.483072z"/>
    <path id="_440855496" class="fil0" d="M296.031 191.149c0.0555119,0.579922 0.115748,1.15984 0.170079,1.73859 0.0708663,0.721655 0.121654,1.44095 0.17126,2.16024 0.056693,0.796065 0.0838584,1.59095 0.103937,2.38347 0.0259843,0.980317 0.0153544,1.95473 0,2.92914 -0.022441,1.35473 -0.0401576,2.71064 -0.0803151,4.063 -0.0543308,1.8378 -0.112205,3.67442 -0.170079,5.51103 -0.0779529,2.45552 -0.129922,4.91694 -0.180709,7.37718 -0.0649608,3.22205 -0.102756,6.45001 -0.135827,9.67797 -0.0165355,1.64055 0.0543308,3.67914 0.664962,5.35867 0.290552,0.798427 0.803151,1.75512 1.78819,2.25827 1.06654,0.543308 2.54174,0.587009 3.62835,0.533859 1.27559,-0.0637796 2.30788,-0.441733 3.19961,-1.04646 1.11851,-0.762994 1.99489,-1.74095 2.69764,-2.77796 0.875199,-1.2874 1.57323,-2.66693 2.14961,-4.0878 0.64134,-1.57914 1.18583,-3.19489 1.65945,-4.83308 0.94134,-3.25158 2.99528,-13.7433 6.24214,-13.5284l-0.0318898 0.835041c-0.0330709,0.918899 -0.0720474,1.83662 -0.114567,2.75434 -0.0602363,1.30512 -0.124016,2.60906 -0.18189,3.91536 -0.0661419,1.45276 -0.13937,2.90434 -0.210237,4.35591 -0.067323,1.3441 -0.131103,2.68938 -0.187796,4.03583 -0.0413387,0.998033 -0.0814962,1.99725 -0.122835,2.99646 -0.0460631,1.11851 -0.0637796,2.25473 0.022441,3.39449 0.0590552,0.768899 0.205512,1.62992 0.574017,2.4 0.227953,0.473623 0.568111,0.86575 1.12914,1.15512 0.705119,0.364961 1.79292,0.432284 2.5252,0.428741 1.31929,-0.00472442 2.65749,-0.11811 3.83268,-0.447639 0.934254,-0.263386 1.83898,-0.616537 2.57008,-1.10906 0.451182,-0.303544 0.889372,-0.664962 1.18583,-1.08425 -0.129922,-0.788978 -0.137008,-1.6689 -0.161811,-2.42126 -0.0519686,-1.55551 -0.0602363,-3.10631 -0.0531497,-4.65355 0.00944884,-1.99961 0.0330709,-3.99568 0.0696852,-5.99056 0.0401576,-2.22284 0.0992128,-4.44332 0.164174,-6.66143 0.0649608,-2.21693 0.142914,-4.4315 0.225591,-6.64608 0.0555119,-1.49055 0.122835,-2.98111 0.191339,-4.4693 0.0578741,-1.27205 0.114567,-2.5441 0.190158,-3.81379 0.0555119,-0.972049 0.133465,-1.94174 0.180709,-2.91497 0.0496064,-1.02166 -0.0555119,-2.2252 -0.611812,-3.26339 -0.350788,-0.656694 -0.864569,-1.23544 -1.67126,-1.61693 -0.924805,-0.43819 -2.02205,-0.550395 -2.98111,-0.555119 -1.33229,-0.00472442 -2.68701,0.108662 -3.85749,0.466536 -1.08071,0.330709 -1.92166,0.914175 -2.57599,1.63465 -0.894096,0.985041 -1.48229,2.25709 -1.89922,3.463 -0.558662,1.61575 -1.09843,3.23741 -1.64292,4.8567 -0.612993,1.82244 -1.22008,3.64489 -1.80945,5.47442 -1.06418,3.30827 -3.20906,10.6689 -5.74489,10.8614l0.0330709 -0.871655c0.0236221,-0.629529 0.0625985,-1.25788 0.0956695,-1.88741 0.0519686,-1.00512 0.113386,-2.00906 0.172441,-3.013 0.0696852,-1.22835 0.145276,-2.45552 0.219685,-3.68268 0.0779529,-1.28977 0.162992,-2.57835 0.240945,-3.86812 0.0732285,-1.19292 0.146457,-2.38583 0.217323,-3.57993 0.0543308,-0.938978 0.113386,-1.87796 0.162992,-2.81812 0.0283465,-0.530316 0.0637796,-1.06063 0.0850395,-1.59213 0.0377953,-1.04646 -0.0271654,-2.42363 -0.56693,-3.49135 -0.298819,-0.592915 -0.735828,-1.14685 -1.48347,-1.47284 -0.902364,-0.394489 -1.98426,-0.490158 -2.90316,-0.479528 -0.774805,0.0106299 -1.54134,0.121654 -2.25591,0.270473 -0.883466,0.183071 -1.74331,0.4063 -2.59016,0.648426 -0.705119,0.20315 -1.40315,0.419292 -2.08583,0.654332 -0.0838584,0.0283465 -0.167717,0.056693 -0.252756,0.0850395z"/>
    <path id="_440855424" class="fil0" d="M255.967 191.141c0.0555119,0.713387 0.100394,1.42677 0.141733,2.14016 0.0484253,0.86575 0.067323,1.72796 0.0720474,2.5878 0.00354331,1.01103 -0.00944884,2.01851 -0.0413387,3.02245 -0.0437009,1.34646 -0.0956695,2.69174 -0.151181,4.03702 -0.0779529,1.88032 -0.147638,3.763 -0.223229,5.64332 -0.103937,2.61615 -0.188977,5.23702 -0.281103,7.85553 -0.125197,3.5504 -0.227953,7.10434 -0.350788,10.6571 -0.0425198,1.24607 -0.0413387,2.5063 0.034252,3.77127 0.0519686,0.856301 0.206693,1.80118 0.604726,2.66103 0.243308,0.52441 0.621261,0.956695 1.24961,1.26496 0.813781,0.396851 2.13426,0.441733 2.96457,0.432284 1.08307,-0.0129922 2.24056,-0.0874017 3.21969,-0.34252 0.714568,-0.186615 1.4315,-0.434646 2.00788,-0.787797 0.415749,-0.255119 0.859844,-0.552757 1.17047,-0.889372 0.183071,-0.197244 0.364961,-0.396851 0.537403,-0.601182 0.0708663,-1.25315 0.131103,-2.50867 0.183071,-3.76536 0.0696852,-1.67599 0.119292,-3.35788 0.164174,-5.03859 0.0531497,-1.87559 0.0909451,-3.75473 0.115748,-5.63505l0.0106299 -0.772442 0.987403 0c0.917718,0 1.83071,-0.0909451 2.70945,-0.199607 1.00394,-0.125197 1.98426,-0.298819 2.94213,-0.513781l1.85788 -0.415749 -0.0602363 1.5815c-0.0555119,1.44449 -0.102756,2.89134 -0.15,4.33702 -0.0543308,1.63347 -0.0803151,3.27166 -0.124016,4.90749 -0.034252,1.24961 -0.0425198,2.51103 0.0330709,3.77717 0.0531497,0.856301 0.206693,1.80118 0.604726,2.66103 0.243308,0.52441 0.621261,0.956695 1.25079,1.26496 0.8126,0.396851 2.13307,0.441733 2.96339,0.432284 1.08307,-0.0129922 2.24174,-0.0874017 3.22087,-0.34252 0.714568,-0.186615 1.43032,-0.434646 2.00788,-0.787797 0.414568,-0.255119 0.861025,-0.552757 1.17047,-0.889372 0.184252,-0.197244 0.364961,-0.398032 0.538584,-0.602363 0.0885828,-1.37362 0.155906,-2.75315 0.206693,-4.13387 0.0685041,-1.82835 0.134646,-3.65552 0.180709,-5.48741 0.0531497,-2.05394 0.0933073,-4.10906 0.135827,-6.16418 0.0437009,-2.11654 0.0814962,-4.23426 0.119292,-6.35198 0.034252,-2.02205 0.0779529,-4.04292 0.129922,-6.06143 0.044882,-1.77402 0.0850395,-3.54804 0.151181,-5.31851 0.0507875,-1.36181 0.107481,-2.72363 0.187796,-4.0819 0.0602363,-1.01575 0.00944884,-2.40355 -0.602363,-3.43701 -0.377953,-0.637796 -0.907088,-1.21063 -1.72559,-1.54843 -0.94134,-0.388583 -1.95118,-0.52441 -2.9126,-0.516143 -1.12323,0.0106299 -2.29607,0.125197 -3.24331,0.490158 -0.762994,0.294095 -1.42205,0.698033 -1.91103,1.23662 -0.458269,0.506694 -0.806694,1.07362 -1.02166,1.69843 -0.205512,0.596458 -0.350788,1.21536 -0.409843,1.85315 -0.0507875,0.537403 -0.0732285,1.07717 -0.0732285,1.62284 0.00354331,0.912994 -0.0295276,1.82244 -0.0519686,2.73071 -0.0295276,1.16457 -0.0637796,2.32914 -0.107481,3.49016 -0.0590552,1.56614 -0.11811,3.13347 -0.175985,4.69962l-0.0212599 0.570474 -0.667324 0.152362c-1.02756,0.233859 -2.08465,0.415749 -3.16654,0.54567 -1.03583,0.124016 -2.07993,0.227953 -3.13465,0.304725l-1.63229 0.119292 0.0307087 -1.30276c0.0377953,-1.65945 0.0708663,-3.3189 0.114567,-4.97599 0.0366142,-1.44567 0.0897639,-2.88898 0.137008,-4.33229 0.0377953,-1.13622 0.0838584,-2.27245 0.152362,-3.40276 0.0614174,-1.01693 0.00944884,-2.4 -0.603544,-3.43583 -0.377953,-0.637796 -0.907088,-1.21063 -1.72559,-1.54843 -0.940159,-0.388583 -1.94646,-0.527954 -2.9067,-0.516143 -0.752364,0.0106299 -1.49528,0.11811 -2.18741,0.26693 -0.840946,0.184252 -1.66063,0.403938 -2.46378,0.647245 -0.661419,0.201969 -1.31339,0.41693 -1.95118,0.65197 -0.0755907,0.0283465 -0.154725,0.0555119 -0.231497,0.0838584z"/>
    <path id="_440855352" class="fil0" d="M215.087 193.118c0.311812,1.47048 0.700395,2.94331 1.16575,4.41261 0.474804,1.49646 1.01457,2.99174 1.6252,4.47993 0.649608,1.5815 1.35709,3.15709 2.09764,4.72678 0.849214,1.80118 1.72559,3.59764 2.61142,5.3941l0.185433 0.373229 -0.168898 0.324804c-0.531497,1.01811 -1.09607,2.02205 -1.69252,3.00945 -0.591733,0.979136 -1.18347,1.95827 -1.77638,2.93623 -0.667324,1.09607 -1.2874,2.21575 -1.89449,3.34016 -0.740553,1.37008 -1.40433,2.77914 -2.05512,4.1882 -0.364961,0.792521 -0.685041,1.60512 -0.927167,2.44252 -0.22441,0.765356 -0.382678,1.5567 -0.414568,2.3693 -0.0295276,0.75945 0.0732285,1.64528 0.525592,2.40827 0.34252,0.579922 0.935435,0.956695 1.66418,1.22126 1.26024,0.45945 3.00237,0.543308 4.25906,0.543308 0.407481,0 0.8126,-0.0141733 1.20827,-0.0555119 0.387402,-0.0389765 0.77008,-0.0921262 1.14213,-0.166536 0.308268,-0.0625985 0.614174,-0.131103 0.914175,-0.205512 0.585828,-1.70315 1.13622,-3.41812 1.65,-5.14489 0.568111,-1.91693 1.1811,-3.81969 1.813,-5.71655 0.628348,-1.88268 1.35827,-3.72875 2.19685,-5.53229l1.31929 -2.83229 1.06772 3.26221c0.338977,1.03465 0.603544,2.07874 0.836222,3.11339 0.281103,1.24488 0.58819,2.49095 0.902364,3.73583 0.320079,1.26969 0.709844,2.53937 1.17166,3.80434 0.402757,1.10433 0.918899,2.20867 1.59331,3.27166 0.485434,0.764175 1.12323,1.52126 1.97953,2.09528 0.718112,0.481891 1.49055,0.669686 2.3315,0.669686 1.15276,0 2.17914,-0.263386 3.09095,-0.686222 1.00748,-0.467717 1.84134,-1.08189 2.49804,-1.8378 0.57756,-0.663781 0.980317,-1.41614 1.15984,-2.24882 -1.44095,-2.94449 -2.8819,-5.88899 -4.29804,-8.83821 -1.52481,-3.17481 -3.0815,-6.34489 -4.65946,-9.51144l-0.18189 -0.364961 0.154725 -0.318898c0.896458,-1.8437 1.81536,-3.67678 2.77441,-5.49214 0.840946,-1.59213 1.66181,-3.19489 2.4567,-4.8071 0.722836,-1.46693 1.38189,-2.96221 1.93819,-4.4941 0.523229,-1.44449 0.914175,-2.9315 1.18937,-4.45158 -0.162992,-0.569292 -0.43819,-1.19646 -0.911813,-1.68898 -0.401576,-0.419292 -0.879923,-0.733466 -1.47284,-0.947246 -0.667324,-0.240945 -1.34646,-0.334253 -2.02087,-0.334253 -0.877561,0 -1.69607,0.162992 -2.44489,0.418111 -0.875199,0.298819 -1.63111,0.739371 -2.28308,1.25906 -0.689765,0.551576 -1.20827,1.20118 -1.58859,1.93229 -0.0708663,0.654332 -0.200788,1.31221 -0.335434,1.94882 -0.226772,1.06536 -0.479528,2.12481 -0.741734,3.18071 -0.300001,1.21063 -0.623623,2.41418 -0.961419,3.613 -0.317717,1.13622 -0.640159,2.27363 -1.00276,3.39568 -0.270473,0.837403 -0.546851,1.69252 -0.898821,2.49922l-1.19055 2.72953 -1.18819 -3.1004c-0.265749,-0.69449 -0.477166,-1.40315 -0.666143,-2.10237 -0.253937,-0.933073 -0.472442,-1.86851 -0.689765,-2.80158 -0.240945,-1.03583 -0.47008,-2.07166 -0.698033,-3.10749 -0.214961,-0.986222 -0.435828,-1.97363 -0.650789,-2.96103 -0.172441,-0.793702 -0.348426,-1.58859 -0.537403,-2.38347 -0.101575,-0.432284 -0.211418,-0.888191 -0.361418,-1.31929 -0.226772,-0.65197 -0.592915,-1.45866 -1.18701,-2.01969 -0.429922,-0.408662 -0.946065,-0.754726 -1.5567,-0.950789 -0.6626,-0.21378 -1.32874,-0.311812 -1.99134,-0.304725 -0.946065,0.011811 -1.85433,0.137008 -2.63386,0.465355 -0.783072,0.329528 -1.43859,0.77008 -1.97953,1.31339 -0.565749,0.568111 -1.05118,1.19055 -1.46103,1.84843z"/>
    <path id="_440855280" class="fil0" d="M160.941 232.441c0.0933073,-1.48937 0.165355,-2.98347 0.220867,-4.48111 0.0744096,-1.9878 0.12874,-3.97914 0.175985,-5.97166 0.0531497,-2.22638 0.0933073,-4.45513 0.131103,-6.68387 0.0366142,-2.26418 0.0685041,-4.52836 0.111024,-6.79135 0.0389765,-2.11063 0.111024,-5.18977 0.152362,-7.29923l0.0153544 -0.768899 0.982679 0c0.758269,0 1.51772,0 2.27245,-0.011811 0.696852,-0.011811 1.39488,-0.0271654 2.08701,-0.0602363 1.13977,-0.0543308 2.24646,-0.268111 3.06969,-0.806694 2.25355,-1.4752 3.1252,-5.17914 1.47284,-7.64765 -0.511418,-0.766537 -1.21536,-1.36772 -2.19331,-1.77992 -1.16929,-0.494883 -2.45079,-0.648426 -3.64725,-0.648426l-13.5685 0c-1.78111,0 -3.55512,0.022441 -5.33151,0.0377953 -1.14095,0.00944884 -2.28426,0.0129922 -3.42993,0.0129922 -0.657875,0 -1.31811,0 -1.97599,0 -0.265749,0 -0.539765,0.00236221 -0.811419,-0.00354331 -0.41693,1.63819 -0.745277,3.3319 -0.858663,5.03859 -0.230315,3.47245 1.71969,5.64568 6.49726,5.64568l3.6815 0 -0.044882 1.19764c-0.0330709,0.892915 -0.0614174,1.78583 -0.100394,2.67875 -0.0472442,1.07835 -0.116929,3.12756 -0.157087,4.20946 -0.0519686,1.4067 -0.103937,2.81339 -0.145276,4.22245 -0.056693,1.89804 -0.114567,3.79489 -0.164174,5.69411 -0.067323,2.52874 -0.109843,5.06103 -0.188977,7.58742 -0.0425198,1.33937 -0.044882,2.68701 0.0248032,4.04292 0.0519686,1.00158 0.210237,2.07756 0.610631,3.08977 0.243308,0.611812 0.644883,1.18937 1.34055,1.60394 0.775986,0.464174 2.00906,0.525592 2.83465,0.514962 1.08189,-0.011811 2.24056,-0.0850395 3.21851,-0.34252 0.715749,-0.186615 1.43268,-0.434646 2.01024,-0.787797 0.414568,-0.255119 0.859844,-0.552757 1.16929,-0.888191 0.184252,-0.198426 0.366142,-0.398032 0.538584,-0.603544z"/>
    <path id="_440855256" class="fil0" d="M60.2281 189.897c0.11811,2.37993 0.190158,4.75513 0.214961,7.12324 0.0283465,2.78504 0.0200788,5.56536 -0.0259843,8.3386 -0.0437009,2.72481 -0.11811,5.44489 -0.220867,8.16025 -0.0921262,2.4626 -0.232678,4.91576 -0.335434,7.376 -0.067323,1.6063 -0.079134,3.22087 -0.108662,4.8319 -0.0236221,1.31339 0.00826773,2.65276 0.184252,3.99213 0.122835,0.933073 0.377953,1.94292 0.904726,2.85591 0.382678,0.663781 0.936616,1.20118 1.7315,1.60985 1.01929,0.52441 2.39056,0.726379 3.48308,0.809057 1.27796,0.0968506 2.55473,0.184252 3.82678,0.24567 1.10197,0.0531497 2.2004,0.0850395 3.29056,0.0850395 1.07126,0 2.13426,-0.0307087 3.18898,-0.0850395 1.1811,-0.0602363 2.35276,-0.147638 3.52087,-0.24567 7.02403,-0.584647 8.02442,-4.28741 6.46891,-9.41458 -4.97717,0.68386 -10.5815,1.07126 -15.9567,0 0.0992128,-2.68347 -0.111024,-5.93033 0.420473,-8.49096 3.55394,-0.0236221 8.08939,-0.132284 11.6421,-0.153544 0.785435,-0.00590552 1.42559,-0.209056 1.94882,-0.592915 0.618899,-0.452363 1.03583,-1.02638 1.31457,-1.67244 0.308268,-0.718112 0.453544,-1.49055 0.457087,-2.29134 0.00472442,-0.740553 -0.114567,-1.50355 -0.421654,-2.25591 -0.218504,-0.531497 -0.553938,-1.05 -1.08662,-1.47166 -0.41693,-0.328347 -0.914175,-0.41693 -1.42796,-0.433465 -3.96497,-0.121654 -8.29844,0.359056 -12.378,-0.0129922l0.37441 -9.14766c3.15709,-0.252756 6.24686,-0.34252 9.5138,-0.183071 0.814962,0.0401576 1.62992,0.0850395 2.44252,0.111024 0.859844,0.0271654 1.58268,-0.167717 2.18032,-0.557481 2.37048,-1.54725 3.53623,-5.94568 1.3689,-8.51104 -2.79686,-0.295276 -23.2359,-0.153544 -26.5158,-0.0188977z"/>
    <path id="_432705896" class="fil0" d="M3.4441 191.855c0.0708663,0.711025 0.141733,1.42323 0.204331,2.13426 0.0744096,0.832679 0.121654,1.663 0.161811,2.49331 0.0460631,0.969687 0.0649608,1.93819 0.0708663,2.90316 0.00826773,1.30748 -0.0177166,2.6126 -0.0496064,3.91418 -0.0460631,1.85315 -0.116929,3.7004 -0.196063,5.54765 -0.111024,2.60079 -0.227953,5.19922 -0.350788,7.79883 -0.167717,3.55749 -0.340158,7.11379 -0.517324,10.6713 -0.0720474,1.44567 0.0165355,3.0319 0.553938,4.52363 0.33189,0.918899 0.878742,1.91103 1.84134,2.61969 0.839765,0.618899 1.82835,0.826773 2.83701,0.826773 1.21536,-0.0011811 2.25,-0.335434 3.13229,-0.85512 1.10906,-0.649608 1.87796,-1.57796 2.43189,-2.5878 0.702757,-1.2815 0.987403,-2.75315 1.03701,-4.23072 0.0330709,-0.98386 0.0200788,-1.98307 0.00708663,-2.97402 -0.0200788,-1.44803 -0.0531497,-2.89843 -0.100394,-4.35119 -0.0531497,-1.70433 -0.115748,-3.40985 -0.187796,-5.11655 -0.0755907,-1.76811 -0.152362,-3.53741 -0.230315,-5.3067 -0.0720474,-1.62756 -0.142914,-3.25512 -0.223229,-4.88387 -0.0625985,-1.2874 -0.132284,-2.57717 -0.199607,-3.86576l-0.0437009 -0.851576c3.76772,0.100394 5.04332,17.8878 5.42599,22.1126 0.154725,1.70788 0.323623,3.41694 0.519686,5.12836 0.134646,1.17638 0.275197,2.38465 0.529135,3.56694 0.11811,0.557481 0.312993,1.11614 0.552757,1.66772 0.218504,0.498426 0.519686,0.9626 0.94134,1.39961 0.389765,0.405119 0.904726,0.686222 1.46693,0.903545 0.797246,0.309449 1.77874,0.389765 2.58189,0.393308 0.640159,0.00354331 1.25551,-0.129922 1.80591,-0.309449 0.713387,-0.233859 1.32756,-0.616537 1.85079,-1.04055 0.674411,-0.549214 1.18465,-1.2189 1.56851,-1.93819 0.498426,-0.927167 0.760631,-1.98426 0.892915,-3.0319 0.151181,-1.19882 0.301182,-2.39646 0.467717,-3.59174 0.21378,-1.51536 0.435828,-3.02953 0.659056,-4.54253 0.592915,-4.02402 1.7941,-19.467 5.93505,-20.3528l-0.0259843 0.858663c-0.0826773,2.84882 -0.204331,5.68938 -0.389765,8.51931 -0.168898,2.59371 -0.335434,5.18741 -0.527954,7.77757 -0.159449,2.15079 -0.304725,4.30395 -0.419292,6.463 -0.0814962,1.52362 -0.0755907,3.04371 -0.0413387,4.58505 0.0153544,0.72756 0.0649608,1.45158 0.198426,2.19213 0.129922,0.726379 0.396851,1.44685 0.811419,2.14961 0.351969,0.595277 0.851576,1.07244 1.54843,1.46221 0.825592,0.461812 1.92756,0.574017 2.80985,0.576379 0.977955,0.00236221 1.88622,-0.147638 2.74134,-0.4063 0.857482,-0.258662 1.63701,-0.614174 2.30552,-1.08071 0.529135,-0.369686 0.963781,-0.805513 1.27441,-1.31575 -0.173622,-1.77402 -0.250394,-3.54449 -0.28819,-5.30316 -0.0460631,-2.15906 -0.044882,-4.30985 -0.0106299,-6.45592 0.0366142,-2.27717 0.0803151,-4.55316 0.148819,-6.82442 0.0661419,-2.21221 0.129922,-4.42442 0.186615,-6.63663 0.0519686,-1.95237 0.0992128,-3.90473 0.101575,-5.86418 0.0011811,-1.49055 -0.00826773,-3.00355 -0.137008,-4.51182 -0.101575,-1.19646 -0.409843,-2.45552 -1.10906,-3.62717 -0.52441,-0.877561 -1.23662,-1.69252 -2.2063,-2.34685 -0.872836,-0.587009 -1.81536,-0.975592 -2.86418,-1.1811 -1.14095,-0.22441 -2.24292,-0.199607 -3.27993,-0.00472442 -1.25788,0.233859 -2.35276,0.744096 -3.28465,1.3689 -1.18701,0.797246 -2.09174,1.83071 -2.79449,2.94331 -0.896458,1.41378 -1.43977,3.01182 -1.74331,4.6441 -0.28819,1.55788 -0.57756,3.11457 -0.87638,4.66773 -0.307087,1.5874 -0.611812,3.17245 -0.928348,4.75631 -0.297638,1.48229 -0.596458,2.96339 -0.904726,4.4445 -0.258662,1.23425 -0.523229,2.46851 -0.781891,3.70513 -0.180709,0.86575 -0.357875,1.73504 -0.551576,2.59725l-1.3937 6.19135 -1.07126 -6.61182c-0.148819,-0.914175 -0.232678,-1.83662 -0.311812,-2.74371 -0.121654,-1.3878 -0.227953,-2.7756 -0.333071,-4.16221 -0.125197,-1.64528 -0.255119,-3.29174 -0.396851,-4.93938 -0.145276,-1.67599 -0.301182,-3.35197 -0.487796,-5.03032 -0.161811,-1.46339 -0.36378,-2.9315 -0.623623,-4.4008 -0.173622,-0.976774 -0.377953,-2.05512 -0.742915,-3.03071 -0.351969,-0.938978 -0.925986,-1.9689 -1.90158,-2.70119 -0.861025,-0.646064 -1.83898,-1.07835 -2.92441,-1.31693 -1.29922,-0.287008 -2.60788,-0.382678 -3.87402,-0.347245 -1.43504,0.0425198 -2.83229,0.204331 -4.17757,0.460631 -1.30276,0.249213 -2.58308,0.549214 -3.80788,0.925986 -0.768899,0.236221 -1.55551,0.487796 -2.29134,0.779529z"/>
    <path id="_432705776" class="fil0" d="M96.2116 224.129c-3.06615,3.07087 -3.04371,10.1918 -2.72599,14.3315 0.0425198,0.562206 0.199607,1.29685 0.676773,1.81654 0.376772,0.409843 0.826773,0.69449 1.4067,0.882285 0.744096,0.240945 1.50945,0.35315 2.25709,0.377953 0.872836,0.0271654 1.72559,-0.0165355 2.55237,-0.126378 0.732285,-0.0956695 1.46457,-0.227953 2.1437,-0.421654 0.174803,-0.0496064 0.507875,-0.145276 0.755907,-0.24567 0.0531497,-0.558662 0.0803151,-1.12205 0.0850395,-1.6878 0.00472442,-0.772442 0.00826773,-1.54488 -0.0177166,-2.32087 -0.0200788,-0.627167 -0.0484253,-1.25551 -0.0838584,-1.88504 -0.0165355,-0.269292 -0.0519686,-0.585828 -0.0413387,-0.850395l0.0248032 -0.757088 0.972049 0c0.32126,0 0.642521,0 0.963781,0 0.842128,0 1.68071,-0.0129922 2.52284,-0.0129922 1.19055,0 2.38111,0 3.57166,0 1.36536,0 2.72953,0 4.09371,0 1.36654,0 2.73308,0.00590552 4.10198,0.0129922 1.19528,0.00590552 2.3941,0.022441 3.59174,0.0366142 0.856301,0.0106299 1.71378,0.0129922 2.57245,0.0389765 0.722836,0.0200788 1.61693,-0.0011811 2.1567,0.614174l0.263386 0.298819 0.00236221 0.328347c0,0.251575 -0.0472442,0.538584 -0.0661419,0.790159 -0.0425198,0.587009 -0.0838584,1.1752 -0.125197,1.76457 -0.0507875,0.69449 -0.0992128,1.39016 -0.137008,2.08819 -0.0307087,0.555119 -0.0685041,1.11378 -0.0543308,1.67835 0.0259843,0.0425198 0.142914,0.119292 0.190158,0.15 0.402757,0.262205 0.98386,0.451182 1.45158,0.576379 0.775986,0.207874 1.58504,0.302363 2.35985,0.341339 0.923624,0.0460631 1.81418,-0.0129922 2.66221,-0.177166 0.767718,-0.146457 1.56733,-0.388583 2.13426,-0.786616 0.473623,-0.333071 0.805513,-0.74882 1.0063,-1.24016 1.26024,-3.10749 0.752364,-10.1835 0.164174,-13.6689 -0.112205,-0.663781 -0.230315,-1.3311 -0.367324,-1.99725 -0.152362,0.00236221 -0.304725,0.00354331 -0.457087,0.00590552 -0.558662,0.00708663 -1.11496,0.0188977 -1.67835,0.0129922 -0.594096,-0.00708663 -1.19055,-0.0248032 -1.79174,-0.0661419l-1.26733 -0.0897639 -0.113386 -0.992128c-0.112205,-0.989766 -0.134646,-1.99843 -0.155906,-2.97875 -0.034252,-1.56378 -0.0366142,-3.1252 -0.0283465,-4.6819 0.00826773,-1.963 0.0460631,-3.92363 0.0874017,-5.88072 0.044882,-2.18741 0.108662,-4.37009 0.185433,-6.55159 0.0767718,-2.23583 0.166536,-4.46812 0.274016,-6.69923 0.0885828,-1.85315 0.196063,-3.70276 0.315355,-5.55119 -0.484253,-0.140551 -0.99449,-0.249213 -1.44449,-0.335434 -1.18465,-0.225591 -2.38347,-0.375591 -3.56575,-0.487796 -1.38307,-0.133465 -2.75906,-0.220867 -4.12914,-0.268111 -1.37244,-0.0460631 -2.73544,-0.0543308 -4.09135,-0.0354331 -1.16693,0.0153544 -2.33268,0.0602363 -3.47363,0.157087 -1.79292,0.15 -3.60827,0.455906 -5.12599,1.08189 -1.3063,0.538584 -2.36811,1.26969 -3.18071,2.22402 -0.901183,1.05709 -1.51299,2.2878 -1.9252,3.56694 -0.532678,1.65 -0.856301,3.38977 -1.08544,5.12599 -0.343701,2.6126 -0.649608,5.23584 -0.874017,7.87679 -0.20315,2.38347 -0.401576,4.77048 -0.590552,7.15749 -0.177166,2.26182 -0.414568,4.513 -0.706301,6.75119l-0.0814962 0.624804 -0.799608 0.0602363c-0.990947,0.0744096 -1.99725,0.105118 -3.01418,0.0909451 -0.779529,-0.0106299 -1.56378,-0.0377953 -2.34685,-0.067323zm25.9052 -24.202c-0.0295276,0.777167 -0.0696852,1.55079 -0.112205,2.32559 -0.0696852,1.29331 -0.145276,2.58544 -0.214961,3.87875 -0.0885828,1.66181 -0.173622,3.32245 -0.257481,4.98426 -0.0944884,1.87796 -0.185433,3.75709 -0.259843,5.63859 -0.0779529,1.94764 -0.147638,3.90119 -0.217323,5.85001l-0.0614174 1.69961c-2.8193,-0.0696852 -5.55473,0.034252 -8.34687,0.0685041l0.131103 -2.16024c0.0992128,-1.6252 0.210237,-3.24922 0.265749,-4.88151 0.0578741,-1.72087 0.146457,-3.43701 0.240945,-5.1508 0.0909451,-1.65591 0.248032,-3.29883 0.483072,-4.92403 0.211418,-1.44095 0.543308,-2.863 1.06063,-4.213 0.435828,-1.13858 1.08307,-2.22284 2.07166,-3.07442 0.942521,-0.809057 2.2004,-1.25551 3.73938,-1.23898l1.52362 0.0165355 -0.0460631 1.1811z"/>
    <path id="_432705752" class="fil0" d="M179.318 189.897c0.116929,2.37993 0.188977,4.75513 0.21378,7.12324 0.0283465,2.78504 0.0200788,5.56536 -0.0259843,8.3386 -0.0425198,2.72481 -0.11811,5.44489 -0.219685,8.16025 -0.0933073,2.4626 -0.233859,4.91576 -0.336615,7.376 -0.067323,1.6063 -0.079134,3.22087 -0.108662,4.8319 -0.022441,1.31339 0.00826773,2.65276 0.184252,3.99213 0.122835,0.933073 0.377953,1.94292 0.904726,2.85591 0.382678,0.663781 0.936616,1.20118 1.7315,1.60985 1.01929,0.52441 2.39056,0.726379 3.48308,0.809057 1.27796,0.0968506 2.55591,0.184252 3.82796,0.24567 1.10079,0.0531497 2.19922,0.0850395 3.28938,0.0850395 1.07126,0 2.13426,-0.0307087 3.18898,-0.0850395 1.1811,-0.0602363 2.35394,-0.147638 3.52087,-0.24567 7.02403,-0.584647 8.02442,-4.28741 6.46891,-9.41458 -4.97717,0.68386 -10.5815,1.07126 -15.9567,0 0.0992128,-2.68347 -0.111024,-5.93033 0.420473,-8.49096 3.55394,-0.0236221 8.08939,-0.132284 11.6421,-0.153544 0.785435,-0.00590552 1.42559,-0.209056 1.94882,-0.592915 0.618899,-0.452363 1.03583,-1.02638 1.31457,-1.67244 0.309449,-0.718112 0.453544,-1.49055 0.457087,-2.29134 0.00472442,-0.740553 -0.114567,-1.50355 -0.421654,-2.25591 -0.218504,-0.531497 -0.553938,-1.05 -1.08662,-1.47166 -0.41693,-0.328347 -0.914175,-0.41693 -1.42796,-0.433465 -3.96497,-0.121654 -8.29844,0.359056 -12.378,-0.0129922l0.37441 -9.14766c3.15709,-0.252756 6.24686,-0.34252 9.5138,-0.183071 0.814962,0.0401576 1.62992,0.0850395 2.44252,0.111024 0.859844,0.0271654 1.58268,-0.167717 2.18032,-0.557481 2.37048,-1.54725 3.53623,-5.94568 1.3689,-8.51104 -2.79686,-0.295276 -23.2359,-0.153544 -26.5146,-0.0188977z"/>
   </g>
   <path id="_432705512" class="fil1" d="M287.178 42.4359c1.39134,-0.608269 3.69331,-1.68426 4.00749,-2.25355 0.0590552,-0.689765 -1.34646,-7.90868 -1.58386,-9.17128 0.786616,-3.93662 -3.52205,-17.0067 0.853939,-19.2402 4.49647,-1.70315 9.58112,9.50435 11.2784,12.7642 3.68387,7.06891 7.5449,13.7351 12.0059,20.3481 6.87521,10.1953 9.52561,13.461 11.0835,26.1508 1.19882,9.76065 0.0838584,19.3359 -1.63583,28.963 -2.08465,11.6717 -6.76419,22.5 -11.7166,33.189 -2.78977,6.03072 -6.51261,10.7882 -2.73544,17.4036 0.558662,0.974411 1.18701,1.97835 1.62284,2.89134 2.38819,4.99371 0.259843,8.32679 -5.23347,8.47797 -3.64489,0.101575 -7.57324,-1.12087 -11.0599,-2.08347 -9.09569,-2.51339 -12.3981,-1.97008 -21.8847,0.109843 -6.08623,1.33465 -12.1547,2.87835 -18.3674,3.50434 -7.56616,0.762994 -14.9386,-0.74882 -22.3996,-1.78111 -5.93033,-0.818505 -12.0095,-1.69961 -18.0071,-1.64764 -5.29017,0.0460631 -10.4197,0.84449 -15.5847,1.94882 -4.29095,0.916537 -8.55356,1.6689 -12.9437,1.86496 -8.6634,0.386221 -16.9489,-1.87559 -25.526,-2.03032 -4.45513,-0.0803151 -8.7886,0.393308 -13.1894,1.05473 -6.38151,0.957876 -10.7858,0.675592 -17.1508,-0.715749 -6.83269,-1.4941 -9.67561,-1.46339 -16.539,0.693308 -2.33504,0.733466 -5.49096,1.17284 -7.00513,-1.30158 -1.54961,-2.53347 0.389765,-5.33623 2.13071,-7.13978 5.14489,-5.33505 15.9898,-8.83821 23.2725,-9.43112 0.895277,-0.0732285 1.99961,-0.190158 2.8004,-0.64134 1.29095,-0.726379 3.43229,-3.09922 4.57914,-4.16221 2.02678,-1.87796 4.35237,-2.33032 7.04056,-2.45079l2.3315 -0.103937c13.9335,-0.624804 28.0808,-1.33819 41.8206,-3.86221 14.1744,-2.60434 27.528,-7.19175 40.891,-12.5067 8.726,-3.47127 17.5512,-5.96458 26.0186,-10.2449 7.00277,-3.53977 7.62521,-4.17166 11.4614,-10.878 1.29922,-2.27126 2.60788,-4.53898 3.8445,-6.84568 1.82717,-3.41339 3.68505,-7.56616 4.21654,-11.4248 0.533859,-3.87284 -0.351969,-6.96852 -1.02047,-10.7492 -1.16575,-6.59174 -1.87914,-13.2603 -3.15119,-19.8319 -1.53662,-7.92994 -4.99135,-14.791 -5.8004,-23.3481 -0.28819,-3.05434 -0.0318898,-5.59135 1.38544,-6.48781 4.54961,-2.24764 9.17718,6.32363 11.2973,9.42403 2.20276,3.21969 5.83111,8.99057 8.59254,11.5453z"/>
   <path id="_432705368" class="fil2" d="M111.598 160.093c8.1508,-2.56182 11.5134,-2.18859 18.0366,-0.760631 6.90238,1.50827 10.5874,1.50709 16.0961,0.680316 5.53229,-0.831498 9.53742,-1.16221 13.6748,-1.08662 8.60789,0.154725 16.8,2.413 25.343,2.03268 4.12796,-0.183071 8.01379,-0.852758 12.4642,-1.80355 6.45001,-1.37953 11.3599,-1.97008 16.1693,-2.0126 5.54056,-0.0484253 10.9488,0.631891 18.4323,1.67599 8.37757,1.14685 14.6634,2.47796 21.7063,1.76811 5.9882,-0.603544 11.8642,-2.09882 18.0343,-3.45237 12.3307,-2.70473 15.3331,-2.27126 23.2878,-0.0720474 2.18032,0.601182 6.84214,2.07284 10.2024,1.97953 3.34489,-0.0921262 4.13859,-1.25079 2.68111,-4.30158 -0.861025,-1.79882 -2.2193,-3.8256 -2.69292,-5.06103 -2.07284,-5.42363 -0.309449,-8.33506 2.55827,-15.0744 6.79726,-13.3429 10.6843,-23.7142 12.7229,-35.1213 1.83662,-10.2756 2.71772,-19.102 1.61339,-28.0938 -1.52599,-12.424 -4.01221,-15.0981 -10.6075,-24.8741 -2.19095,-3.24922 -4.08072,-6.23151 -5.83466,-9.17718 -3.85631,-6.47245 -7.33584,-15.2292 -11.2323,-20.902 -2.99528,-4.36418 -3.82087,-1.31693 -3.38977,2.55709 0.897639,8.10946 2.16142,13.1693 3.08268,20.5477 0.322442,2.58071 -2.13662,3.76536 -6.63663,5.72481 -0.829135,0.361418 -2.01969,-0.578741 -3.25276,-1.99607 -3.02599,-3.48072 -5.52993,-7.85435 -8.11301,-12.0083 -0.990947,-1.59213 -4.60395,-8.53348 -7.03348,-7.33466 -1.13268,0.559844 -0.964962,2.61024 -0.429922,4.78229 1.80237,7.30041 4.78465,15.3 6.08859,22.0382 1.27323,6.57639 1.98071,13.2095 3.16064,19.8792 0.904726,5.12363 1.62402,7.40671 1.03701,11.6563 -0.549214,3.99213 -2.39174,8.39883 -4.53544,12.4028 -1.24725,2.32796 -2.56772,4.61694 -3.88347,6.91773 -3.98977,6.97206 -4.83899,8.07167 -12.678,12.0331 -8.98584,4.54371 -21.0933,8.426 -26.2571,10.3536 -26.8536,-0.253937 -42.5989,0.762994 -57.7029,14.7662 -5.66812,5.25592 -16.0843,1.1941 -25.956,1.80473l-2.3315 0.105118c-2.65867,0.11811 -4.01339,0.58819 -5.18741,1.67599 -4.27206,3.96024 -4.57324,5.19922 -9.1264,5.57127 -6.53151,0.530316 -16.7929,3.75946 -21.4099,8.54765 -2.84882,2.95276 -2.60552,5.04686 1.89922,3.6319z"/>
   <path id="_432705224" class="fil1" d="M290.201 43.9524c-2.5878,1.52481 -4.24017,2.81103 -6.36615,4.63702 -1.13858,0.980317 -1.91339,0.760631 -1.10788,-0.752364 1.0004,-1.87205 2.46497,-3.65434 4.28032,-4.71143l3.19371 0.826773z"/>
   <path id="_432705056" class="fil1" d="M291.127 43.4706c3.82678,-1.88032 4.95119,-2.06339 8.95277,-2.92205 0.968506,-0.207874 1.40315,-0.621261 1.20591,-0.949608 -0.307087,-0.512599 -1.55906,-0.455906 -2.11654,-0.442914 -2.09056,0.0507875 -3.87284,0.231497 -6.02245,0.529135l-2.01969 3.78544z"/>
   <path id="_432704936" class="fil1" d="M269.37 103.298c-5.10592,9.07561 -5.35985,12.1004 -7.58978,22.1315 -0.52441,2.36103 -0.988585,3.62835 -1.32047,3.76418 -0.63071,0.2563 -1.44331,-1.71614 -0.706301,-9.77482 0.21378,-2.32796 1.49882,-7.3571 3.31536,-9.39096l2.69174 -2.80512 3.60946 -3.92481z"/>
   <path id="_432704792" class="fil1" d="M193.571 131.153c-13.6051,13.9299 -28.1965,20.6091 -46.9017,16.3288 -21.8764,-5.0067 -37.5473,-20.0516 -43.506,-43.0265 -2.3126,-8.91498 -2.98347,-18.437 -2.07993,-27.7595 1.69725,-17.4992 8.07639,-34.3111 19.3855,-47.6717 9.95553,-11.7603 23.1886,-19.6524 37.2851,-23.9115 14.6717,-4.43269 30.6225,-4.87442 45.2942,-1.73859 51.834,11.0823 67.2237,56.354 61.3241,108.397l-0.158268 1.39843 -1.12441 0.784253c-21.287,14.8666 -44.9068,21.9733 -69.5186,17.1992z"/>
   <path id="_432704648" class="fil0" d="M261.644 111.534c-21.163,14.7803 -44.5477,21.6378 -68.8856,16.4611 -13.2142,13.9536 -27.0815,20.8276 -45.4099,16.6323 -20.9729,-4.80001 -35.8501,-19.1315 -41.5335,-41.0481 -2.23229,-8.60671 -2.86064,-17.7863 -1.99725,-26.6965 1.70788,-17.615 8.1945,-33.5871 18.6626,-45.9544 9.53624,-11.263 22.2626,-18.8811 35.9292,-23.0103 13.8933,-4.19765 29.4119,-4.79883 43.9973,-1.68071 51.0426,10.9122 64.8793,55.5249 59.2371,105.297z"/>
   <path id="_432704504" class="fil3" d="M230.568 20.4355c22.0678,16.1894 19.1717,38.6209 16.5473,32.6658 -10.8437,-24.6 -27.7607,-37.1398 -59.8088,-43.1835 -16.9748,-2.93859 20.0032,-6.54214 43.2615,10.5177z"/>
   <path id="_432704360" class="fil3" d="M189.561 73.1316c10.7894,7.92876 10.0902,20.0327 8.68939,16.9335 -5.78741,-12.8055 -14.0634,-18.9532 -29.2229,-21.1182 -8.02206,-1.0063 9.16183,-4.17048 20.5335,4.18465z"/>
   <path id="_432704144" class="fil3" d="M163.194 85.4754c5.05631,-0.516143 7.92167,2.31851 9.01891,7.08072 0.337796,1.46575 -0.914175,1.8626 -1.59331,0.398032 -1.7315,-3.73583 -3.60001,-5.22284 -7.50238,-6.23505 -1.25079,-0.325985 -0.895277,-1.14331 0.0767718,-1.2437z"/>
   <path id="_432704168" class="fil4" d="M165.066 107.626c1.45276,-0.00826773 2.81812,-0.263386 4.09489,-0.750001 1.27677,-0.494883 2.43426,-1.16575 3.47953,-2.01969 1.04528,-0.845671 1.94646,-1.82717 2.69764,-2.92087 0.758269,-1.0937 1.34055,-2.25119 1.74803,-3.47245 0.414568,-1.22126 0.614174,-2.44134 0.622442,-3.67087 0,-1.30158 -0.159449,-2.56182 -0.478347,-3.78308 -0.327166,-1.22126 -0.830317,-2.35394 -1.51772,-3.40749 -0.693308,-1.05355 -1.57087,-1.97953 -2.6563,-2.76969 -1.08544,-0.798427 -2.38701,-1.4126 -3.89528,-1.85906 -1.51654,-0.447639 -3.26457,-0.670867 -5.24292,-0.679135 -2.58662,0.00826773 -4.90158,0.327166 -6.93663,0.949608 -2.04331,0.622442 -3.81497,1.49292 -5.32324,2.61733 -1.50827,1.11732 -2.76142,2.43426 -3.75119,3.94253 -0.989766,1.50827 -1.7315,3.14528 -2.2193,4.92521 -0.493702,1.77874 -0.733466,3.63898 -0.733466,5.57009 0,1.97835 0.282284,3.80906 0.837403,5.4945 -0.238583,-0.294095 -0.472442,-0.597639 -0.695671,-0.907088 -2.50158,-3.47363 -3.92717,-7.85789 -3.76772,-12.3496 0.281103,-7.83899 3.61064,-14.5441 8.64214,-19.3016 5.26655,-4.97954 12.3957,-7.83427 19.8437,-7.6382 5.04095,0.132284 10.2378,1.37481 14.8961,3.46064 4.56379,2.04213 8.5949,4.89214 11.4319,8.29017 5.57127,6.6697 7.72561,15.7737 7.07245,24.8953 -0.572836,7.98899 -3.29528,15.9721 -7.7634,22.3406 -1.7752,2.53465 -0.708663,2.38229 0.97323,0.809057 6.52678,-6.70631 9.40159,-15.039 9.77955,-24.4134 0.375591,-9.33191 -2.04331,-18.5752 -7.826,-25.5012 -3.12284,-3.73938 -7.52246,-6.85867 -12.4819,-9.07679 -4.99489,-2.23583 -10.5803,-3.56812 -16.0146,-3.71221 -8.22639,-0.216142 -16.0961,2.93268 -21.9059,8.42482 -5.56182,5.26064 -9.24332,12.6662 -9.55396,21.3201 -0.184252,5.14843 1.4504,10.1729 4.31576,14.1508 5.00552,6.95198 14.6563,10.2815 23.0315,8.44844 1.34882,-0.28819 2.47441,-0.679135 3.36851,-1.1811 0.892915,-0.503151 1.58032,-1.07835 2.05867,-1.72441 0.175985,-0.223229 0.302363,-0.478347 0.390946,-0.774805 0.0874017,-0.295276 0.103937,-0.590552 0.0555119,-0.894096 -0.0389765,-0.302363 -0.183071,-0.574017 -0.414568,-0.8126 -0.223229,-0.248032 -0.574017,-0.422835 -1.03701,-0.53504 -0.414568,0.47008 -0.950789,0.909451 -1.60512,1.30866 -0.6626,0.4063 -1.4126,0.766537 -2.24292,1.07008 -0.837403,0.302363 -1.72323,0.542127 -2.66575,0.709844 -0.94134,0.174803 -1.89922,0.263386 -2.87245,0.263386 -1.87559,-0.00826773 -3.50316,-0.303544 -4.87678,-0.894096 -1.37244,-0.583466 -2.50512,-1.40433 -3.39922,-2.47441 -0.894096,-1.06063 -1.5567,-2.30552 -1.99607,-3.74292 -0.431103,-1.4374 -0.646064,-3.00827 -0.646064,-4.71733 0,-1.78701 0.191339,-3.47953 0.574017,-5.07639 0.383859,-1.60276 0.949608,-3.06379 1.69252,-4.3878 0.742915,-1.31693 1.65945,-2.46733 2.75315,-3.43347 1.08544,-0.97323 2.33032,-1.71496 3.7441,-2.25119 1.41142,-0.526773 2.97638,-0.790159 4.69135,-0.797246 1.78111,0.00708663 3.28938,0.263386 4.54253,0.766537 1.24488,0.503151 2.25,1.21299 3.01654,2.1378 0.773624,0.918899 1.33347,2.00433 1.69134,3.25749 0.351969,1.25197 0.526773,2.63386 0.519686,4.13387 0,1.20591 -0.152362,2.37874 -0.447639,3.51142 -0.295276,1.12559 -0.709844,2.14725 -1.24488,3.04843 -0.53504,0.902364 -1.16575,1.62048 -1.88386,2.1567 -0.718112,0.526773 -1.50827,0.797246 -2.36221,0.8126 -0.310631,0.00944884 -0.56693,-0.0625985 -0.78071,-0.206693 -0.216142,-0.144095 -0.360237,-0.399213 -0.424017,-0.766537 -0.0720474,-0.359056 -0.0330709,-0.870474 0.103937,-1.51654l2.29843 -10.9181c-0.191339,-0.144095 -0.431103,-0.255119 -0.702757,-0.327166 -0.271654,-0.0720474 -0.56693,-0.103937 -0.877561,-0.103937 -0.335434,0 -0.679135,0.0484253 -1.01339,0.151181 -0.335434,0.103937 -0.647245,0.263386 -0.925986,0.479528 -0.279922,0.216142 -0.511418,0.503151 -0.69449,0.853939 -0.231497,-0.511418 -0.59882,-0.917718 -1.10079,-1.21299 -0.494883,-0.302363 -1.1504,-0.454725 -1.963,-0.462993 -0.767718,0 -1.50118,0.167717 -2.21103,0.486615 -0.711025,0.327166 -1.40433,0.806694 -2.1,1.42914 -0.813781,0.781891 -1.49292,1.69961 -2.04213,2.76142 -0.543308,1.06181 -0.959057,2.19449 -1.22953,3.38386 -0.278741,1.18937 -0.415749,2.36221 -0.415749,3.52678 -0.00708663,0.551576 0.0484253,1.14213 0.152362,1.78111 0.111024,0.629529 0.302363,1.23662 0.582285,1.80355 0.279922,0.574017 0.679135,1.03701 1.18937,1.40433 0.503151,0.367324 1.15748,0.551576 1.95473,0.56693 0.623623,-0.00826773 1.22244,-0.144095 1.80355,-0.422835 0.575198,-0.271654 1.12559,-0.655513 1.64528,-1.1504 0.526773,-0.493702 1.02166,-1.0689 1.48347,-1.7315 0.0248032,0.853939 0.191339,1.52481 0.486615,2.00315 0.303544,0.486615 0.695671,0.822049 1.16575,1.02284 0.471261,0.191339 0.974411,0.285827 1.50827,0.278741zm-6.22442 -3.78426c-0.462993,0 -0.837403,-0.174803 -1.13386,-0.517324 -0.287008,-0.343701 -0.439371,-0.846852 -0.446458,-1.49292 0,-0.853939 0.0874017,-1.74685 0.270473,-2.67402 0.184252,-0.925986 0.472442,-1.82835 0.862206,-2.713 0.400394,-0.88701 0.909451,-1.69252 1.54843,-2.41772 0.184252,-0.207874 0.399213,-0.407481 0.6626,-0.608269 0.2563,-0.191339 0.550395,-0.335434 0.885828,-0.43819 0.327166,-0.103937 0.687403,-0.135827 1.07717,-0.079134 0.390946,0.0555119 0.805513,0.223229 1.25315,0.501969l-1.77166 8.57246c-0.47008,0.582285 -0.974411,1.03701 -1.49292,1.36418 -0.526773,0.327166 -1.0937,0.494883 -1.71496,0.501969z"/>
   <path id="_432988184" class="fil1" d="M282.928 26.3386c2.70237,-1.98898 5.26773,-7.79411 9.48073,-5.94568l0.467717 0.205512 0.253937 0.444095c2.50749,4.39017 4.49056,10.7362 5.08111,15.9863 0.0307087,0.276378 0.0590552,0.549214 0.0814962,0.817324 0.140551,1.59922 0.578741,1.26496 1.20473,1.30866 0.354331,0.0248032 0.612993,0.275197 0.594096,0.364961 -0.0602363,0.301182 -2.01378,0.154725 -2.20512,0.431103 -0.258662,0.37441 -0.663781,0.705119 -1.26496,0.92008 -2.94567,1.05 -7.78938,2.7189 -10.9583,4.00867 -1.03229,-1.93937 -12.3225,-17.074 -11.4319,-17.7615 2.39056,-1.85315 4.8567,-1.24488 8.69647,-0.779529z"/>
   <path id="_432988040" class="fil3" d="M276.415 27.815c1.15984,-0.692127 2.38819,-0.790159 4.0382,-0.6626 0.548033,0.0413387 6.163,0.682678 6.23505,0.628348 0.157087,-0.120473 -2.51575,-0.935435 -2.36103,-1.07126 2.32914,-2.04685 4.5815,-5.74135 7.37482,-4.51654 3.26339,5.71537 5.16025,11.8571 5.4756,15.9555 0.0259843,0.340158 -0.360237,1.23662 -1.29685,1.4067 -4.15867,1.14803 -6.48072,1.83544 -9.31065,3.84095 -1.58977,-1.82481 -6.23978,-8.35041 -10.1551,-15.5811z"/>
   <path id="_432987896" class="fil0" d="M289.046 28.8662l2.64922 -1.19646 1.04764 2.84292 2.30906 -1.1315c0.298819,0.806694 0.565749,1.59922 0.804332,2.37284l-2.23347 1.02402 1.30394 3.09804 -2.48032 1.34646 -1.26378 -3.27993 -2.8193 1.52717 -1.07953 -2.40945 2.90197 -1.33583 -1.13977 -2.85827z"/>
   <path id="_432987752" class="fil1" d="M294.413 75.182c8.8571,1.34764 15.6437,-0.494883 22.4351,-5.3008 0.408662,-0.28819 0.20315,-0.604726 -0.0377953,-0.929529 -0.947246,-1.27323 0.49134,-1.79055 1.45866,-0.740553 0.439371,0.477166 0.835041,1.16929 1.04646,1.80473 0.429922,1.29803 -0.265749,2.68465 -1.15984,0.546851 -0.298819,-0.713387 -0.656694,-0.379135 -0.781891,1.0063 -1.57559,24.7961 -18.3555,8.17088 -22.8638,4.69843 -1.87087,-1.43977 0.336615,1.4563 -0.83386,1.28268 -2.22756,-0.33189 -2.86536,-4.43505 -0.571655,-4.30867 2.0315,0.113386 -0.78071,1.62284 1.30866,1.94055z"/>
   <path id="_432987608" class="fil0" d="M302.903 79.7694c0.204331,-0.838584 0.773624,-1.39016 1.55906,-1.6878 2.69292,-1.02284 5.36221,0.335434 6.90356,2.6941 0.0484253,-1.59685 -0.654332,-2.57126 -2.46969,-3.05552 0.881104,-2.26772 3.64371,-1.11851 5.3445,0.250394 0.947246,0.762994 0.74882,1.37717 0.407481,2.27835 -0.592915,1.56614 -1.77638,2.40355 -3.26694,2.96812 -2.68465,1.01575 -5.03151,0.179528 -7.31104,-1.22953 -1.14331,-0.706301 -1.5,-0.846852 -1.16693,-2.21811z"/>
   <path id="_432987392" class="fil3" d="M292.753 56.8844c3.5752,-5.62206 6.79253,-0.441733 7.49057,0.725198 2.04213,3.42048 4.1693,8.33033 1.20236,9.4323 -2.56182,0.950789 -8.08348,0.186615 -9.99333,-1.93465 -1.54843,-1.71969 -1.17047,-4.34528 1.3004,-8.22285z"/>
   <path id="_432987440" class="fil5" d="M293.912 59.0174c1.82126,-0.43819 3.65906,0.703938 4.10316,2.55237 0.444095,1.84961 -0.674411,3.70158 -2.49449,4.13859 -1.82126,0.43819 -3.65788,-0.703938 -4.10316,-2.55237 -0.444095,-1.84843 0.67323,-3.7004 2.49449,-4.13859z"/>
   <path id="_428513664" class="fil3" d="M303.048 56.8064c0.32126,3.92954 1.38425,8.88545 4.36891,8.11891 2.64686,-0.680316 6.74529,-4.45749 7.10434,-7.2886 0.229134,-1.80355 -0.838584,-3.38859 -3.35906,-4.84371 -6.60592,-3.82678 -8.44726,-0.0578741 -8.11419,4.01339z"/>
   <path id="_428513520" class="fil6" d="M293.588 60.234c1.1504,-0.276378 2.31142,0.444095 2.59134,1.61221 0.281103,1.16811 -0.424017,2.33859 -1.57559,2.61615 -1.1504,0.275197 -2.31142,-0.446458 -2.59134,-1.61339 -0.281103,-1.16811 0.425198,-2.33859 1.57559,-2.61497z"/>
   <path id="_428513376" class="fil5" d="M306.381 54.8387c1.82126,-0.43819 3.65788,0.703938 4.10316,2.55237 0.444095,1.84843 -0.67323,3.70158 -2.49449,4.13859 -1.82126,0.43819 -3.65788,-0.703938 -4.10316,-2.55355 -0.444095,-1.84725 0.67323,-3.7004 2.49449,-4.13741z"/>
   <path id="_428513232" class="fil6" d="M306.057 56.0552c1.1504,-0.27756 2.31024,0.444095 2.59134,1.61221 0.281103,1.16811 -0.425198,2.33859 -1.57559,2.61497 -1.1504,0.276378 -2.31142,-0.445276 -2.59252,-1.61339 -0.279922,-1.16693 0.426379,-2.33859 1.57677,-2.61378z"/>
   <path id="_428512776" class="fil1" d="M287.109 59.4462c0.186615,-2.79095 0.60945,-4.69607 1.12087,-5.94332 1.46339,-3.5693 4.25434,-1.93465 2.99764,0.745277 -1.04055,2.22874 -1.88268,3.11575 -2.44252,5.18032 -0.644883,2.38111 -1.85197,2.64922 -1.67599,0.0177166z"/>
   <path id="_428513088" class="fil1" d="M312.792 49.9324c-1.84489,-2.10355 -3.3378,-3.35906 -4.50119,-4.03938 -3.3319,-1.94528 -4.55552,1.04764 -1.92992,2.41418 2.1815,1.1374 3.38859,1.32992 5.0882,2.63032 1.95945,1.49882 3.08032,0.979136 1.34292,-1.00512z"/>
  </g>
 </g>
</svg>
