<?xml version="1.0" encoding="UTF-8"?>
<!DOCTYPE svg PUBLIC "-//W3C//DTD SVG 1.1//EN" "http://www.w3.org/Graphics/SVG/1.1/DTD/svg11.dtd">
<!-- Creator: CorelDRAW -->
<svg xmlns="http://www.w3.org/2000/svg" xml:space="preserve" width="63px" height="63px" style="shape-rendering:geometricPrecision; text-rendering:geometricPrecision; image-rendering:optimizeQuality; fill-rule:evenodd; clip-rule:evenodd"
viewBox="0 0 63 63"
 xmlns:xlink="http://www.w3.org/1999/xlink">
 <defs>
  <style type="text/css">
   <![CDATA[
    .fil0 {fill:#B2B3B3}
   ]]>
  </style>
 </defs>
 <g id="Слой_x0020_1">
  <metadata id="CorelCorpID_0Corel-Layer"/>
  <path class="fil0" d="M-846.722 -13.8638c-0.00826772,0 -0.0200787,0 -0.0283465,0 -0.829134,-0.011811 -1.57205,-0.526772 -1.87441,-1.29685l-5.2311 -13.3169 -4.83071 8.72362c-0.359055,0.65315 -1.04291,1.05709 -1.78701,1.05709l-7.58976 0.00354331 0 -4.09724 6.38268 0 6.35079 -11.4697c0.385039,-0.693307 1.12795,-1.08898 1.92402,-1.05236 0.790157,0.0496063 1.47874,0.555118 1.77047,1.29331l4.99134 12.7098 7.32165 -17.1803c0.347244,-0.81378 1.17756,-1.32402 2.0563,-1.2378 0.87874,0.0755906 1.6122,0.709843 1.81417,1.56732l3.72874 15.6602 5.97874 0 0 4.09724 -7.59331 0c-0.947244,0 -1.77047,-0.650787 -1.99134,-1.57323l-2.66457 -11.198 -6.84449 16.0654c-0.322441,0.758268 -1.06299,1.24488 -1.88386,1.24488z"/>
  <path class="fil0" d="M32.1992 62.635c-0.0023622,0 -0.0023622,0 -0.0023622,0 -0.588189,0 -1.14803,-0.258661 -1.53425,-0.698031 -0.744094,-0.84685 -18.2941,-20.8831 -26.5937,-33.2102 -3.32953,-4.93701 -3.51496,-11.2819 -0.488976,-16.9713 2.99291,-5.6374 8.36457,-9.13583 14.0102,-9.13583 3.88583,0 9.41575,1.62638 14.661,8.92205 5.21457,-7.19055 10.702,-8.79685 14.5618,-8.79685 5.64331,0 11.0114,3.50315 14.0067,9.12992 3.02835,5.69173 2.84764,12.039 -0.485433,16.9866 -8.30669,12.3366 -25.8579,32.2394 -26.602,33.0756 -0.387402,0.444094 -0.947244,0.698031 -1.53307,0.698031zm-14.6091 -55.9252c-4.13031,0 -8.11654,2.67047 -10.4008,6.96732 -2.30079,4.32992 -2.19921,9.09803 0.271654,12.763 6.75,10.0287 20.2063,25.7858 24.7441,31.0335 4.54134,-5.21929 17.9894,-20.8807 24.7358,-30.8988 2.47441,-3.66732 2.57244,-8.4437 0.265748,-12.7772 -2.28071,-4.29331 -6.26693,-6.95906 -10.3937,-6.95906 -4.66181,0.0011811 -9.10866,3.30236 -12.8587,9.54803 -0.473622,0.787795 -1.41496,1.16339 -2.30079,0.917717 -0.69685,-0.191339 -1.22362,-0.733465 -1.4185,-1.40197 -3.70276,-6.01299 -8.06693,-9.19252 -12.6449,-9.19252z"/>
  <path class="fil0" d="M32.3835 41.5264c-0.00826772,0 -0.0200787,0 -0.0283465,0 -0.829134,-0.011811 -1.57205,-0.526772 -1.87441,-1.29685l-5.2311 -13.3169 -4.83071 8.72362c-0.359055,0.65315 -1.04291,1.05709 -1.78701,1.05709l-7.58976 0.00354331 0 -4.09724 6.38268 0 6.35079 -11.4697c0.385039,-0.693307 1.12795,-1.08898 1.92402,-1.05236 0.790157,0.0496063 1.47874,0.555118 1.77047,1.29331l4.99134 12.7098 7.32165 -17.1803c0.347244,-0.81378 1.17756,-1.32402 2.0563,-1.2378 0.87874,0.0755906 1.6122,0.709843 1.81417,1.56732l3.72874 15.6602 5.97874 0 0 4.09724 -7.59331 0c-0.947244,0 -1.77047,-0.650787 -1.99134,-1.57323l-2.66457 -11.198 -6.84449 16.0654c-0.322441,0.758268 -1.06299,1.24488 -1.88386,1.24488z"/>
 </g>
</svg>
