<?xml version="1.0" encoding="UTF-8"?>
<!DOCTYPE svg PUBLIC "-//W3C//DTD SVG 1.1//EN" "http://www.w3.org/Graphics/SVG/1.1/DTD/svg11.dtd">
<!-- Creator: CorelDRAW -->
<svg xmlns="http://www.w3.org/2000/svg" xml:space="preserve" width="92px" height="65px" style="shape-rendering:geometricPrecision; text-rendering:geometricPrecision; image-rendering:optimizeQuality; fill-rule:evenodd; clip-rule:evenodd"
viewBox="0 0 92 64.9995"
 xmlns:xlink="http://www.w3.org/1999/xlink">
 <defs>
  <style type="text/css">
   <![CDATA[
    .fil0 {fill:#EF7F1A}
    .fil1 {fill:#EF7F1A;fill-rule:nonzero}
   ]]>
  </style>
 </defs>
 <g id="Слой_x0020_1">
  <metadata id="CorelCorpID_0Corel-Layer"/>
  <path class="fil0" d="M44.9523 18.9452c-2.54178,-6.48436 -5.6564,-10.7683 -5.69065,-10.8144 -0.356699,-0.486623 -0.25276,-1.17285 0.233862,-1.52719 0.487804,-0.361424 1.17049,-0.253941 1.52837,0.232681 0.139372,0.190161 3.17368,4.3548 5.77569,10.8427l6.53161 -9.18677c0.351975,-0.493709 1.0323,-0.603554 1.52483,-0.256304 0.492528,0.351975 0.608278,1.03112 0.257485,1.52719l-6.21625 8.74621c4.51307,-1.22128 7.54855,-4.05361 9.03441,-8.45684 0.875212,-2.58784 0.989781,-5.11662 0.959072,-6.59185 -5.18631,1.6453 -8.70015,4.34417 -10.4565,8.034 -0.258666,0.544498 -0.910646,0.777179 -1.45632,0.518513 -0.544498,-0.256304 -0.77836,-0.908283 -0.518513,-1.45396 2.18271,-4.59575 6.61074,-7.82376 13.1553,-9.58245 0.30473,-0.0838597 0.631901,-0.0318903 0.892929,0.146459 0.26339,0.171263 0.435834,0.451189 0.475992,0.765367 0.0413393,0.322446 0.949623,7.86628 -3.44533,13.5357 -2.49335,3.20911 -6.169,5.14261 -10.9242,5.74734l-0.0307092 0.00236225 -0.0259847 0.00708674 -0.00708674 0 -0.0248036 0.00236225 -0.00708674 0 -0.0283469 0 -0.00472449 0 -0.0295281 0.00236225 -0.00118112 0 -0.0330714 0 -0.018898 0 -0.00590561 0 -0.0141735 0 -0.00944898 -0.00236225 -0.0118112 0 -0.0141735 0 -0.00708674 0 -0.0165357 0 -0.00354337 0 -0.0200791 0 -0.100395 0.0118112c-0.288194,0.0248036 -2.30319,-0.0472449 -6.20916,-0.775998 -0.0496071,-0.00944898 -0.0980332,-0.0224413 -0.145278,-0.0354337 -0.876393,-0.298824 -5.4686,-1.64294 -9.7478,0.646074 -2.68823,1.43743 -4.67134,4.02645 -5.90916,7.70328 1.33231,1.62286 8.76629,4.00519 21.8118,4.00519 11.4604,0 20.157,-1.93704 22.3149,-3.85873 -1.21538,-3.73471 -3.21974,-6.37806 -5.96703,-7.84974 -0.909464,-0.486623 -1.90161,-0.838597 -2.95044,-1.0571 -0.592924,-0.119293 -0.973245,-0.692138 -0.853952,-1.28388 0.119293,-0.591742 0.698043,-0.975607 1.28979,-0.856314 1.2579,0.253941 2.44729,0.686232 3.54455,1.27089 3.391,1.8142 5.80522,5.05639 7.18477,9.64387l0.00708674 0.0236225 0.0377959 0.129923 0.00590561 0.0259847c0.118112,0.399219 0.227957,0.803163 0.328352,1.22246 0.0472449,0.230319 0.35788,1.91106 0.392133,4.45165 0.0637806,5.33513 -1.12915,15.4656 -9.86474,23.3732 -1.31931,1.44215 -3.87054,2.96462 -7.13044,2.96462 -1.57207,0 -3.16777,-0.351975 -4.74575,-1.05238 -0.622452,-0.245673 -2.40713,-0.823242 -3.35439,-0.823242 -0.0106301,0 -0.0200791,0 -0.0295281,0 -0.961434,0 -2.77564,0.594105 -3.45478,0.859857 -1.51302,0.675602 -3.08982,1.02876 -4.64063,1.02876 -3.26108,0 -5.80994,-1.52719 -7.13044,-2.97525 -12.4644,-11.2774 -9.6356,-27.0383 -9.50686,-27.7044 0.119293,-0.486623 0.246855,-0.960253 0.385046,-1.42089 -0.0507883,-0.201972 -0.0791352,-0.406306 -0.0791352,-0.614184 0,-0.432291 0.250398,-0.805526 0.615365,-0.980332 1.44333,-3.82447 3.67683,-6.55523 6.6698,-8.15329 4.95835,-2.65162 10.2084,-1.20829 11.3967,-0.822061 2.11303,0.395676 3.5788,0.579931 4.48827,0.663791zm18.8259 23.5658l-0.00944898 -0.152365 0 -5.89144c0,-0.597648 0.487804,-1.09254 1.09372,-1.09254 0.602373,0 1.09254,0.49489 1.09254,1.09254l0 5.35521c1.75987,-0.654342 2.70831,-1.31813 2.79808,-1.83783l0.00118112 -0.00826786 0.00590561 -0.0637806c0,-0.122837 0.0224413,-0.24213 0.057875,-0.350793 0.272839,-1.88862 0.344888,-3.5729 0.329533,-4.93473 -0.0212602,-1.60869 -0.164176,-2.83233 -0.257485,-3.48667 -4.20007,2.5902 -14.2467,3.78668 -22.8902,3.78668 -9.01433,0 -18.5554,-1.24845 -22.4295,-3.94141 -0.140554,0.90474 -0.544498,4.017 -0.0248036,8.0588 0.257485,0.201972 0.422842,0.516151 0.422842,0.868125 0,0.531505 0.885842,1.22601 2.61973,1.90988 -0.0106301,-0.0602373 -0.018898,-0.127561 -0.018898,-0.191342l0 -2.97289c0,-0.60001 0.487804,-1.09254 1.09254,-1.09254 0.604735,0 1.09372,0.492528 1.09372,1.09254l0 2.97289c0,0.31536 -0.135829,0.603554 -0.350793,0.801982 0.754737,0.225594 1.59924,0.433472 2.54296,0.635444l0 -2.95044c0,-0.605916 0.490166,-1.09018 1.09136,-1.09018 0.603554,0 1.09372,0.48426 1.09372,1.09018l0 2.97525c0,0.131105 -0.0224413,0.255122 -0.0649617,0.375597 0.712217,0.118112 1.46459,0.227957 2.25713,0.32599l0 -2.95044c0,-0.604735 0.488985,-1.09018 1.09136,-1.09018 0.603554,0 1.0949,0.485441 1.0949,1.09018l0 2.97525c0,0.0732296 -0.0118112,0.145278 -0.0224413,0.214964 0.930725,0.0885842 1.91106,0.160633 2.93745,0.22087l0 -5.59734c0,-0.60001 0.491347,-1.09254 1.0949,-1.09254 0.604735,0 1.09136,0.492528 1.09136,1.09254l0 5.69537c0.993324,0.0354337 2.02563,0.0555128 3.0969,0.0602373 -0.112207,-0.170082 -0.175987,-0.376778 -0.175987,-0.594105l0 -2.97525c0,-0.604735 0.491347,-1.09018 1.09254,-1.09018 0.605916,0 1.0949,0.485441 1.0949,1.09018l0 2.97525c0,0.214964 -0.0590561,0.411031 -0.166538,0.581112 1.10789,-0.0153546 2.17208,-0.0496071 3.19494,-0.0980332 -0.0720485,-0.144097 -0.111026,-0.311816 -0.111026,-0.483079l0 -2.97525c0,-0.604735 0.488985,-1.09018 1.09372,-1.09018 0.603554,0 1.09254,0.485441 1.09254,1.09018l0 2.97525c0,0.131105 -0.0212602,0.253941 -0.0637806,0.364967 0.784265,-0.0496071 1.539,-0.111026 2.26776,-0.183074l-0.0141735 -0.181893 0 -2.97525c0,-0.604735 0.490166,-1.09018 1.0949,-1.09018 0.603554,0 1.09136,0.485441 1.09136,1.09018l0 2.90674c0.787809,-0.100395 1.5331,-0.21024 2.24295,-0.328352 -0.0330714,-0.100395 -0.0519694,-0.217327 -0.0519694,-0.329533l0 -2.97525c0,-0.605916 0.491347,-1.09018 1.09372,-1.09018 0.605916,0 1.09254,0.48426 1.09254,1.09018l0 2.91501c0.798439,-0.167719 1.5331,-0.346069 2.20043,-0.522056zm-44.7386 5.6186c-0.212602,-0.0377959 -0.415755,-0.135829 -0.57875,-0.301186l-2.10122 -2.09885c-0.427566,-0.429929 -0.427566,-1.12207 0,-1.54609 0.425204,-0.426385 1.11734,-0.432291 1.54491,0l2.10122 2.1024c0.185436,0.184255 0.290556,0.415755 0.314179,0.663791 0.363786,-0.119293 0.779541,-0.0460638 1.08309,0.233862 0.444102,0.411031 0.472449,1.10081 0.0602373,1.54845l-8.89503 9.61906c-0.201972,0.217327 -0.483079,0.349612 -0.779541,0.351975 -0.00590561,-0.00236225 -0.0141735,0 -0.0224413,-0.00236225 -0.290556,0 -0.569301,-0.109844 -0.771273,-0.316541l-8.22888 -8.22534c-0.419299,-0.421661 -0.427566,-1.10081 -0.018898,-1.52601l14.0435 -14.7723c0.415755,-0.444102 1.10789,-0.458276 1.54727,-0.0413393 0.435834,0.418117 0.454732,1.10789 0.038977,1.54373l-13.3101 14.0022 6.66862 6.67098 1.37837 -1.49412c-0.230319,-0.0283469 -0.45237,-0.132286 -0.630719,-0.305911l-2.10122 -2.10476c-0.427566,-0.424023 -0.427566,-1.11616 0,-1.54609 0.426385,-0.426385 1.11734,-0.426385 1.54373,0l2.10594 2.1024c0.152365,0.15827 0.250398,0.34725 0.2941,0.543316l1.83546 -1.98192 -0.0212602 0c-0.279926,0 -0.559852,-0.109844 -0.775998,-0.323628l-2.1024 -2.09885c-0.427566,-0.432291 -0.427566,-1.12207 0,-1.54609 0.427566,-0.432291 1.1197,-0.432291 1.54727,0l2.1024 2.1024c0.198429,0.196066 0.30473,0.450008 0.318903,0.707492l1.80948 -1.96066zm52.3804 -1.23782l2.71186 -2.70831c0.425204,-0.432291 1.11734,-0.432291 1.54491,0 0.428747,0.424023 0.428747,1.11616 0,1.54609l-2.54886 2.54414 1.67719 1.81539c0.0153546,-0.256304 0.121656,-0.510245 0.321265,-0.706311l2.10122 -2.1024c0.427566,-0.432291 1.1197,-0.432291 1.54727,0 0.425204,0.424023 0.425204,1.11616 0,1.54609l-2.10358 2.09885c-0.213783,0.213783 -0.493709,0.323628 -0.773635,0.323628l-0.0212602 0 1.83428 1.98192c0.0425204,-0.196066 0.141735,-0.387408 0.295281,-0.543316l2.10358 -2.1024c0.426385,-0.426385 1.11734,-0.426385 1.54609,0 0.426385,0.429929 0.426385,1.12207 0,1.54609l-2.1024 2.10476c-0.17835,0.173625 -0.400401,0.277564 -0.631901,0.305911l1.37837 1.49412 6.6698 -6.67098 -13.3101 -14.0022c-0.416936,-0.435834 -0.398038,-1.12561 0.038977,-1.54373 0.435834,-0.416936 1.12797,-0.402763 1.54491,0.0413393l14.0435 14.7723c0.411031,0.425204 0.402763,1.10435 -0.0177168,1.52601l-8.22652 8.22534c-0.206696,0.206696 -0.483079,0.318903 -0.772454,0.316541 -0.00826786,0 -0.0141735,0.00236225 -0.0224413,0.00236225 -0.297643,-0.00236225 -0.57875,-0.134648 -0.780722,-0.351975l-8.89503 -9.61906c-0.40985,-0.447645 -0.382684,-1.13742 0.0614184,-1.54845 0.222051,-0.205515 0.507883,-0.303549 0.786628,-0.291737zm-25.4201 -0.291737c-8.45211,0 -17.3696,-1.09844 -21.6405,-3.45715 1.17285,4.31937 3.5351,9.11 8.12849,13.2475 0.0295281,0.0259847 0.0543316,0.057875 0.0803163,0.0838597 0.949623,1.05474 2.96698,2.28665 5.54537,2.28665 1.24254,0 2.52052,-0.288194 3.79377,-0.853952 0.0661429,-0.0283469 2.5902,-1.00868 4.24732,-1.0323 0.048426,0 0.0933087,0 0.140554,0 1.6642,0.0236225 4.11739,0.980332 4.14456,0.992143 1.33703,0.594105 2.63627,0.88348 3.89889,0.88348 2.54414,0 4.54024,-1.18821 5.50167,-2.22996l0.00236225 -0.0106301 0.018898 -0.018898 0.0566939 -0.0543316 0.00118112 -0.00826786 0.018898 -0.0141735 0.00236225 0 0.0165357 -0.0212602 0.00354337 -0.00236225 0.0200791 -0.0118112c4.52842,-4.09141 6.87413,-8.84306 8.05407,-13.1034 -4.49299,2.26185 -13.4943,3.32486 -22.035,3.32486z"/>
  <path class="fil1" d="M43.7689 18.0405c-0.699225,-1.66775 -1.42916,-3.16187 -2.1024,-4.44456 -1.64058,-3.11934 -2.99887,-4.98552 -3.01895,-5.01741l0 0c-0.300005,-0.412212 -0.408668,-0.908283 -0.33662,-1.37601l-0.00118112 0c0.0685051,-0.464181 0.323628,-0.910646 0.735839,-1.21419 0.411031,-0.302367 0.909464,-0.411031 1.37483,-0.338982 0.467725,0.0708674 0.908283,0.324809 1.21301,0.73702 0.0933087,0.121656 1.47877,2.02444 3.15596,5.16859 0.696862,1.31695 1.45278,2.85123 2.18626,4.56386l5.73553 -8.06234c0.2941,-0.42048 0.73702,-0.676783 1.2012,-0.760643l0.00118112 0c0.464181,-0.0732296 0.967339,0.0248036 1.38191,0.314179l0.00236225 0.00236225c0.414574,0.300005 0.677964,0.735839 0.752375,1.20593 0.0814975,0.461819 -0.0212602,0.968521 -0.314179,1.38073l-0.00118112 0 -4.82016 6.78319c1.18467,-0.539773 2.22642,-1.22955 3.11816,-2.0646 1.41498,-1.31931 2.47918,-3.02604 3.17958,-5.10717l0 0c0.34725,-1.02994 0.572844,-2.07051 0.713398,-3.02604 0.120475,-0.832691 0.174806,-1.60278 0.198429,-2.25831 -2.07641,0.750013 -3.83983,1.67956 -5.28907,2.79217 -1.6453,1.26262 -2.88903,2.77091 -3.71109,4.50126l-0.00472449 0.00354337c-0.22087,0.460638 -0.607097,0.796077 -1.0512,0.951985l-0.00590561 0c-0.438196,0.157089 -0.948441,0.144097 -1.4079,-0.0732296l0 0.00118112c-0.461819,-0.217327 -0.798439,-0.607097 -0.956709,-1.05356 -0.157089,-0.446464 -0.144097,-0.954347 0.0720485,-1.41498 1.14805,-2.41658 2.8843,-4.46701 5.18513,-6.14538 2.27839,-1.6583 5.10717,-2.95044 8.46392,-3.8481l0 0.00118112c0.258666,-0.0720485 0.529143,-0.0862219 0.786628,-0.0401582l0 0.00236225c0.26339,0.0377959 0.511426,0.135829 0.725209,0.279926 0.216145,0.144097 0.402763,0.340163 0.540954,0.566939l0.00590561 0.0118112c0.134648,0.219689 0.227957,0.47363 0.261028,0.729934 0.018898,0.167719 0.269296,2.22405 -0.057875,4.94654 -0.328352,2.74375 -1.24254,6.182 -3.54101,9.14425 -1.31341,1.69491 -2.941,3.05084 -4.8615,4.06542 -1.90397,1.00395 -4.10204,1.66893 -6.56704,1.97484l-0.00472449 0.00118112 -0.0307092 0.00826786 -0.0118112 0 -0.0248036 0.00236225 -0.0271658 0.00826786 -0.0259847 0.00118112 -0.0401582 0 -0.0200791 0 0.0106301 0 -0.0106301 0m-3.51502 -9.05921c0.852771,1.62168 1.78704,3.57998 2.65044,5.78278l0.450008 1.15041 -1.23073 -0.114569c-0.542135,-0.0531505 -1.24963,-0.13701 -2.09767,-0.261028 -0.666153,-0.0980332 -1.47877,-0.232681 -2.45437,-0.412212l-0.0590561 -0.0118112 -0.038977 -0.0129923c-0.711036,-0.229138 -2.96698,-0.859857 -5.719,-0.666153 -1.59806,0.112207 -3.36856,0.512607 -5.08591,1.43034 -1.40435,0.750013 -2.63508,1.77641 -3.6851,3.05911 -1.06183,1.29451 -1.94177,2.86422 -2.63036,4.6926l-0.106301 0.281107 -0.271658 0.131105c-0.0555128,0.0259847 -0.108663,0.0744107 -0.141735,0.129923 -0.0283469,0.0401582 -0.0448827,0.108663 -0.0448827,0.172444l0.0106301 0.206696 0.0413393 0.217327 0.0543316 0.201972 -0.0590561 0.196066 -0.192523 0.676783 -0.179531 0.701587c-0.106301,0.582293 -1.26734,7.32414 1.36183,14.992 1.37246,4.00282 3.78432,8.2525 7.90762,11.9884l0.0401582 0.0342526 0.0118112 0.0141735c0.660248,0.718123 1.67011,1.46814 2.93981,1.99846 1.04293,0.434653 2.27248,0.724028 3.63195,0.724028 0.720485,0 1.45042,-0.0862219 2.1709,-0.24213l0 0c0.725209,-0.15827 1.45396,-0.399219 2.15791,-0.71576l0.0342526 -0.0177168c0.422842,-0.162995 1.26616,-0.45237 2.08704,-0.659066 0.591742,-0.144097 1.19175,-0.253941 1.6453,-0.253941l0.0295281 0c0.445283,0 1.03466,0.108663 1.61341,0.246855 0.81025,0.19961 1.63113,0.479536 2.01736,0.627176l0.0295281 0.0141735c0.739383,0.32599 1.4894,0.57875 2.2335,0.746469 0.729934,0.15827 1.4705,0.24213 2.20634,0.24213 1.36183,0 2.5902,-0.288194 3.63195,-0.71576 1.27207,-0.530324 2.28193,-1.28034 2.93627,-1.99492l0.0177168 -0.0200791 0.0366148 -0.0295281c3.48667,-3.15714 5.73907,-6.68043 7.18004,-10.0962 2.07878,-4.91938 2.46973,-9.63442 2.43429,-12.7077 -0.0118112,-0.856314 -0.0614184,-1.64412 -0.119293,-2.31028 -0.0944898,-1.09254 -0.212602,-1.7646 -0.250398,-1.96066l-0.00118112 0 -0.15827 -0.625995 -0.162995 -0.582293 -0.00590561 -0.0141735 -0.0366148 -0.129923 0.00236225 0 -0.00118112 -0.00236225 -0.00944898 -0.0212602c-0.66261,-2.20752 -1.57207,-4.09141 -2.71776,-5.62805 -1.13033,-1.51656 -2.50044,-2.71068 -4.09495,-3.56699 -0.50552,-0.268115 -1.04647,-0.510245 -1.61459,-0.712217l0 -0.00354337c-0.527962,-0.184255 -1.07246,-0.340163 -1.62759,-0.460638l-0.0153546 0 -0.0862219 -0.0129923c-0.0862219,-0.0224413 -0.177168,0.00118112 -0.245673,0.0413393l0.00236225 0.00590561c-0.0696862,0.0425204 -0.128742,0.122837 -0.144097,0.207878 -0.0200791,0.0862219 0.00236225,0.183074 0.0496071,0.25276l0 0.00118112c0.0448827,0.0720485 0.121656,0.122837 0.207878,0.142916l0.00236225 0c0.569301,0.112207 1.11852,0.269296 1.63467,0.450008l0 0c0.519694,0.181893 1.03348,0.412212 1.52601,0.677964 1.46105,0.786628 2.73312,1.88625 3.79731,3.28116 1.05356,1.38782 1.90043,3.05793 2.53351,5.00442l0.153546 0.472449 -0.372054 0.328352c-1.24254,1.11026 -4.36779,2.20043 -8.7722,2.96226 -3.8103,0.656704 -8.63046,1.09018 -14.0495,1.09018 -5.72608,0 -10.3974,-0.458276 -13.9538,-1.11144 -4.73512,-0.868125 -7.59934,-2.14256 -8.44621,-3.17131l-0.266934 -0.32599 0.134648 -0.400401c0.644893,-1.9146 1.49176,-3.56463 2.52878,-4.91111 1.05002,-1.36774 2.30083,-2.45201 3.74298,-3.21856 1.66656,-0.891748 3.37329,-1.27089 4.90756,-1.36892 2.61501,-0.179531 4.77882,0.448827 5.40954,0.656704l0.0814975 0.0224413c1.44215,0.265753 2.63154,0.447645 3.56463,0.565758 1.44688,0.181893 2.23114,0.207878 2.42366,0.196066l0.00472449 0 0.0141735 0 0.0661429 -0.0106301 0.0744107 -0.00354337 0.0448827 0.00236225 0.00944898 0 0.113388 0 0.00236225 0 0.0330714 -0.00236225 0.0165357 0 0.0177168 -0.00590561 0 0.00590561c2.28193,-0.288194 4.30874,-0.896472 6.04617,-1.8142 1.72562,-0.908283 3.18667,-2.1272 4.36543,-3.64849 2.09413,-2.69887 2.93155,-5.87018 3.23391,-8.3966 0.305911,-2.54414 0.0791352,-4.42685 0.0602373,-4.57567 -0.00472449,-0.0448827 -0.0212602,-0.0933087 -0.0401582,-0.129923 -0.0224413,-0.0354337 -0.0614184,-0.0732296 -0.103939,-0.0992143 -0.0413393,-0.0259847 -0.0874031,-0.048426 -0.122837,-0.0519694l-0.0129923 0c-0.0413393,-0.00826786 -0.0921276,-0.00826786 -0.131105,0.00354337l-0.00590561 0.00236225c-3.18549,0.856314 -5.84538,2.06578 -7.96431,3.60715 -2.09059,1.5201 -3.66502,3.38274 -4.70087,5.56309 -0.0377959,0.0814975 -0.0401582,0.17835 -0.0129923,0.262209 0.0283469,0.0732296 0.0909464,0.145278 0.170082,0.181893l0.00236225 0.00354337c0.0779541,0.0425204 0.174806,0.0366148 0.25276,0.0106301 0.076773,-0.0259847 0.150003,-0.0862219 0.18898,-0.166538l0 0c0.926,-1.9524 2.32091,-3.64731 4.16228,-5.06111l0.00118112 0c1.81893,-1.39491 4.07251,-2.52642 6.75012,-3.37447l0.970883 -0.30473 0.0200791 1.01695c0.0165357,0.88348 -0.0177168,2.14256 -0.219689,3.554l0 0.00236225c-0.150003,1.0264 -0.394495,2.15437 -0.780722,3.29297 -0.781903,2.31264 -1.98192,4.23314 -3.58353,5.73081 -1.6016,1.50121 -3.60006,2.5713 -5.97648,3.21738l-2.04452 0.550403 1.22837 -1.73034 6.21625 -8.74031c0.0531505,-0.0779541 0.0720485,-0.168901 0.057875,-0.250398l0 -0.00236225c-0.0106301,-0.0838597 -0.0590561,-0.165357 -0.131105,-0.216145 -0.0755918,-0.0496071 -0.166538,-0.0732296 -0.250398,-0.0590561 -0.0826786,0.0129923 -0.165357,0.0614184 -0.218508,0.135829l-6.53043 9.19031 -0.805526 1.13624 -0.518513 -1.29451c-0.876393,-2.18862 -1.80476,-4.11149 -2.64808,-5.69301 -1.62877,-3.0532 -2.94572,-4.86623 -3.03549,-4.98552l-0.00236225 -0.00236225c-0.048426,-0.0696862 -0.133467,-0.118112 -0.217327,-0.129923 -0.0803163,-0.0118112 -0.174806,0.00826786 -0.246855,0.0602373 -0.0696862,0.0555128 -0.116931,0.133467 -0.127561,0.216145l-0.00590561 0.00944898c-0.0118112,0.0826786 0.00826786,0.170082 0.0614184,0.24213l0.00236225 0c0.0200791,0.0248036 1.43625,1.97247 3.1347,5.20403zm3.5351 9.05921l-0.00944898 0m-0.0106301 0l-0.0200791 0 -0.0496071 0.00236225 -0.00118112 0 -0.0330714 0 -0.018898 0 -0.00590561 0 -0.0141735 0 -0.0779541 0 -0.00708674 -0.00236225 -0.00708674 0.00236225 -0.0342526 0.00826786c-0.200791,0.0141735 -1.12089,-0.00826786 -2.73784,-0.206696 -0.951985,-0.118112 -2.17208,-0.301186 -3.66857,-0.585837l-0.0401582 -0.00590561 -0.14764 -0.0354337 -0.0590561 -0.0224413c-0.522056,-0.172444 -2.46146,-0.750013 -4.85559,-0.590561l-0.00118112 0c-1.35002,0.0921276 -2.84414,0.42048 -4.2922,1.19411 -1.24254,0.664972 -2.33272,1.60042 -3.24927,2.79926 -0.857495,1.11852 -1.56971,2.465 -2.13901,4.02527 0.953166,0.752375 3.38155,1.6583 7.25209,2.36815 3.46423,0.631901 8.04226,1.08073 13.6821,1.08073 5.33867,0 10.0679,-0.424023 13.7931,-1.06419 3.6851,-0.638987 6.35562,-1.46695 7.62651,-2.30083 -0.559852,-1.57207 -1.26734,-2.92918 -2.1213,-4.05125 -0.924819,-1.2201 -2.03389,-2.17799 -3.30714,-2.85714l-0.00236225 0c-0.412212,-0.219689 -0.856314,-0.421661 -1.31695,-0.581112 -0.468906,-0.168901 -0.950804,-0.302367 -1.42561,-0.400401 -0.498434,-0.106301 -0.914189,-0.398038 -1.17522,-0.796077l-0.00236225 0c-0.239768,-0.362605 -0.354337,-0.822061 -0.287013,-1.2827l0 -0.0236225 0.0165357 -0.0862219c0.100395,-0.501977 0.403944,-0.917732 0.792533,-1.17285l0.00590561 0c0.364967,-0.24213 0.816156,-0.359061 1.28034,-0.289375l0.0165357 0 0.0200791 0.00354337 0.038977 0.00826786 0.0224413 0.00354337 0.00826786 0.00590561c0.663791,0.132286 1.30986,0.316541 1.92995,0.535049l0.00354337 0c0.616546,0.217327 1.22837,0.487804 1.81893,0.807888 1.79649,0.95789 3.33195,2.29846 4.59929,3.99692 1.25553,1.68192 2.24768,3.72526 2.95753,6.09695l-0.00354337 0 0.00236225 0.00826786 0.00826786 0.0165357 0.0401582 0.129923 0.0106301 0.048426 0.00590561 0.0236225 0.160633 0.570482 0.00472449 0.0129923 0.159452 0.627176 0.00472449 0.0377959c0.0330714,0.15827 0.187798,0.969702 0.290556,2.16618 0.0566939,0.65198 0.107482,1.46577 0.119293,2.42248 0.0354337,2.97289 -0.311816,7.40446 -2.08232,12.1325l0.10512 -0.0992143c0.184255,-0.170082 0.400401,-0.302367 0.615365,-0.382684l0.00472449 0c0.111026,-0.0401582 0.225594,-0.0661429 0.342526,-0.0874031l2.51107 -2.5087 0.00590561 -0.00826786c0.363786,-0.363786 0.836235,-0.542135 1.30632,-0.542135 0.466543,0 0.941355,0.181893 1.30278,0.542135l0.00354337 0 0.00590561 0.00826786 0.00236225 0.00354337c0.363786,0.362605 0.542135,0.835054 0.542135,1.30632 0,0.470087 -0.17835,0.944898 -0.542135,1.30632l-0.00236225 0 -2.03271 2.03271 0.455913 0.496071 2.05043 -2.05397c0.362605,-0.362605 0.840959,-0.54686 1.30986,-0.54686 0.474811,0 0.949623,0.184255 1.31223,0.54686 0.35788,0.360242 0.543316,0.836235 0.543316,1.31341 0,0.472449 -0.181893,0.94726 -0.543316,1.30868l0 0 -2.10122 2.10476 -0.00590561 0.00236225 -0.0496071 0.0472449 0.454732 0.496071 1.95948 -1.96066c0.363786,-0.363786 0.84214,-0.543316 1.31341,-0.543316 0.47363,0 0.948441,0.179531 1.30986,0.543316 0.35788,0.354337 0.543316,0.835054 0.543316,1.30632 0,0.472449 -0.181893,0.94726 -0.543316,1.30868l0 0.00236225 -2.0646 2.0646 0.191342 0.205515 5.59143 -5.58671 -12.7904 -13.4518 -0.00354337 -0.00354337 -0.0165357 -0.0141735c-0.34725,-0.372054 -0.514969,-0.848046 -0.501977,-1.31695 0.0129923,-0.459457 0.19961,-0.931906 0.55749,-1.28034l0.00590561 -0.00118112 0.00590561 -0.00826786 0.0165357 -0.0165357c0.366148,-0.341344 0.840959,-0.507883 1.30868,-0.497253l0.00590561 0c0.464181,0.0118112 0.927181,0.197247 1.27679,0.556309l0.00590561 0.00118112 0.0106301 0.0141735 14.0435 14.7711c0.342526,0.362605 0.517332,0.832691 0.512607,1.29451l0 0.0106301c-0.00236225,0.464181 -0.18898,0.934268 -0.542135,1.28624l-0.00118112 0 -8.22416 8.22416c-0.168901,0.167719 -0.374416,0.305911 -0.602373,0.399219l0 0.00236225c-0.22087,0.0944898 -0.458276,0.141735 -0.6945,0.141735l-0.0153546 0.00236225 -0.0283469 -0.00236225c-0.256304,0 -0.509064,-0.0590561 -0.729934,-0.157089 -0.226776,-0.106301 -0.432291,-0.255122 -0.60001,-0.434653l0 -0.00236225 -8.89149 -9.62024 -0.00236225 0.00236225c-0.338982,-0.369691 -0.503158,-0.833873 -0.497253,-1.28979 -1.51302,3.56581 -3.87408,7.24501 -7.51194,10.5462 -0.787809,0.859857 -1.97484,1.74216 -3.45242,2.3587 -1.21892,0.50552 -2.64335,0.836235 -4.21661,0.836235 -0.833873,0 -1.68428,-0.0980332 -2.53469,-0.282288 -0.823242,-0.186617 -1.66066,-0.466543 -2.48626,-0.827967 -0.349612,-0.13701 -1.09844,-0.390952 -1.8272,-0.56812l-0.00472449 0c-0.465362,-0.112207 -0.928362,-0.198429 -1.24727,-0.198429l-0.0295281 0c-0.32599,0 -0.798439,0.0874031 -1.28152,0.205515 -0.731115,0.183074 -1.48113,0.438196 -1.87208,0.592924 -0.794895,0.351975 -1.6205,0.629538 -2.4461,0.811431l-0.00472449 0c-0.827967,0.180712 -1.6642,0.278745 -2.49099,0.278745 -1.57326,0 -3.00005,-0.340163 -4.21661,-0.844503 -1.4764,-0.616546 -2.66579,-1.50239 -3.45833,-2.36225 -4.33,-3.93078 -6.8576,-8.38597 -8.29621,-12.5813 -2.79454,-8.14148 -1.50121,-15.3416 -1.41498,-15.7916l0.0118112 -0.0460638 0.185436 -0.728753 0.00590561 -0.0212602 0.145278 -0.516151 -0.0283469 -0.172444c-0.0165357,-0.144097 -0.0283469,-0.279926 -0.0283469,-0.412212 0,-0.354337 0.106301,-0.698043 0.287013,-0.980332 0.121656,-0.196066 0.283469,-0.373235 0.471268,-0.510245 0.739383,-1.88862 1.66775,-3.51856 2.78272,-4.88512 1.17522,-1.43034 2.56067,-2.57839 4.14692,-3.42644 1.94058,-1.03821 3.91896,-1.48467 5.69655,-1.61696 2.97407,-0.207878 5.4308,0.460638 6.25759,0.72639 0.866944,0.164176 1.65475,0.288194 2.34335,0.394495l0.764186 0.101577m20.763 24.3028l0.00826786 0.113388 0.0437015 0.636625 -0.62127 0.155908 -1.07364 0.268115 -0.0200791 0.00354337 -1.12679 0.250398 -0.924819 0.205515 0 -0.943717 0 -2.91501c0,-0.0933087 -0.0366148,-0.179531 -0.0956709,-0.2315l-0.00236225 0c-0.0566939,-0.057875 -0.141735,-0.0968521 -0.233862,-0.0968521 -0.0921276,0 -0.17835,0.038977 -0.236225,0.0968521 -0.057875,0.0531505 -0.0944898,0.138191 -0.0944898,0.2315l0 2.93745 0.00708674 0.0980332 0.0236225 0.0992143 0.184255 0.796077 -0.809069 0.124018 -1.09254 0.170082 -0.0141735 0.00826786 -1.15041 0.15827 -0.863401 0.119293 0 -0.877574 0 -2.90674c0,-0.0885842 -0.0366148,-0.17835 -0.0944898,-0.230319l-0.00354337 0c-0.057875,-0.0614184 -0.141735,-0.0980332 -0.232681,-0.0980332 -0.0921276,0 -0.177168,0.0366148 -0.237406,0.0980332 -0.057875,0.057875 -0.0956709,0.141735 -0.0956709,0.230319l0 2.94218 0.0129923 0.154727 0.057875 0.750013 -0.751194 0.0614184 -1.11498 0.10512 -0.0106301 0.00118112 -1.15396 0.0862219 -0.875212 0.0720485 0.00236225 0 -0.131105 0.0106301 -0.0661429 0.00118112 0 0 -0.969702 0.0366148 -1.56617 0.0602373 -0.0129923 0 -1.62877 0.0354337 -0.461819 0.00944898 0.0118112 0.0165357 -0.520875 -0.00354337 -0.435834 0.00590561 0.0118112 -0.0141735 -0.470087 -0.00236225 -1.57798 -0.0200791 -0.0118112 0 -1.51774 -0.0401582 -0.744107 -0.0141735 0 -0.745288 0 -5.69537c0,-0.0885842 -0.038977,-0.174806 -0.0968521,-0.233862 -0.057875,-0.0602373 -0.141735,-0.0968521 -0.233862,-0.0968521 -0.0909464,0 -0.17835,0.0366148 -0.236225,0.0968521 -0.057875,0.0590561 -0.0944898,0.145278 -0.0944898,0.233862l0 5.59734 0 0.811431 -0.81025 -0.0496071 -1.50711 -0.100395 -0.0141735 0 -1.4327 -0.125199 -0.812612 -0.0649617 0.120475 -0.809069 0.0129923 -0.0862219 0 -0.0200791 0 -2.96698c0,-0.0885842 -0.0366148,-0.172444 -0.0944898,-0.230319 -0.057875,-0.0614184 -0.145278,-0.0980332 -0.236225,-0.0980332 -0.0921276,0 -0.175987,0.0366148 -0.233862,0.0980332 -0.057875,0.057875 -0.0968521,0.141735 -0.0968521,0.230319l0 2.95044 0 0.87285 -0.864582 -0.120475 -1.14569 -0.155908 -0.0141735 -0.00236225 -1.10907 -0.170082 -0.926 -0.145278 0.328352 -0.87285 0.00708674 -0.0236225 0.00944898 -0.121656 0 -2.93745c0,-0.0933087 -0.0377959,-0.17835 -0.0956709,-0.2315 -0.057875,-0.057875 -0.144097,-0.0968521 -0.236225,-0.0968521 -0.0921276,0 -0.177168,0.038977 -0.235043,0.0968521 -0.0566939,0.0531505 -0.0944898,0.138191 -0.0944898,0.2315l0 2.95044 0 0.944898 -0.920094 -0.201972c-0.464181,-0.0980332 -0.921276,-0.200791 -1.35711,-0.308273 -0.448827,-0.109844 -0.863401,-0.227957 -1.24254,-0.33662l-0.690957 -0.205515 0.00590561 0.0377959 -0.380321 -0.146459 -0.217327 -0.0637806 0.0177168 -0.0200791 -0.613003 -0.239768c-0.913008,-0.354337 -1.62168,-0.729934 -2.10476,-1.08073l0.00236225 -0.00118112c-0.667334,-0.490166 -1.00277,-1.01458 -1.00277,-1.53428 0,-0.0602373 -0.0106301,-0.108663 -0.0283469,-0.144097l-0.00944898 -0.0141735c-0.0153546,-0.0366148 -0.0519694,-0.0803163 -0.0874031,-0.108663l-0.249217 -0.191342 -0.0425204 -0.314179c-0.264571,-2.06815 -0.2941,-3.89652 -0.24213,-5.32568 0.0555128,-1.43034 0.19961,-2.48036 0.272839,-2.94808l0.191342 -1.19057 0.992143 0.688594c1.72798,1.19766 4.70323,2.1083 8.28676,2.73666 4.09968,0.713398 8.97771,1.06419 13.7093,1.06419 4.59102,0 9.57064,-0.338982 13.8333,-1.04293 3.66739,-0.609459 6.79854,-1.48467 8.65763,-2.63272l0.992143 -0.608278 0.160633 1.15041c0.048426,0.350793 0.113388,0.846865 0.161814,1.43034 0.0496071,0.57875 0.0909464,1.30632 0.103939,2.16027l0 0.00236225c0.00708674,0.754737 -0.00944898,1.60869 -0.0685051,2.51697l0 0.00236225c-0.0519694,0.787809 -0.141735,1.64176 -0.269296,2.52642l-0.00236225 0.0236225 -0.0141735 0.048426 -0.0283469 0.121656 -0.00944898 0.109844 0.00236225 0 -0.00590561 0.0696862 -0.00354337 0.0507883 -0.0129923 0.057875c-0.0921276,0.461819 -0.475992,0.930725 -1.13033,1.35593l0 0c-0.512607,0.33662 -1.23782,0.690957 -2.14728,1.02876l-1.02758 0.377959 0 -1.09254 0 -5.35521c0,-0.0874031 -0.0366148,-0.172444 -0.0944898,-0.233862 -0.057875,-0.057875 -0.144097,-0.0956709 -0.235043,-0.0956709 -0.0921276,0 -0.17835,0.0377959 -0.236225,0.0956709 -0.0566939,0.0614184 -0.0944898,0.146459 -0.0944898,0.233862l0 5.87608zm-1.52601 -0.422842l0 -5.45324c0,-0.510245 0.207878,-0.969702 0.544498,-1.30986 0.335439,-0.33662 0.803163,-0.544498 1.31223,-0.544498 0.507883,0 0.975607,0.207878 1.31105,0.544498 0.33662,0.340163 0.544498,0.79962 0.544498,1.30986l0 4.21897c0.324809,-0.155908 0.596467,-0.303549 0.814975,-0.447645l0 0c0.279926,-0.184255 0.438196,-0.314179 0.465362,-0.370872l0.00118112 -0.0259847 0.00590561 0 -0.00590561 0 0.00472449 0 0.0153546 -0.173625 0.00708674 -0.0696862 0.0118112 -0.048426 0.0295281 -0.121656c0.120475,-0.833873 0.200791,-1.64294 0.251579,-2.38232 0.057875,-0.896472 0.0732296,-1.70672 0.0685051,-2.40949l0 0c-0.0106301,-0.751194 -0.0531505,-1.45396 -0.102758,-2.0457l-0.0224413 -0.25276c-2.04452,0.985056 -4.92882,1.74334 -8.18518,2.28429 -4.36307,0.719304 -9.42536,1.06655 -14.0778,1.06655 -4.80953,0 -9.77497,-0.351975 -13.968,-1.08781 -3.17013,-0.556309 -5.91624,-1.34294 -7.8521,-2.3587 -0.0448827,0.446464 -0.0874031,0.992143 -0.111026,1.62286 -0.0507883,1.30396 -0.0236225,2.95989 0.198429,4.81662 0.111026,0.129923 0.206696,0.271658 0.278745,0.421661l-0.00354337 0c0.120475,0.250398 0.18898,0.529143 0.18898,0.809069 0,0.0236225 0.125199,0.124018 0.372054,0.303549l0.00354337 0c0.185436,0.140554 0.419299,0.278745 0.701587,0.424023l0 -1.98192c0,-0.510245 0.207878,-0.972064 0.543316,-1.31105 0.33662,-0.337801 0.800801,-0.543316 1.30986,-0.543316 0.511426,0 0.976788,0.205515 1.31341,0.543316 0.335439,0.338982 0.543316,0.800801 0.543316,1.31105l0 2.97289c0,0.107482 -0.00944898,0.213783 -0.0283469,0.314179l0.307092 0.0814975 0.386227 0.0897653 0 -1.99846c0,-0.507883 0.209059,-0.975607 0.544498,-1.30868 0.337801,-0.337801 0.801982,-0.543316 1.31105,-0.543316 0.509064,0 0.976788,0.205515 1.31341,0.543316 0.335439,0.333077 0.543316,0.800801 0.543316,1.30868l0 2.70831 0.382684 0.0625995 0 -0.00236225 0.283469 0.0377959 0 -2.07996c0,-0.507883 0.206696,-0.969702 0.543316,-1.30868 0.335439,-0.337801 0.79962,-0.543316 1.31105,-0.543316 0.509064,0 0.975607,0.205515 1.31105,0.543316 0.33662,0.338982 0.545679,0.800801 0.545679,1.30868l0 2.49099 0.709855 0.0614184 0.681508 0.0460638 0 -4.78473c0,-0.510245 0.209059,-0.972064 0.545679,-1.31105 0.335439,-0.337801 0.801982,-0.543316 1.31105,-0.543316 0.511426,0 0.975607,0.205515 1.31105,0.543316 0.33662,0.338982 0.543316,0.800801 0.543316,1.31105l0 4.95717 0.773635 0.0212602 0.622452 0.00236225 0 -2.79454c0,-0.507883 0.209059,-0.969702 0.545679,-1.30868 0.335439,-0.337801 0.79962,-0.543316 1.30868,-0.543316 0.510245,0 0.977969,0.205515 1.31341,0.543316 0.33662,0.338982 0.543316,0.800801 0.543316,1.30868l0 2.77209 0.674421 -0.0153546 0.719304 -0.0236225 0 -2.73312c0,-0.507883 0.206696,-0.969702 0.542135,-1.30868 0.33662,-0.337801 0.803163,-0.543316 1.31341,-0.543316 0.509064,0 0.973245,0.205515 1.30986,0.543316l-0.00118112 0c0.335439,0.330714 0.544498,0.800801 0.544498,1.30868l0 2.51697 0.27402 -0.0248036 0 0.00826786 0.393314 -0.0354337 0 -2.465c0,-0.507883 0.209059,-0.969702 0.544498,-1.30868 0.33662,-0.337801 0.800801,-0.543316 1.31223,-0.543316 0.510245,0 0.974426,0.205515 1.30986,0.543316l-0.00118112 0c0.33662,0.330714 0.544498,0.800801 0.544498,1.30868l0 2.03389 0.287013 -0.038977 0 0.00118112 0.37914 -0.0602373 0 -2.66225c0,-0.507883 0.207878,-0.975607 0.545679,-1.30868 0.33662,-0.337801 0.801982,-0.543316 1.31105,-0.543316 0.511426,0 0.975607,0.205515 1.31223,0.543316l-0.00236225 0c0.335439,0.328352 0.545679,0.800801 0.545679,1.30868l0 1.96303 0.179531 -0.0401582 0.485441 -0.120475zm6.49145 -1.76814l-0.00590561 0.0118112m-42.1495 1.56263l0.076773 0.583475 0.466543 -0.429929c0.0330714,-0.0318903 0.0625995,-0.0696862 0.0779541,-0.107482l0.00590561 -0.0118112c0.0141735,-0.0342526 0.0259847,-0.0826786 0.0259847,-0.129923l0 -2.97289c0,-0.0885842 -0.038977,-0.174806 -0.0980332,-0.233862 -0.0566939,-0.0602373 -0.142916,-0.0968521 -0.235043,-0.0968521 -0.0921276,0 -0.175987,0.0366148 -0.235043,0.0968521 -0.057875,0.0590561 -0.0944898,0.145278 -0.0944898,0.233862l0 2.95989 0.00354337 0.0590561 0.00590561 0.0496071zm19.0031 2.27248l0.288194 0.440559 0.278745 -0.446464 0.0354337 -0.0755918 0.00118112 -0.00472449 0.0106301 -0.0933087 0 -2.97525c0,-0.0885842 -0.038977,-0.172444 -0.0968521,-0.230319 -0.057875,-0.0614184 -0.142916,-0.0980332 -0.236225,-0.0980332 -0.0921276,0 -0.175987,0.0366148 -0.233862,0.0980332 -0.057875,0.057875 -0.0944898,0.141735 -0.0944898,0.230319l0 2.97525 0.0118112 0.0956709 0.0354337 0.0838597zm-0.0354337 -0.0862219l0 0.00236225m5.12371 0.0602373l0.385046 0.787809 0.206696 -0.774816 0.0295281 -0.107482 0.00708674 -0.0980332 0 -2.93863c0,-0.0885842 -0.0354337,-0.17835 -0.0933087,-0.230319l-0.00118112 0c-0.0602373,-0.0614184 -0.142916,-0.0980332 -0.235043,-0.0980332 -0.0921276,0 -0.177168,0.0366148 -0.235043,0.0980332 -0.0590561,0.057875 -0.0980332,0.141735 -0.0980332,0.230319l0 2.97525 0.00826786 0.0838597 0.0259847 0.0720485zm-32.3498 3.37683l0.0921276 0.0330714 0.429929 0.076773 -0.0425204 -0.444102c-0.00118112,-0.0283469 -0.0153546,-0.0685051 -0.0307092,-0.103939 -0.0141735,-0.0342526 -0.0354337,-0.0661429 -0.0637806,-0.0944898l-2.10004 -2.10004 -0.00236225 0 -0.00590561 -0.00472449c-0.0614184,-0.0602373 -0.144097,-0.0933087 -0.227957,-0.0933087 -0.0850408,0 -0.171263,0.0330714 -0.227957,0.0933087l-0.00708674 0.00472449 -0.00472449 0.00708674c-0.0590561,0.0602373 -0.0909464,0.144097 -0.0909464,0.230319 0,0.0838597 0.0318903,0.168901 0.0909464,0.230319l0.00472449 0 0 0.00236225 2.10004 2.1024 0.0720485 0.057875 0.0141735 0.00236225zm-1.22955 0.943717l-2.03389 -2.03271 -0.00236225 0c-0.362605,-0.361424 -0.540954,-0.836235 -0.540954,-1.30632 0,-0.471268 0.17835,-0.943717 0.540954,-1.30632l0.00236225 -0.00354337 0.00708674 -0.00826786 0.00118112 0c0.361424,-0.354337 0.837416,-0.542135 1.30396,-0.542135 0.470087,0 0.948441,0.187798 1.30278,0.542135l0.00590561 0.00826786 2.10122 2.09649 0.00236225 0c0.119293,0.119293 0.219689,0.253941 0.300005,0.398038l0.21024 0.0354337 0 -0.00118112c0.309454,0.0637806 0.614184,0.219689 0.865763,0.450008 0.372054,0.348431 0.575207,0.813793 0.595286,1.28624l0 0.00826786c0.0153546,0.464181 -0.148821,0.94726 -0.490166,1.32168l-0.00590561 0 -8.89503 9.62615 0 0.00236225c-0.168901,0.179531 -0.376778,0.330714 -0.60001,0.434653 -0.222051,0.0980332 -0.471268,0.157089 -0.727572,0.157089l-0.0271658 0.00236225 -0.0153546 -0.00236225c-0.236225,0 -0.47363,-0.0496071 -0.700406,-0.145278l0 0.00118112c-0.22087,-0.0874031 -0.428747,-0.229138 -0.598829,-0.399219l-8.22534 -8.22652 -0.00236225 0c-0.356699,-0.351975 -0.53623,-0.824424 -0.542135,-1.28624l0 -0.00944898c-0.00236225,-0.458276 0.168901,-0.930725 0.511426,-1.29333l14.0435 -14.7711 0.0129923 -0.0141735 0.00354337 0c0.349612,-0.361424 0.813793,-0.545679 1.28152,-0.55749l0.00590561 0c0.464181,-0.0106301 0.943717,0.157089 1.30986,0.499615l0.0165357 0.0200791 0.00472449 0.00236225 0.00118112 0c0.356699,0.349612 0.549222,0.813793 0.562214,1.28152 0.0106301,0.472449 -0.15827,0.953166 -0.50552,1.31931l-0.0153546 0.0129923 -0.00118112 0.00236225 -12.7904 13.4518 5.59025 5.58671 0.192523 -0.205515 -2.0646 -2.0646 -0.00472449 -0.00472449c-0.362605,-0.361424 -0.540954,-0.833873 -0.540954,-1.30632 0,-0.470087 0.17835,-0.943717 0.540954,-1.30632l0.00472449 0 0.00118112 -0.00118112c0.359061,-0.362605 0.837416,-0.542135 1.30868,-0.542135 0.471268,0 0.942536,0.179531 1.30632,0.542135l0.00118112 0 0.00118112 0.00118112 1.96303 1.96066 0.454732 -0.496071 -0.048426 -0.0472449 -0.00590561 -0.00236225 -2.10122 -2.10476 -0.00236225 0 0 0c-0.361424,-0.361424 -0.545679,-0.836235 -0.545679,-1.30868 0,-0.477174 0.186617,-0.943717 0.545679,-1.30632l0 -0.00590561 0.00236225 -0.00118112 0 -0.00236225c0.35788,-0.354337 0.838597,-0.544498 1.30868,-0.544498 0.472449,0 0.94726,0.184255 1.30868,0.544498l0.00236225 0 0.00236225 0.00236225 2.04925 2.05397 0.457094 -0.496071zm2.70477 -0.629538l-0.0779541 0.0259847 -0.881117 0.953166 -1.80948 1.96066 -1.21183 1.31695 0 -0.0106301 -1.69609 1.83074 -0.22087 0.239768 0.00118112 0 -0.316541 0.346069 -0.453551 0.488985 0 0 -0.222051 0.24213 -1.37837 1.48585 -0.53623 0.582293 -0.556309 -0.556309 -6.66862 -6.66744 -0.5256 -0.522056 0.511426 -0.542135 13.3089 -13.9975c0.0590561,-0.0637806 0.0933087,-0.15827 0.0933087,-0.24213 -0.00236225,-0.0826786 -0.038977,-0.167719 -0.102758,-0.230319l-0.00590561 0c-0.0625995,-0.0602373 -0.154727,-0.0956709 -0.232681,-0.0944898l-0.00708674 0c-0.0791352,0 -0.165357,0.038977 -0.224413,0.10512l-0.0129923 0.0129923 -0.00236225 0 -14.0329 14.7605c-0.0590561,0.0614184 -0.0921276,0.155908 -0.0921276,0.233862 0,0.0814975 0.0354337,0.165357 0.0980332,0.227957l8.22652 8.22534 0.00236225 0c0.0295281,0.0342526 0.0696862,0.0602373 0.106301,0.0720485l0.00118112 0.00236225c0.0330714,0.0141735 0.0779541,0.0224413 0.12638,0.0224413l0.00236225 0 0.0283469 0.00118112c0.0307092,-0.00118112 0.0696862,-0.0118112 0.102758,-0.0259847l0.00236225 0c0.038977,-0.0129923 0.0791352,-0.0472449 0.109844,-0.0814975l0.00118112 0.00590561 8.89267 -9.61788 -0.00118112 -0.00590561c0.0625995,-0.0649617 0.0921276,-0.15827 0.0897653,-0.244492 -0.00236225,-0.0755918 -0.0413393,-0.170082 -0.111026,-0.230319 -0.0413393,-0.0354337 -0.0944898,-0.0696862 -0.150003,-0.0755918l-0.00236225 -0.00590561c-0.0566939,-0.0118112 -0.120475,-0.00472449 -0.172444,0.00826786zm-7.34186 6.12294l0.465362 0.0625995 -0.0992143 -0.463 -0.0330714 -0.0838597 0 -0.00236225 -0.057875 -0.0791352 -2.1024 -2.09649 -0.00118112 0 -0.00118112 -0.00236225c-0.0614184,-0.0602373 -0.14764,-0.0944898 -0.232681,-0.0944898 -0.0850408,0 -0.171263,0.0283469 -0.2315,0.0944898l-0.00354337 0.00236225 -0.00354337 0c-0.0602373,0.0590561 -0.0909464,0.145278 -0.0909464,0.229138 0,0.0850408 0.0307092,0.170082 0.0909464,0.230319l0.00354337 0.00472449 2.10358 2.1024 0.0744107 0.057875c0.0354337,0.0153546 0.0803163,0.0354337 0.119293,0.0377959zm2.94454 -3.30242l0.329533 0 -0.0224413 -0.351975c0,-0.038977 -0.0118112,-0.0850408 -0.0271658,-0.120475l0.00118112 0 -0.0685051 -0.0980332 -2.10358 -2.1024 -0.00236225 -0.00236225c-0.0590561,-0.0602373 -0.14764,-0.0956709 -0.233862,-0.0956709 -0.0826786,0 -0.170082,0.0354337 -0.230319,0.0956709l-0.00236225 0.00236225 -0.00354337 0.00236225c-0.0590561,0.0590561 -0.0944898,0.151184 -0.0944898,0.235043 0,0.0862219 0.0354337,0.172444 0.0944898,0.232681l0.00354337 0 2.1024 2.10476c0.0283469,0.0271658 0.067324,0.0519694 0.100395,0.0696862l0.00826786 0.00236225c0.0366148,0.0141735 0.0838597,0.0259847 0.127561,0.0259847l0.0212602 0zm58.5081 -5.76742l-2.7095 2.71422 -0.236225 0.233862 -0.333077 -0.0141735c-0.0425204,0 -0.0933087,0.00472449 -0.131105,0.0165357l0 0.00590561c-0.0377959,0.0118112 -0.0779541,0.0377959 -0.106301,0.0637806l-0.00590561 0.00236225c-0.0637806,0.057875 -0.101577,0.146459 -0.10512,0.227957l0 0.00236225c-0.00118112,0.0838597 0.0283469,0.177168 0.0862219,0.239768l0 0.00236225 8.89149 9.62379 0.00236225 -0.00590561c0.0330714,0.0342526 0.0732296,0.0685051 0.111026,0.0814975l0.00118112 0c0.0354337,0.0141735 0.0720485,0.0248036 0.10512,0.0259847l0.0295281 -0.00118112 0.00118112 0c0.0472449,0 0.0921276,-0.0106301 0.125199,-0.0224413l0.00472449 0c0.0330714,-0.0118112 0.0720485,-0.0377959 0.10512,-0.0744107l0.00118112 0 8.22534 -8.22298c0.0602373,-0.0625995 0.0968521,-0.148821 0.0968521,-0.222051l0 -0.00826786c0,-0.0779541 -0.0307092,-0.172444 -0.0921276,-0.233862l-14.0317 -14.7605 -0.00590561 -0.00118112 -0.0106301 -0.018898c-0.0590561,-0.0614184 -0.145278,-0.0980332 -0.223232,-0.0980332l-0.00472449 0c-0.076773,-0.00118112 -0.164176,0.0330714 -0.226776,0.0850408l-0.0141735 0.0118112c-0.0625995,0.0602373 -0.0992143,0.152365 -0.100395,0.227957 -0.00118112,0.0838597 0.0295281,0.17835 0.0909464,0.239768l13.3101 13.9998 0.513788 0.542135 -0.527962 0.522056 -6.6698 6.66744 -0.552765 0.556309 -0.537411 -0.582293 -1.37837 -1.48585 -0.225594 -0.24213 -0.987418 -1.07482 -1.69373 -1.83074 0 0.00236225 -1.21419 -1.30868 -1.67719 -1.8142 -0.493709 -0.533867 0.514969 -0.518513 2.55004 -2.55241 0.00236225 0c0.0614184,-0.0614184 0.0921276,-0.146459 0.0921276,-0.230319 0,-0.0862219 -0.0307092,-0.170082 -0.0921276,-0.230319l-0.00236225 -0.00708674 -0.00708674 -0.00472449c-0.057875,-0.0602373 -0.142916,-0.0933087 -0.229138,-0.0933087 -0.0838597,0 -0.170082,0.0330714 -0.227957,0.0933087l-0.00708674 0.00472449zm0.895291 5.41545l-0.018898 0.351975 0.330714 0 0.0212602 0c0.0437015,0 0.0909464,-0.0118112 0.12638,-0.0259847l0.00944898 -0.00236225c0.0342526,-0.0177168 0.0708674,-0.0425204 0.100395,-0.0696862l2.10122 -2.10476c0.0625995,-0.0602373 0.0980332,-0.146459 0.0980332,-0.232681 0,-0.0838597 -0.0354337,-0.175987 -0.0980332,-0.237406 -0.0637806,-0.0625995 -0.151184,-0.0980332 -0.235043,-0.0980332 -0.0850408,0 -0.168901,0.0354337 -0.235043,0.0980332l-2.1024 2.1024c-0.0271658,0.0283469 -0.0519694,0.0637806 -0.0649617,0.0980332l-0.00708674 0.00944898c-0.0129923,0.0283469 -0.0224413,0.0744107 -0.0259847,0.111026zm2.89021 3.25872l-0.100395 0.458276 0.465362 -0.0625995c0.0377959,-0.00236225 0.0850408,-0.0224413 0.121656,-0.0377959l0.0720485 -0.057875 2.10358 -2.1024c0.0590561,-0.0566939 0.0956709,-0.148821 0.0956709,-0.235043 0,-0.0838597 -0.0342526,-0.170082 -0.0956709,-0.229138 -0.0614184,-0.0625995 -0.150003,-0.0968521 -0.233862,-0.0968521 -0.0862219,0 -0.173625,0.0342526 -0.236225,0.0968521l-0.00118112 0 -2.1024 2.09649 -0.0519694 0.0720485 -0.0366148 0.0980332zm-8.34227 -6.76665l0.00590561 -0.00118112m-24.1185 0.735839c-4.47645,0 -9.10291,-0.311816 -13.1152,-0.951985 -2.80989,-0.448827 -5.33041,-1.06655 -7.29934,-1.852 0.542135,1.60751 1.2638,3.25635 2.21342,4.89693 1.27443,2.1898 2.96698,4.35834 5.19694,6.36979l0.0366148 0.0354337 0.0803163 0.0838597 0.0224413 0.0224413c0.461819,0.517332 1.22601,1.08545 2.20634,1.48821 0.791352,0.32599 1.73153,0.544498 2.77209,0.544498 0.569301,0 1.14805,-0.0625995 1.71971,-0.194885 0.581112,-0.131105 1.1764,-0.32599 1.7646,-0.591742l0.0224413 -0.00826786c0.0472449,-0.0153546 1.22719,-0.475992 2.50398,-0.790171 0.677964,-0.159452 1.40199,-0.289375 2.02326,-0.300005l0.00708674 -0.00236225 0.140554 0 0.00826786 0.00236225c0.615365,0.0106301 1.32758,0.132286 1.98901,0.290556l0 -0.00236225c1.25317,0.300005 2.43429,0.761824 2.45319,0.773635l0 -0.00118112c0.622452,0.271658 1.24018,0.48426 1.83783,0.617727l0.00472449 0c0.588199,0.134648 1.17404,0.196066 1.75042,0.196066 1.02521,0 1.9583,-0.216145 2.74493,-0.533867 0.949623,-0.386227 1.69255,-0.918913 2.15791,-1.40672l0.0354337 -0.0460638 0.018898 -0.0200791 0.0141735 -0.0271658 0.102758 -0.0944898 0.00590561 -0.00236225 0.00236225 -0.00118112 0.0141735 -0.0141735 0.0496071 -0.0448827 0.0118112 -0.00354337c2.1839,-1.98074 3.84574,-4.1233 5.10836,-6.28712 0.951985,-1.63467 1.67838,-3.2788 2.22169,-4.87567 -2.06224,0.781903 -4.67843,1.38309 -7.58517,1.82483 -4.05834,0.605916 -8.7155,0.905921 -13.2416,0.905921zm-12.8742 -2.45201c3.90952,0.625995 8.45448,0.927181 12.8742,0.927181 4.44929,0 9.0285,-0.289375 13.0136,-0.891748 3.56108,-0.533867 6.63437,-1.31813 8.68007,-2.34689l1.5331 -0.771273 -0.458276 1.65357c-0.605916,2.18862 -1.5142,4.50362 -2.84769,6.79027 -1.32994,2.28429 -3.09572,4.55677 -5.42253,6.66153l-0.00118112 0.00236225 -0.0200791 0.0129923 -0.00118112 0.00236225 -0.0236225 0.0224413 -0.00590561 0.00944898 -0.0472449 0.048426c-0.596467,0.654342 -1.54845,1.35357 -2.74375,1.84019 -0.953166,0.386227 -2.07759,0.642531 -3.31659,0.642531 -0.686232,0 -1.38546,-0.076773 -2.09059,-0.240949 -0.693319,-0.151184 -1.40672,-0.390952 -2.11539,-0.70513l0 -0.00236225c-0.0141735,-0.0106301 -1.01813,-0.395676 -2.19216,-0.676783l0 -0.00708674c-0.558671,-0.134648 -1.15278,-0.235043 -1.6453,-0.244492l0 0 -0.140554 0 0 0c-0.492528,0.00944898 -1.09963,0.118112 -1.67365,0.253941 -1.10435,0.268115 -2.09767,0.650799 -2.26303,0.714579 -0.682689,0.302367 -1.3701,0.531505 -2.05397,0.687413l-0.00118112 0c-0.692138,0.150003 -1.37955,0.230319 -2.04925,0.230319 -1.24727,0 -2.38351,-0.265753 -3.3473,-0.663791 -1.21774,-0.500796 -2.17563,-1.2201 -2.76265,-1.8768l-0.0330714 -0.0318903c-2.35634,-2.12248 -4.14456,-4.41858 -5.4875,-6.73122 -1.35002,-2.32327 -2.25949,-4.6678 -2.8595,-6.87177l-0.470087 -1.73271 1.57207 0.862219c1.94058,1.06773 4.92174,1.87798 8.40014,2.43311zm26.1123 11.1403l0.00354337 -0.00236225 -0.00354337 0.00236225z"/>
 </g>
</svg>
