<?xml version="1.0" encoding="UTF-8"?>
<!DOCTYPE svg PUBLIC "-//W3C//DTD SVG 1.1//EN" "http://www.w3.org/Graphics/SVG/1.1/DTD/svg11.dtd">
<!-- Creator: CorelDRAW -->
<svg xmlns="http://www.w3.org/2000/svg" xml:space="preserve" width="70px" height="75px" style="shape-rendering:geometricPrecision; text-rendering:geometricPrecision; image-rendering:optimizeQuality; fill-rule:evenodd; clip-rule:evenodd"
viewBox="0 0 70 75.0008"
 xmlns:xlink="http://www.w3.org/1999/xlink">
 <defs>
  <style type="text/css">
   <![CDATA[
    .fil0 {fill:#B2B3B3}
   ]]>
  </style>
 </defs>
 <g id="Слой_x0020_1">
  <metadata id="CorelCorpID_0Corel-Layer"/>
  <path class="fil0" d="M9.63318 8.7249l6.86464 0c1.40435,0 2.54885,1.14214 2.54885,2.54412l0 0.00236223c0,1.40198 -1.1445,2.54649 -2.54885,2.54649l-6.86464 0c-1.39962,0 -2.54412,-1.1445 -2.54412,-2.54649l0 -0.00236223c0,-1.40198 1.1445,-2.54412 2.54412,-2.54412zm1.04293 11.6588l48.6584 0c1.97246,0 3.58705,1.61459 3.58705,3.58705l0 0c0,1.97364 -1.61459,3.58587 -3.58705,3.58587l-48.6584 0c-1.97246,0 -3.58705,-1.61222 -3.58705,-3.58587l0 0c0,-1.97246 1.61459,-3.58705 3.58705,-3.58705zm3.27405 21.729l8.73317 0 0 6.55165 4.88628 0 -9.30365 9.87649 0 0 -9.30483 -9.87649 4.98903 0 0 -6.55165zm33.5307 0l8.73317 0 0 6.55165 4.88864 0 -9.30719 9.87649 0 0 -9.30483 -9.87649 4.99021 0 0 -6.55165zm-16.8451 14.0387l8.73435 0 0 6.54811 4.88628 0 -9.30601 9.88003 0 0 -9.30247 -9.88003 4.98785 0 0 -6.54811zm-22.3231 -55.5207l53.1738 0c4.05005,0 7.36189,3.3083 7.36189,7.35953l0 19.277c0,4.04886 -3.31185,7.36189 -7.36189,7.36189l-53.1738 0c-4.04886,0 -7.35835,-3.31303 -7.35835,-7.36189l0 -19.277c0,-4.05123 3.30949,-7.35953 7.35835,-7.35953z"/>
 </g>
</svg>
