<?xml version="1.0" encoding="UTF-8"?>
<!DOCTYPE svg PUBLIC "-//W3C//DTD SVG 1.1//EN" "http://www.w3.org/Graphics/SVG/1.1/DTD/svg11.dtd">
<!-- Creator: CorelDRAW -->
<svg xmlns="http://www.w3.org/2000/svg" xml:space="preserve" width="55px" height="70px" style="shape-rendering:geometricPrecision; text-rendering:geometricPrecision; image-rendering:optimizeQuality; fill-rule:evenodd; clip-rule:evenodd"
viewBox="0 0 55 70.0002"
 xmlns:xlink="http://www.w3.org/1999/xlink">
 <defs>
  <style type="text/css">
   <![CDATA[
    .fil1 {fill:#B2B3B3}
    .fil0 {fill:#B2B3B3;fill-rule:nonzero}
   ]]>
  </style>
 </defs>
 <g id="Слой_x0020_1">
  <metadata id="CorelCorpID_0Corel-Layer"/>
  <path class="fil0" d="M27.9795 1.06183c7.40089,0 14.1037,3.26461 18.9499,8.53122 4.81542,5.24771 7.79421,12.4762 7.79421,20.444 0,7.97492 -2.97878,15.2069 -7.79421,20.444 -1.29569,1.40671 -2.71185,2.66933 -4.25439,3.77131l0 -3.89651c0.700404,-0.604733 1.37128,-1.25317 2.00436,-1.94294 3.60005,-3.91659 6.05087,-9.08989 6.75955,-14.8632 -1.51419,-2.69886 -3.58115,-5.14141 -6.06269,-7.22845 -4.8733,-4.10911 -11.3848,-6.85522 -18.6428,-7.51782 -5.76504,0.662608 -10.9454,3.36147 -14.8325,7.40207 -3.07209,3.19729 -5.35401,7.23199 -6.49143,11.7391 1.16695,4.00281 3.19847,7.5757 5.85835,10.4683 1.37128,1.49293 2.90201,2.79689 4.56857,3.88706l0 3.57052c-2.5276,-1.39608 -4.8355,-3.22446 -6.81978,-5.38945 -4.81424,-5.23708 -7.79302,-12.4691 -7.79302,-20.444 0,-7.96783 2.97878,-15.1963 7.79302,-20.444 4.84613,-5.26661 11.5502,-8.53122 18.9629,-8.53122zm-4.69495 14.5171c1.15159,0 2.29019,0.0543315 3.40989,0.140553 0.920092,-0.0862217 1.84727,-0.140553 2.79571,-0.140553 7.71861,0 14.7191,3.25516 19.7837,8.50996 0.774814,0.806704 1.50356,1.65711 2.18507,2.54886 -0.700404,-5.82174 -3.16186,-11.0305 -6.77962,-14.966 -4.28274,-4.66424 -10.1895,-7.54735 -16.6998,-7.54735 -6.52214,0 -12.4313,2.88311 -16.7117,7.54735 -2.02916,2.20279 -3.69336,4.81542 -4.89338,7.70798 4.99023,-2.42248 10.7635,-3.80084 16.9101,-3.80084zm-7.78239 3.88706c-3.82092,0.81261 -7.36428,2.22877 -10.4683,4.11502 -0.487802,2.05869 -0.745286,4.2225 -0.745286,6.456 0,0.61182 0.0188979,1.22364 0.0566937,1.82955 1.35947,-2.89256 3.17957,-5.51701 5.35165,-7.77767 1.72562,-1.79058 3.67682,-3.35084 5.8052,-4.6229z"/>
  <path class="fil1" d="M27.9748 21.8767c9.77612,0 17.6932,10.5627 17.6932,23.5881 0,13.0289 -7.91704,23.5917 -17.6932,23.5917 -9.76904,0 -17.6955,-10.5627 -17.6955,-23.5917 0,-13.0254 7.92649,-23.5881 17.6955,-23.5881zm5.74378 36.2545c0,-0.42166 -0.42166,-0.764184 -0.946077,-0.764184 -0.519692,0 -0.948439,0.342525 -0.948439,0.764184l0 0.0484259c0,0.459455 -0.375596,0.897651 -0.986235,1.23427 -0.719302,0.401581 -1.72562,0.642529 -2.86303,0.642529 -1.13033,0 -2.14609,-0.240948 -2.85595,-0.642529 -0.610639,-0.336619 -0.994502,-0.774814 -0.994502,-1.23427 0,-0.422841 -0.42166,-0.766546 -0.947258,-0.766546 -0.529141,0 -0.947258,0.343706 -0.947258,0.766546 0,0.994502 0.69686,1.88625 1.81656,2.50043 1.02639,0.562213 2.41421,0.908281 3.9284,0.908281 1.52128,0 2.9091,-0.346068 3.92368,-0.908281 1.13151,-0.614182 1.8201,-1.50593 1.8201,-2.50043l0 -0.0484259zm1.66774 -19.2487c2.56539,0 4.65243,1.00631 4.65243,2.23468 0,1.23427 -2.08704,2.23113 -4.65243,2.23113 -2.56775,0 -4.64534,-0.996865 -4.64534,-2.23113 0,-1.22836 2.07759,-2.23468 4.64534,-2.23468zm-15.2353 0c2.56657,0 4.65243,1.00631 4.65243,2.23468 0,1.23427 -2.08586,2.23113 -4.65243,2.23113 -2.56775,0 -4.65479,-0.996865 -4.65479,-2.23113 0,-1.22836 2.08704,-2.23468 4.65479,-2.23468z"/>
 </g>
</svg>
