<?xml version="1.0" encoding="UTF-8"?>
<!DOCTYPE svg PUBLIC "-//W3C//DTD SVG 1.1//EN" "http://www.w3.org/Graphics/SVG/1.1/DTD/svg11.dtd">
<!-- Creator: CorelDRAW -->
<svg xmlns="http://www.w3.org/2000/svg" xml:space="preserve" width="62px" height="52px" style="shape-rendering:geometricPrecision; text-rendering:geometricPrecision; image-rendering:optimizeQuality; fill-rule:evenodd; clip-rule:evenodd"
viewBox="0 0 62 52.0005"
 xmlns:xlink="http://www.w3.org/1999/xlink">
 <defs>
  <style type="text/css">
   <![CDATA[
    .fil0 {fill:#B2B3B3}
   ]]>
  </style>
 </defs>
 <g id="Слой_x0020_1">
  <metadata id="CorelCorpID_0Corel-Layer"/>
  <path class="fil0" d="M7.49428 47.8099l0 -1.80477 25.6896 0 5.01627 0 3.68513 0 5.01509 0 3.68513 0 4.13987 0 0 1.80477 -47.2311 0zm29.7492 -3.72529l-3.1052 0 0 -5.2395 3.1052 0 0 5.2395zm8.70022 0l-3.10165 0 0 -5.2395 3.10165 0 0 5.2395zm-42.0365 -3.19851l0 -32.7185c0,-1.74689 1.43508,-3.18315 3.1867,-3.18315l48.0296 0c1.75634,0 3.19024,1.43626 3.19024,3.18315l0 32.7185c0,1.23546 -0.720491,2.30675 -1.75516,2.82999l0 -5.82298c0,-0.532691 -0.428751,-0.957898 -0.956717,-0.957898l-5.01627 0c-0.527966,0 -0.955536,0.425208 -0.955536,0.957898l0 6.1915 -1.77288 0 0 -6.1915c0,-0.532691 -0.42757,-0.957898 -0.956717,-0.957898l-5.01509 0c-0.529147,0 -0.957898,0.425208 -0.957898,0.957898l0 6.1915 -1.77052 0 0 -6.1915c0,-0.532691 -0.42757,-0.957898 -0.956717,-0.957898l-5.01627 0c-0.527966,0 -0.956717,0.425208 -0.956717,0.957898l0 6.1915 -24.7329 0 0 -0.00944906 -0.400404 0c-1.75162,0 -3.1867,-1.43035 -3.1867,-3.18906zm50.7391 3.19851l-3.10402 0 0 -5.2395 3.10402 0 0 5.2395zm0.477177 -42.2893l-48.0296 0c-3.51505,0 -6.37457,2.85952 -6.37457,6.37221l0 32.7185c0,2.51817 1.4646,4.69854 3.5871,5.73676l0 1.18704c0,1.75398 1.42799,3.19024 3.18788,3.19024l47.2311 0c1.76107,0 3.19024,-1.43626 3.19024,-3.19024l0 -1.18704c2.12013,-1.03822 3.58474,-3.21859 3.58474,-5.73676l0 -32.7185c0,-3.51269 -2.86188,-6.37221 -6.37693,-6.37221z"/>
  <path class="fil0" d="M54.7254 8.49116l0 11.5574 -6.40174 0c-0.409853,0 -0.777185,0.265755 -0.90711,0.654347l-1.91816 5.75566 -3.77608 -12.4491c-0.119294,-0.388593 -0.472453,-0.666159 -0.881125,-0.682695 -0.407491,-0.0318906 -0.783091,0.233864 -0.92837,0.616551l-3.55521 9.33449 -1.47051 -2.94338c-0.159453,-0.325993 -0.492532,-0.522061 -0.852778,-0.522061l-6.53639 0c-0.413396,0 -0.783091,0.265755 -0.910653,0.65671l-1.92879 5.95054 -3.76545 -12.4102c-0.119294,-0.400404 -0.472453,-0.666159 -0.881125,-0.682695 -0.431113,-0.0200793 -0.780728,0.233864 -0.926008,0.616551l-3.55639 9.33449 -1.47051 -2.94338c-0.160634,-0.325993 -0.493713,-0.522061 -0.852778,-0.522061l-5.71196 0 0 -11.3212 47.2311 0zm-47.2311 25.0223l0 -11.7948 5.12021 0 2.17919 4.36192c0.171264,0.338985 0.51143,0.54214 0.903566,0.53151 0.376781,-0.0224415 0.711042,-0.265755 0.845691,-0.616551l3.33316 -8.7581 3.8375 12.6511c0.121657,0.39686 0.488989,0.672064 0.905929,0.682695 0.387411,-0.0106302 0.79254,-0.265755 0.918921,-0.666159l2.65519 -8.18643 5.24777 0 2.18037 4.36192c0.168902,0.338985 0.506706,0.54214 0.904747,0.53151 0.376781,-0.0224415 0.709861,-0.265755 0.84451,-0.616551l3.33079 -8.7581 3.8375 12.6511c0.122838,0.39686 0.487808,0.672064 0.903566,0.682695 0.00236226,0 0.00826793,0 0.0106302,0 0.412215,0 0.778366,-0.265755 0.909472,-0.654347l2.65046 -7.95965 5.71196 0 0 11.5562 -47.2311 0zm47.2311 1.91107c1.05711,0 1.91343,-0.852778 1.91343,-1.90635l0 -25.027c0,-1.05357 -0.856321,-1.90989 -1.91343,-1.90989l-47.2311 0c-1.05829,0 -1.91462,0.856321 -1.91462,1.90989l0 25.0223c0,1.05711 0.856321,1.91107 1.91462,1.91107l47.2311 0z"/>
  <path class="fil0" d="M31.1075 38.2911c-0.888212,0 -1.61225,0.724034 -1.61225,1.61697 0,0.883487 0.724034,1.60398 1.61225,1.60398 0.892936,0 1.61461,-0.720491 1.61461,-1.60398 0,-0.892936 -0.721672,-1.61697 -1.61461,-1.61697z"/>
  <path class="fil0" d="M31.1075 38.2911c-0.888212,0 -1.61343,0.724034 -1.61343,1.61697 0,0.883487 0.725215,1.60398 1.61343,1.60398 0.892936,0 1.61461,-0.720491 1.61461,-1.60398 0,-0.892936 -0.721672,-1.61697 -1.61461,-1.61697z"/>
  <path class="fil0" d="M31.1098 38.2911c-0.890574,0 -1.61461,0.724034 -1.61461,1.61697 0,0.883487 0.724034,1.60398 1.61461,1.60398 0.890574,0 1.61225,-0.720491 1.61225,-1.60398 0,-0.892936 -0.721672,-1.61697 -1.61225,-1.61697z"/>
 </g>
</svg>
