<?xml version="1.0" encoding="UTF-8"?>
<!DOCTYPE svg PUBLIC "-//W3C//DTD SVG 1.1//EN" "http://www.w3.org/Graphics/SVG/1.1/DTD/svg11.dtd">
<!-- Creator: CorelDRAW -->
<svg xmlns="http://www.w3.org/2000/svg" xml:space="preserve" width="93px" height="93px" style="shape-rendering:geometricPrecision; text-rendering:geometricPrecision; image-rendering:optimizeQuality; fill-rule:evenodd; clip-rule:evenodd"
viewBox="0 0 93 93"
 xmlns:xlink="http://www.w3.org/1999/xlink">
 <defs>
  <style type="text/css">
   <![CDATA[
    .fil0 {fill:#D9DADA}
   ]]>
  </style>
 </defs>
 <g id="Слой_x0020_1">
  <metadata id="CorelCorpID_0Corel-Layer"/>
  <g id="_417775408">
   <path id="_348180304" class="fil0" d="M56.1236 49.5602l-24.3236 -14.5299c-1.95354,-1.1752 -2.18976,-0.887008 -0.465354,0.650787l18.2882 16.3028c1.71614,1.51654 4.67598,2.07047 6.59055,1.2437 1.92992,-0.838583 1.88386,-2.48504 -0.0897638,-3.66732z"/>
   <path id="_78056664" class="fil0" d="M46.4504 1.92638c-25.1102,0 -45.4512,20.3516 -45.4512,45.4524 0,25.1031 20.3421,45.4512 45.4512,45.4512 25.102,0 45.4524,-20.348 45.4524,-45.4512 0,-25.0949 -20.3516,-45.4524 -45.4524,-45.4524zm27.6969 49.9524l-9.14764 4.36654 -6.37441 11.2571c-1.1563,1.80709 -3.29291,2.03976 -4.85551,0.466535l-1.2437 -1.27559c-0.0602362,-0.0519685 -0.111024,-0.0744094 -0.177165,-0.137008l-2.78031 -2.83701 -6.88346 3.2374c-2.07047,0.887008 -4.5,0.00590551 -5.49331,-2.04449l-16.6311 -34.7409c-1.00512,-2.07047 -0.0602362,-3.0685 2.07165,-2.19449l51.3071 20.6551c2.06811,0.800787 2.14843,2.25709 0.207874,3.24685z"/>
  </g>
 </g>
</svg>
