<?xml version="1.0" encoding="UTF-8"?>
<!DOCTYPE svg PUBLIC "-//W3C//DTD SVG 1.1//EN" "http://www.w3.org/Graphics/SVG/1.1/DTD/svg11.dtd">
<!-- Creator: CorelDRAW -->
<svg xmlns="http://www.w3.org/2000/svg" xml:space="preserve" width="93px" height="93px" style="shape-rendering:geometricPrecision; text-rendering:geometricPrecision; image-rendering:optimizeQuality; fill-rule:evenodd; clip-rule:evenodd"
viewBox="0 0 93 93"
 xmlns:xlink="http://www.w3.org/1999/xlink">
 <defs>
  <style type="text/css">
   <![CDATA[
    .fil0 {fill:#D9DADA}
   ]]>
  </style>
 </defs>
 <g id="Слой_x0020_1">
  <metadata id="CorelCorpID_0Corel-Layer"/>
  <path class="fil0" d="M46.461 1.82953c-25.102,0 -45.45,20.3516 -45.45,45.4524 0,25.115 20.348,45.4512 45.45,45.4512 25.115,0 45.4512,-20.3374 45.4512,-45.4512 0,-25.0961 -20.3563,-45.4524 -45.4512,-45.4524zm28.526 31.6429c-1.27913,2.07165 -3.01654,3.96614 -5.32087,5.65157l0 0.985039c0.175984,9.03661 -4.32047,20.772 -14.778,27.4028 -5.23583,3.3378 -11.0681,5.00787 -17.5783,5.00787 -5.26654,0 -10.1988,-1.23543 -14.863,-3.61063 -1.24961,-0.650787 -2.14252,-1.14449 -2.56535,-1.47874 -0.295276,-0.238583 -0.426378,-0.505512 -0.426378,-0.790157 0,-0.519685 0.426378,-0.949606 0.951969,-0.949606 0.269291,0 0.712205,0.0425197 1.30984,0.0602362 0.592913,0.0602362 1.03937,0.0649606 1.33701,0.0649606 4.06063,0 7.75866,-1.01457 11.1614,-3.13583 -4.08543,-0.949606 -7.38543,-3.97441 -8.69528,-7.9878 -0.0283465,-0.159449 -0.0602362,-0.272835 -0.0602362,-0.303543 0,-0.478346 0.414567,-0.911811 0.894094,-0.911811 0.0874016,0 0.238583,0.0425197 0.414567,0.0602362 0.175984,0.0448819 0.295276,0.0602362 0.355512,0.0602362 -3.53976,-2.1874 -5.79803,-6.07087 -5.79803,-10.1988 0,-0.6 0.533858,-1.07717 1.12559,-1.07717 0.198425,0 0.532677,0.121654 1.03346,0.303543 0.533858,0.238583 0.797244,0.414567 0.88937,0.414567 -1.83543,-2.19094 -2.73898,-4.72795 -2.73898,-7.62756 0,-2.03622 0.592913,-4.54252 1.60157,-6.03661 0.201969,-0.311811 0.437008,-0.487795 0.770079,-0.487795 0.295276,0 0.592913,0.133465 0.770079,0.372047 1.50472,1.67362 2.58189,2.7815 3.25748,3.40039 4.87795,4.42559 11.1248,7.10787 17.6303,7.66417 -0.0850394,-0.414567 -0.115748,-0.887008 -0.115748,-1.46575 0,-6.62953 5.38583,-12.013 12.013,-12.013 3.25512,0 6.03661,1.12441 8.37992,3.37441 1.86969,-0.408661 3.96614,-1.24488 6.21614,-2.42717 0.161811,-0.0590551 0.303543,-0.158268 0.479528,-0.158268 0.51378,0 0.962598,0.442913 0.962598,0.949606 0,0.954331 -1.44213,3.37441 -2.35157,4.4374 0.281102,-0.0744094 1.35945,-0.531496 2.18504,-0.790157 0.414567,-0.17126 0.649606,-0.205512 0.708661,-0.205512 0.533858,0 0.955512,0.442913 0.955512,0.954331 0.0484252,0.184252 -0.0141732,0.356693 -0.111024,0.49252z"/>
 </g>
</svg>
