<?xml version="1.0" encoding="UTF-8"?>
<!DOCTYPE svg PUBLIC "-//W3C//DTD SVG 1.1//EN" "http://www.w3.org/Graphics/SVG/1.1/DTD/svg11.dtd">
<!-- Creator: CorelDRAW -->
<svg xmlns="http://www.w3.org/2000/svg" xml:space="preserve" width="93px" height="93px" style="shape-rendering:geometricPrecision; text-rendering:geometricPrecision; image-rendering:optimizeQuality; fill-rule:evenodd; clip-rule:evenodd"
viewBox="0 0 93 93"
 xmlns:xlink="http://www.w3.org/1999/xlink">
 <defs>
  <style type="text/css">
   <![CDATA[
    .fil0 {fill:#D9DADA}
   ]]>
  </style>
 </defs>
 <g id="Слой_x0020_1">
  <metadata id="CorelCorpID_0Corel-Layer"/>
  <path class="fil0" d="M45.9118 0.457087c-25.1067,0 -45.4524,20.3516 -45.4524,45.4512 0,25.1161 20.3457,45.4524 45.4524,45.4524 25.1008,0 45.4512,-20.3374 45.4512,-45.4524 0,-25.0949 -20.3516,-45.4512 -45.4512,-45.4512zm-14.263 33.6272c1.28504,0 2.34449,-0.43937 3.19843,-1.35 0.923622,-0.9 1.35,-1.92047 1.35,-3.19843 0,-2.48504 -2.05157,-4.54724 -4.54134,-4.54724 -2.48386,0 -4.49882,2.05866 -4.49882,4.54724 -0.00708661,2.5063 1.99961,4.54843 4.49173,4.54843zm3.70276 2.64449l-7.02874 0c-0.628346,0 -1.17283,0.522047 -1.17283,1.17283l0 23.4496c0,0.637795 0.544488,1.18346 1.17283,1.18346l7.02874 0c0.627165,0 1.17874,-0.545669 1.17874,-1.18346l0 -23.4496c-0.0011811,-0.634252 -0.555118,-1.17283 -1.17874,-1.17283zm19.1917 -0.770079c-2.20157,0 -4.14213,0.535039 -5.78386,1.63228 -0.301181,0.187795 -0.48189,0.334252 -0.497244,0.43937 0,-0.882283 -0.484252,-1.33583 -1.28858,-1.33583l-6.46535 0c-0.690945,0 -1.6311,0.385039 -1.6311,1.04409l0 23.589c0,0.640157 0.922441,1.17283 1.6311,1.17283l6.67205 0c0.587008,0 1.06417,-0.527953 1.06417,-1.17283l0 -12.7843c0,-3.40866 1.38189,-5.12598 4.19055,-5.12598 2.3811,0 2.86417,1.02638 2.86417,3.49843l0 14.413c0,0.640157 0.690945,1.17283 1.38307,1.17283l6.81732 -0.0011811c0.620079,0 1.17283,-0.527953 1.17283,-1.17283l0 -15.9472c-0.0141732,-6.17598 -3.83622,-9.42165 -10.1291,-9.42165z"/>
 </g>
</svg>
