<?xml version="1.0" encoding="UTF-8"?>
<!DOCTYPE svg PUBLIC "-//W3C//DTD SVG 1.1//EN" "http://www.w3.org/Graphics/SVG/1.1/DTD/svg11.dtd">
<!-- Creator: CorelDRAW -->
<svg xmlns="http://www.w3.org/2000/svg" xml:space="preserve" width="93px" height="93px" style="shape-rendering:geometricPrecision; text-rendering:geometricPrecision; image-rendering:optimizeQuality; fill-rule:evenodd; clip-rule:evenodd"
viewBox="0 0 93 93"
 xmlns:xlink="http://www.w3.org/1999/xlink">
 <defs>
  <style type="text/css">
   <![CDATA[
    .fil0 {fill:#56698F}
   ]]>
  </style>
 </defs>
 <g id="Слой_x0020_1">
  <metadata id="CorelCorpID_0Corel-Layer"/>
  <path class="fil0" d="M46.7256 0.488976c-25.1031,0 -45.4524,20.3374 -45.4524,45.4512 0,25.1067 20.3492,45.4524 45.4524,45.4524 25.1031,0 45.4524,-20.3457 45.4524,-45.4524 0,-25.1138 -20.3504,-45.4512 -45.4524,-45.4512zm10.5591 45.4441l-6.78425 0 0 24.5669 -10.161 0 0 -24.5669 -5.08228 0 0 -8.4626 5.08228 0 0 -5.08819c0,-6.92598 2.86654,-11.0339 11.0102,-11.0339l6.80433 0 0 8.46378 -4.21063 0c-3.17598,0 -3.38268,1.1811 -3.38268,3.37677l-0.0141732 4.24134 7.68661 0 -0.948425 8.50276z"/>
 </g>
</svg>
