<?xml version="1.0" encoding="UTF-8"?>
<!DOCTYPE svg PUBLIC "-//W3C//DTD SVG 1.1//EN" "http://www.w3.org/Graphics/SVG/1.1/DTD/svg11.dtd">
<!-- Creator: CorelDRAW -->
<svg xmlns="http://www.w3.org/2000/svg" xml:space="preserve" width="55px" height="50px" style="shape-rendering:geometricPrecision; text-rendering:geometricPrecision; image-rendering:optimizeQuality; fill-rule:evenodd; clip-rule:evenodd"
viewBox="0 0 55 49.9991"
 xmlns:xlink="http://www.w3.org/1999/xlink">
 <defs>
  <style type="text/css">
   <![CDATA[
    .fil0 {fill:#C5C6C6}
   ]]>
  </style>
 </defs>
 <g id="Слой_x0020_1">
  <metadata id="CorelCorpID_0Corel-Layer"/>
  <path class="fil0" d="M28.0398 41.6238c-7.51782,-3.75005 -20.6554,-12.5553 -20.6554,-23.411 0,-5.69418 3.86108,-10.3277 8.60682,-10.3277 2.21342,0 4.63471,1.51419 6.48198,4.05242l2.7839 3.04847c1.37482,1.88861 4.19061,1.88861 5.56662,0l2.78272 -3.04847c1.84727,-2.53823 4.26857,-4.05242 6.48316,-4.05242 4.74456,0 8.60564,4.63353 8.60564,10.3277 0,10.8592 -13.1447,19.6668 -20.6554,23.411zm12.0498 -40.6246c-4.86975,0 -9.21155,2.98351 -12.0498,6.88593 -2.83823,-3.90242 -7.17884,-6.88593 -12.0486,-6.88593 -8.55721,0 -15.4916,7.70917 -15.4916,17.2136 0,19.6881 27.5402,30.9819 27.5402,30.9819 0,0 27.5402,-11.2939 27.5402,-30.9819 0,-9.50447 -6.93435,-17.2136 -15.4904,-17.2136z"/>
 </g>
</svg>
