<?xml version="1.0" encoding="UTF-8"?>
<!DOCTYPE svg PUBLIC "-//W3C//DTD SVG 1.1//EN" "http://www.w3.org/Graphics/SVG/1.1/DTD/svg11.dtd">
<!-- Creator: CorelDRAW -->
<svg xmlns="http://www.w3.org/2000/svg" xml:space="preserve" width="65px" height="65px" style="shape-rendering:geometricPrecision; text-rendering:geometricPrecision; image-rendering:optimizeQuality; fill-rule:evenodd; clip-rule:evenodd"
viewBox="0 0 65 65"
 xmlns:xlink="http://www.w3.org/1999/xlink">
 <defs>
  <style type="text/css">
   <![CDATA[
    .fil0 {fill:#B2B3B3}
   ]]>
  </style>
 </defs>
 <g id="Слой_x0020_1">
  <metadata id="CorelCorpID_0Corel-Layer"/>
  <path class="fil0" d="M53.8761 62.6779l-42.2998 0c-0.551588,0 -1.00042,-0.447649 -1.00042,-0.998056l0 -27.355 -8.39784 0c-0.552769,0 -1.00042,-0.450011 -1.00042,-1.00042 0,-0.289377 0.121656,-0.548045 0.316543,-0.732301l30.6775 -32.5602 0.726396 0.685056 -0.728758 -0.686237c0.377962,-0.402766 1.01341,-0.422845 1.41381,-0.044883l0.0933093 0.102758 30.6586 32.5496 0.00354339 -0.00118113c0.376781,0.401585 0.360245,1.03821 -0.0425207,1.41381 -0.194887,0.181894 -0.440562,0.274022 -0.686237,0.274022l-0.0307094 0 -8.70257 0 0 27.355c0,0.550407 -0.450011,0.998056 -1.00042,0.998056zm-15.1138 -25.5644l-11.7369 0 0 11.7345 11.7369 0 0 -11.7345z"/>
 </g>
</svg>
