<?xml version="1.0" encoding="UTF-8"?>
<!DOCTYPE svg PUBLIC "-//W3C//DTD SVG 1.1//EN" "http://www.w3.org/Graphics/SVG/1.1/DTD/svg11.dtd">
<!-- Creator: CorelDRAW -->
<svg xmlns="http://www.w3.org/2000/svg" xml:space="preserve" width="46px" height="63px" style="shape-rendering:geometricPrecision; text-rendering:geometricPrecision; image-rendering:optimizeQuality; fill-rule:evenodd; clip-rule:evenodd"
viewBox="0 0 46 63.0011"
 xmlns:xlink="http://www.w3.org/1999/xlink">
 <defs>
  <style type="text/css">
   <![CDATA[
    .fil0 {fill:#B2B3B3}
   ]]>
  </style>
 </defs>
 <g id="Слой_x0020_1">
  <metadata id="CorelCorpID_0Corel-Layer"/>
  <path class="fil0" d="M23.9177 57.8868l0 -2.42012 10.2923 0c0.688594,0 1.24845,-0.559852 1.24845,-1.24608 0.00118112,-0.6945 -0.559852,-1.24727 -1.24845,-1.24727l-10.2923 -0.00118112 0 -20.1476c0,-0.687413 -0.558671,-1.24608 -1.24845,-1.24608 -0.692138,0 -1.24963,0.558671 -1.24963,1.24845l0 20.1452 -17.3082 0 0 -29.4714 17.3082 0 0 4.20125c0,0.686232 0.55749,1.25199 1.24963,1.25199 0.689776,0 1.24845,-0.565758 1.24845,-1.25199l0 -4.20125 17.1428 0 0 29.4714 -1.57916 0c-0.692138,0 -1.25081,0.556309 -1.25081,1.24845 0,0.686232 0.558671,1.24608 1.25081,1.24608l1.57916 0 0 2.42012 -17.1428 0zm-12.0203 -52.7041l-0.00354337 0.00118112c-0.419299,0.201972 -0.805526,0.49489 -1.11852,0.858676 -0.281107,0.337801 -0.493709,0.721666 -0.617727,1.11616l0 0.00826786c-0.12638,0.399219 -0.171263,0.833873 -0.135829,1.26971l-0.00472449 0c0.0377959,0.435834 0.159452,0.850408 0.353156,1.22246l0.00472449 0c0.193704,0.374416 0.468906,0.718123 0.79962,0.996867l-0.00236225 0.00590561c0.444102,0.367329 1.60278,0.822061 3.08037,1.27443 1.52365,0.47363 3.35675,0.940174 5.10599,1.32994 -0.689776,-1.6583 -1.46341,-3.38864 -2.19098,-4.81307 -0.702768,-1.3701 -1.34766,-2.43666 -1.78704,-2.80753 -0.290556,-0.243311 -0.627176,-0.437015 -0.990962,-0.569301 -0.348431,-0.124018 -0.727572,-0.194885 -1.11262,-0.194885 -0.485441,0 -0.959072,0.106301 -1.37955,0.301186zm18.9535 -0.10512c-0.355518,0.128742 -0.692138,0.324809 -0.983875,0.56812 -0.44174,0.370872 -1.08663,1.43861 -1.7894,2.8158 -0.725209,1.41735 -1.50121,3.14651 -2.18862,4.80481 1.75042,-0.38977 3.58353,-0.856314 5.10836,-1.32994 1.47286,-0.451189 2.6339,-0.910646 3.07919,-1.28506 0.333077,-0.277564 0.603554,-0.617727 0.797258,-0.992143l0.00118112 0c0.191342,-0.372054 0.314179,-0.786628 0.350793,-1.22246 0.0354337,-0.435834 -0.0129923,-0.871668 -0.134648,-1.26971l-0.00118112 0c-0.127561,-0.408668 -0.337801,-0.786628 -0.617727,-1.12443l0.00118112 0c-0.308273,-0.363786 -0.693319,-0.656704 -1.12207,-0.858676 -0.421661,-0.196066 -0.895291,-0.302367 -1.38309,-0.302367 -0.386227,0 -0.768911,0.0708674 -1.11734,0.196066zm-15.1172 11.4533c-2.88076,-0.746469 -5.85955,-1.7268 -7.14579,-2.80635 -0.744107,-0.618908 -1.34884,-1.37837 -1.7835,-2.21342 -0.437015,-0.836235 -0.708674,-1.76814 -0.792533,-2.73194l0 -0.00472449c-0.0814975,-0.963796 0.0283469,-1.92169 0.310635,-2.81816l0 -0.00826786c0.283469,-0.897653 0.747651,-1.74216 1.37365,-2.4839 0.693319,-0.824424 1.55081,-1.4764 2.49926,-1.92051l0.00354337 0c0.954347,-0.438196 2.00437,-0.680327 3.07801,-0.680327 0.850408,0 1.69845,0.15827 2.49335,0.445283l0.00472449 0c0.790171,0.284651 1.53546,0.716941 2.18744,1.26144l0 0.00354337c0.928362,0.781903 1.94767,2.42484 2.89847,4.27921l0 0c0.625995,1.22364 1.22837,2.55595 1.76342,3.79849 0.656704,-1.53428 1.42207,-3.20202 2.19925,-4.63473l0.00236225 0c0.816156,-1.50003 1.66775,-2.77918 2.45555,-3.44297l0 -0.00354337c0.650799,-0.544498 1.40081,-0.970883 2.19925,-1.26144 0.793714,-0.287013 1.63704,-0.445283 2.48744,-0.445283 1.07246,0 2.12602,0.24213 3.07801,0.680327l0.00590561 0c0.94726,0.444102 1.80594,1.09608 2.49689,1.92051 0.625995,0.739383 1.08781,1.58625 1.37365,2.48272 0.285832,0.905921 0.390952,1.86381 0.310635,2.82761 -0.0803163,0.970883 -0.355518,1.90043 -0.78899,2.73666 -0.433472,0.835054 -1.04057,1.59452 -1.7835,2.21342 -1.28624,1.08781 -4.26858,2.05988 -7.14933,2.80635 -2.8158,0.728753 -5.57962,1.25671 -6.48554,1.41617l-0.0307092 0.0106301c-0.100395,0.0118112 -0.206696,0.0259847 -0.32599,0.0259847l-0.0366148 0 -0.0425204 0 -0.0129923 0c-0.116931,0 -0.223232,-0.0141735 -0.324809,-0.0259847l-0.0330714 -0.0106301c-0.908283,-0.159452 -3.6662,-0.687413 -6.48554,-1.41617zm-11.6222 38.9357l17.3082 0 0 2.42012 -17.3082 0 0 -2.42012zm36.9491 -35.7171l-36.9491 0c-2.06815,0 -3.74416,1.68074 -3.74416,3.75125l0 34.386c0,2.07641 1.67601,3.75479 3.74416,3.75479l36.9491 0c2.06933,0 3.7477,-1.67838 3.7477,-3.75479l0 -34.386c0,-2.07051 -1.67838,-3.74888 -3.7477,-3.75125z"/>
 </g>
</svg>
