<?xml version="1.0" encoding="UTF-8"?>
<!DOCTYPE svg PUBLIC "-//W3C//DTD SVG 1.1//EN" "http://www.w3.org/Graphics/SVG/1.1/DTD/svg11.dtd">
<!-- Creator: CorelDRAW -->
<svg xmlns="http://www.w3.org/2000/svg" xml:space="preserve" width="59px" height="64px" style="shape-rendering:geometricPrecision; text-rendering:geometricPrecision; image-rendering:optimizeQuality; fill-rule:evenodd; clip-rule:evenodd"
viewBox="0 0 59 64.0009"
 xmlns:xlink="http://www.w3.org/1999/xlink">
 <defs>
  <style type="text/css">
   <![CDATA[
    .fil0 {fill:#B2B3B3}
   ]]>
  </style>
 </defs>
 <g id="Слой_x0020_1">
  <metadata id="CorelCorpID_0Corel-Layer"/>
  <path class="fil0" d="M52.4116 35.1387l0 12.4492c1.44216,0.466548 2.70007,1.35594 3.61781,2.517 1.0205,1.28625 1.63351,2.91858 1.63351,4.6891 0,2.0847 -0.852779,3.97924 -2.22644,5.35172 -1.36893,1.36775 -3.26702,2.21817 -5.3529,2.21817 -2.08588,0 -3.98278,-0.850416 -5.35172,-2.21817 -1.37248,-1.37248 -2.22644,-3.26702 -2.22644,-5.35172 0,-1.77052 0.61419,-3.40285 1.63351,-4.6891l0.00118113 0c0.921284,-1.16224 2.17801,-2.04927 3.61545,-2.517l0 -10.12 -7.61477 0c0.13583,0.577574 0.244495,1.16814 0.328355,1.76343 0.128744,0.910654 0.197249,1.83903 0.197249,2.78157 0,5.53243 -2.25478,10.5582 -5.89031,14.1913l-0.00118113 -0.00236227 0 0.00236227c-3.63435,3.63317 -8.65653,5.88913 -14.1925,5.88913 -5.51353,0 -10.5192,-2.23825 -14.15,-5.84779l-0.0425208 -0.0413397c-3.63553,-3.63317 -5.89031,-8.65889 -5.89031,-14.1913 0,-5.23951 2.01974,-10.0172 5.31865,-13.5901 3.17607,-3.44301 7.5439,-5.77929 12.4362,-6.34387l0 -0.874039 0 -5.32691 -2.84181 -10.3987 -4.35838 0.00236227 0 0.0035434c-0.633088,0 -1.21421,-0.257487 -1.62996,-0.669703l-0.0141736 -0.0165359 -0.00118113 0c-0.420484,-0.418121 -0.683877,-1.00396 -0.683877,-1.64414 0,-0.617733 0.249219,-1.18822 0.644899,-1.6028l0.0271661 -0.0318906 0.0118113 -0.0118113 0.00118113 0c0.420484,-0.418121 1.00633,-0.680333 1.64414,-0.680333l6.13127 0c0.518518,0 1.01223,0.172446 1.40909,0.478359 0.394499,0.300008 0.695688,0.732303 0.833881,1.23074l0 0.0035434 2.92567 10.7105 11.4452 0c1.25082,0 2.93394,0.259849 4.34067,1.38193 1.38075,1.11027 2.46503,3.02961 2.52172,6.30844l0 0.00590567 0.0129925 0.184257 0.00236227 0.0732303c0,0.644899 -0.258668,1.2272 -0.679152,1.64532 -0.421665,0.424027 -1.00751,0.685058 -1.64768,0.685058l-0.0106302 0 -9.92743 0 0.349616 0.151185c1.95596,0.879945 3.7501,2.06344 5.31628,3.49025l11.4393 0c1.06184,0 2.01738,0.147642 2.85953,0.440563 0.842148,0.300008 1.56973,0.747658 2.16974,1.33822l0.0141736 0.0141736 0.0283472 0.0236227c0.924828,0.926009 1.38783,2.05872 1.61107,3.15127 0.213785,1.0453 0.211423,2.02801 0.20788,2.76031l0.0035434 0 0 0.233865zm-31.8221 -5.02927c3.29891,0 6.2919,1.34059 8.45338,3.50442l-0.00236227 0c2.16384,2.16148 3.50561,5.15329 3.50561,8.45219 0,3.29891 -1.34177,6.2919 -3.50324,8.45219 -2.16148,2.16502 -5.15447,3.50679 -8.45338,3.50679 -3.30127,0 -6.2919,-1.34413 -8.45219,-3.50679l-0.0035434 0c-2.16266,-2.16029 -3.50088,-5.15329 -3.50088,-8.45219 0,-3.29891 1.34177,-6.29544 3.50088,-8.45219l0.0035434 0 0 0c2.15911,-2.16148 5.15092,-3.50442 8.45219,-3.50442zm-0.154729 -4.28279c4.47886,0 8.54314,1.82367 11.4818,4.75879l0.00118113 -0.00236227c2.93512,2.93512 4.75406,7.00058 4.75406,11.483 0,4.48358 -1.81895,8.54905 -4.75406,11.4853 -2.93512,2.93276 -6.9994,4.75525 -11.483,4.75525 -4.48595,0 -8.54787,-1.82249 -11.4818,-4.75525l0.00118113 -0.0035434c-2.9363,-2.93512 -4.75761,-7.00058 -4.75761,-11.4818 0,-4.48122 1.82131,-8.54196 4.75643,-11.4759l0.00118113 -0.00472454 0.00118113 -0.00236227c2.9363,-2.93276 6.9994,-4.75643 11.4794,-4.75643zm10.0656 6.16906c-2.57251,-2.57605 -6.13363,-4.16468 -10.0656,-4.16468 -3.93199,0 -7.49429,1.58863 -10.0668,4.16468l-0.00472454 0.00472454c-2.57369,2.57251 -4.16586,6.13363 -4.16586,10.0656 0,3.93199 1.59217,7.49429 4.16586,10.0668l0.00472454 0c2.57605,2.57487 6.13599,4.17176 10.0668,4.17176 3.92845,0 7.49075,-1.59689 10.0656,-4.17176 2.57605,-2.57251 4.17295,-6.13953 4.17295,-10.0668 0,-3.92845 -1.59689,-7.49311 -4.17295,-10.0656l0 -0.00472454zm19.6352 18.5426c2.29849,0 4.15995,1.86029 4.15995,4.15759 0,2.29612 -1.86147,4.15877 -4.15995,4.15877 -2.29494,0 -4.15877,-1.86265 -4.15877,-4.15877 0,-2.29731 1.86383,-4.15759 4.15877,-4.15759zm-16.3363 -32.6395l-10.8889 0 0 0.987428 12.7645 0c-0.127562,-0.301189 -0.290559,-0.516156 -0.478359,-0.657892 -0.329536,-0.2504 -0.816164,-0.329536 -1.39728,-0.329536zm4.11035 14.0094c0.178351,0.303551 0.347253,0.605922 0.503163,0.90593l9.17032 0 -0.00944907 -0.0318906 0.00236227 0 -0.00236227 -0.00236227c-0.0661435,-0.205517 -0.157091,-0.386231 -0.277566,-0.505525 -0.126381,-0.124019 -0.324812,-0.232683 -0.581118,-0.304733l-0.00472454 0c-0.311819,-0.0921284 -0.712224,-0.138193 -1.19295,-0.138193l-7.65257 0 0.0448831 0.0767737zm2.76503 -10.7767l0.00118113 0.0236227 -0.00118113 -0.0236227z"/>
 </g>
</svg>
