<?xml version="1.0" encoding="UTF-8"?>
<!DOCTYPE svg PUBLIC "-//W3C//DTD SVG 1.1//EN" "http://www.w3.org/Graphics/SVG/1.1/DTD/svg11.dtd">
<!-- Creator: CorelDRAW -->
<svg xmlns="http://www.w3.org/2000/svg" xml:space="preserve" width="64px" height="62px" style="shape-rendering:geometricPrecision; text-rendering:geometricPrecision; image-rendering:optimizeQuality; fill-rule:evenodd; clip-rule:evenodd"
viewBox="0 0 64 61.9992"
 xmlns:xlink="http://www.w3.org/1999/xlink">
 <defs>
  <style type="text/css">
   <![CDATA[
    .fil0 {fill:#B2B3B3}
   ]]>
  </style>
 </defs>
 <g id="Слой_x0020_1">
  <metadata id="CorelCorpID_0Corel-Layer"/>
  <path class="fil0" d="M27.1102 33.8201c0,1.52837 -1.23663,2.76499 -2.76499,2.76499 -1.52482,0 -2.76263,-1.23663 -2.76263,-2.76499 0,-1.526 1.23781,-2.76263 2.76263,-2.76263 1.52837,-0.00236223 2.76499,1.23663 2.76499,2.76263zm2.73665 -13.3891c-0.22205,0 -0.45473,-0.0106301 -0.689772,-0.0236223 -0.214963,-0.0129923 -0.452368,-0.0366146 -0.69804,-0.0685048l-0.00354335 0c-0.50788,-0.0685048 -0.944894,-0.334256 -1.23663,-0.706308l-0.00236223 -0.00590558c-0.2752,-0.355516 -0.419296,-0.816152 -0.377957,-1.29805l0 -0.0141734 0.0070867 -0.0661425c0.0649614,-0.505518 0.333075,-0.943712 0.70867,-1.23427l0.00118112 -0.00236223c0.356697,-0.274019 0.818514,-0.421659 1.30041,-0.377957l0.0129923 0 0.0614181 0.0106301c0.94135,0.115749 1.87916,0.0496069 2.75436,-0.192522 0.871664,-0.242129 1.70317,-0.66615 2.43664,-1.24962 0.735836,-0.584653 1.33939,-1.30513 1.76931,-2.11066 0.438194,-0.812608 0.721662,-1.72089 0.814971,-2.67641 0.146458,-1.48939 -0.323626,-2.92563 -1.20001,-4.02997 -0.878751,-1.10553 -2.16263,-1.88742 -3.63784,-2.07404 -0.514967,-0.0661425 -1.02875,-0.0295279 -1.50356,0.101576l-0.00236223 0c-0.466541,0.128742 -0.916547,0.35906 -1.31695,0.679142 -0.403942,0.31772 -0.728749,0.707489 -0.961429,1.14214l0 0.00118112c-0.237404,0.442919 -0.392131,0.940169 -0.441738,1.45868 -0.0755915,0.774813 0.1689,1.52246 0.624811,2.09648 0.45473,0.576385 1.12797,0.986233 1.88979,1.08072 1.29805,0.164175 1.59805,-0.674418 1.85553,-1.4008 0.366146,-1.0382 0.693316,-1.95593 2.0705,-1.84254l0.00590558 0 0.0590558 0.00590558c0.509061,0.050788 0.956705,0.305909 1.25671,0.674418l-0.00118112 0.00236223c0.28583,0.346067 0.446462,0.799616 0.418115,1.27797l0 0.00354335 0 0.00236223 0 0.0141734 -0.00472447 0.060237c-0.0755915,0.747647 -0.295279,1.45986 -0.63426,2.09058l-0.00472447 0.00354335c-0.344886,0.636622 -0.820876,1.20828 -1.3949,1.66656l-0.00354335 -0.00236223c-0.578747,0.460636 -1.23663,0.794892 -1.92876,0.986233 -0.690953,0.192522 -1.43033,0.246853 -2.16144,0.155907l-0.00472447 -0.00118112c-1.7575,-0.22205 -3.28941,-1.14923 -4.32879,-2.46145l-0.00118112 0.00236223c-1.03938,-1.30632 -1.59805,-3.01067 -1.42088,-4.78352 0.100395,-1.02403 0.40158,-1.99845 0.870483,-2.86421 0.472447,-0.876389 1.12324,-1.65593 1.91695,-2.29019 0.786624,-0.628354 1.68663,-1.08427 2.64688,-1.34884 0.946075,-0.263389 1.95829,-0.335437 2.96697,-0.207877 2.47798,0.314177 4.62289,1.61222 6.08511,3.44886 1.45632,1.83782 2.24176,4.23312 1.99254,6.71937 -0.144096,1.45868 -0.569298,2.84531 -1.24017,4.08548 -0.672056,1.24372 -1.59569,2.35278 -2.72484,3.2528 -0.942531,0.750009 -1.99254,1.32994 -3.10634,1.71853 -1.11379,0.387406 -2.29491,0.59174 -3.49374,0.59174zm-7.0182 -8.70956c-6.50323,2.42247 -11.6541,7.32765 -14.0388,13.4683 0.0153545,0.00826782 0.030709,0.0141734 0.0484258,0.020079l-0.0696859 0.0366146c0.00826782,-0.0177168 0.0141734,-0.0366146 0.0212601,-0.0566936 -0.569298,-0.196065 -1.16931,-0.305909 -1.79294,-0.305909 -3.44177,0 -6.23984,3.24098 -6.23984,7.22371 0,3.98273 2.79807,7.22371 6.23984,7.22371 0.440557,-0.00118112 0.86694,-0.0519691 1.28151,-0.153545 0,-0.00590558 -0.00236223,-0.0106301 -0.00236223,-0.0177168l0.0141734 0.0129923c-0.00590558,0 -0.0070867,0.00236223 -0.0118112,0.00472447 1.82601,5.94929 6.19023,10.9147 11.9305,13.8285 -0.00944894,-0.181892 -0.0259846,-0.363784 -0.0259846,-0.545676 0,-1.02048 0.135828,-2.02207 0.394493,-2.98468 -4.34297,-2.46853 -7.65009,-6.29535 -9.18909,-10.8226l0.00472447 0c-0.498431,-1.61459 -0.204333,-0.750009 -0.797254,-2.44019 -0.732292,-1.50238 -3.03193,-0.614181 -3.21146,-0.542133 -0.127561,0.0236223 -0.256302,0.0519691 -0.387406,0.0519691 -1.6075,0 -2.91145,-1.62522 -2.91145,-3.6154 0,-1.98664 1.30395,-3.61067 2.91145,-3.61067 0.271657,-0.00236223 0.52914,0.060237 0.778356,0.146458 0,0 2.22641,1.17994 3.09335,-0.318902 0.408666,-0.95198 0.464179,-1.06537 0.552763,-1.30395 0.00354335,0.00354335 0.00472447,0.00354335 0.00472447,0.00354335 2.06341,-5.86661 7.11387,-10.5415 13.5262,-12.5529 -0.883475,-0.765364 -1.6075,-1.69845 -2.12365,-2.74964zm34.0221 13.1624c-0.622449,0 -1.22246,0.109844 -1.78939,0.305909 0.00590558,0.020079 0.0106301,0.0389769 0.0165356,0.0566936l-0.0661425 -0.0366146c0.0165356,-0.00590558 0.0318902,-0.0118112 0.0496069,-0.020079 -2.20042,-5.65873 -6.94969,-10.3241 -12.8848,-12.9486 -0.213782,1.07836 -0.576385,2.10593 -1.04529,3.07445 5.33865,2.31263 9.47846,6.54339 11.2903,11.7084 0.00236223,0 0.00472447,0 0.00472447,-0.00354335 0.0921271,0.238586 0.145277,0.351973 0.556306,1.30395 0.865759,1.49884 3.09216,0.318902 3.09216,0.318902 0.246853,-0.0862215 0.506699,-0.146458 0.775994,-0.146458 1.60868,-0.00236223 2.91263,1.62404 2.91263,3.61067 0,1.99018 -1.30395,3.6154 -2.91263,3.6154 -0.131104,0 -0.258665,-0.0283468 -0.386225,-0.0519691 -0.180711,-0.0720481 -2.47916,-0.959067 -3.20909,0.542133 -0.592921,1.69018 -0.300004,0.825601 -0.800797,2.44019l0.0070867 0c-1.61931,4.74927 -5.18628,8.72255 -9.8517,11.1769 0.203152,0.850404 0.314177,1.7327 0.314177,2.63035 0,0.304728 -0.0236223,0.604732 -0.0472447,0.902373 6.11346,-2.8524 10.7895,-7.97844 12.6935,-14.1852 -0.00354335,-0.00236223 -0.0070867,-0.00472447 -0.00944894,-0.00472447l0.0141734 -0.0129923c-0.00354335,0.0070867 -0.00472447,0.0118112 -0.00472447,0.0177168 0.413391,0.101576 0.840955,0.153545 1.28033,0.153545 3.44177,-0.00118112 6.24102,-3.24098 6.24102,-7.22371 0,-3.98273 -2.79925,-7.22371 -6.24102,-7.22371zm-25.0031 30.9157c0.0259846,0 0.050788,-0.00236223 0.0779537,-0.00236223 0.0248035,0 0.050788,0.00236223 0.0779537,0.00236223l0 -0.00590558c-0.0271657,0 -0.0555125,0.00354335 -0.0779537,0.00354335 -0.0271657,0 -0.0519691,-0.00354335 -0.0779537,-0.00354335l0 0.00590558zm-0.297641 1.67246c-2.33625,0 -4.23785,-1.90278 -4.23785,-4.24139 0,-1.80238 1.13505,-3.3402 2.7272,-3.95674 0.48662,0.0661425 0.993319,0.103938 1.51065,0.103938 0.523235,0 1.02875,-0.0377957 1.51774,-0.103938 1.5886,0.616543 2.72366,2.15436 2.72366,3.95674 0,2.33861 -1.90042,4.24139 -4.24139,4.24139zm5.77566 -9.90248c0.851585,-0.720481 1.36183,-1.60278 1.36183,-2.56066 0,-2.4142 -3.19492,-4.36895 -7.13749,-4.36895 -3.93784,0 -7.13276,1.95475 -7.13276,4.36895 0,0.957886 0.509061,1.84018 1.36301,2.56066 -1.43506,1.45868 -2.32089,3.45831 -2.32089,5.66109 0,4.46344 3.63075,8.09419 8.09065,8.09419 4.46462,0 8.09774,-3.63075 8.09774,-8.09419 0,-2.20633 -0.8882,-4.20241 -2.32208,-5.66109zm4.54376 -13.5474c0,1.52837 -1.23781,2.76263 -2.76381,2.76263 -1.52482,0 -2.76381,-1.23427 -2.76381,-2.76263 0,-1.52482 1.23899,-2.76263 2.76381,-2.76263 1.526,0 2.76381,1.23781 2.76381,2.76263z"/>
 </g>
</svg>
