<?xml version="1.0" encoding="UTF-8"?>
<!DOCTYPE svg PUBLIC "-//W3C//DTD SVG 1.1//EN" "http://www.w3.org/Graphics/SVG/1.1/DTD/svg11.dtd">
<!-- Creator: CorelDRAW -->
<svg xmlns="http://www.w3.org/2000/svg" xml:space="preserve" width="53px" height="70px" style="shape-rendering:geometricPrecision; text-rendering:geometricPrecision; image-rendering:optimizeQuality; fill-rule:evenodd; clip-rule:evenodd"
viewBox="0 0 53 70.0013"
 xmlns:xlink="http://www.w3.org/1999/xlink">
 <defs>
  <style type="text/css">
   <![CDATA[
    .fil0 {fill:#B2B3B3}
   ]]>
  </style>
 </defs>
 <g id="Слой_x0020_1">
  <metadata id="CorelCorpID_0Corel-Layer"/>
  <path class="fil0" d="M34.1857 66.1413c-7.94551,0 -14.4122,-6.462 -14.4122,-14.4099l0 -9.0983c-2.30204,-3.03198 -12.6736,-16.7462 -15.943,-22.1676 -1.40437,-2.33038 -2.4922,-6.06514 -1.32524,-9.56839 0.680335,-2.03038 2.42015,-4.82495 6.87658,-6.62146 0.792543,-0.320088 1.50949,-0.605924 2.1603,-0.856325 0.0744117,-2.21109 1.88864,-3.98161 4.11154,-3.98161 1.9347,0 3.55995,1.34532 4.00169,3.13946 0.094491,0.185439 0.162997,0.386232 0.200793,0.600018 0.0850419,0.480723 0.00472455,0.951997 -0.200793,1.35595 -0.441745,1.80123 -2.06463,3.14301 -4.00169,3.14301 -0.70632,0 -1.37248,-0.178352 -1.9536,-0.493715 -0.774826,0.294103 -1.67485,0.649626 -2.71662,1.06775 -2.35637,0.951997 -3.84106,2.29849 -4.41037,4.00287 -0.703958,2.1225 0.0578757,4.55565 0.927193,5.99545 2.0162,3.33908 7.03367,10.2192 10.9409,15.4741 0.89294,-0.444108 2.05636,-0.699233 3.37569,-0.699233 1.39256,0 2.60913,0.283473 3.51625,0.773645 3.91547,-5.26079 8.97428,-12.1929 10.9964,-15.5485 0.876404,-1.43981 1.6406,-3.86823 0.933099,-5.98955 -0.570489,-1.71029 -2.05518,-3.05678 -4.41391,-4.00878 -1.03822,-0.419304 -1.94061,-0.773645 -2.71544,-1.06775 -0.583482,0.315364 -1.24728,0.493715 -1.95242,0.493715 -1.96187,0 -3.60483,-1.37366 -4.01823,-3.20679 -0.188982,-0.395681 -0.257488,-0.856325 -0.16654,-1.31815 0.0354341,-0.181895 0.0921287,-0.351979 0.16654,-0.513795 0.419304,-1.8284 2.06227,-3.1997 4.01823,-3.1997 2.22526,0 4.04067,1.77525 4.11508,3.98398 0.650807,0.251582 1.36658,0.533874 2.15912,0.853962 4.45761,1.79651 6.19979,4.59699 6.87422,6.62972 1.16696,3.50325 0.0779551,7.23801 -1.32996,9.56249 -3.26585,5.41906 -13.6374,19.1332 -15.9394,22.1652l0 9.0983c0,5.58324 4.54502,10.1247 10.1259,10.1247 4.99149,0 9.15027,-3.62727 9.97707,-8.38253 -2.30558,-0.9142 -3.93673,-3.16663 -3.93673,-5.79112 0.00118114,-3.43239 2.79339,-6.22696 6.2305,-6.22696 3.43475,0 6.22932,2.79457 6.22932,6.22696 0,2.72488 -1.75871,5.047 -4.20131,5.88797 -0.907114,7.08328 -6.97225,12.5708 -14.2989,12.5708zm-10.5735 -30.0399c-0.419304,-0.0980344 -1.04294,-0.219692 -1.79533,-0.219692 -0.644901,0 -1.19059,0.0921287 -1.60517,0.211424l1.70202 2.26542 1.69848 -2.25715zm22.5857 13.5016l0.258669 -0.0141736 0.261031 0.0141736c0.950816,-0.124019 1.68194,-0.940185 1.68194,-1.92053 0,-1.06775 -0.870498,-1.94061 -1.94297,-1.94061 -1.07247,0 -1.94297,0.870498 -1.94297,1.94061 0,0.982706 0.733486,1.79651 1.6843,1.92053z"/>
 </g>
</svg>
