<?xml version="1.0" encoding="UTF-8"?>
<!DOCTYPE svg PUBLIC "-//W3C//DTD SVG 1.1//EN" "http://www.w3.org/Graphics/SVG/1.1/DTD/svg11.dtd">
<!-- Creator: CorelDRAW -->
<svg xmlns="http://www.w3.org/2000/svg" xml:space="preserve" width="79px" height="62px" style="shape-rendering:geometricPrecision; text-rendering:geometricPrecision; image-rendering:optimizeQuality; fill-rule:evenodd; clip-rule:evenodd"
viewBox="0 0 79 61.999"
 xmlns:xlink="http://www.w3.org/1999/xlink">
 <defs>
  <style type="text/css">
   <![CDATA[
    .fil0 {fill:#B2B3B3}
   ]]>
  </style>
 </defs>
 <g id="Слой_x0020_1">
  <metadata id="CorelCorpID_0Corel-Layer"/>
  <path class="fil0" d="M12.1489 57.0088l0 -9.27293 4.5969 0 0 2.19097c0,0.661424 0.535045,1.19765 1.19765,1.19765l8.89497 0c0.662605,0 1.19883,-0.533864 1.19883,-1.19529l0 -2.19333 5.54061 0 0 2.19097c0,0.661424 0.532682,1.19765 1.19529,1.19765l8.89733 0c0.660243,0 1.19647,-0.533864 1.19647,-1.19529l0 -2.19333 5.53824 0 0 2.19097c0,0.661424 0.536226,1.19765 1.19529,1.19765l8.8997 0c0.659062,0 1.19765,-0.533864 1.19765,-1.19529l0 -2.19333 4.59572 0 0 9.27293 -54.1446 0zm6.98983 -20.9955l2.40357 0c0.659062,0 1.19529,-0.533864 1.19529,-1.19647 0,-0.661424 -0.536226,-1.19647 -1.19529,-1.19647l-2.40357 0 0 -2.24412 6.5044 0 0 2.24412 -0.451186 0c-0.661424,0 -1.19883,0.538588 -1.19883,1.19647 0,0.660243 0.537407,1.19647 1.19529,1.19647l0.454729 0 0 12.7171 -6.5044 0 0 -12.7171zm16.8309 0l2.40239 0c0.659062,0 1.19529,-0.533864 1.19529,-1.19647 0,-0.661424 -0.536226,-1.19647 -1.19529,-1.19647l-2.40239 0 0 -2.24412 6.50321 0 0 2.24412 -0.453548 0c-0.659062,0 -1.19765,0.538588 -1.19765,1.19647 0,0.660243 0.538588,1.19647 1.19765,1.19647l0.453548 0 0 12.7171 -6.50321 0 0 -12.7171zm16.8285 0l2.40239 0c0.662605,0 1.20001,-0.533864 1.20001,-1.19647 0,-0.661424 -0.537407,-1.19647 -1.20001,-1.19647l-2.40239 0 0 -2.24412 6.50203 0 0 2.24412 -0.450004 0c-0.659062,0 -1.19765,0.538588 -1.19765,1.19647 0,0.660243 0.538588,1.19647 1.19765,1.19647l0.450004 0 0 12.7171 -6.50203 0 0 -12.7171zm-23.4805 -18.0167c0,-0.0472446 0.497249,-0.00944891 0.767724,-0.00944891l3.665 0 0 3.665c0,1.32167 1.07245,2.39412 2.39412,2.39412l6.15479 0c1.32049,0 2.39294,-1.07009 2.39294,-2.39176l0 -3.66736 3.665 0c0.34961,0 0.979144,0.00944891 0.979144,0.00944891l16.9573 0 0 27.3428 -4.59572 0 0 -15.1631c0,-0.657881 -0.538588,-1.19411 -1.19765,-1.19411l-8.8997 0c-0.656699,0 -1.19529,0.536226 -1.19529,1.19765l0 15.1596 -5.53824 0 0 -15.1631c0,-0.657881 -0.536226,-1.19411 -1.19647,-1.19411l-8.89733 0c-0.662605,0 -1.19529,0.536226 -1.19529,1.19765l0 15.1596 -5.54061 0 0 -15.1631c0,-0.657881 -0.536226,-1.19411 -1.19883,-1.19411l-8.89497 0c-0.662605,0 -1.19765,0.536226 -1.19765,1.19765l0 15.1596 -4.5969 0 0 -27.3428 17.1687 0zm-17.1687 -5.37525l15.5435 0 0 2.96932c0,0.00590557 0,0.00944891 0,0.0141734l-15.5435 -0.00236223 0 -2.98113zm17.9364 -3.18192l6.05912 0 0 -6.05793 6.15479 0 0 6.05793 6.05793 0 0 6.15124 -6.05793 0 0 6.06148 -6.15479 0 0 -6.06148 -6.05912 0 0 -6.15124zm20.6648 6.15124l0 -2.96932 15.5435 0 0 2.98113 -15.5435 0c0,-0.00236223 0,-0.00590557 0,-0.0118111zm24.951 41.4181l-5.41541 0 0 -46.3835c0,-1.09844 -0.894103,-1.99018 -1.99726,-1.99018l-17.686 0c-0.333074,-0.92245 -1.20946,-1.59096 -2.2453,-1.59096l-3.665 0 0 -3.66263c0,-1.32403 -1.07245,-2.39412 -2.39294,-2.39412l-6.15479 0c-1.32167,0 -2.39412,1.07009 -2.39412,2.39412l0 3.66263 -3.665 0c-1.04056,0 -1.9134,0.668511 -2.24648,1.59096l-17.6884 0c-1.09962,0 -1.99254,0.891741 -1.99254,1.99372l0 46.38 -5.35045 0c-1.10198,0 -1.99726,0.895285 -1.99726,1.99608 0,1.09844 0.895285,1.9949 1.99726,1.9949l72.8936 0c1.10198,0 1.99372,-0.895285 1.99372,-1.9949 0,-1.1008 -0.891741,-1.99254 -1.99372,-1.99608z"/>
 </g>
</svg>
