<?xml version="1.0" encoding="UTF-8"?>
<!DOCTYPE svg PUBLIC "-//W3C//DTD SVG 1.1//EN" "http://www.w3.org/Graphics/SVG/1.1/DTD/svg11.dtd">
<!-- Creator: CorelDRAW -->
<svg xmlns="http://www.w3.org/2000/svg" xml:space="preserve" width="63px" height="65px" style="shape-rendering:geometricPrecision; text-rendering:geometricPrecision; image-rendering:optimizeQuality; fill-rule:evenodd; clip-rule:evenodd"
viewBox="0 0 63 64.9984"
 xmlns:xlink="http://www.w3.org/1999/xlink">
 <defs>
  <style type="text/css">
   <![CDATA[
    .fil1 {fill:#B2B3B3}
    .fil0 {fill:#B2B3B3;fill-rule:nonzero}
   ]]>
  </style>
 </defs>
 <g id="Слой_x0020_1">
  <metadata id="CorelCorpID_0Corel-Layer"/>
  <path class="fil0" d="M61.8343 59.224c-0.522047,1.1185 -1.2378,2.13071 -2.10118,2.99528 -1.90748,1.9063 -4.54016,3.09094 -7.43976,3.09094 -2.89724,0 -5.5311,-1.18465 -7.4374,-3.09094 -1.9063,-1.9063 -3.09094,-4.53898 -3.09094,-7.43622l0 -17.8819 -17.3516 -1.32992c-1.53661,2.70472 -3.74528,4.98425 -6.38976,6.61299 -2.80394,1.72677 -6.09803,2.72717 -9.60354,2.72717 -0.715748,0 -1.30039,-0.584646 -1.30039,-1.30039l0 -0.034252 0 -2.81811c-1.14803,-0.0188976 -2.24882,-0.406299 -3.14291,-1.06299 -0.914173,-0.669685 -1.62874,-1.63583 -1.97953,-2.77205 -0.157087,-0.509055 -0.242126,-1.05118 -0.242126,-1.6063 0,-1.49882 0.612992,-2.85945 1.59213,-3.84331l0.92126 0.914173 -0.92126 -0.917717 0.0720472 -0.0661417c0.979134,-0.94252 2.31142,-1.52835 3.77717,-1.52835 0.0862205,0 0.108661,0.0259843 0.108661,0.0153543 0,-0.285827 -0.0307087,-0.594094 -0.0637795,-0.937795l-0.0448819 -0.49252c-1.17756,0 -2.30551,-0.392126 -3.21969,-1.06181 -0.914173,-0.670866 -1.62874,-1.63701 -1.97953,-2.77323 -0.157087,-0.507874 -0.242126,-1.05 -0.242126,-1.6063 0,-1.49764 0.612992,-2.85827 1.59213,-3.84213l0.92126 0.914173 -0.92126 -0.918898 0.0720472 -0.0661417c0.979134,-0.941339 2.31142,-1.52835 3.77717,-1.52835 0.0862205,0 0.108661,0.0259843 0.108661,0.0165354 0,-0.277559 -0.0307087,-0.588189 -0.0649606,-0.934252l-0.00472441 0 -0.00472441 -0.121654 -0.034252 -0.374409c-1.17756,0 -2.30551,-0.392126 -3.22087,-1.06181 -0.918898,-0.674409 -1.62756,-1.63465 -1.97717,-2.77677l-0.0011811 0 0 -0.0023622 -0.00472441 0 -0.0283465 -0.106299c-0.138189,-0.475984 -0.209055,-0.977953 -0.209055,-1.49409 0,-1.49882 0.612992,-2.85827 1.59213,-3.84331l0.92126 0.914173 -0.92126 -0.917717 0.0720472 -0.0661417c0.979134,-0.94252 2.31142,-1.52835 3.77717,-1.52835 0.0862205,0 0.106299,0.057874 0.106299,0.0366142 0,-0.276378 -0.0307087,-0.581102 -0.0625984,-0.920079 -0.0543307,-0.576378 -0.120472,-1.25315 -0.120472,-1.9689 0,-0.715748 0.584646,-1.30039 1.30039,-1.30039l0.0354331 0c3.44173,0.00590551 6.74528,0.989764 9.57874,2.73661 2.60787,1.6063 4.82126,3.86457 6.37913,6.60591l37.0087 -2.83937 0 -0.0011811c0.713386,-0.0543307 1.34173,0.48189 1.39724,1.19528l0.0023622 0.100394 0 0.0318898 0 40.2839c0,4.18819 -0.185433,8.27126 -0.987402,9.9815zm-57.8551 -52.4421c0.511417,-0.43937 1.28268,-0.419291 1.76693,0.0649606m-1.76693 12.2327c0.511417,-0.440551 1.28268,-0.420472 1.76693,0.0637795m-1.76693 12.2327c0.511417,-0.440551 1.28268,-0.420472 1.76693,0.0637795m52.2815 28.911c1.42795,-1.42913 2.32087,-3.39921 2.33031,-5.56181l0 -0.034252 0 -44.4531 -36.3555 2.78622c-0.539764,0.080315 -1.09488,-0.185433 -1.35472,-0.698031l1.15984 -0.588189 -1.15866 0.584646c-1.34646,-2.65748 -3.39213,-4.8378 -5.83819,-6.3437 -2.0563,-1.26614 -4.41142,-2.06693 -6.88701,-2.28307l0.0330709 0.366142c0.0413386,0.448819 0.0826772,0.850394 0.0826772,1.16457 0,1.68425 -0.506693,2.56417 -2.70709,2.56417 -0.755906,0 -1.44921,0.298819 -1.95827,0.778346l-0.0496063 0.0519685 -0.00354331 -0.0023622 -0.0023622 0.00472441c-0.507874,0.51378 -0.827953,1.22598 -0.827953,2.00787 0,0.270472 0.0366142,0.527953 0.0992126,0.762992l0.0283465 0.0814961 -1.24606 0.377953 1.24134 -0.375591c0.177165,0.588189 0.551575,1.09016 1.02992,1.43976 0.478346,0.350787 1.07362,0.553937 1.69252,0.553937 0.261024,0 0.524409,-0.0330709 0.778346,-0.105118 0.140551,-0.0507874 0.285827,-0.0779528 0.441732,-0.0779528 0.715748,0 1.30039,0.583465 1.30039,1.30039 0,0.637795 0.0484252,1.16811 0.0909449,1.62638l0.0141732 0.0980315 -0.00590551 0 0.0011811 0.0011811c0.0437008,0.455906 0.0838583,0.862205 0.0838583,1.18819 0,1.69016 -0.504331,2.58543 -2.70827,2.58543 -0.755906,0 -1.44921,0.297638 -1.95827,0.777165l-0.0496063 0.0519685 -0.00354331 -0.0011811 -0.0023622 0.00354331c-0.507874,0.51378 -0.827953,1.22598 -0.827953,2.00906 0,0.303543 0.0448819,0.58937 0.122835,0.845669 0.179528,0.588189 0.555118,1.09016 1.03346,1.44094 0.474803,0.349606 1.07008,0.553937 1.68661,0.553937 0.259843,0 0.526772,-0.034252 0.780709,-0.106299 0.140551,-0.0496063 0.285827,-0.0779528 0.441732,-0.0779528 0.715748,0 1.30039,0.583465 1.30039,1.30039 0,0.681496 0.0555118,1.24843 0.101575,1.73268 0.0425197,0.453543 0.0826772,0.862205 0.0826772,1.18228 0,1.69016 -0.504331,2.58425 -2.70827,2.58425 -0.755906,0 -1.44921,0.297638 -1.95827,0.778346l-0.0496063 0.0519685 -0.00354331 -0.0023622 -0.0023622 0.00354331c-0.507874,0.514961 -0.827953,1.22717 -0.827953,2.00906 0,0.303543 0.0448819,0.590551 0.122835,0.845669 0.179528,0.588189 0.555118,1.09016 1.03346,1.44094 0.474803,0.349606 1.07008,0.553937 1.68661,0.553937 0.259843,0 0.526772,-0.034252 0.780709,-0.106299 0.140551,-0.0496063 0.285827,-0.0779528 0.441732,-0.0779528 0.715748,0 1.30039,0.584646 1.30039,1.30039l0 2.98228c2.52874,-0.205512 4.89331,-1.01339 6.94134,-2.27598 2.46024,-1.51654 4.48583,-3.69094 5.8122,-6.27402 0.211417,-0.499606 0.72874,-0.833858 1.29685,-0.790157l0 0.0023622 19.3134 1.47992c0.70748,0.0106299 1.28268,0.590551 1.28268,1.30039l0 19.0843c0,2.17677 0.894094,4.15984 2.33031,5.59606 1.43622,1.43622 3.42165,2.33031 5.59843,2.33031 2.17441,0 4.15866,-0.894094 5.59606,-2.33031z"/>
  <path class="fil1" d="M53.0079 41.524c1.34882,0 2.44016,1.09252 2.44016,2.43898 0,1.34646 -1.09134,2.43898 -2.44016,2.43898 -1.34528,0 -2.43898,-1.09252 -2.43898,-2.43898 0,-1.34646 1.0937,-2.43898 2.43898,-2.43898zm0 7.99016c1.34882,0 2.44016,1.09252 2.44016,2.43898 0,1.34528 -1.09134,2.4378 -2.44016,2.4378 -1.34528,0 -2.43898,-1.09252 -2.43898,-2.4378 0,-1.34646 1.0937,-2.43898 2.43898,-2.43898z"/>
  <path class="fil0" d="M48.0508 14.3622c2.36811,0 4.51299,0.962598 6.0685,2.51693l0.0023622 0c1.55433,1.55197 2.51457,3.69803 2.51457,6.07087 0,2.36693 -0.960236,4.51299 -2.51457,6.06732l-0.0023622 0.00354331c-1.55551,1.55551 -3.70039,2.51693 -6.0685,2.51693 -2.37283,0 -4.51772,-0.961417 -6.07323,-2.51693l0 -0.00354331c-1.55079,-1.55433 -2.51457,-3.70039 -2.51457,-6.06732 0,-2.37283 0.96378,-4.5189 2.51457,-6.07087 1.55551,-1.55433 3.70039,-2.51693 6.07323,-2.51693zm4.31811 4.27087c-1.10551,-1.10197 -2.63386,-1.78465 -4.31811,-1.78465 -1.68661,0 -3.21142,0.683858 -4.31457,1.78701 -1.10315,1.10197 -1.78701,2.62795 -1.78701,4.31457 0,1.68661 0.683858,3.2126 1.78465,4.31693l0.0023622 -0.0023622c1.10315,1.10315 2.62795,1.78701 4.31457,1.78701 1.68425,0 3.2126,-0.682677 4.31811,-1.78465 1.10079,-1.10433 1.78465,-2.63031 1.78465,-4.31693 0,-1.68661 -0.683858,-3.2126 -1.78701,-4.31457l0.0023622 -0.0023622z"/>
 </g>
</svg>
