<?xml version="1.0" encoding="UTF-8"?>
<!DOCTYPE svg PUBLIC "-//W3C//DTD SVG 1.1//EN" "http://www.w3.org/Graphics/SVG/1.1/DTD/svg11.dtd">
<!-- Creator: CorelDRAW -->
<svg xmlns="http://www.w3.org/2000/svg" xml:space="preserve" width="80px" height="50px" style="shape-rendering:geometricPrecision; text-rendering:geometricPrecision; image-rendering:optimizeQuality; fill-rule:evenodd; clip-rule:evenodd"
viewBox="0 0 80 49.9994"
 xmlns:xlink="http://www.w3.org/1999/xlink">
 <defs>
  <style type="text/css">
   <![CDATA[
    .fil0 {fill:#B2B3B3;fill-rule:nonzero}
   ]]>
  </style>
 </defs>
 <g id="Слой_x0020_1">
  <metadata id="CorelCorpID_0Corel-Layer"/>
  <path class="fil0" d="M33.6538 32.018c0.047245,0.0590563 0.0980334,0.114569 0.151184,0.165358l0.0519695 0.0590563c1.32286,1.51538 2.13666,3.58826 2.13666,5.88437 0,7.90291 -7.96315,9.00018 -15.5554,9.00018 -1.87208,0 -3.45007,-0.0507884 -4.94065,-0.0980334 -1.53901,-0.0484262 -2.99652,-0.09449 -4.05953,-0.09449 -0.400402,0 -0.644895,-0.187799 -0.740566,-0.426386 -0.047245,-0.116931 -0.0708675,-0.256304 -0.0708675,-0.403945 0,-0.148822 0.0236225,-0.288195 0.0708675,-0.405126 0.487805,-1.2142 6.95801,-0.660249 8.1037,-0.660249 0.757102,0 1.37129,-0.66143 1.37129,-1.47641 0,-0.814977 -0.614185,-1.47641 -1.37129,-1.47641 -4.2804,0 -7.9159,-0.235044 -12.0617,-0.235044 -0.400402,0 -0.644895,-0.187799 -0.740566,-0.426386 -0.047245,-0.116931 -0.0708675,-0.256304 -0.0708675,-0.405126 0,-0.147641 0.0236225,-0.287014 0.0708675,-0.403945 0.500797,-1.24491 7.4966,-0.660249 8.72379,-0.660249 0.757102,0 1.37129,-0.66143 1.37129,-1.47641 0,-0.814977 -0.614185,-1.47641 -1.37129,-1.47641 -3.59889,0 -6.89895,-0.235044 -10.2179,-0.235044 -0.39922,0 -0.643713,-0.187799 -0.739385,-0.426386 -0.047245,-0.116931 -0.0708675,-0.256304 -0.0708675,-0.405126 0,-0.148822 0.0236225,-0.287014 0.0708675,-0.403945 0.0956712,-0.239768 0.340164,-0.426386 0.739385,-0.426386 3.35794,0 6.59895,-0.235044 10.2179,-0.235044 0.757102,0 1.37129,-0.66143 1.37129,-1.47641 0,-0.814977 -0.614185,-1.47641 -1.37129,-1.47641 -1.18703,0 -7.92181,0.568121 -8.41552,-0.660249 -0.047245,-0.116931 -0.0708675,-0.256304 -0.0708675,-0.405126 0,-0.148822 0.0236225,-0.287014 0.0708675,-0.405126 0.0956712,-0.238587 0.340164,-0.425205 0.739385,-0.425205l12.69 0c0.9449,0 1.71145,-0.766551 1.71145,-1.71145 0,-0.649619 -0.361424,-1.2142 -0.895293,-1.50475l-3.82094 -2.37642c-0.336621,-0.209059 -0.444103,-0.499616 -0.398039,-0.758283 0.0224414,-0.132286 0.0744109,-0.261029 0.14646,-0.379141 0.075592,-0.121656 0.170082,-0.226776 0.276383,-0.303549 0.21024,-0.153546 0.517333,-0.185437 0.855135,0.0248036l10.3526 6.4395 0.90238 -1.45042 -0.904742 1.45278c0.291738,0.181893 0.617729,0.264572 0.937814,0.257485 1.83547,0.118113 3.49968,0.974429 4.75403,2.30556zm6.39225 -1.62641c1.48586,-0.589382 2.99179,-1.05829 4.52962,-1.41971 0.351975,-0.0826788 0.705132,-0.160633 1.05947,-0.232682l6.38044 17.5787c-2.01854,-0.0732298 -4.02882,-0.190161 -5.94815,-0.338983l-6.02138 -15.5873zm9.02616 -2.18744c1.37129,-0.152365 2.77446,-0.239768 4.21662,-0.274021l11.712 18.07c-2.46855,0.284651 -5.38948,0.405126 -8.44859,0.403945l-0.875214 -0.0047245 -6.60485 -18.1952zm6.76313 -2.61974c-1.11262,-6.89541 -0.96498,-9.5494 -0.742928,-13.4932 0.116931,-2.07288 0.252761,-4.48473 0.252761,-7.82968 0,-0.9449 -0.766551,-1.71145 -1.71145,-1.71145 -0.9449,0 -1.71145,0.766551 -1.71145,1.71145 0,3.40282 -0.128743,5.6824 -0.238587,7.64306 -0.216146,3.84811 -0.36733,6.53162 0.537412,12.6475 -2.94337,0.116931 -5.732,0.457096 -8.42024,1.09018 -2.93628,0.69214 -5.76035,1.72917 -8.54308,3.20085 -1.63232,-1.39963 -3.64495,-2.30792 -5.84421,-2.51225l-9.99705 -6.21863c-1.71618,-1.06774 -3.42172,-0.798441 -4.67844,0.121656 -0.464182,0.340164 -0.858678,0.771275 -1.15868,1.25317 -0.302368,0.486624 -0.516152,1.0323 -0.615366,1.5957 -0.212603,1.21538 0.066143,2.50281 1.04766,3.51621l-6.9651 0c-2.02091,0 -3.32723,1.13152 -3.90834,2.5784 -0.216146,0.537412 -0.32481,1.11144 -0.32481,1.67484 0,0.362606 0.0448828,0.729936 0.134648,1.089 -1.15042,0.413394 -1.93586,1.28625 -2.35162,2.31973 -0.216146,0.538593 -0.32481,1.11262 -0.32481,1.67484 0,0.563397 0.108664,1.13742 0.32481,1.67484 0.381504,0.948444 1.07364,1.76106 2.07406,2.2087 -0.109845,0.394496 -0.165358,0.799622 -0.165358,1.20002 0,0.563397 0.109845,1.13742 0.32481,1.67484 0.582295,1.44688 1.88862,2.5784 3.90953,2.5784l0.542137 0c-0.0519695,0.276383 -0.0767732,0.555129 -0.0767732,0.831512 0,0.563397 0.108664,1.13624 0.323628,1.67484 0.582295,1.4457 1.88862,2.5784 3.90953,2.5784 1.3831,0 2.63509,0.0389771 3.95205,0.0814977 1.70082,0.0531507 3.50676,0.109845 5.04813,0.109845 5.05876,0 10.2522,-0.45119 13.9243,-2.63863 2.37406,0.514971 6.08752,1.01813 10.2971,1.37483l0.108664 0.009449 0.0413394 0.00236225c3.02959,0.253942 6.30839,0.435835 9.5305,0.494892 0.066143,0.0047245 0.132286,0.00708675 0.19961,0.00354338 0.675604,0.0118113 1.3453,0.0177169 2.01264,0.0177169 3.98276,0.00118113 7.7907,-0.211421 10.8522,-0.728755 0.486624,0.17835 1.0512,0.134648 1.52011,-0.170082 0.0838599,-0.0543318 0.160633,-0.114569 0.231501,-0.180712 1.22601,-0.289376 2.27957,-0.641351 3.10872,-1.06892 1.44806,-0.747653 2.628,-3.17959 3.49849,-6.56706 1.26971,-4.93711 2.13311,-12.3073 2.29847,-19.1626 0.16772,-6.99226 -0.406307,-13.5534 -2.03272,-16.707 -0.681509,-1.32168 -1.58861,-2.19217 -2.75084,-2.49099 -0.911829,-0.231501 -1.83901,0.318904 -2.07169,1.23073 -0.232682,0.911829 0.317723,1.83901 1.22955,2.07169 0.134648,0.0342526 0.325991,0.302368 0.558672,0.753558 1.35003,2.61737 1.81421,8.57379 1.6583,15.0617 -0.159452,6.62375 -0.983878,13.7022 -2.19217,18.4008 -0.633083,2.46501 -1.25199,4.1115 -1.76106,4.37371 -0.548042,0.282289 -1.23782,0.526782 -2.04571,0.73466l-12.8188 -19.7791zm-13.5581 20.0484c-1.75633,-0.185437 -3.36739,-0.395677 -4.75403,-0.616548 1.18349,-1.70555 1.87681,-3.92016 1.89216,-6.79147l2.86187 7.40802z"/>
 </g>
</svg>
