<?xml version="1.0" encoding="UTF-8"?>
<!DOCTYPE svg PUBLIC "-//W3C//DTD SVG 1.1//EN" "http://www.w3.org/Graphics/SVG/1.1/DTD/svg11.dtd">
<!-- Creator: CorelDRAW -->
<svg xmlns="http://www.w3.org/2000/svg" xml:space="preserve" width="54px" height="52px" style="shape-rendering:geometricPrecision; text-rendering:geometricPrecision; image-rendering:optimizeQuality; fill-rule:evenodd; clip-rule:evenodd"
viewBox="0 0 54 51.9992"
 xmlns:xlink="http://www.w3.org/1999/xlink">
 <defs>
  <style type="text/css">
   <![CDATA[
    .fil0 {fill:#B2B3B3}
   ]]>
  </style>
 </defs>
 <g id="Слой_x0020_1">
  <metadata id="CorelCorpID_0Corel-Layer"/>
  <path class="fil0" d="M9.46299 1.0122l34.1681 0c2.50984,0 4.78465,1.02165 6.43465,2.67047l0 0c1.64528,1.64764 2.67047,3.92835 2.67047,6.43346l0 21.1346c0,2.5063 -1.0252,4.78465 -2.67047,6.4311 -1.64764,1.64646 -3.9248,2.66929 -6.43465,2.66929l-2.99882 0c0.259843,0.577559 0.559843,1.13622 0.918898,1.68189l0.0011811 0c0.527953,0.807874 1.19291,1.6122 2.04331,2.45197l0 0.0023622c0.590551,0.584646 0.957874,1.32874 1.08425,2.10709 0.124016,0.775984 0.00944882,1.60039 -0.364961,2.33976 -0.325984,0.644882 -0.820866,1.16457 -1.40433,1.52244 -0.590551,0.36378 -1.2874,0.564567 -1.99961,0.566929l-0.0188976 0 -0.256299 -0.00826772 -0.0366142 0 -0.0188976 -0.00472441 -0.25748 -0.0271654 -0.0283465 -0.00826772 -0.0295276 -0.00472441c-1.46339,-0.237402 -4.82244,-0.793701 -8.28661,-2.67402 -1.76457,-0.966142 -3.32953,-2.14016 -4.68307,-3.52441 -1.27323,-1.29921 -2.35866,-2.77677 -3.25157,-4.42087l-14.5807 0c-2.50748,0 -4.78583,-1.02283 -6.43346,-2.67283 -1.64528,-1.64409 -2.67047,-3.92126 -2.67047,-6.43228l0 -21.1299c0,-2.50512 1.0252,-4.78701 2.67047,-6.43346 1.65,-1.64882 3.92598,-2.67047 6.43346,-2.67047zm19.2472 12.4098l-17.8689 0c-0.45,0 -0.856299,-0.233858 -1.14803,-0.607087 -0.294094,-0.376772 -0.478346,-0.901181 -0.478346,-1.47047 0,-0.574016 0.184252,-1.09016 0.478346,-1.46457 0.292913,-0.372047 0.700394,-0.605906 1.14803,-0.605906l17.8689 0c0.446457,0 0.855118,0.231496 1.14803,0.605906 0.294094,0.374409 0.477165,0.890551 0.477165,1.46457 0,0.574016 -0.184252,1.0937 -0.477165,1.47047l-0.0011811 -0.00472441c-0.291732,0.377953 -0.700394,0.611811 -1.14685,0.611811zm5.92677 -4.14803l7.61929 0c0.446457,0 0.85748,0.233858 1.14685,0.605906l-0.0023622 0c0.294094,0.374409 0.478346,0.890551 0.478346,1.46457 0,0.569291 -0.180709,1.09016 -0.475984,1.47047l-0.0023622 0c-0.292913,0.373228 -0.699213,0.607087 -1.14449,0.607087l-7.61929 0c-0.445276,0 -0.856299,-0.233858 -1.14803,-0.611811l0 0.00472441c-0.290551,-0.376772 -0.474803,-0.896457 -0.474803,-1.47047 0,-0.574016 0.180709,-1.09016 0.474803,-1.46457 0.295276,-0.372047 0.702756,-0.605906 1.14803,-0.605906zm-11.0031 13.4846l-12.7925 0c-0.445276,0 -0.853937,-0.238583 -1.14685,-0.61063 -0.295276,-0.375591 -0.479528,-0.895276 -0.479528,-1.4622 0,-0.571654 0.184252,-1.09016 0.478346,-1.46811l0 -0.0023622c0.291732,-0.373228 0.700394,-0.607087 1.14803,-0.607087l0 0.0011811 12.7925 0 0 0c0.445276,0 0.852756,0.233858 1.14567,0.608268l0 0.0023622c0.292913,0.375591 0.477165,0.894094 0.477165,1.46575 0,0.572835 -0.184252,1.08898 -0.477165,1.4622 -0.292913,0.372047 -0.700394,0.61063 -1.14567,0.61063zm6.77008 -4.15039l11.8524 0c0.45,0 0.856299,0.233858 1.14685,0.607087l0 0.0023622c0.295276,0.377953 0.475984,0.898819 0.475984,1.46811 0,0.56811 -0.184252,1.08898 -0.478346,1.46102l0 0.0011811c-0.292913,0.376772 -0.694488,0.61063 -1.14449,0.61063l-11.8524 0c-0.445276,0 -0.851575,-0.238583 -1.14567,-0.61063l-0.0011811 0c-0.291732,-0.373228 -0.477165,-0.895276 -0.477165,-1.4622 0,-0.571654 0.183071,-1.09016 0.477165,-1.46811l0 -0.0023622c0.294094,-0.373228 0.701575,-0.607087 1.14685,-0.607087zm-14.2512 13.4799l-5.31142 0c-0.447638,0 -0.855118,-0.231496 -1.14803,-0.603543 -0.294094,-0.374409 -0.478346,-0.891732 -0.478346,-1.46457 0,-0.571654 0.184252,-1.09016 0.478346,-1.46575l0 -0.00472441c0.291732,-0.372047 0.700394,-0.609449 1.14803,-0.609449l5.31142 0c0.447638,0 0.856299,0.237402 1.14803,0.609449l0 0.00472441c0.292913,0.373228 0.478346,0.895276 0.478346,1.46575 0,0.572835 -0.185433,1.09016 -0.478346,1.46457 -0.294094,0.374409 -0.700394,0.603543 -1.14803,0.603543zm4.94055 -4.14803l21.163 0c0.45,0 0.856299,0.237402 1.14685,0.609449 0.295276,0.377953 0.475984,0.898819 0.475984,1.47047 0,0.572835 -0.184252,1.08898 -0.478346,1.4622l0.0023622 0.0023622c-0.28937,0.372047 -0.700394,0.603543 -1.14685,0.603543l-21.163 0c-0.447638,0 -0.855118,-0.231496 -1.14921,-0.603543 -0.292913,-0.374409 -0.475984,-0.891732 -0.475984,-1.46457 0,-0.571654 0.184252,-1.09606 0.475984,-1.47047 0.292913,-0.375591 0.701575,-0.609449 1.14921,-0.609449z"/>
 </g>
</svg>
