<?xml version="1.0" encoding="UTF-8"?>
<!DOCTYPE svg PUBLIC "-//W3C//DTD SVG 1.1//EN" "http://www.w3.org/Graphics/SVG/1.1/DTD/svg11.dtd">
<!-- Creator: CorelDRAW -->
<svg xmlns="http://www.w3.org/2000/svg" xml:space="preserve" width="108px" height="137px" style="shape-rendering:geometricPrecision; text-rendering:geometricPrecision; image-rendering:optimizeQuality; fill-rule:evenodd; clip-rule:evenodd"
viewBox="0 0 108 136.998"
 xmlns:xlink="http://www.w3.org/1999/xlink">
 <defs>
  <style type="text/css">
   <![CDATA[
    .fil0 {fill:#D9DADA;fill-rule:nonzero}
   ]]>
  </style>
 </defs>
 <g id="Слой_x0020_1">
  <metadata id="CorelCorpID_0Corel-Layer"/>
  <g id="_351651360">
   <path id="_351649680" class="fil0" d="M99.5031 1.39606l-50.413 0c-2.24528,0 -4.39843,0.890551 -5.98583,2.48031l-38.4236 38.4224c-1.58622,1.58858 -2.47795,3.74173 -2.47795,5.98701l0 80.1071c0,4.6748 3.79134,8.46378 8.46614,8.46378l88.8343 0c4.67598,0 8.46614,-3.78898 8.46614,-8.46378l0 -118.53c0,-4.67598 -3.79016,-8.46732 -8.46614,-8.46732zm-55.552 13.6028l0 0 0 27.8717 -27.8693 0 27.8693 -27.8717zm55.552 113.394l0 0 -88.8343 0 0 -79.878 36.1063 0c1.55906,0 2.81929,-1.2626 2.81929,-2.82165l0 -35.8299 49.9087 0 0 118.53z"/>
   <path id="_351653424" class="fil0" d="M23.4921 63.528c-1.55787,0 -2.82283,1.26024 -2.82283,2.81929 0,1.55787 1.26496,2.82283 2.82283,2.82283l61.0193 0c1.55906,0 2.82165,-1.26496 2.82165,-2.82283 0,-1.55906 -1.2626,-2.81929 -2.82165,-2.81929l-61.0193 0z"/>
   <path id="_351649824" class="fil0" d="M23.4921 84.2469l30.5091 0c1.55787,0 2.82165,-1.26496 2.82165,-2.82402 0,-1.55906 -1.26378,-2.82165 -2.82165,-2.82165l-30.5091 0c-1.55787,0 -2.82283,1.2626 -2.82283,2.82165 0,1.55906 1.26496,2.82402 2.82283,2.82402z"/>
   <path id="_351651336" class="fil0" d="M68.974 78.6012c-1.55787,0 -2.82047,1.2626 -2.82047,2.82165 0,1.55906 1.2626,2.82402 2.82047,2.82402l16.6228 0c1.55669,0 2.81929,-1.26496 2.81929,-2.82402 0,-1.55906 -1.2626,-2.82165 -2.81929,-2.82165l-16.6228 0z"/>
   <path id="_351650352" class="fil0" d="M23.4921 99.3213l61.0193 0c1.55906,0 2.82165,-1.26378 2.82165,-2.82165 0,-1.55906 -1.2626,-2.82165 -2.82165,-2.82165l-61.0193 0c-1.55787,0 -2.82283,1.2626 -2.82283,2.82165 0,1.55787 1.26496,2.82165 2.82283,2.82165z"/>
   <path id="_351647592" class="fil0" d="M85.5969 108.755l-30.5079 0c-1.55906,0 -2.82402,1.2626 -2.82402,2.82165 0,1.55787 1.26496,2.82165 2.82402,2.82165l30.5079 0c1.55669,0 2.81929,-1.26378 2.81929,-2.82165 0,-1.55906 -1.2626,-2.82165 -2.81929,-2.82165z"/>
   <path id="_351647880" class="fil0" d="M40.1114 108.755l-16.6193 0c-1.55787,0 -2.82283,1.2626 -2.82283,2.82165 0,1.55787 1.26496,2.82165 2.82283,2.82165l16.6193 0c1.55787,0 2.82283,-1.26378 2.82283,-2.82165 0,-1.55906 -1.26496,-2.82165 -2.82283,-2.82165z"/>
  </g>
 </g>
</svg>
