<?xml version="1.0" encoding="UTF-8"?>
<!DOCTYPE svg PUBLIC "-//W3C//DTD SVG 1.1//EN" "http://www.w3.org/Graphics/SVG/1.1/DTD/svg11.dtd">
<!-- Creator: CorelDRAW -->
<?xml-stylesheet href="logo.css" type="text/css"?>
<svg xmlns="http://www.w3.org/2000/svg" xml:space="preserve" width="410px" height="300px" style="shape-rendering:geometricPrecision; text-rendering:geometricPrecision; image-rendering:optimizeQuality; fill-rule:evenodd; clip-rule:evenodd"
viewBox="0 0 410 300.001"
 xmlns:xlink="http://www.w3.org/1999/xlink">
 <defs>
  <style type="text/css">
   <![CDATA[
    .fil6 {fill:#2B2A29}
    .fil5 {fill:#00A0E3}
    .fil0 {fill:#E31E24}
    .fil1 {fill:#EF7F1A}
    .fil2 {fill:#FECC00}
    .fil3 {fill:#FEFEFE}
    .fil4 {fill:#A72421;fill-rule:nonzero}
   ]]>
  </style>
 </defs>
 <g id="Слой_x0020_1">
  <metadata id="CorelCorpID_0Corel-Layer"/>
  <g id="_424010968">
   <g>
    <path id="_424016032" class="fil0" d="M244.836 278.915c-0.0755908,2.02914 -0.0354332,4.14805 0.325986,6.22916 0.237402,1.36772 0.605908,2.87954 1.29804,4.226 0.450002,0.8752 1.0689,1.8319 1.91103,2.56655 0.643703,0.562207 1.3819,1.05119 2.23465,1.37127 0.818507,0.307088 1.64883,0.506695 2.49804,0.595278 0.869295,0.0909452 1.7256,0.100394 2.57481,0.088583 0.840948,-0.0129922 1.66418,-0.0590553 2.47206,-0.162993 0.929531,-0.119292 1.80473,-0.367324 2.61497,-0.676774 0.976775,-0.372049 1.83072,-0.914177 2.57481,-1.50945 0.947248,-0.759452 1.6878,-1.71851 2.28662,-2.68938 0.801972,-1.29804 1.32875,-2.76851 1.71497,-4.22718 0.520868,-1.96772 0.760633,-4.04057 0.837405,-6.11341 0.0909452,-2.48505 -0.00590553,-5.1638 -0.651971,-7.7209 -0.40512,-1.60512 -1.07126,-3.44293 -2.27363,-4.92403 -0.861027,-1.063 -1.95828,-1.98426 -3.38978,-2.56064 -1.45394,-0.584648 -2.97757,-0.791342 -4.45986,-0.791342 -1.76221,0 -3.37678,0.290552 -4.83191,0.876381 -1.60512,0.646065 -2.86537,1.65001 -3.86458,2.80277 -1.27914,1.47402 -2.11182,3.26222 -2.68584,5.05514 -0.767719,2.40119 -1.09134,4.99608 -1.18583,7.56499zm11.8701 -9.30712c0.175985,-0.0188977 0.360238,-0.0188977 0.540947,-0.0153544 0.517325,0.01063 0.987405,0.242127 1.37245,0.558664 0.472443,0.387403 0.731105,0.999216 0.903547,1.47402 0.296458,0.816145 0.401576,1.77757 0.479529,2.58781 0.137008,1.4504 0.115748,2.92088 0.0625987,4.34411 -0.0637798,1.6878 -0.190158,3.38978 -0.486616,5.02561 -0.197245,1.09252 -0.488978,2.30906 -1.05355,3.27167 -0.393309,0.669688 -1.02874,1.33583 -2.09646,1.3689 -0.628349,0.0188977 -1.23426,-0.190158 -1.74213,-0.574018 -0.590553,-0.44764 -0.891736,-1.15158 -1.07481,-1.71851 -0.300001,-0.936618 -0.390946,-1.99489 -0.444096,-2.91733 -0.0909452,-1.59213 -0.0212599,-3.19844 0.0531498,-4.76459 0.0696853,-1.43623 0.157087,-2.93151 0.445277,-4.31695 0.179528,-0.863389 0.412206,-1.80946 0.820869,-2.59253 0.240946,-0.459451 0.574018,-0.999216 1.04528,-1.32048 0.314174,-0.214961 0.705121,-0.412206 1.17402,-0.411025z"/>
    <path id="_424015960" class="fil0" d="M191.231 292.188c-0.0212599,-2.33977 -0.00944886,-4.67482 0.0236221,-7.00633 0.0366143,-2.57599 0.099213,-5.14726 0.174804,-7.71617 0.0767719,-2.62442 0.162993,-5.24648 0.259844,-7.86735 0.0862208,-2.27599 0.171261,-4.55317 0.2563,-6.83034 -0.868114,-0.0448821 -1.73859,-0.0956697 -2.60788,-0.146457 -1.34528,-0.0791342 -2.68466,-0.12756 -4.01931,-0.151182 -1.37717,-0.0259844 -2.74017,0.0129922 -4.07718,0.124016 -1.31103,0.109843 -2.58426,0.316537 -3.78781,0.637798 -1.17048,0.311812 -2.23465,0.760633 -3.16419,1.35355 -4.44569,2.82993 -6.30121,11.8252 2.5819,13.6737 -5.16852,0.150001 -5.66695,4.23545 -6.11459,7.61105 -0.145276,1.09843 -0.283466,2.19804 -0.416931,3.29883 -0.141733,1.1752 -0.333072,2.33977 -0.561026,3.4949 0.204331,0.244489 0.484254,0.452364 0.785436,0.631892 0.520868,0.30945 1.09961,0.525593 1.69016,0.68268 0.67205,0.178347 1.35709,0.257481 2.01969,0.251576 0.711026,-0.00708664 1.35827,-0.132284 1.95001,-0.367324 0.653152,-0.258662 1.15748,-0.667325 1.52717,-1.1563 0.3626,-0.479529 0.537404,-1.10433 0.634254,-1.68426 0.129922,-0.788979 0.196064,-1.59331 0.207875,-2.40591 0.0118111,-0.890555 0.0377954,-1.77757 0.0744097,-2.6634 0.0354332,-0.839767 0.132284,-1.67127 0.331891,-2.47206 0.177166,-0.712207 0.506695,-1.40197 1.08189,-1.92875 0.607089,-0.553939 1.47875,-0.788979 2.50395,-0.747641l1.00985 0.0401576 -0.0295277 0.779531c-0.0519687,1.35709 -0.0933074,2.71418 -0.128741,4.07482 -0.0354332,1.40197 -0.0862208,2.80277 -0.132284,4.20356 -0.022441,0.664963 0.0649609,1.39371 0.396852,2.0693 0.239765,0.488978 0.581105,0.985043 1.08544,1.37008 0.450002,0.343702 0.944886,0.588191 1.513,0.738192 0.598821,0.158268 1.18229,0.178347 1.74804,0.1063 0.673231,-0.0862208 1.26142,-0.316537 1.77048,-0.622443 0.59764,-0.360238 1.05709,-0.849216 1.4126,-1.37599zm-8.48035 -15.7205c-0.83268,0 -1.71261,-0.150001 -2.46379,-0.607089 -0.664963,-0.406301 -1.13622,-0.930712 -1.4126,-1.52835 -0.271655,-0.588191 -0.39449,-1.17993 -0.399214,-1.76339 -0.00472443,-0.601183 0.099213,-1.18229 0.28819,-1.73505 0.184253,-0.536223 0.457088,-1.0441 0.845673,-1.48347 0.359056,-0.40512 0.831499,-0.747641 1.45158,-0.911815 0.685042,-0.18189 1.42087,-0.0767719 2.1378,0.261025l0.535041 0.251576 -0.00472443 0.442915c-0.00708664,0.69331 -0.00944886,1.38898 -0.0200788,2.08229 -0.0129922,0.779531 -0.0377954,1.55906 -0.0803153,2.33505 -0.0377954,0.734648 -0.099213,1.46457 -0.197245,2.18623l-0.0649609 0.470081 -0.615357 0z"/>
    <path id="_424015888" class="fil0" d="M166.018 288.507c-0.340159,-0.240946 -0.611813,-0.546852 -0.826775,-0.868114 -0.44764,-0.667325 -0.67205,-1.4752 -0.813783,-2.17206 -0.212599,-1.04528 -0.230316,-2.14017 -0.230316,-3.16419l-0.0118111 -18.0343c0,-0.289371 0.0259844,-0.570475 0.055512,-0.852759 -0.53386,-0.148819 -1.07245,-0.269292 -1.61457,-0.366143 -0.866932,-0.154725 -1.73623,-0.258662 -2.59844,-0.327167 -0.890555,-0.0685042 -1.77638,-0.1063 -2.65277,-0.1063 -1.90749,0 -3.8882,0.128741 -5.61144,0.568112 -1.3689,0.348427 -2.59135,0.884649 -3.54686,1.68072 -0.96024,0.799609 -1.6252,1.78229 -2.0752,2.85946 -0.550396,1.31812 -0.852759,2.75434 -1.0252,4.18584 -0.201969,1.67953 -0.359056,3.37206 -0.440553,5.07758 -0.0649609,1.33819 -0.141733,2.67403 -0.22441,4.00986 -0.0625987,1.00867 -0.187796,2.03741 -0.468899,2.99292 -0.226773,0.774806 -0.635436,1.50591 -1.3441,2.0315 -0.601183,0.445277 -1.38426,0.670869 -2.24765,0.744097 -0.0755908,0.276379 -0.137008,0.557482 -0.185434,0.840948 -0.0614176,0.368505 -0.1063,0.740554 -0.119292,1.11969 -0.0259844,0.790161 0.0625987,1.65237 0.406301,2.46143 0.250395,0.588191 0.6189,1.16693 1.17166,1.65946 0.466537,0.418112 1.00394,0.742916 1.63229,0.963783 0.641341,0.226773 1.29095,0.335434 1.93938,0.333072 0.9815,-0.00354332 1.84016,-0.201969 2.54883,-0.636617 0.755908,-0.466537 1.29804,-1.09607 1.68544,-1.79883 0.473624,-0.862208 0.798428,-1.7941 1.0063,-2.75316 0.233859,-1.08898 0.387403,-2.20276 0.475986,-3.32718 0.0921263,-1.15867 0.151182,-2.32442 0.187796,-3.4949 0.0318899,-1.05945 0.0484254,-2.12127 0.0460632,-3.18663 -0.00236221,-1.01103 0.00826775,-2.01851 0.0377954,-3.02363 0.0342521,-1.13386 0.133465,-2.27127 0.369686,-3.35907 0.186615,-0.856303 0.519687,-1.71851 1.14922,-2.38347 0.607089,-0.64016 1.48701,-1.03583 2.63033,-0.979138 0.838586,0.0413387 1.08544,0.69331 1.12441,1.19528 0.0318899,0.398033 0.0307088,0.798428 0.0236221,1.19174 -0.01063,0.537404 -0.0307088,1.07363 -0.0507876,1.60985 -0.0377954,1.02756 -0.0838586,2.05276 -0.140552,3.0756 -0.0649609,1.16693 -0.133465,2.33151 -0.204331,3.49608 -0.0732286,1.21418 -0.167717,2.42599 -0.233859,3.64253 -0.0732286,1.37835 -0.0637798,2.7697 -0.00236221,4.16813 0.0507876,1.14685 0.194883,2.33387 0.536223,3.49726 0.21378,0.732286 0.588191,1.57205 1.27323,2.19095 0.575199,0.518506 1.33111,0.666144 2.08702,0.67205 1.11142,0.00708664 2.0941,-0.200788 2.94686,-0.637798 0.920082,-0.471262 1.59568,-1.17166 2.09765,-1.94056 0.571656,-0.874019 0.96024,-1.85788 1.2378,-2.85592z"/>
    <path id="_424015816" class="fil0" d="M107.376 286.346c-2.10119,2.10355 -2.08583,6.98152 -1.86851,9.81854 0.0295277,0.385041 0.137008,0.888192 0.462994,1.24489 0.258662,0.279922 0.566931,0.475986 0.964964,0.604727 0.509057,0.164174 1.03465,0.242127 1.54607,0.258662 0.59764,0.0188977 1.18229,-0.0118111 1.74804,-0.0862208 0.50197,-0.066142 1.00394,-0.157087 1.4693,-0.289371 0.119292,-0.0342521 0.348427,-0.099213 0.518506,-0.168898 0.0354332,-0.382679 0.0543309,-0.767719 0.0578742,-1.1563 0.00354332,-0.529136 0.00472443,-1.05827 -0.0129922,-1.58977 -0.0129922,-0.429923 -0.0318899,-0.859846 -0.0566931,-1.29095 -0.0118111,-0.184253 -0.0354332,-0.401576 -0.0283466,-0.583467l0.0165355 -0.518506 0.666144 0c0.219686,0 0.440553,0 0.660239,0 0.577561,0 1.15158,-0.00826775 1.72914,-0.00826775 0.814964,0 1.63111,0 2.44607,0 0.935437,0 1.86969,0 2.80513,0 0.936618,0 1.87324,0.00354332 2.80985,0.00826775 0.819688,0.00472443 1.64056,0.0153544 2.46143,0.0259844 0.585829,0.00708664 1.17402,0.00826775 1.76221,0.0259844 0.494884,0.0141733 1.10788,-0.00118111 1.47756,0.420474l0.180709 0.205513 0.00118111 0.22441c0,0.172442 -0.0318899,0.369686 -0.0448821,0.540947 -0.0295277,0.402757 -0.0578742,0.805515 -0.0862208,1.20945 -0.0342521,0.475986 -0.0685042,0.951972 -0.0944886,1.43032 -0.0200788,0.380316 -0.0460632,0.762995 -0.0366143,1.1504 0.0177166,0.0295277 0.0980319,0.0814964 0.129922,0.102756 0.276379,0.179528 0.674412,0.308269 0.994492,0.39449 0.532679,0.142914 1.08662,0.207875 1.61694,0.233859 0.633073,0.0318899 1.24252,-0.00826775 1.82481,-0.120473 0.525593,-0.101575 1.07245,-0.26693 1.46103,-0.539766 0.324804,-0.227954 0.552758,-0.5126 0.689766,-0.850397 0.863389,-2.12835 0.516144,-6.9768 0.112205,-9.36382 -0.0767719,-0.454726 -0.157087,-0.911815 -0.250395,-1.3689 -0.105119,0.00236221 -0.210237,0.00354332 -0.314174,0.00472443 -0.382679,0.00472443 -0.764176,0.0129922 -1.14922,0.00826775 -0.407482,-0.00472443 -0.816145,-0.0165355 -1.22717,-0.0448821l-0.869295 -0.0614176 -0.0767719 -0.680318c-0.0767719,-0.677955 -0.0933074,-1.3689 -0.107481,-2.03977 -0.0236221,-1.07126 -0.0248032,-2.14135 -0.0200788,-3.20789 0.00590553,-1.34528 0.033071,-2.6882 0.0602365,-4.02876 0.0307088,-1.49882 0.0744097,-2.99411 0.12756,-4.48939 0.0531498,-1.53071 0.114567,-3.06143 0.187796,-4.58978 0.0602365,-1.26969 0.134646,-2.53702 0.216143,-3.80316 -0.331891,-0.0968508 -0.681499,-0.170079 -0.989768,-0.229135 -0.81142,-0.154725 -1.63229,-0.257481 -2.44253,-0.334253 -0.948429,-0.0909452 -1.89095,-0.151182 -2.82993,-0.184253 -0.93898,-0.0318899 -1.87324,-0.0366143 -2.80277,-0.0248032 -0.799609,0.0118111 -1.59804,0.0425198 -2.37993,0.108662 -1.22835,0.102756 -2.47206,0.311812 -3.51143,0.740554 -0.895279,0.369686 -1.62284,0.870476 -2.17914,1.52363 -0.617719,0.7252 -1.03583,1.56851 -1.3193,2.44371 -0.364962,1.1315 -0.58701,2.32324 -0.742916,3.51261 -0.236221,1.78938 -0.445277,3.58702 -0.600002,5.39648 -0.139371,1.63347 -0.274017,3.26812 -0.403939,4.90277 -0.121654,1.55079 -0.284647,3.09332 -0.484254,4.6264l-0.055512 0.427561 -0.548034 0.0413387c-0.679136,0.0507876 -1.3689,0.0720475 -2.06576,0.0625987 -0.53386,-0.00708664 -1.07008,-0.0259844 -1.60631,-0.0460632zm17.7473 -16.5816c-0.0200788,0.532679 -0.0484254,1.063 -0.0767719,1.59331 -0.0472443,0.88583 -0.099213,1.77166 -0.147638,2.65749 -0.0602365,1.13859 -0.119292,2.27599 -0.175985,3.41458 -0.0649609,1.28741 -0.12756,2.57363 -0.178347,3.8634 -0.0531498,1.33465 -0.101575,2.67284 -0.148819,4.0075l-0.0425198 1.16457c-1.93111,-0.0484254 -3.80553,0.0236221 -5.71892,0.0472443l0.0909452 -1.47993c0.0673231,-1.11378 0.142914,-2.22639 0.18189,-3.34489 0.0389765,-1.17874 0.100394,-2.35395 0.164174,-3.52915 0.0625987,-1.13386 0.170079,-2.25946 0.331891,-3.37324 0.144095,-0.987405 0.372049,-1.96182 0.726381,-2.88544 0.29882,-0.780712 0.741735,-1.52363 1.41969,-2.10709 0.646065,-0.553939 1.50709,-0.859846 2.56182,-0.848035l1.0441 0.01063 -0.0318899 0.809058z"/>
    <path id="_424015720" class="fil0" d="M214.045 286.346c-2.10119,2.10355 -2.08583,6.98152 -1.86851,9.81854 0.0295277,0.385041 0.137008,0.888192 0.462994,1.24489 0.258662,0.279922 0.566931,0.475986 0.964964,0.604727 0.509057,0.164174 1.03465,0.242127 1.54607,0.258662 0.59764,0.0188977 1.18229,-0.0118111 1.74804,-0.0862208 0.50197,-0.066142 1.00394,-0.157087 1.4693,-0.289371 0.119292,-0.0342521 0.348427,-0.099213 0.518506,-0.168898 0.0354332,-0.382679 0.0543309,-0.767719 0.0578742,-1.1563 0.00354332,-0.529136 0.00472443,-1.05827 -0.0129922,-1.58977 -0.0129922,-0.429923 -0.0318899,-0.859846 -0.0566931,-1.29095 -0.0118111,-0.184253 -0.0354332,-0.401576 -0.0283466,-0.583467l0.0165355 -0.518506 0.666144 0c0.219686,0 0.440553,0 0.660239,0 0.577561,0 1.15158,-0.00826775 1.72796,-0.00826775 0.816145,0 1.63229,0 2.44725,0 0.935437,0 1.86969,0 2.80513,0 0.936618,0 1.87324,0.00354332 2.80985,0.00826775 0.819688,0.00472443 1.64056,0.0153544 2.46143,0.0259844 0.585829,0.00708664 1.17402,0.00826775 1.76221,0.0259844 0.494884,0.0141733 1.10788,-0.00118111 1.47756,0.420474l0.180709 0.205513 0.00118111 0.22441c0,0.172442 -0.0318899,0.369686 -0.0448821,0.540947 -0.0295277,0.402757 -0.0578742,0.805515 -0.0862208,1.20945 -0.0342521,0.475986 -0.0685042,0.951972 -0.0944886,1.43032 -0.0200788,0.380316 -0.0460632,0.762995 -0.0366143,1.1504 0.0177166,0.0295277 0.0980319,0.0814964 0.129922,0.102756 0.276379,0.179528 0.674412,0.308269 0.994492,0.39449 0.532679,0.142914 1.08662,0.207875 1.61694,0.233859 0.633073,0.0318899 1.24252,-0.00826775 1.82481,-0.120473 0.525593,-0.101575 1.07245,-0.26693 1.46103,-0.539766 0.324804,-0.227954 0.552758,-0.5126 0.689766,-0.850397 0.863389,-2.12835 0.516144,-6.9768 0.112205,-9.36382 -0.0767719,-0.454726 -0.157087,-0.911815 -0.250395,-1.3689 -0.105119,0.00236221 -0.210237,0.00354332 -0.314174,0.00472443 -0.382679,0.00472443 -0.764176,0.0129922 -1.14922,0.00826775 -0.407482,-0.00472443 -0.816145,-0.0165355 -1.22717,-0.0448821l-0.869295 -0.0614176 -0.0767719 -0.680318c-0.0767719,-0.677955 -0.0933074,-1.3689 -0.107481,-2.03977 -0.0236221,-1.07126 -0.0248032,-2.14135 -0.0200788,-3.20789 0.00590553,-1.34528 0.033071,-2.6882 0.0602365,-4.02876 0.0307088,-1.49882 0.0744097,-2.99411 0.12756,-4.48939 0.0519687,-1.53071 0.114567,-3.06143 0.187796,-4.58978 0.0602365,-1.26969 0.134646,-2.53702 0.216143,-3.80316 -0.331891,-0.0968508 -0.681499,-0.170079 -0.989768,-0.229135 -0.81142,-0.154725 -1.63229,-0.257481 -2.44253,-0.334253 -0.948429,-0.0909452 -1.89095,-0.151182 -2.82993,-0.184253 -0.93898,-0.0318899 -1.87324,-0.0366143 -2.80277,-0.0248032 -0.799609,0.0118111 -1.59804,0.0425198 -2.37993,0.108662 -1.22835,0.102756 -2.47206,0.311812 -3.51143,0.740554 -0.895279,0.369686 -1.62284,0.870476 -2.17914,1.52363 -0.617719,0.7252 -1.03701,1.56851 -1.3193,2.44371 -0.364962,1.1315 -0.58701,2.32324 -0.742916,3.51261 -0.236221,1.78938 -0.445277,3.58702 -0.600002,5.39648 -0.139371,1.63347 -0.274017,3.26812 -0.403939,4.90277 -0.121654,1.55079 -0.284647,3.09332 -0.484254,4.6264l-0.055512 0.427561 -0.548034 0.0413387c-0.679136,0.0507876 -1.3689,0.0720475 -2.06576,0.0625987 -0.53386,-0.00708664 -1.07008,-0.0259844 -1.60631,-0.0460632zm17.7473 -16.5816c-0.0200788,0.532679 -0.0484254,1.063 -0.0767719,1.59331 -0.0472443,0.88583 -0.099213,1.77166 -0.147638,2.65749 -0.0602365,1.13859 -0.119292,2.27599 -0.175985,3.41458 -0.0649609,1.28741 -0.12756,2.57363 -0.178347,3.8634 -0.0531498,1.33465 -0.101575,2.67284 -0.148819,4.0075l-0.0425198 1.16457c-1.93111,-0.0484254 -3.80553,0.0236221 -5.71892,0.0472443l0.0909452 -1.47993c0.0673231,-1.11378 0.142914,-2.22639 0.18189,-3.34489 0.0389765,-1.17874 0.100394,-2.35395 0.164174,-3.52915 0.0625987,-1.13386 0.170079,-2.25946 0.331891,-3.37324 0.144095,-0.987405 0.372049,-1.96182 0.726381,-2.88544 0.29882,-0.780712 0.741735,-1.52363 1.41969,-2.10709 0.646065,-0.553939 1.50709,-0.859846 2.56182,-0.848035l1.0441 0.01063 -0.0318899 0.809058z"/>
    <path id="_424015624" class="fil0" d="M331.303 292.205c-0.115748,-0.393309 -0.214961,-0.786617 -0.285828,-1.17756 -0.0803153,-0.435828 -0.134646,-0.871657 -0.164174,-1.30276 -0.0354332,-0.478348 -0.043701,-0.954334 -0.0472443,-1.42914 -0.00590553,-0.612994 -0.0165355,-1.22599 -0.0212599,-1.84016 -0.0188977,-1.8378 -0.043701,-3.67797 -0.0708664,-5.51813 -0.0259844,-1.72678 -0.0921263,-3.46182 -0.211418,-5.20278 -0.108662,-1.56024 -0.290552,-3.1323 -0.588191,-4.70671 -0.24567,-1.29922 -0.569294,-2.67166 -1.1752,-3.95671 -0.446458,-0.947248 -1.12441,-1.8567 -2.08229,-2.60434 -0.798428,-0.622443 -1.69253,-1.09016 -2.70946,-1.37363 -1.08071,-0.302363 -2.17206,-0.427561 -3.2386,-0.408663 -1.20945,0.0200788 -2.36694,0.180709 -3.46891,0.442915 -1.17638,0.279922 -2.28426,0.662601 -3.32245,1.12914 -0.936618,0.420474 -1.82245,0.901185 -2.6197,1.45985 -0.114567,1.28623 -0.249214,2.57127 -0.427561,3.84332 -0.166536,1.17638 -0.354332,2.34686 -0.566931,3.51143 -0.197245,1.09252 -0.403939,2.1815 -0.62953,3.26694 -0.230316,1.11024 -0.455907,2.22284 -0.677955,3.33545 -0.248032,1.24016 -0.471262,2.48623 -0.683861,3.73584 -0.252757,1.47402 -0.475986,2.95513 -0.669688,4.44451 -0.141733,1.09134 -0.178347,2.33387 0.153544,3.4819 0.200788,0.694491 0.553939,1.48347 1.20473,2.0693 0.511419,0.460632 1.10433,0.747641 1.81654,0.878744 0.889373,0.162993 1.78465,0.0543309 2.56182,-0.13819 1.04174,-0.257481 1.99253,-0.713389 2.82875,-1.22245 0.01063,-0.24567 0.0236221,-0.49134 0.0354332,-0.73583 0.0212599,-0.462994 0.043701,-0.923626 0.0755908,-1.38426 0.033071,-0.458269 0.0732286,-0.914177 0.126378,-1.36772 0.0389765,-0.327167 0.088583,-0.685042 0.193702,-0.993311l0.131103 -0.379135 0.527955 0c0.261025,0 0.520868,0.00118111 0.784255,0.00708664 0.372049,0.00944886 0.741735,0.00944886 1.1126,0.0177166 0.389765,0.00826775 0.777168,0.00826775 1.16575,0.0165355 0.301182,0.00708664 0.598821,0.00944886 0.897641,0.00944886l1.05119 0 -0.0283466 0.818507c-0.00590553,0.165355 -0.0248032,0.334253 -0.0342521,0.499608 -0.0236221,0.367324 -0.00354332,0.753546 0.0200788,1.12914 0.0295277,0.453545 0.11693,0.911815 0.250395,1.37127 0.109843,0.382679 0.282285,0.778349 0.563388,1.1315 0.340159,0.422836 0.778349,0.767719 1.33583,1.00867 0.575199,0.246851 1.17756,0.360238 1.77757,0.380316 0.713389,0.0236221 1.39016,-0.0637798 2.02087,-0.233859 0.695672,-0.187796 1.32166,-0.475986 1.86497,-0.836224 0.500789,-0.331891 0.90709,-0.7252 1.22363,-1.17756zm-14.1036 -10.0701c0.0980319,-0.637798 0.179528,-1.27914 0.242127,-1.9252 0.0744097,-0.762995 0.134646,-1.52953 0.191339,-2.29725 0.055512,-0.764176 0.108662,-1.52953 0.158268,-2.29607 0.0425198,-0.648428 0.0862208,-1.29567 0.13819,-1.94174 0.0354332,-0.413387 0.0673231,-0.83268 0.121654,-1.24252l0.0283466 -0.212599c0.00472443,-0.24567 0.0188977,-2.69174 0.0814964,-2.72836 4.12679,0.200788 4.01694,5.87246 4.04765,8.06105 0.0118111,0.869295 0.0200788,1.73977 0.0165355,2.60788 -0.00354332,0.768901 -0.00472443,1.53898 0.00354332,2.31025l0.00590553 0.540947 -5.1697 0 0.134646 -0.876381z"/>
    <path id="_424015648" class="fil0" d="M272.549 264.235c0.0484254,0.487797 0.0968508,0.975594 0.139371,1.46221 0.0519687,0.570475 0.0838586,1.13977 0.111024,1.70788 0.0318899,0.664963 0.0448821,1.32875 0.0484254,1.98898 0.00590553,0.89646 -0.0118111,1.79056 -0.0342521,2.68229 -0.0318899,1.26851 -0.0791342,2.53584 -0.133465,3.8008 -0.0767719,1.78111 -0.155906,3.56222 -0.240946,5.34215 -0.114567,2.4378 -0.232678,4.87443 -0.354332,7.31223 -0.0496065,0.989768 0.0118111,2.07757 0.379135,3.09804 0.227954,0.62953 0.602365,1.30985 1.26142,1.79528 0.57638,0.424017 1.25315,0.566931 1.9441,0.566931 0.83268,-0.00118111 1.54134,-0.230316 2.14607,-0.585829 0.759452,-0.445277 1.28741,-1.08189 1.66654,-1.77284 0.480711,-0.877562 0.675593,-1.88623 0.709845,-2.89844 0.0236221,-0.674412 0.0141733,-1.35945 0.00472443,-2.03741 -0.0129922,-0.993311 -0.0366143,-1.98662 -0.0673231,-2.98229 -0.0377954,-1.16693 -0.0803153,-2.33505 -0.129922,-3.50434 -0.0519687,-1.21182 -0.103937,-2.42481 -0.157087,-3.63663 -0.0496065,-1.11496 -0.0980319,-2.22993 -0.152363,-3.34608 -0.043701,-0.882287 -0.0909452,-1.76457 -0.137008,-2.64804l-0.0307088 -0.583467c2.5819,0.0685042 3.45474,12.2552 3.71812,15.1501 0.105119,1.1693 0.220867,2.34095 0.355513,3.51379 0.0921263,0.805515 0.188977,1.63347 0.3626,2.44371 0.0814964,0.381498 0.21378,0.764176 0.379135,1.14213 0.148819,0.34134 0.355513,0.659058 0.644884,0.959059 0.26693,0.27756 0.6189,0.470081 1.00394,0.6189 0.546852,0.212599 1.2189,0.26693 1.7693,0.269292 0.439372,0.00236221 0.859846,-0.088583 1.2378,-0.211418 0.487797,-0.160631 0.909452,-0.422836 1.26733,-0.713389 0.462994,-0.375592 0.81142,-0.835043 1.07481,-1.32756 0.34134,-0.635436 0.520868,-1.36064 0.611813,-2.07757 0.103937,-0.820869 0.206694,-1.64174 0.32008,-2.46025 0.146457,-1.03819 0.29882,-2.07639 0.452364,-3.11222 0.406301,-2.7567 1.22835,-13.3382 4.06655,-13.9441l-0.0188977 0.588191c-0.0566931,1.95119 -0.139371,3.89765 -0.26693,5.83585 -0.115748,1.77757 -0.230316,3.55513 -0.361419,5.32915 -0.108662,1.47284 -0.209056,2.94922 -0.28819,4.42797 -0.055512,1.04292 -0.0507876,2.08583 -0.0283466,3.14174 0.0118111,0.497246 0.0460632,0.994492 0.137008,1.50119 0.088583,0.497246 0.271655,0.990949 0.556301,1.47284 0.240946,0.408663 0.582286,0.734648 1.06063,1.00158 0.56575,0.316537 1.32048,0.393309 1.92402,0.395671 0.670869,0.00118111 1.29331,-0.101575 1.87914,-0.278741 0.58701,-0.177166 1.12087,-0.420474 1.57914,-0.740554 0.3626,-0.253938 0.660239,-0.551577 0.872838,-0.901185 -0.119292,-1.21536 -0.171261,-2.42836 -0.197245,-3.63308 -0.0318899,-1.47875 -0.0307088,-2.95395 -0.00708664,-4.42325 0.0248032,-1.56024 0.055512,-3.1193 0.101575,-4.676 0.0460632,-1.51536 0.088583,-3.03072 0.128741,-4.54726 0.0354332,-1.33701 0.0673231,-2.67403 0.0696853,-4.01694 0,-1.02166 -0.00708664,-2.05749 -0.0944886,-3.09096 -0.0696853,-0.819688 -0.281103,-1.6819 -0.760633,-2.48505 -0.359056,-0.601183 -0.845673,-1.15985 -1.51064,-1.60867 -0.59764,-0.401576 -1.24371,-0.667325 -1.963,-0.809058 -0.780712,-0.153544 -1.53662,-0.135827 -2.24647,-0.00354332 -0.861027,0.160631 -1.61221,0.511419 -2.25001,0.93898 -0.813783,0.545671 -1.43386,1.25434 -1.91576,2.01615 -0.614176,0.968508 -0.986224,2.06339 -1.1941,3.1819 -0.197245,1.06654 -0.39449,2.13426 -0.600002,3.19844 -0.210237,1.08662 -0.419293,2.17324 -0.636617,3.25749 -0.20315,1.01575 -0.408663,2.0315 -0.6189,3.04489 -0.177166,0.846854 -0.359056,1.69253 -0.536223,2.53938 -0.122835,0.592916 -0.244489,1.18819 -0.377954,1.77993l-0.954334 4.24135 -0.733467 -4.52954c-0.102756,-0.627168 -0.159449,-1.25906 -0.21378,-1.88032 -0.0838586,-0.950791 -0.157087,-1.90158 -0.229135,-2.85119 -0.0850397,-1.12796 -0.173623,-2.25591 -0.271655,-3.38505 -0.099213,-1.14804 -0.206694,-2.29607 -0.334253,-3.44647 -0.111024,-1.00276 -0.249214,-2.00788 -0.427561,-3.01418 -0.118111,-0.669688 -0.258662,-1.40788 -0.509057,-2.07639 -0.240946,-0.643703 -0.634254,-1.34882 -1.30276,-1.85079 -0.589372,-0.442915 -1.26024,-0.738192 -2.00316,-0.902366 -0.889373,-0.197245 -1.78701,-0.262206 -2.65395,-0.237402 -0.982681,0.0283466 -1.94056,0.139371 -2.86182,0.315356 -0.892917,0.171261 -1.77048,0.375592 -2.60907,0.634254 -0.526774,0.161812 -1.06536,0.334253 -1.56969,0.53386z"/>
   </g>
   <g>
    <path id="_424015480" class="fil0" d="M409.361 233.982c-0.168898,-0.572837 -0.314174,-1.14685 -0.418112,-1.71969 -0.115748,-0.635436 -0.194883,-1.27087 -0.239765,-1.9004 -0.0496065,-0.698034 -0.0625987,-1.39371 -0.0685042,-2.08583 -0.00826775,-0.894098 -0.0236221,-1.79056 -0.0307088,-2.68584 -0.0271655,-2.68347 -0.0637798,-5.36813 -0.102756,-8.05397 -0.0377954,-2.52166 -0.134646,-5.05396 -0.30945,-7.59452 -0.158268,-2.27717 -0.424017,-4.57206 -0.858665,-6.87168 -0.357875,-1.89568 -0.831499,-3.89765 -1.71497,-5.77443 -0.65079,-1.3819 -1.64056,-2.70946 -3.03781,-3.79962 -1.16693,-0.910633 -2.47206,-1.59213 -3.95553,-2.0067 -1.57914,-0.441734 -3.17127,-0.623624 -4.72679,-0.596459 -1.76575,0.0295277 -3.45592,0.264568 -5.06459,0.647247 -1.71615,0.407482 -3.33308,0.967327 -4.84844,1.64764 -1.36772,0.614176 -2.66103,1.31693 -3.82442,2.13072 -0.167717,1.87796 -0.363781,3.75356 -0.624806,5.61026 -0.242127,1.71615 -0.516144,3.42521 -0.825594,5.126 -0.289371,1.59331 -0.590553,3.18308 -0.920082,4.76695 -0.336615,1.62048 -0.663782,3.2445 -0.989768,4.8697 -0.3626,1.80827 -0.686223,3.62836 -0.998035,5.45199 -0.368505,2.1508 -0.694491,4.3134 -0.976775,6.48782 -0.206694,1.59213 -0.261025,3.40749 0.22441,5.0823 0.291733,1.01339 0.807877,2.16497 1.75749,3.02009 0.74646,0.67205 1.61221,1.09016 2.65158,1.2815 1.29804,0.239765 2.60552,0.0803153 3.73938,-0.199607 1.52008,-0.376773 2.90789,-1.04174 4.12915,-1.78583 0.0153544,-0.359056 0.0342521,-0.715751 0.0507876,-1.07481 0.0318899,-0.674412 0.0637798,-1.34764 0.112205,-2.01969 0.0472443,-0.667325 0.105119,-1.33465 0.184253,-1.99607 0.055512,-0.478348 0.128741,-0.999216 0.282285,-1.44922l0.191339 -0.55512 0.770082 0c0.380316,0 0.760633,0.00354332 1.14449,0.0118111 0.543309,0.0141733 1.08308,0.0141733 1.62402,0.0259844 0.568112,0.0129922 1.13386,0.0118111 1.70198,0.0248032 0.439372,0.00944886 0.874019,0.0118111 1.30985,0.0118111l1.53544 0 -0.0425198 1.19646c-0.00826775,0.240946 -0.0354332,0.486616 -0.0507876,0.728743 -0.033071,0.536223 -0.00472443,1.09961 0.0307088,1.64764 0.0425198,0.662601 0.170079,1.33111 0.364962,2.00198 0.161812,0.557482 0.412206,1.13622 0.823232,1.65001 0.494884,0.6189 1.13622,1.12205 1.94883,1.47284 0.838586,0.361419 1.71851,0.526774 2.59489,0.55512 1.04056,0.0342521 2.03032,-0.0921263 2.94922,-0.340159 1.01693,-0.274017 1.92875,-0.695672 2.72245,-1.22008 0.731105,-0.484254 1.32402,-1.05945 1.78583,-1.71969zm-20.5855 -14.6989c0.142914,-0.930712 0.261025,-1.86733 0.353151,-2.80985 0.108662,-1.11378 0.197245,-2.23229 0.278741,-3.35198 0.0826775,-1.11733 0.158268,-2.23347 0.231497,-3.35198 0.0614176,-0.946067 0.125197,-1.89213 0.201969,-2.83584 0.0507876,-0.602365 0.0968508,-1.21418 0.177166,-1.81182l0.0413387 -0.310631c0.00826775,-0.359056 0.0283466,-3.92954 0.119292,-3.98269 6.02365,0.292915 5.8642,8.57247 5.9079,11.765 0.0177166,1.27087 0.0295277,2.54056 0.0236221,3.80789 -0.00472443,1.12205 -0.00590553,2.24647 0.00472443,3.37206l0.00826775 0.788979 -7.54491 0 0.197245 -1.27914z"/>
    <path id="_424015408" class="fil0" d="M336.397 192.855c0.0744097,1.32875 0.141733,2.65631 0.187796,3.98151 0.043701,1.24489 0.0814964,2.49095 0.099213,3.73348 0.0165355,1.14449 0.00472443,2.28544 -0.00826775,3.42639 -0.0141733,1.20119 -0.0472443,2.39883 -0.0862208,3.59647 -0.0460632,1.40788 -0.0874019,2.81576 -0.145276,4.22128 -0.0732286,1.76694 -0.154725,3.53269 -0.211418,5.30199 -0.0366143,1.15985 -0.0826775,2.31497 -0.153544,3.46655 -0.0779531,1.2756 -0.150001,2.55355 -0.226773,3.82915 -0.0732286,1.22953 -0.133465,2.46143 -0.172442,3.69805 -0.0318899,1.00276 -0.043701,2.01733 0.0248032,3.03544 0.0685042,1.03111 0.292915,2.28662 0.937799,3.30001 0.382679,0.600002 0.905909,1.1941 1.66182,1.55906 0.728743,0.35197 1.4941,0.522049 2.27599,0.549215 0.9815,0.0342521 1.90631,-0.0720475 2.78505,-0.285828 0.944886,-0.230316 1.82599,-0.553939 2.62796,-0.967327 0.616538,-0.317718 1.19292,-0.69331 1.663,-1.13741 0.0413387,-1.11378 0.0814964,-2.22521 0.113386,-3.33899 0.0413387,-1.47402 0.0850397,-2.94686 0.11693,-4.42206 0.0342521,-1.50827 0.0614176,-3.01773 0.0744097,-4.53073 0.0118111,-1.29331 0.0354332,-2.58781 0.0153544,-3.88702l-0.01063 -0.702759 0.868114 -0.0826775c1.08071,-0.103937 2.34922,-0.107481 3.4819,0.243308 1.29331,0.399214 2.10591,1.26378 2.57363,2.24647 0.561026,1.18229 0.727562,2.67757 0.807877,3.85868 0.145276,2.113 0.107481,4.23899 0.0543309,6.32365 -0.0307088,1.17874 0.0732286,2.63741 0.674412,3.83742 0.354332,0.706302 0.8752,1.44213 1.69489,1.92875 0.754727,0.44764 1.56497,0.689766 2.42954,0.773625 1.05945,0.103937 2.08347,0.0413387 3.04844,-0.145276 1.05827,-0.20315 2.04331,-0.524411 2.94804,-0.946067 0.688585,-0.321261 1.33347,-0.70394 1.87087,-1.16339 -0.308269,-1.29804 -0.473624,-2.59371 -0.536223,-3.87285 -0.0708664,-1.47402 -0.0980319,-2.94096 -0.0732286,-4.39962 0.0212599,-1.32756 0.00472443,-2.66103 -0.0519687,-3.99923 -0.0425198,-1.00512 -0.200788,-2.03268 -0.548034,-3.05198 -0.29882,-0.881106 -0.765357,-1.72914 -1.45394,-2.52403 -2.31497,-2.67993 -7.22837,-3.09568 -9.7524,-3.25513 6.12168,-1.40315 8.16145,-5.10947 9.89649,-9.70043 0.575199,-1.52008 0.943704,-3.10985 1.10788,-4.74923 0.150001,-1.48111 0.0803153,-3.02954 -0.381498,-4.57325 -0.216143,-0.720475 -0.612994,-1.66772 -1.29567,-2.27717 -0.448821,-0.399214 -0.953153,-0.662601 -1.5756,-0.774806 -0.790161,-0.144095 -1.57087,-0.140552 -2.30552,-0.0377954 -0.924807,0.129922 -1.82009,0.331891 -2.67639,0.583467 -0.675593,0.198426 -1.34882,0.400395 -2.01733,0.609451 -0.152363,1.17166 -0.244489,2.35985 -0.308269,3.54923 -0.0814964,1.53662 -0.200788,3.06497 -0.338978,4.58978 -0.137008,1.52008 -0.380316,3.02245 -0.766538,4.47994 -0.35197,1.32993 -0.898822,2.61379 -1.76457,3.72757 -0.818507,1.05591 -1.98426,1.8319 -3.5445,2.19922l-1.74686 0.409844 -0.0637798 -1.51418c-0.0531498,-1.28386 -0.00944886,-2.56182 0.0578742,-3.82561 0.0838586,-1.57205 0.139371,-3.14883 0.177166,-4.72797 0.0389765,-1.71615 -0.00708664,-3.44411 -0.21378,-5.19096 -0.111024,-0.931893 -0.39449,-2.12835 -1.08544,-3.00946 -0.41575,-0.530317 -0.941342,-0.974413 -1.66654,-1.22835 -0.797247,-0.279922 -1.60276,-0.380316 -2.39883,-0.353151 -0.9815,0.0342521 -1.92875,0.147638 -2.82875,0.3626 -0.89646,0.214961 -1.76812,0.466537 -2.60198,0.770082 -0.420474,0.153544 -0.850397,0.310631 -1.26378,0.483073z"/>
    <path id="_424015336" class="fil0" d="M293.656 192.451c0.055512,0.579923 0.115748,1.15985 0.170079,1.73859 0.0708664,0.721656 0.121654,1.44095 0.171261,2.16024 0.0566931,0.796066 0.0838586,1.59095 0.103937,2.38347 0.0259844,0.980319 0.0153544,1.95473 0,2.92915 -0.022441,1.35473 -0.0401576,2.71064 -0.0803153,4.06301 -0.0543309,1.8378 -0.112205,3.67442 -0.170079,5.51104 -0.0779531,2.45552 -0.129922,4.91695 -0.180709,7.37719 -0.0649609,3.22206 -0.102756,6.45002 -0.135827,9.67799 -0.0165355,1.64056 0.0543309,3.67915 0.664963,5.35868 0.290552,0.798428 0.803153,1.75512 1.7882,2.25828 1.06654,0.543309 2.54174,0.58701 3.62836,0.53386 1.2756,-0.0637798 2.30788,-0.441734 3.19962,-1.04646 1.11851,-0.762995 1.99489,-1.74095 2.69765,-2.77796 0.8752,-1.28741 1.57323,-2.66694 2.14961,-4.08781 0.641341,-1.57914 1.18583,-3.19489 1.65946,-4.83309 0.941342,-3.25159 2.99529,-13.7434 6.24215,-13.5284l-0.0318899 0.835043c-0.033071,0.918901 -0.0720475,1.83662 -0.114567,2.75434 -0.0602365,1.30512 -0.124016,2.60907 -0.18189,3.91537 -0.066142,1.45276 -0.139371,2.90434 -0.210237,4.35592 -0.0673231,1.3441 -0.131103,2.68938 -0.187796,4.03584 -0.0413387,0.998035 -0.0814964,1.99725 -0.122835,2.99647 -0.0460632,1.11851 -0.0637798,2.25473 0.022441,3.3945 0.0590553,0.768901 0.205513,1.62993 0.574018,2.40001 0.227954,0.473624 0.568112,0.865751 1.12914,1.15512 0.705121,0.364962 1.79292,0.432285 2.52521,0.428742 1.3193,-0.00472443 2.65749,-0.118111 3.83269,-0.44764 0.934256,-0.263387 1.83898,-0.616538 2.57009,-1.10906 0.451183,-0.303544 0.889373,-0.664963 1.18583,-1.08426 -0.129922,-0.788979 -0.137008,-1.6689 -0.161812,-2.42127 -0.0519687,-1.55552 -0.0602365,-3.10631 -0.0531498,-4.65356 0.00944886,-1.99961 0.033071,-3.99568 0.0696853,-5.99057 0.0401576,-2.22284 0.099213,-4.44332 0.164174,-6.66144 0.0649609,-2.21694 0.142914,-4.43151 0.225591,-6.64609 0.055512,-1.49056 0.122835,-2.98111 0.191339,-4.46931 0.0578742,-1.27205 0.114567,-2.5441 0.190158,-3.81379 0.055512,-0.972051 0.133465,-1.94174 0.180709,-2.91497 0.0496065,-1.02166 -0.055512,-2.22521 -0.611813,-3.2634 -0.350789,-0.656695 -0.86457,-1.23544 -1.67127,-1.61694 -0.924807,-0.438191 -2.02206,-0.550396 -2.98111,-0.55512 -1.33229,-0.00472443 -2.68702,0.108662 -3.8575,0.466537 -1.08071,0.33071 -1.92166,0.914177 -2.57599,1.63465 -0.894098,0.985043 -1.48229,2.2571 -1.89922,3.46301 -0.558664,1.61575 -1.09843,3.23741 -1.64292,4.85671 -0.612994,1.82245 -1.22008,3.6449 -1.80946,5.47443 -1.06418,3.30828 -3.20907,10.6689 -5.7449,10.8615l0.033071 -0.871657c0.0236221,-0.62953 0.0625987,-1.25788 0.0956697,-1.88741 0.0519687,-1.00512 0.113386,-2.00906 0.172442,-3.013 0.0696853,-1.22835 0.145276,-2.45552 0.219686,-3.68269 0.0779531,-1.28977 0.162993,-2.57836 0.240946,-3.86813 0.0732286,-1.19292 0.146457,-2.38584 0.217324,-3.57994 0.0543309,-0.93898 0.113386,-1.87796 0.162993,-2.81812 0.0283466,-0.530317 0.0637798,-1.06063 0.0850397,-1.59213 0.0377954,-1.04646 -0.0271655,-2.42363 -0.566931,-3.49135 -0.29882,-0.592916 -0.73583,-1.14685 -1.48347,-1.47284 -0.902366,-0.39449 -1.98426,-0.490159 -2.90316,-0.479529 -0.774806,0.01063 -1.54134,0.121654 -2.25591,0.270473 -0.883468,0.183072 -1.74331,0.406301 -2.59017,0.648428 -0.705121,0.20315 -1.40315,0.419293 -2.08583,0.654333 -0.0838586,0.0283466 -0.167717,0.0566931 -0.252757,0.0850397z"/>
    <path id="_424015264" class="fil0" d="M253.592 192.442c0.055512,0.713389 0.100394,1.42678 0.141733,2.14017 0.0484254,0.865751 0.0673231,1.72796 0.0720475,2.58781 0.00354332,1.01103 -0.00944886,2.01851 -0.0413387,3.02245 -0.043701,1.34646 -0.0956697,2.69174 -0.151182,4.03702 -0.0779531,1.88032 -0.147638,3.76301 -0.223229,5.64333 -0.103937,2.61615 -0.188977,5.23703 -0.281103,7.85554 -0.125197,3.55041 -0.227954,7.10436 -0.350789,10.6571 -0.0425198,1.24607 -0.0413387,2.50631 0.0342521,3.77127 0.0519687,0.856303 0.206694,1.80119 0.604727,2.66103 0.243308,0.524411 0.621262,0.956697 1.24961,1.26497 0.813783,0.396852 2.13426,0.441734 2.96458,0.432285 1.08308,-0.0129922 2.24056,-0.0874019 3.2197,-0.342521 0.71457,-0.186615 1.4315,-0.434647 2.00788,-0.787798 0.41575,-0.255119 0.859846,-0.552758 1.17048,-0.889373 0.183072,-0.197245 0.364962,-0.396852 0.537404,-0.601183 0.0708664,-1.25315 0.131103,-2.50867 0.183072,-3.76537 0.0696853,-1.67599 0.119292,-3.35789 0.164174,-5.0386 0.0531498,-1.8756 0.0909452,-3.75474 0.115748,-5.63506l0.01063 -0.772444 0.987405 0c0.91772,0 1.83072,-0.0909452 2.70946,-0.199607 1.00394,-0.125197 1.98426,-0.29882 2.94214,-0.513782l1.85788 -0.41575 -0.0602365 1.5815c-0.055512,1.44449 -0.102756,2.89135 -0.150001,4.33702 -0.0543309,1.63347 -0.0803153,3.27167 -0.124016,4.9075 -0.0342521,1.24961 -0.0425198,2.51103 0.033071,3.77718 0.0531498,0.856303 0.206694,1.80119 0.604727,2.66103 0.243308,0.524411 0.621262,0.956697 1.25079,1.26497 0.812602,0.396852 2.13308,0.441734 2.9634,0.432285 1.08308,-0.0129922 2.24174,-0.0874019 3.22088,-0.342521 0.71457,-0.186615 1.43032,-0.434647 2.00788,-0.787798 0.414569,-0.255119 0.861027,-0.552758 1.17048,-0.889373 0.184253,-0.197245 0.364962,-0.398033 0.538585,-0.602365 0.088583,-1.37363 0.155906,-2.75316 0.206694,-4.13387 0.0685042,-1.82835 0.134646,-3.65553 0.180709,-5.48742 0.0531498,-2.05394 0.0933074,-4.10907 0.135827,-6.1642 0.043701,-2.11654 0.0814964,-4.23427 0.119292,-6.35199 0.0342521,-2.02206 0.0779531,-4.04293 0.129922,-6.06144 0.0448821,-1.77402 0.0850397,-3.54805 0.151182,-5.31852 0.0507876,-1.36182 0.107481,-2.72363 0.187796,-4.08191 0.0602365,-1.01575 0.00944886,-2.40355 -0.602365,-3.43702 -0.377954,-0.637798 -0.90709,-1.21063 -1.7256,-1.54843 -0.941342,-0.388584 -1.95119,-0.524411 -2.91261,-0.516144 -1.12323,0.01063 -2.29607,0.125197 -3.24332,0.490159 -0.762995,0.294096 -1.42205,0.698034 -1.91103,1.23662 -0.458269,0.506695 -0.806696,1.07363 -1.02166,1.69843 -0.205513,0.596459 -0.350789,1.21536 -0.409844,1.85316 -0.0507876,0.537404 -0.0732286,1.07717 -0.0732286,1.62284 0.00354332,0.912996 -0.0295277,1.82245 -0.0519687,2.73072 -0.0295277,1.16457 -0.0637798,2.32914 -0.107481,3.49017 -0.0590553,1.56615 -0.118111,3.13348 -0.175985,4.69962l-0.0212599 0.570475 -0.667325 0.152363c-1.02756,0.233859 -2.08465,0.41575 -3.16655,0.545671 -1.03583,0.124016 -2.07993,0.227954 -3.13466,0.304726l-1.63229 0.119292 0.0307088 -1.30276c0.0377954,-1.65946 0.0708664,-3.31891 0.114567,-4.976 0.0366143,-1.44567 0.0897641,-2.88899 0.137008,-4.3323 0.0377954,-1.13622 0.0838586,-2.27245 0.152363,-3.40277 0.0614176,-1.01693 0.00944886,-2.40001 -0.603546,-3.43584 -0.377954,-0.637798 -0.90709,-1.21063 -1.7256,-1.54843 -0.940161,-0.388584 -1.94646,-0.527955 -2.9067,-0.516144 -0.752365,0.01063 -1.49528,0.118111 -2.18741,0.26693 -0.840948,0.184253 -1.66064,0.403939 -2.46379,0.647247 -0.66142,0.201969 -1.31339,0.416931 -1.95119,0.651971 -0.0755908,0.0283466 -0.154725,0.055512 -0.231497,0.0838586z"/>
    <path id="_424015192" class="fil0" d="M212.713 194.42c0.311812,1.47048 0.700396,2.94332 1.16575,4.41262 0.474805,1.49646 1.01457,2.99174 1.6252,4.47994 0.649609,1.5815 1.35709,3.1571 2.09765,4.72679 0.849216,1.80119 1.7256,3.59765 2.61143,5.39412l0.185434 0.37323 -0.168898 0.324804c-0.531498,1.01811 -1.09607,2.02206 -1.69253,3.00946 -0.591735,0.979138 -1.18347,1.95828 -1.77638,2.93623 -0.667325,1.09607 -1.28741,2.21576 -1.8945,3.34017 -0.740554,1.37008 -1.40434,2.77914 -2.05513,4.18821 -0.364962,0.792523 -0.685042,1.60512 -0.927169,2.44253 -0.22441,0.765357 -0.382679,1.5567 -0.414569,2.3693 -0.0295277,0.759452 0.0732286,1.64528 0.525593,2.40828 0.342521,0.579923 0.935437,0.956697 1.66418,1.22126 1.26024,0.459451 3.00237,0.543309 4.25907,0.543309 0.407482,0 0.812602,-0.0141733 1.20827,-0.055512 0.387403,-0.0389765 0.770082,-0.0921263 1.14213,-0.166536 0.308269,-0.0625987 0.614176,-0.131103 0.914177,-0.205513 0.585829,-1.70316 1.13622,-3.41812 1.65001,-5.1449 0.568112,-1.91694 1.18111,-3.8197 1.813,-5.71656 0.628349,-1.88268 1.35827,-3.72875 2.19686,-5.5323l1.3193 -2.83229 1.06772 3.26222c0.338978,1.03465 0.603546,2.07875 0.836224,3.1134 0.281103,1.24489 0.588191,2.49095 0.902366,3.73584 0.32008,1.26969 0.709845,2.53938 1.17166,3.80435 0.402757,1.10433 0.918901,2.20867 1.59331,3.27167 0.485435,0.764176 1.12323,1.52127 1.97954,2.09528 0.718113,0.481892 1.49056,0.669688 2.33151,0.669688 1.15276,0 2.17914,-0.263387 3.09096,-0.686223 1.00748,-0.467718 1.84135,-1.08189 2.49804,-1.8378 0.577561,-0.663782 0.980319,-1.41615 1.15985,-2.24883 -1.44095,-2.9445 -2.8819,-5.889 -4.29805,-8.83822 -1.52481,-3.17482 -3.08151,-6.34491 -4.65947,-9.51145l-0.18189 -0.364962 0.154725 -0.318899c0.89646,-1.84371 1.81536,-3.67679 2.77442,-5.49215 0.840948,-1.59213 1.66182,-3.19489 2.4567,-4.80711 0.722837,-1.46693 1.3819,-2.96222 1.9382,-4.49411 0.52323,-1.44449 0.914177,-2.93151 1.18937,-4.45159 -0.162993,-0.569294 -0.438191,-1.19646 -0.911815,-1.68898 -0.401576,-0.419293 -0.879925,-0.733467 -1.47284,-0.947248 -0.667325,-0.240946 -1.34646,-0.334253 -2.02087,-0.334253 -0.877562,0 -1.69607,0.162993 -2.44489,0.418112 -0.8752,0.29882 -1.63111,0.739373 -2.28308,1.25906 -0.689766,0.551577 -1.20827,1.20119 -1.58859,1.93229 -0.0708664,0.654333 -0.200788,1.31221 -0.335434,1.94883 -0.226773,1.06536 -0.479529,2.12481 -0.741735,3.18072 -0.300001,1.21063 -0.623624,2.41418 -0.961421,3.61301 -0.317718,1.13622 -0.64016,2.27363 -1.00276,3.39568 -0.270473,0.837405 -0.546852,1.69253 -0.898822,2.49922l-1.19056 2.72954 -1.18819 -3.10041c-0.265749,-0.694491 -0.477167,-1.40315 -0.666144,-2.10237 -0.253938,-0.933074 -0.472443,-1.86851 -0.689766,-2.80159 -0.240946,-1.03583 -0.470081,-2.07166 -0.698034,-3.10749 -0.214961,-0.986224 -0.435828,-1.97363 -0.65079,-2.96103 -0.172442,-0.793704 -0.348427,-1.58859 -0.537404,-2.38347 -0.101575,-0.432285 -0.211418,-0.888192 -0.361419,-1.3193 -0.226773,-0.651971 -0.592916,-1.45867 -1.18701,-2.01969 -0.429923,-0.408663 -0.946067,-0.754727 -1.5567,-0.950791 -0.662601,-0.21378 -1.32875,-0.311812 -1.99135,-0.304726 -0.946067,0.0118111 -1.85434,0.137008 -2.63387,0.465356 -0.783074,0.329529 -1.43859,0.770082 -1.97954,1.31339 -0.56575,0.568112 -1.05119,1.19056 -1.46103,1.84843z"/>
    <path id="_424015120" class="fil0" d="M158.566 233.743c0.0933074,-1.48938 0.165355,-2.98348 0.220867,-4.48112 0.0744097,-1.9878 0.128741,-3.97915 0.175985,-5.97168 0.0531498,-2.22639 0.0933074,-4.45514 0.131103,-6.68388 0.0366143,-2.26418 0.0685042,-4.52836 0.111024,-6.79136 0.0389765,-2.11064 0.111024,-5.18978 0.152363,-7.29924l0.0153544 -0.768901 0.982681 0c0.758271,0 1.51772,0 2.27245,-0.0118111 0.696853,-0.0118111 1.39489,-0.0271655 2.08702,-0.0602365 1.13977,-0.0543309 2.24647,-0.268111 3.0697,-0.806696 2.25355,-1.4752 3.12521,-5.17915 1.47284,-7.64767 -0.511419,-0.766538 -1.21536,-1.36772 -2.19332,-1.77993 -1.1693,-0.494884 -2.4508,-0.648428 -3.64726,-0.648428l-13.5686 0c-1.78111,0 -3.55513,0.022441 -5.33152,0.0377954 -1.14095,0.00944886 -2.28426,0.0129922 -3.42993,0.0129922 -0.657877,0 -1.31812,0 -1.97599,0 -0.265749,0 -0.539766,0.00236221 -0.81142,-0.00354332 -0.416931,1.6382 -0.745278,3.3319 -0.858665,5.0386 -0.230316,3.47245 1.71969,5.64569 6.49727,5.64569l3.68151 0 -0.0448821 1.19764c-0.033071,0.892917 -0.0614176,1.78583 -0.100394,2.67875 -0.0472443,1.07835 -0.11693,3.12757 -0.157087,4.20946 -0.0519687,1.4067 -0.103937,2.8134 -0.145276,4.22246 -0.0566931,1.89804 -0.114567,3.7949 -0.164174,5.69412 -0.0673231,2.52875 -0.109843,5.06104 -0.188977,7.58743 -0.0425198,1.33938 -0.0448821,2.68702 0.0248032,4.04293 0.0519687,1.00158 0.210237,2.07757 0.610632,3.08978 0.243308,0.611813 0.644884,1.18937 1.34056,1.60394 0.775987,0.464175 2.00906,0.525593 2.83466,0.514963 1.08189,-0.0118111 2.24056,-0.0850397 3.21852,-0.342521 0.715751,-0.186615 1.43268,-0.434647 2.01024,-0.787798 0.414569,-0.255119 0.859846,-0.552758 1.1693,-0.888192 0.184253,-0.198426 0.366143,-0.398033 0.538585,-0.603546z"/>
    <path id="_424015048" class="fil0" d="M57.853 191.199c0.118111,2.37993 0.190158,4.75514 0.214961,7.12326 0.0283466,2.78505 0.0200788,5.56538 -0.0259844,8.33861 -0.043701,2.72481 -0.118111,5.4449 -0.220867,8.16027 -0.0921263,2.46261 -0.232678,4.91577 -0.335434,7.37601 -0.0673231,1.60631 -0.0791342,3.22088 -0.108662,4.83191 -0.0236221,1.31339 0.00826775,2.65277 0.184253,3.99214 0.122835,0.933074 0.377954,1.94292 0.904728,2.85592 0.382679,0.663782 0.936618,1.20119 1.7315,1.60985 1.0193,0.524411 2.39056,0.726381 3.48308,0.809058 1.27796,0.0968508 2.55473,0.184253 3.82679,0.24567 1.10197,0.0531498 2.2004,0.0850397 3.29056,0.0850397 1.07126,0 2.13426,-0.0307088 3.18899,-0.0850397 1.18111,-0.0602365 2.35276,-0.147638 3.52088,-0.24567 7.02404,-0.584648 8.02444,-4.28742 6.46892,-9.4146 -4.97718,0.683861 -10.5815,1.07126 -15.9568,0 0.099213,-2.68347 -0.111024,-5.93034 0.420474,-8.49098 3.55395,-0.0236221 8.0894,-0.132284 11.6422,-0.153544 0.785436,-0.00590553 1.4256,-0.209056 1.94883,-0.592916 0.6189,-0.452364 1.03583,-1.02638 1.31457,-1.67245 0.308269,-0.718113 0.453545,-1.49056 0.457088,-2.29135 0.00472443,-0.740554 -0.114567,-1.50355 -0.421655,-2.25591 -0.218505,-0.531498 -0.553939,-1.05 -1.08662,-1.47166 -0.416931,-0.328348 -0.914177,-0.416931 -1.42796,-0.433466 -3.96498,-0.121654 -8.29846,0.359056 -12.378,-0.0129922l0.374411 -9.14767c3.1571,-0.252757 6.24687,-0.342521 9.51382,-0.183072 0.814964,0.0401576 1.62993,0.0850397 2.44253,0.111024 0.859846,0.0271655 1.58268,-0.167717 2.18032,-0.557482 2.37048,-1.54725 3.53623,-5.94569 1.3689,-8.51106 -2.79686,-0.295277 -23.2359,-0.153544 -26.5158,-0.0188977z"/>
    <path id="_424014952" class="fil0" d="M1.0689 193.157c0.0708664,0.711026 0.141733,1.42323 0.204331,2.13426 0.0744097,0.83268 0.121654,1.663 0.161812,2.49332 0.0460632,0.969689 0.0649609,1.9382 0.0708664,2.90316 0.00826775,1.30749 -0.0177166,2.61261 -0.0496065,3.91419 -0.0460632,1.85316 -0.11693,3.70041 -0.196064,5.54766 -0.111024,2.6008 -0.227954,5.19923 -0.350789,7.79885 -0.167717,3.55749 -0.340159,7.11381 -0.517325,10.6713 -0.0720475,1.44567 0.0165355,3.0319 0.553939,4.52364 0.331891,0.918901 0.878744,1.91103 1.84135,2.6197 0.839767,0.6189 1.82835,0.826775 2.83702,0.826775 1.21536,-0.00118111 2.25001,-0.335434 3.1323,-0.855121 1.10906,-0.649609 1.87796,-1.57796 2.4319,-2.58781 0.702759,-1.2815 0.987405,-2.75316 1.03701,-4.23072 0.033071,-0.983862 0.0200788,-1.98308 0.00708664,-2.97403 -0.0200788,-1.44804 -0.0531498,-2.89844 -0.100394,-4.3512 -0.0531498,-1.70434 -0.115748,-3.40986 -0.187796,-5.11656 -0.0755908,-1.76812 -0.152363,-3.53742 -0.230316,-5.30671 -0.0720475,-1.62757 -0.142914,-3.25513 -0.223229,-4.88388 -0.0625987,-1.28741 -0.132284,-2.57718 -0.199607,-3.86576l-0.043701 -0.851578c3.76773,0.100394 5.04333,17.8879 5.42601,22.1127 0.154725,1.70788 0.323623,3.41694 0.519687,5.12837 0.134646,1.17638 0.275198,2.38465 0.529136,3.56694 0.118111,0.557482 0.312993,1.11615 0.552758,1.66772 0.218505,0.498427 0.519687,0.962602 0.941342,1.39961 0.389765,0.40512 0.904728,0.686223 1.46693,0.903547 0.797247,0.30945 1.77875,0.389765 2.5819,0.393309 0.64016,0.00354332 1.25552,-0.129922 1.80591,-0.30945 0.713389,-0.233859 1.32756,-0.616538 1.85079,-1.04056 0.674412,-0.549215 1.18465,-1.2189 1.56851,-1.9382 0.498427,-0.927169 0.760633,-1.98426 0.892917,-3.0319 0.151182,-1.19882 0.301182,-2.39647 0.467718,-3.59175 0.21378,-1.51536 0.435828,-3.02954 0.659058,-4.54254 0.592916,-4.02403 1.7941,-19.467 5.93506,-20.3528l-0.0259844 0.858665c-0.0826775,2.84883 -0.204331,5.68939 -0.389765,8.51932 -0.168898,2.59371 -0.335434,5.18742 -0.527955,7.77759 -0.159449,2.1508 -0.304726,4.30395 -0.419293,6.46302 -0.0814964,1.52363 -0.0755908,3.04371 -0.0413387,4.58506 0.0153544,0.727562 0.0649609,1.45158 0.198426,2.19213 0.129922,0.726381 0.396852,1.44686 0.81142,2.14961 0.35197,0.595278 0.851578,1.07245 1.54843,1.46221 0.825594,0.461813 1.92757,0.574018 2.80985,0.57638 0.977957,0.00236221 1.88623,-0.147638 2.74135,-0.406301 0.857484,-0.258662 1.63701,-0.614176 2.30552,-1.08071 0.529136,-0.369686 0.963783,-0.805515 1.27441,-1.31575 -0.173623,-1.77402 -0.250395,-3.5445 -0.28819,-5.30317 -0.0460632,-2.15906 -0.0448821,-4.30986 -0.01063,-6.45593 0.0366143,-2.27717 0.0803153,-4.55317 0.148819,-6.82444 0.066142,-2.21221 0.129922,-4.42443 0.186615,-6.63664 0.0519687,-1.95237 0.099213,-3.90474 0.101575,-5.8642 0.00118111,-1.49056 -0.00826775,-3.00355 -0.137008,-4.51183 -0.101575,-1.19646 -0.409844,-2.45552 -1.10906,-3.62718 -0.524411,-0.877562 -1.23662,-1.69253 -2.20631,-2.34686 -0.872838,-0.58701 -1.81536,-0.975594 -2.86418,-1.18111 -1.14095,-0.22441 -2.24292,-0.199607 -3.27993,-0.00472443 -1.25788,0.233859 -2.35276,0.744097 -3.28466,1.3689 -1.18701,0.797247 -2.09174,1.83072 -2.7945,2.94332 -0.89646,1.41378 -1.43977,3.01182 -1.74331,4.64411 -0.28819,1.55788 -0.577561,3.11458 -0.876381,4.66773 -0.307088,1.58741 -0.611813,3.17245 -0.92835,4.75632 -0.297639,1.48229 -0.596459,2.9634 -0.904728,4.44451 -0.258662,1.23426 -0.52323,2.46851 -0.781893,3.70513 -0.180709,0.865751 -0.357875,1.73505 -0.551577,2.59725l-1.39371 6.19136 -1.07126 -6.61184c-0.148819,-0.914177 -0.232678,-1.83662 -0.311812,-2.74371 -0.121654,-1.3878 -0.227954,-2.7756 -0.333072,-4.16222 -0.125197,-1.64528 -0.255119,-3.29174 -0.396852,-4.93939 -0.146457,-1.67599 -0.301182,-3.35198 -0.487797,-5.03033 -0.161812,-1.46339 -0.363781,-2.93151 -0.623624,-4.4008 -0.173623,-0.976775 -0.377954,-2.05513 -0.742916,-3.03072 -0.35197,-0.93898 -0.925988,-1.96891 -1.90158,-2.70119 -0.861027,-0.646065 -1.83898,-1.07835 -2.92442,-1.31693 -1.29922,-0.287009 -2.60788,-0.382679 -3.87403,-0.347245 -1.43504,0.0425198 -2.83229,0.204331 -4.17758,0.460632 -1.30276,0.249214 -2.58308,0.549215 -3.80789,0.925988 -0.768901,0.236221 -1.55552,0.487797 -2.29135,0.779531z"/>
    <path id="_424014832" class="fil0" d="M93.8366 225.431c-3.06615,3.07088 -3.04371,10.1918 -2.72599,14.3316 0.0425198,0.562207 0.199607,1.29686 0.676774,1.81654 0.376773,0.409844 0.826775,0.694491 1.4067,0.882287 0.744097,0.240946 1.50945,0.353151 2.2571,0.377954 0.872838,0.0271655 1.7256,-0.0165355 2.55237,-0.126378 0.732286,-0.0956697 1.46457,-0.227954 2.14371,-0.421655 0.174804,-0.0496065 0.507876,-0.145276 0.755908,-0.24567 0.0531498,-0.558664 0.0803153,-1.12205 0.0850397,-1.6878 0.00472443,-0.772444 0.00826775,-1.54489 -0.0177166,-2.32088 -0.0200788,-0.627168 -0.0484254,-1.25552 -0.0838586,-1.88505 -0.0165355,-0.269292 -0.0519687,-0.585829 -0.0413387,-0.850397l0.0248032 -0.75709 0.972051 0c0.321261,0 0.642522,0 0.963783,0 0.842129,0 1.68072,-0.0129922 2.52284,-0.0129922 1.19056,0 2.38111,0 3.57167,0 1.36536,0 2.72954,0 4.09372,0 1.36654,0 2.73308,0.00590553 4.10198,0.0129922 1.19528,0.00590553 2.3941,0.022441 3.59175,0.0366143 0.856303,0.01063 1.71379,0.0129922 2.57245,0.0389765 0.722837,0.0200788 1.61694,-0.00118111 2.1567,0.614176l0.263387 0.29882 0.00236221 0.328348c0,0.251576 -0.0472443,0.538585 -0.066142,0.790161 -0.0425198,0.58701 -0.0838586,1.1752 -0.125197,1.76457 -0.0507876,0.694491 -0.099213,1.39016 -0.137008,2.0882 -0.0307088,0.55512 -0.0685042,1.11378 -0.0543309,1.67835 0.0259844,0.0425198 0.142914,0.119292 0.190158,0.150001 0.402757,0.262206 0.983862,0.451183 1.45158,0.57638 0.775987,0.207875 1.58505,0.302363 2.35985,0.34134 0.923626,0.0460632 1.81418,-0.0129922 2.66221,-0.177166 0.767719,-0.146457 1.56733,-0.388584 2.13426,-0.786617 0.473624,-0.333072 0.805515,-0.748822 1.0063,-1.24016 1.26024,-3.10749 0.752365,-10.1835 0.164174,-13.669 -0.112205,-0.663782 -0.230316,-1.33111 -0.367324,-1.99725 -0.152363,0.00236221 -0.304726,0.00354332 -0.457088,0.00590553 -0.558664,0.00708664 -1.11496,0.0188977 -1.67835,0.0129922 -0.594097,-0.00708664 -1.19056,-0.0248032 -1.79174,-0.066142l-1.26733 -0.0897641 -0.113386 -0.99213c-0.112205,-0.989768 -0.134646,-1.99843 -0.155906,-2.97875 -0.0342521,-1.56379 -0.0366143,-3.12521 -0.0283466,-4.68191 0.00826775,-1.963 0.0460632,-3.92364 0.0874019,-5.88073 0.0448821,-2.18741 0.108662,-4.3701 0.185434,-6.5516 0.0767719,-2.23584 0.166536,-4.46813 0.274017,-6.69924 0.088583,-1.85316 0.196064,-3.70277 0.315356,-5.5512 -0.484254,-0.140552 -0.994492,-0.249214 -1.44449,-0.335434 -1.18465,-0.225591 -2.38347,-0.375592 -3.56576,-0.487797 -1.38308,-0.133465 -2.75907,-0.220867 -4.12915,-0.268111 -1.37245,-0.0460632 -2.73544,-0.0543309 -4.09135,-0.0354332 -1.16693,0.0153544 -2.33269,0.0602365 -3.47364,0.157087 -1.79292,0.150001 -3.60828,0.455907 -5.126,1.08189 -1.3063,0.538585 -2.36812,1.26969 -3.18072,2.22402 -0.901185,1.05709 -1.513,2.2878 -1.9252,3.56694 -0.532679,1.65001 -0.856303,3.38978 -1.08544,5.126 -0.343702,2.61261 -0.649609,5.23585 -0.874019,7.8768 -0.20315,2.38347 -0.401576,4.77049 -0.590553,7.15751 -0.177166,2.26182 -0.414569,4.51301 -0.706302,6.75121l-0.0814964 0.624806 -0.799609 0.0602365c-0.990949,0.0744097 -1.99725,0.105119 -3.01418,0.0909452 -0.779531,-0.01063 -1.56379,-0.0377954 -2.34686,-0.0673231zm25.9052 -24.2021c-0.0295277,0.777168 -0.0696853,1.55079 -0.112205,2.3256 -0.0696853,1.29331 -0.145276,2.58544 -0.214961,3.87876 -0.088583,1.66182 -0.173623,3.32245 -0.257481,4.98427 -0.0944886,1.87796 -0.185434,3.7571 -0.259844,5.6386 -0.0779531,1.94765 -0.147638,3.9012 -0.217324,5.85002l-0.0614176 1.69961c-2.8193,-0.0696853 -5.55475,0.0342521 -8.34688,0.0685042l0.131103 -2.16024c0.099213,-1.6252 0.210237,-3.24923 0.265749,-4.88151 0.0578742,-1.72087 0.146457,-3.43702 0.240946,-5.15081 0.0909452,-1.65591 0.248032,-3.29883 0.483073,-4.92403 0.211418,-1.44095 0.543309,-2.863 1.06063,-4.21301 0.435828,-1.13859 1.08308,-2.22284 2.07166,-3.07442 0.942523,-0.809058 2.2004,-1.25552 3.73938,-1.23898l1.52363 0.0165355 -0.0460632 1.18111z"/>
    <path id="_424014808" class="fil0" d="M176.943 191.199c0.11693,2.37993 0.188977,4.75514 0.21378,7.12326 0.0283466,2.78505 0.0200788,5.56538 -0.0259844,8.33861 -0.0425198,2.72481 -0.118111,5.4449 -0.219686,8.16027 -0.0933074,2.46261 -0.233859,4.91577 -0.336615,7.37601 -0.0673231,1.60631 -0.0791342,3.22088 -0.108662,4.83191 -0.022441,1.31339 0.00826775,2.65277 0.184253,3.99214 0.122835,0.933074 0.377954,1.94292 0.904728,2.85592 0.382679,0.663782 0.936618,1.20119 1.7315,1.60985 1.0193,0.524411 2.39056,0.726381 3.48308,0.809058 1.27796,0.0968508 2.55592,0.184253 3.82797,0.24567 1.10079,0.0531498 2.19922,0.0850397 3.28938,0.0850397 1.07126,0 2.13426,-0.0307088 3.18899,-0.0850397 1.18111,-0.0602365 2.35395,-0.147638 3.52088,-0.24567 7.02404,-0.584648 8.02444,-4.28742 6.46892,-9.4146 -4.97718,0.683861 -10.5815,1.07126 -15.9568,0 0.099213,-2.68347 -0.111024,-5.93034 0.420474,-8.49098 3.55395,-0.0236221 8.0894,-0.132284 11.6422,-0.153544 0.785436,-0.00590553 1.4256,-0.209056 1.94883,-0.592916 0.6189,-0.452364 1.03583,-1.02638 1.31457,-1.67245 0.30945,-0.718113 0.453545,-1.49056 0.457088,-2.29135 0.00472443,-0.740554 -0.114567,-1.50355 -0.421655,-2.25591 -0.218505,-0.531498 -0.553939,-1.05 -1.08662,-1.47166 -0.416931,-0.328348 -0.914177,-0.416931 -1.42796,-0.433466 -3.96498,-0.121654 -8.29846,0.359056 -12.378,-0.0129922l0.374411 -9.14767c3.1571,-0.252757 6.24687,-0.342521 9.51382,-0.183072 0.814964,0.0401576 1.62993,0.0850397 2.44253,0.111024 0.859846,0.0271655 1.58268,-0.167717 2.18032,-0.557482 2.37048,-1.54725 3.53623,-5.94569 1.3689,-8.51106 -2.79686,-0.295277 -23.2359,-0.153544 -26.5147,-0.0188977z"/>
   </g>
   <path id="_424014568" class="fil1" d="M284.804 43.7376c1.39134,-0.60827 3.69332,-1.68426 4.0075,-2.25355 0.0590553,-0.689766 -1.34646,-7.90869 -1.58386,-9.1713 0.786617,-3.93663 -3.52206,-17.0068 0.85394,-19.2402 4.49647,-1.70316 9.58114,9.50437 11.2784,12.7642 3.68387,7.06892 7.54491,13.7351 12.006,20.3481 6.87522,10.1953 9.52563,13.4611 11.0835,26.1509 1.19882,9.76067 0.0838586,19.3359 -1.63583,28.9631 -2.08465,11.6717 -6.7642,22.5001 -11.7166,33.1891 -2.78977,6.03073 -6.51262,10.7882 -2.73544,17.4036 0.558664,0.974413 1.18701,1.97835 1.62284,2.89135 2.3882,4.99372 0.259844,8.3268 -5.23348,8.47799 -3.6449,0.101575 -7.57326,-1.12087 -11.0599,-2.08347 -9.0957,-2.5134 -12.3981,-1.97009 -21.8847,0.109843 -6.08624,1.33465 -12.1548,2.87836 -18.3674,3.50434 -7.56617,0.762995 -14.9386,-0.748822 -22.3997,-1.78111 -5.93034,-0.818507 -12.0095,-1.69961 -18.0072,-1.64764 -5.29018,0.0460632 -10.4197,0.844491 -15.5847,1.94883 -4.29096,0.916539 -8.55358,1.6689 -12.9438,1.86497 -8.66342,0.386222 -16.9489,-1.8756 -25.5261,-2.03032 -4.45514,-0.0803153 -8.78862,0.393309 -13.1894,1.05473 -6.38152,0.957878 -10.7859,0.675593 -17.1509,-0.715751 -6.8327,-1.4941 -9.67563,-1.46339 -16.539,0.69331 -2.33505,0.733467 -5.49097,1.17284 -7.00515,-1.30158 -1.54961,-2.53347 0.389765,-5.33624 2.13072,-7.13979 5.1449,-5.33506 15.9898,-8.83822 23.2725,-9.43114 0.895279,-0.0732286 1.99961,-0.190158 2.8004,-0.641341 1.29095,-0.726381 3.4323,-3.09922 4.57915,-4.16222 2.02678,-1.87796 4.35238,-2.33032 7.04058,-2.4508l2.33151 -0.103937c13.9335,-0.624806 28.0808,-1.33819 41.8206,-3.86222 14.1745,-2.60434 27.5281,-7.19176 40.8911,-12.5067 8.72602,-3.47127 17.5512,-5.96459 26.0186,-10.2449 7.00278,-3.53978 7.62523,-4.17167 11.4615,-10.878 1.29922,-2.27127 2.60788,-4.53899 3.8445,-6.8457 1.82717,-3.4134 3.68505,-7.56617 4.21655,-11.4248 0.53386,-3.87285 -0.35197,-6.96853 -1.02048,-10.7493 -1.16575,-6.59176 -1.87914,-13.2603 -3.15119,-19.832 -1.53662,-7.92995 -4.99136,-14.791 -5.80042,-23.3481 -0.28819,-3.05434 -0.0318899,-5.59136 1.38544,-6.48782 4.54962,-2.24765 9.1772,6.32365 11.2973,9.42405 2.20276,3.2197 5.83112,8.99059 8.59255,11.5453z"/>
   <path id="_424014424" class="fil2" d="M109.223 161.395c8.15082,-2.56182 11.5134,-2.18859 18.0367,-0.760633 6.90239,1.50827 10.5874,1.50709 16.0961,0.680318 5.5323,-0.831499 9.53744,-1.16221 13.6749,-1.08662 8.60791,0.154725 16.8001,2.413 25.343,2.03268 4.12797,-0.183072 8.01381,-0.852759 12.4642,-1.80355 6.45002,-1.37953 11.3599,-1.97009 16.1694,-2.01261 5.54057,-0.0484254 10.9489,0.631892 18.4324,1.67599 8.37759,1.14685 14.6634,2.47796 21.7064,1.76812 5.98821,-0.603546 11.8642,-2.09883 18.0343,-3.45238 12.3308,-2.70473 15.3331,-2.27127 23.2879,-0.0720475 2.18032,0.601183 6.84215,2.07284 10.2024,1.97954 3.34489,-0.0921263 4.1386,-1.25079 2.68111,-4.30159 -0.861027,-1.79883 -2.2193,-3.82561 -2.69292,-5.06104 -2.07284,-5.42364 -0.30945,-8.33507 2.55828,-15.0745 6.79727,-13.343 10.6843,-23.7143 12.7229,-35.1214 1.83662,-10.2756 2.71773,-19.102 1.61339,-28.0938 -1.52599,-12.4241 -4.01222,-15.0981 -10.6075,-24.8741 -2.19095,-3.24923 -4.08072,-6.23152 -5.83467,-9.1772 -3.85631,-6.47247 -7.33585,-15.2292 -11.2323,-20.902 -2.99529,-4.36419 -3.82088,-1.31693 -3.38978,2.5571 0.897641,8.10948 2.16143,13.1693 3.08269,20.5477 0.322442,2.58072 -2.13662,3.76537 -6.63664,5.72483 -0.829137,0.361419 -2.01969,-0.578742 -3.25277,-1.99607 -3.026,-3.48072 -5.52994,-7.85436 -8.11302,-12.0083 -0.989768,-1.59213 -4.60395,-8.5335 -7.03349,-7.33467 -1.13268,0.559845 -0.964964,2.61025 -0.429923,4.7823 1.80237,7.30042 4.78466,15.3001 6.08861,22.0383 1.27323,6.5764 1.98072,13.2095 3.16064,19.8792 0.904728,5.12364 1.62402,7.40672 1.03701,11.6563 -0.549215,3.99214 -2.39174,8.39885 -4.53545,12.4028 -1.24725,2.32796 -2.56773,4.61695 -3.88348,6.91774 -3.98978,6.97207 -4.83899,8.07168 -12.678,12.0331 -8.98586,4.54372 -21.0934,8.42602 -26.2572,10.3536 -26.8536,-0.253938 -42.599,0.762995 -57.703,14.7662 -5.66813,5.25593 -16.0843,1.1941 -25.956,1.80473l-2.33151 0.105119c-2.65867,0.118111 -4.0134,0.588191 -5.18742,1.67599 -4.27206,3.96025 -4.57325,5.19923 -9.12641,5.57128 -6.53152,0.530317 -16.793,3.75946 -21.4099,8.54767 -2.84883,2.95277 -2.60552,5.04687 1.89922,3.6319z"/>
   <path id="_424014256" class="fil1" d="M287.826 45.2541c-2.58781,1.52481 -4.24017,2.81103 -6.36617,4.63703 -1.13859,0.980319 -1.91339,0.760633 -1.10788,-0.752365 1.0004,-1.87205 2.46497,-3.65434 4.28033,-4.71144l3.19371 0.826775z"/>
   <path id="_424013512" class="fil1" d="M288.752 44.7722c3.82679,-1.88032 4.9512,-2.06339 8.95279,-2.92206 0.968508,-0.207875 1.40315,-0.621262 1.20591,-0.94961 -0.307088,-0.5126 -1.55906,-0.455907 -2.11654,-0.442915 -2.09056,0.0507876 -3.87285,0.231497 -6.02246,0.529136l-2.01969 3.78545z"/>
   <path id="_424013152" class="fil1" d="M266.995 104.6c-5.10593,9.07563 -5.35986,12.1004 -7.58979,22.1316 -0.524411,2.36103 -0.988586,3.62836 -1.32048,3.76419 -0.630711,0.2563 -1.44331,-1.71615 -0.706302,-9.77484 0.21378,-2.32796 1.49882,-7.35711 3.31537,-9.39098l2.69174 -2.80513 3.60946 -3.92482z"/>
   <path id="_424010704" class="fil1" d="M191.196 132.455c-13.6052,13.93 -28.1966,20.6091 -46.9018,16.3288 -21.8765,-5.00671 -37.5474,-20.0517 -43.5061,-43.0265 -2.31261,-8.91499 -2.98348,-18.4371 -2.07993,-27.7596 1.69725,-17.4993 8.07641,-34.3112 19.3855,-47.6718 9.95555,-11.7603 23.1887,-19.6524 37.2852,-23.9115 14.6717,-4.43269 30.6226,-4.87443 45.2943,-1.73859 51.8341,11.0823 67.2239,56.3542 61.3243,108.397l-0.158268 1.39843 -1.12441 0.784255c-21.2871,14.8666 -44.9069,21.9733 -69.5188,17.1993z"/>
   <path id="_424013680" class="fil0" d="M259.269 112.836c-21.1631,14.7804 -44.5478,21.6379 -68.8857,16.4611 -13.2142,13.9536 -27.0816,20.8276 -45.41,16.6323 -20.9729,-4.80002 -35.8501,-19.1316 -41.5336,-41.0482 -2.23229,-8.60673 -2.86064,-17.7863 -1.99725,-26.6966 1.70788,-17.615 8.19452,-33.5871 18.6627,-45.9545 9.53626,-11.263 22.2627,-18.8812 35.9293,-23.0103 13.8934,-4.19765 29.4119,-4.79884 43.9974,-1.68072 51.0427,10.9122 64.8794,55.525 59.2372,105.297z"/>
   <path id="_424013800" class="fil3" d="M228.193 21.7371c22.0678,16.1894 19.1717,38.621 16.5473,32.6659 -10.8437,-24.6001 -27.7607,-37.1399 -59.8089,-43.1836 -16.9749,-2.93859 20.0032,-6.54215 43.2616,10.5178z"/>
   <path id="_424011064" class="fil3" d="M187.187 74.4334c10.7894,7.92877 10.0902,20.0328 8.6894,16.9335 -5.78742,-12.8056 -14.0634,-18.9532 -29.2229,-21.1182 -8.02208,-1.0063 9.16185,-4.17049 20.5335,4.18466z"/>
   <path id="_424011712" class="fil3" d="M160.82 86.7771c5.05632,-0.516144 7.92168,2.31851 9.01893,7.08074 0.337797,1.46575 -0.914177,1.86261 -1.59331,0.398033 -1.7315,-3.73584 -3.60001,-5.22285 -7.50239,-6.23506 -1.25079,-0.325986 -0.895279,-1.14331 0.0767719,-1.24371z"/>
   <path id="_424004416" class="fil4" d="M162.692 108.928c1.45276,-0.00826775 2.81812,-0.263387 4.0949,-0.750003 1.27678,-0.494884 2.43426,-1.16575 3.47954,-2.01969 1.04528,-0.845673 1.94646,-1.82717 2.69765,-2.92088 0.758271,-1.0937 1.34056,-2.25119 1.74804,-3.47245 0.414569,-1.22126 0.614176,-2.44135 0.622443,-3.67088 0,-1.30158 -0.159449,-2.56182 -0.478348,-3.78309 -0.327167,-1.22126 -0.830318,-2.35395 -1.51772,-3.40749 -0.69331,-1.05355 -1.57087,-1.97954 -2.65631,-2.7697 -1.08544,-0.798428 -2.38702,-1.4126 -3.89529,-1.85906 -1.51654,-0.44764 -3.26458,-0.670869 -5.24293,-0.679136 -2.58662,0.00826775 -4.90159,0.327167 -6.93664,0.94961 -2.04331,0.622443 -3.81498,1.49292 -5.32325,2.61733 -1.50827,1.11733 -2.76143,2.43426 -3.7512,3.94253 -0.989768,1.50827 -1.7315,3.14529 -2.2193,4.92522 -0.493703,1.77875 -0.733467,3.63899 -0.733467,5.5701 0,1.97835 0.282285,3.80907 0.837405,5.49451 -0.238584,-0.294096 -0.472443,-0.59764 -0.695672,-0.90709 -2.50158,-3.47364 -3.92718,-7.8579 -3.76773,-12.3497 0.281103,-7.83901 3.61064,-14.5442 8.64216,-19.3016 5.26656,-4.97955 12.3957,-7.83428 19.8438,-7.63822 5.04096,0.132284 10.2378,1.37481 14.8961,3.46064 4.5638,2.04213 8.59491,4.89214 11.4319,8.29019 5.57128,6.66971 7.72562,15.7737 7.07247,24.8954 -0.572837,7.98901 -3.29529,15.9721 -7.76342,22.3406 -1.7752,2.53466 -0.708664,2.38229 0.973232,0.809058 6.5268,-6.70632 9.40161,-15.039 9.77957,-24.4135 0.375592,-9.33193 -2.04331,-18.5753 -7.82601,-25.5013 -3.12285,-3.73938 -7.52247,-6.85869 -12.4819,-9.07681 -4.9949,-2.23584 -10.5804,-3.56812 -16.0146,-3.71222 -8.22641,-0.216143 -16.0961,2.93269 -21.906,8.42484 -5.56183,5.26065 -9.24334,12.6662 -9.55397,21.3202 -0.184253,5.14844 1.4504,10.1729 4.31576,14.1508 5.00553,6.952 14.6564,10.2815 23.0316,8.44846 1.34882,-0.28819 2.47442,-0.679136 3.36852,-1.18111 0.892917,-0.503152 1.58032,-1.07835 2.05867,-1.72442 0.175985,-0.223229 0.302363,-0.478348 0.390946,-0.774806 0.0874019,-0.295277 0.103937,-0.590553 0.055512,-0.894098 -0.0389765,-0.302363 -0.183072,-0.574018 -0.414569,-0.812602 -0.223229,-0.248032 -0.574018,-0.422836 -1.03701,-0.535041 -0.414569,0.470081 -0.950791,0.909452 -1.60512,1.30867 -0.662601,0.406301 -1.4126,0.766538 -2.24292,1.07008 -0.837405,0.302363 -1.72323,0.542128 -2.66576,0.709845 -0.941342,0.174804 -1.89922,0.263387 -2.87245,0.263387 -1.8756,-0.00826775 -3.50316,-0.303544 -4.87679,-0.894098 -1.37245,-0.583467 -2.50513,-1.40434 -3.39923,-2.47442 -0.894098,-1.06063 -1.5567,-2.30552 -1.99607,-3.74293 -0.431104,-1.43741 -0.646065,-3.00828 -0.646065,-4.71734 0,-1.78701 0.191339,-3.47954 0.574018,-5.0764 0.38386,-1.60276 0.94961,-3.06379 1.69253,-4.38781 0.742916,-1.31693 1.65946,-2.46733 2.75316,-3.43348 1.08544,-0.973232 2.33032,-1.71497 3.74411,-2.25119 1.41142,-0.526774 2.97639,-0.790161 4.69136,-0.797247 1.78111,0.00708664 3.28938,0.263387 4.54254,0.766538 1.24489,0.503152 2.25001,1.213 3.01655,2.1378 0.773625,0.918901 1.33347,2.00434 1.69135,3.25749 0.35197,1.25197 0.526774,2.63387 0.519687,4.13387 0,1.20591 -0.152363,2.37875 -0.44764,3.51143 -0.295277,1.12559 -0.709845,2.14725 -1.24489,3.04844 -0.535041,0.902366 -1.16575,1.62048 -1.88387,2.1567 -0.718113,0.526774 -1.50827,0.797247 -2.36221,0.812602 -0.310631,0.00944886 -0.566931,-0.0625987 -0.780712,-0.206694 -0.216143,-0.144095 -0.360238,-0.399214 -0.424017,-0.766538 -0.0720475,-0.359056 -0.033071,-0.870476 0.103937,-1.51654l2.29843 -10.9182c-0.191339,-0.144095 -0.431104,-0.255119 -0.702759,-0.327167 -0.271655,-0.0720475 -0.566931,-0.103937 -0.877562,-0.103937 -0.335434,0 -0.679136,0.0484254 -1.01339,0.151182 -0.335434,0.103937 -0.647247,0.263387 -0.925988,0.479529 -0.279922,0.216143 -0.511419,0.503152 -0.694491,0.85394 -0.231497,-0.511419 -0.598821,-0.91772 -1.10079,-1.213 -0.494884,-0.302363 -1.1504,-0.454726 -1.963,-0.462994 -0.767719,0 -1.50119,0.167717 -2.21103,0.486616 -0.711026,0.327167 -1.40434,0.806696 -2.10001,1.42914 -0.813783,0.781893 -1.49292,1.69961 -2.04213,2.76143 -0.543309,1.06182 -0.959059,2.1945 -1.22953,3.38387 -0.278741,1.18937 -0.41575,2.36221 -0.41575,3.52679 -0.00708664,0.551577 0.0484254,1.14213 0.152363,1.78111 0.111024,0.62953 0.302363,1.23662 0.582286,1.80355 0.279922,0.574018 0.679136,1.03701 1.18937,1.40434 0.503152,0.367324 1.15748,0.551577 1.95473,0.566931 0.623624,-0.00826775 1.22245,-0.144095 1.80355,-0.422836 0.575199,-0.271655 1.12559,-0.655514 1.64528,-1.1504 0.526774,-0.493703 1.02166,-1.0689 1.48347,-1.7315 0.0248032,0.85394 0.191339,1.52481 0.486616,2.00316 0.303544,0.486616 0.695672,0.82205 1.16575,1.02284 0.471262,0.191339 0.974413,0.285828 1.50827,0.278741zm-6.22443 -3.78427c-0.462994,0 -0.837405,-0.174804 -1.13386,-0.517325 -0.287009,-0.343702 -0.439372,-0.846854 -0.446458,-1.49292 0,-0.85394 0.0874019,-1.74686 0.270473,-2.67403 0.184253,-0.925988 0.472443,-1.82835 0.862208,-2.713 0.400395,-0.887011 0.909452,-1.69253 1.54843,-2.41773 0.184253,-0.207875 0.399214,-0.407482 0.662601,-0.60827 0.2563,-0.191339 0.550396,-0.335434 0.88583,-0.438191 0.327167,-0.103937 0.687404,-0.135827 1.07717,-0.0791342 0.390946,0.055512 0.805515,0.223229 1.25315,0.50197l-1.77166 8.57247c-0.470081,0.582286 -0.974413,1.03701 -1.49292,1.36418 -0.526774,0.327167 -1.0937,0.494884 -1.71497,0.50197z"/>
   <path id="_424012696" class="fil1" d="M280.553 27.6403c2.70237,-1.98898 5.26774,-7.79412 9.48075,-5.94569l0.467718 0.205513 0.253938 0.444096c2.50749,4.39017 4.49057,10.7363 5.08112,15.9863 0.0307088,0.276379 0.0590553,0.549215 0.0814964,0.817326 0.140552,1.59922 0.578742,1.26497 1.20473,1.30867 0.354332,0.0248032 0.612994,0.275198 0.594097,0.364962 -0.0602365,0.301182 -2.01379,0.154725 -2.20513,0.431104 -0.258662,0.374411 -0.663782,0.705121 -1.26497,0.920082 -2.94568,1.05 -7.7894,2.71891 -10.9583,4.00868 -1.03229,-1.93938 -12.3225,-17.0741 -11.4319,-17.7615 2.39056,-1.85316 4.85671,-1.24489 8.69649,-0.779531z"/>
   <path id="_424011904" class="fil3" d="M274.04 29.1166c1.15985,-0.692129 2.3882,-0.790161 4.0382,-0.662601 0.548034,0.0413387 6.16302,0.68268 6.23506,0.628349 0.157087,-0.120473 -2.51576,-0.935437 -2.36103,-1.07126 2.32914,-2.04686 4.58151,-5.74136 7.37483,-4.51655 3.2634,5.71538 5.16026,11.8571 5.47561,15.9556 0.0259844,0.340159 -0.360238,1.23662 -1.29686,1.4067 -4.15868,1.14804 -6.48073,1.83544 -9.31067,3.84096 -1.58977,-1.82481 -6.23979,-8.35043 -10.1552,-15.5812z"/>
   <path id="_424011424" class="fil0" d="M286.671 30.1678l2.64922 -1.19646 1.04764 2.84292 2.30906 -1.1315c0.29882,0.806696 0.56575,1.59922 0.804334,2.37284l-2.23347 1.02402 1.30394 3.09804 -2.48032 1.34646 -1.26378 -3.27993 -2.8193 1.52717 -1.07953 -2.40946 2.90198 -1.33583 -1.13977 -2.85828z"/>
   <path id="_424011472" class="fil1" d="M292.038 76.4838c8.85712,1.34764 15.6438,-0.494884 22.4351,-5.30081 0.408663,-0.28819 0.20315,-0.604727 -0.0377954,-0.929531 -0.947248,-1.27323 0.49134,-1.79056 1.45867,-0.740554 0.439372,0.477167 0.835043,1.1693 1.04646,1.80473 0.429923,1.29804 -0.265749,2.68466 -1.15985,0.546852 -0.29882,-0.713389 -0.656695,-0.379135 -0.781893,1.0063 -1.5756,24.7962 -18.3556,8.1709 -22.8639,4.69844 -1.87087,-1.43977 0.336615,1.4563 -0.833861,1.28268 -2.22757,-0.331891 -2.86537,-4.43506 -0.571656,-4.30868 2.0315,0.113386 -0.780712,1.62284 1.30867,1.94056z"/>
   <path id="_424012336" class="fil0" d="M300.528 81.0712c0.204331,-0.838586 0.773625,-1.39016 1.55906,-1.6878 2.69292,-1.02284 5.36223,0.335434 6.90357,2.6941 0.0484254,-1.59686 -0.654333,-2.57127 -2.46969,-3.05552 0.881106,-2.26773 3.64371,-1.11851 5.34569,0.250395 0.946067,0.762995 0.747641,1.37717 0.406301,2.27836 -0.592916,1.56615 -1.77638,2.40355 -3.26694,2.96812 -2.68466,1.01575 -5.03152,0.179528 -7.31105,-1.22953 -1.14331,-0.706302 -1.50001,-0.846854 -1.16693,-2.21812z"/>
   <path id="_424012648" class="fil3" d="M290.379 58.1861c3.57521,-5.62207 6.79255,-0.441734 7.49058,0.7252 2.04213,3.42049 4.16931,8.33035 1.20237,9.43232 -2.56182,0.950791 -8.0835,0.186615 -9.99335,-1.93465 -1.54843,-1.71969 -1.17048,-4.34529 1.3004,-8.22287z"/>
   <path id="_424013392" class="fil5" d="M291.537 60.3191c1.82127,-0.438191 3.65907,0.70394 4.10317,2.55237 0.444096,1.84961 -0.674412,3.70159 -2.4945,4.1386 -1.82127,0.438191 -3.65789,-0.70394 -4.10317,-2.55237 -0.444096,-1.84843 0.673231,-3.70041 2.4945,-4.1386z"/>
   <path id="_424012000" class="fil3" d="M300.673 58.1081c0.321261,3.92954 1.38426,8.88547 4.36891,8.11893 2.64686,-0.680318 6.7453,-4.4575 7.10436,-7.28861 0.229135,-1.80355 -0.838586,-3.3886 -3.35907,-4.84372 -6.60593,-3.82679 -8.44728,-0.0578742 -8.1142,4.0134z"/>
   <path id="_424010584" class="fil6" d="M291.214 61.5357c1.1504,-0.276379 2.31143,0.444096 2.59135,1.61221 0.281103,1.16811 -0.424017,2.33859 -1.5756,2.61615 -1.1504,0.275198 -2.31143,-0.446458 -2.59135,-1.61339 -0.281103,-1.16811 0.425198,-2.33859 1.5756,-2.61497z"/>
   <path id="_424013320" class="fil5" d="M304.006 56.1404c1.82127,-0.438191 3.65789,0.70394 4.10317,2.55237 0.444096,1.84843 -0.673231,3.70159 -2.4945,4.1386 -1.82127,0.438191 -3.65789,-0.70394 -4.10317,-2.55355 -0.444096,-1.84725 0.673231,-3.70041 2.4945,-4.13742z"/>
   <path id="_424012792" class="fil6" d="M303.683 57.3569c1.1504,-0.27756 2.31025,0.444096 2.59135,1.61221 0.281103,1.16811 -0.425198,2.33859 -1.5756,2.61497 -1.1504,0.276379 -2.31143,-0.445277 -2.59253,-1.61339 -0.279922,-1.16693 0.42638,-2.33859 1.57678,-2.61379z"/>
   <path id="_424010464" class="fil1" d="M284.734 60.7479c0.186615,-2.79096 0.609451,-4.69608 1.12087,-5.94333 1.46339,-3.56931 4.25435,-1.93465 2.99765,0.745278 -1.04056,2.22875 -1.88268,3.11576 -2.44253,5.18033 -0.644884,2.38111 -1.85198,2.64922 -1.67599,0.0177166z"/>
   <path id="_424004656" class="fil1" d="M310.417 51.2341c-1.84489,-2.10355 -3.33781,-3.35907 -4.5012,-4.03939 -3.3319,-1.94528 -4.55553,1.04764 -1.92993,2.41418 2.1815,1.13741 3.3886,1.32993 5.08821,2.63033 1.95946,1.49882 3.08033,0.979138 1.34292,-1.00512z"/>
  </g>
 </g>
</svg>
