<?xml version="1.0" encoding="UTF-8"?>
<!DOCTYPE svg PUBLIC "-//W3C//DTD SVG 1.1//EN" "http://www.w3.org/Graphics/SVG/1.1/DTD/svg11.dtd">
<!-- Creator: CorelDRAW -->
<svg xmlns="http://www.w3.org/2000/svg" xml:space="preserve" width="67px" height="67px" style="shape-rendering:geometricPrecision; text-rendering:geometricPrecision; image-rendering:optimizeQuality; fill-rule:evenodd; clip-rule:evenodd"
viewBox="0 0 67 67"
 xmlns:xlink="http://www.w3.org/1999/xlink">
 <defs>
  <style type="text/css">
   <![CDATA[
    .fil0 {fill:#434242}
   ]]>
  </style>
 </defs>
 <g id="Слой_x0020_1">
  <metadata id="CorelCorpID_0Corel-Layer"/>
  <path class="fil0" d="M53.9026 41.8174l-0.0826781 0c-2.27719,0 -4.12564,1.84727 -4.12564,4.12446l0 10.4588c0,1.15041 -0.93072,2.08231 -2.08231,2.08231l-29.1618 0c-1.15041,0 -2.08349,-0.931901 -2.08349,-2.08231l0 -10.4588c0,-2.27719 -1.84608,-4.12446 -4.12564,-4.12446l-0.0826781 0c-2.27719,0 -4.12328,1.84727 -4.12328,4.12446l0 16.7506c0,2.27601 1.84608,4.12446 4.12328,4.12446l4.20832 0 33.3276 0 4.20832 0c2.27719,0 4.12328,-1.84845 4.12328,-4.12446l0 -16.7506c0,-2.27719 -1.84608,-4.12446 -4.12328,-4.12446zm2.66696 -18.3168l-0.188979 0.192522c-0.940169,0.938987 -2.18743,1.45632 -3.51736,1.45632 -1.32876,0 -2.5772,-0.517329 -3.51855,-1.45632l-0.68741 -0.689772 -5.89023 -5.89023c-0.344886,-0.346067 -0.914184,-0.31772 -1.22482,0.0637803l-5.24534 6.46897c-0.774812,0.955523 -1.9205,1.50356 -3.13941,1.50356l-0.251578 0c-1.22009,0 -2.36459,-0.548038 -3.13941,-1.50356l-5.14967 -6.34968c-0.36024,-0.442919 -1.02757,-0.478352 -1.43388,-0.0744103l-5.7792 5.78156 -0.68741 0.689772c-0.938987,0.938987 -2.18743,1.45632 -3.51618,1.45632 -1.32876,0 -2.57956,-0.517329 -3.51855,-1.45632l-0.19016 -0.192522c-1.94176,-1.94294 -1.94176,-5.09061 0,-7.03473l6.52567 -6.52685c1.23663,-1.23781 2.70948,-1.42206 3.47839,-1.42206 0.133466,0 0.904735,-0.0448824 1.0382,-0.0354335l8.33159 0 4.0406 0 0.251578 0 4.03942 0 8.33159 0c0.134647,-0.00944893 0.903554,0.0354335 1.03938,0.0354335 0.766544,0 2.2394,0.184254 3.47721,1.42206l6.52449 6.52685c1.94412,1.94412 1.94412,5.09179 0,7.03473zm5.89259 -12.9261l-6.52567 -6.52803c-2.58901,-2.58901 -5.97763,-3.86225 -9.36861,-3.86225 -0.348429,0 -0.694496,0.0118112 -1.03938,0.040158l0 -0.0755914 -12.371 0 -0.251578 0 -12.3722 0 0 0.0755914c-0.346067,-0.0283468 -0.692134,-0.040158 -1.0382,-0.040158 -3.39335,0 -6.77843,1.27324 -9.36861,3.86225l-6.52685 6.52803c-5.19573,5.19573 -5.19573,13.6218 0,18.8211l0.188979 0.188979c2.60082,2.59727 6.00479,3.89768 9.41113,3.89768 3.40398,0 6.81032,-1.30041 9.40877,-3.89768l0.68741 -0.68741c2.26892,2.7957 5.72841,4.58509 9.60956,4.58509l0.251578 0c3.88115,0 7.33946,-1.78939 9.60838,-4.58509l0.689772 0.68741c2.59727,2.59727 6.00125,3.89768 9.40759,3.89768 3.40398,0 6.81032,-1.30041 9.40877,-3.89768l0.19016 -0.188979c5.19691,-5.19927 5.19691,-13.6254 0,-18.8211z"/>
 </g>
</svg>
