<?xml version="1.0" encoding="UTF-8"?>
<!DOCTYPE svg PUBLIC "-//W3C//DTD SVG 1.1//EN" "http://www.w3.org/Graphics/SVG/1.1/DTD/svg11.dtd">
<!-- Creator: CorelDRAW -->
<svg xmlns="http://www.w3.org/2000/svg" xml:space="preserve" width="45px" height="45px" style="shape-rendering:geometricPrecision; text-rendering:geometricPrecision; image-rendering:optimizeQuality; fill-rule:evenodd; clip-rule:evenodd"
viewBox="0 0 45 45"
 xmlns:xlink="http://www.w3.org/1999/xlink">
 <defs>
  <style type="text/css">
   <![CDATA[
    .fil0 {fill:#fff}
   ]]>
  </style>
 </defs>
 <g id="Слой_x0020_1">
  <metadata id="CorelCorpID_0Corel-Layer"/>
  <path class="fil0" d="M5.95039 5.55472c-7.56614,7.56732 -7.56732,19.8366 0,27.4039 6.9874,6.98622 17.9799,7.52126 25.5803,1.60748l3.50551 3.50433 1.3252 1.32638 3.84685 3.84685c0.936614,0.935433 2.45551,0.936614 3.39213,0l0.0330709 -0.034252c0.936614,-0.935433 0.936614,-2.45551 0,-3.39213l-2.15197 -2.15197 0.00472441 -0.00472441 -0.524409 -0.523228 -3.66732 -3.66732 -0.523228 -0.524409 -0.00472441 0.00472441 -1.80945 -1.80945c5.9185,-7.60157 5.38465,-18.5976 -1.60394,-25.585 -7.56614,-7.5685 -19.8366,-7.56732 -27.4028,-0.0011811zm23.9787 23.9776c-5.66811,5.66693 -14.8866,5.66693 -20.5524,0.0011811 -5.66693,-5.66693 -5.66693,-14.8866 0,-20.5535 5.66575,-5.66575 14.8843,-5.66575 20.5524,0.0011811 5.66457,5.66575 5.66457,14.8854 0,20.5512z"/>
 </g>
</svg>
