<?xml version="1.0" encoding="UTF-8"?>
<!DOCTYPE svg PUBLIC "-//W3C//DTD SVG 1.1//EN" "http://www.w3.org/Graphics/SVG/1.1/DTD/svg11.dtd">
<!-- Creator: CorelDRAW -->
<svg xmlns="http://www.w3.org/2000/svg" xml:space="preserve" width="230px" height="270px" style="shape-rendering:geometricPrecision; text-rendering:geometricPrecision; image-rendering:optimizeQuality; fill-rule:evenodd; clip-rule:evenodd"
viewBox="0 0 230 270.002"
 xmlns:xlink="http://www.w3.org/1999/xlink">
 <defs>
  <style type="text/css">
   <![CDATA[
    .fil0 {fill:#FEFEFE}
   ]]>
  </style>
 </defs>
 <g id="Слой_x0020_1">
  <metadata id="CorelCorpID_0Corel-Layer"/>
  <g id="_431716672">
   <path id="_431705416" class="fil0" d="M221.691 230.266l-167.503 36.0758c-4.49294,0.967329 -8.92211,-1.89214 -9.88944,-6.38508l-41.9082 -194.583c-0.967329,-4.4894 1.89214,-8.92093 6.38508,-9.88944l167.503 -36.0758c4.49294,-0.967329 8.92211,1.89214 9.88944,6.38508l41.9082 194.583c0.967329,4.49294 -1.89214,8.92093 -6.38508,9.88944zm-162.87 18.0521l151.229 -32.5703 -38.4038 -178.313 -151.229 32.5715 38.4038 178.312z"/>
   <path id="_431709016" class="fil0" d="M125.793 191.876c-30.0345,6.46894 -59.7276,-12.6981 -66.1942,-42.7208 -6.4654,-30.0356 12.7017,-59.7264 42.7373,-66.1953 30.0226,-6.4654 59.7122,12.7017 66.1812,42.7373 6.46894,30.0215 -12.7017,59.7122 -42.7243,66.1788zm-19.9525 -92.6451c-21.0627,4.53665 -34.5038,25.3573 -29.9683,46.4188 4.53546,21.0557 25.3549,34.492 46.4165,29.9553 21.0498,-4.5331 34.4931,-25.349 29.9577,-46.4035 -4.53546,-21.0627 -25.3573,-34.5038 -46.4058,-29.9707z"/>
   <path id="_431716648" class="fil0" d="M119.856 164.931l-0.00944888 0.00236222c-1.7693,0.377955 -3.59648,-0.129922 -4.92405,-1.35001l-31.8805 -29.4817c-2.25356,-2.0823 -2.39175,-5.59492 -0.302364,-7.84494 2.06576,-2.24293 5.58193,-2.3823 7.83667,-0.307089l26.1073 24.1513 14.0706 -32.8301c1.22363,-2.82167 4.47877,-4.11145 7.28863,-2.91144 2.82167,1.20709 4.12208,4.46932 2.92089,7.28627l-17.1686 40.0491c-0.709847,1.65001 -2.18033,2.85711 -3.939,3.23624z"/>
   <path id="_431711416" class="fil0" d="M156.231 34.2581c-4.49294,0.967329 -8.92211,-1.89214 -9.88944,-6.38508l-1.3004 -6.03547 -41.9849 9.0414c-4.49294,0.968511 -8.92211,-1.8945 -9.88944,-6.3839l-1.77875 -8.27604c0.0803155,0.37205 -1.35946,-0.0224411 -3.34018,0.40394 0,0 0,0 -0.0118111,0.00236222 -1.99962,0.431105 -3.10986,1.35237 -3.28349,1.6382l1.85789 7.64415c0.967329,4.4894 -1.8945,8.92211 -6.3839,9.88826l-41.9755 9.0414 1.3004 6.03666c0.967329,4.49176 -1.89214,8.92093 -6.38508,9.88826 -4.4894,0.967329 -8.91857,-1.89214 -9.88589,-6.38508l-3.05317 -14.1733c-0.967329,-4.49176 1.89214,-8.92093 6.38154,-9.88826l41.946 -9.17841c-1.93348,-9.69455 4.81066,-18.3769 15.9887,-20.7852l0.0129922 -0.00236222c11.1757,-2.40356 20.8761,2.74726 23.0765,12.2458l0.0555122 0.257482 41.9849 -9.04258c4.4894,-0.966148 8.92211,1.89214 9.88944,6.38508l3.05199 14.1733c0.968511,4.49294 -1.8945,8.92211 -6.3839,9.88944z"/>
  </g>
 </g>
</svg>
