<?xml version="1.0" encoding="UTF-8"?>
<!DOCTYPE svg PUBLIC "-//W3C//DTD SVG 1.1//EN" "http://www.w3.org/Graphics/SVG/1.1/DTD/svg11.dtd">
<!-- Creator: CorelDRAW -->
<svg xmlns="http://www.w3.org/2000/svg" xml:space="preserve" width="85px" height="85px" style="shape-rendering:geometricPrecision; text-rendering:geometricPrecision; image-rendering:optimizeQuality; fill-rule:evenodd; clip-rule:evenodd"
viewBox="0 0 85 85"
 xmlns:xlink="http://www.w3.org/1999/xlink">
 <defs>
  <style type="text/css">
   <![CDATA[
    .fil0 {fill:#FEFEFE}
   ]]>
  </style>
 </defs>
 <g id="Слой_x0020_1">
  <metadata id="CorelCorpID_0Corel-Layer"/>
  <path class="fil0" d="M65.5624 68.8684c-4.31815,0 -7.81779,3.50082 -7.81779,7.82251 0,4.31933 3.49964,7.82133 7.81779,7.82133 4.31815,0 7.82015,-3.502 7.82015,-7.82133 0,-4.32169 -3.502,-7.82251 -7.82015,-7.82251zm-41.6992 0c-4.31815,0 -7.82015,3.50082 -7.82015,7.82251 0,4.31933 3.502,7.82133 7.82015,7.82133 4.31697,0 7.81897,-3.502 7.81897,-7.82133 0,-4.32169 -3.502,-7.82251 -7.81897,-7.82251zm-2.6079 -57.3643l51.4304 0 -4.94178 20.8608 -46.4886 0 0 -20.8608zm48.5485 31.2901c3.62484,0 6.77487,-2.48979 7.60873,-6.01777l6.15596 -25.9809c1.23663,-4.93823 -2.49805,-9.72056 -7.58511,-9.72056l-59.9403 0 -5.21225 0 -5.21343 0c-2.87955,0 -5.21225,2.33624 -5.21225,5.2158 0,2.87837 2.3327,5.21343 5.21225,5.21343l5.21343 0 0 31.2901 0 13.0371c0,4.32051 3.49964,7.82251 7.81661,7.82251l2.6079 0 52.1273 0c2.88074,0 5.21107,-2.33742 5.21107,-5.2158 0,-2.87837 -2.33034,-5.21462 -5.21107,-5.21462l-52.1273 0 0 -10.4292 48.5485 0z"/>
 </g>
</svg>
